M48
; DRILL file {KiCad 7.0.8} date Wed Dec 27 11:09:18 2023
; FORMAT={-:-/ absolute / metric / decimal}
; #@! TF.CreationDate,2023-12-27T11:09:18+01:00
; #@! TF.GenerationSoftware,Kicad,Pcbnew,7.0.8
; #@! TF.FileFunction,Plated,1,6,PTH
FMAT,2
METRIC
; #@! TA.AperFunction,Plated,PTH,ViaDrill
T1C0.300
; #@! TA.AperFunction,Plated,PTH,ViaDrill
T2C0.400
; #@! TA.AperFunction,Plated,PTH,ComponentDrill
T3C0.650
%
G90
G05
T1
X97.475Y-105.258
X97.9Y-109.3
X99.0Y-98.9
X99.0Y-100.69
X99.349Y-102.8
X99.65Y-101.71
X99.923Y-109.721
X100.9Y-109.637
X101.5Y-105.7
X101.5Y-107.5
X102.124Y-103.501
X102.6Y-98.7
X105.475Y-100.65
X105.491Y-102.054
X107.925Y-100.65
X108.1Y-105.6
X108.1Y-106.61
X108.2Y-103.1
X109.2Y-108.0
X110.7Y-104.4
X112.0Y-102.275
X112.0Y-103.6
X113.75Y-97.75
X113.75Y-103.75
X113.75Y-105.25
X115.4Y-108.7
X115.895Y-103.355
X116.5Y-101.66
X118.25Y-97.75
X118.375Y-104.72
X118.375Y-106.92
X118.375Y-108.02
X122.36Y-105.05
X125.0Y-100.2
X126.25Y-101.25
X127.2Y-99.2
X129.75Y-106.75
X129.75Y-108.25
X133.199Y-103.801
X133.801Y-103.199
X137.5Y-103.925
X142.8Y-103.8
X143.0Y-105.212
X143.0Y-108.5
T2
X100.4Y-98.9
X110.7Y-108.2
X111.8Y-108.8
X135.9Y-98.3
X140.3Y-98.5
X143.2Y-101.6
T3
X95.5Y-98.5
X95.5Y-99.77
X95.5Y-101.04
X95.5Y-102.31
X95.5Y-103.58
X95.5Y-104.85
X95.5Y-106.12
X95.5Y-107.39
X95.5Y-108.66
X95.5Y-109.93
T0
M30
