%TF.GenerationSoftware,KiCad,Pcbnew,7.0.8*%
%TF.CreationDate,2023-12-27T11:07:12+01:00*%
%TF.ProjectId,Frost-ESP32,46726f73-742d-4455-9350-33322e6b6963,rev?*%
%TF.SameCoordinates,Original*%
%TF.FileFunction,Paste,Top*%
%TF.FilePolarity,Positive*%
%FSLAX46Y46*%
G04 Gerber Fmt 4.6, Leading zero omitted, Abs format (unit mm)*
G04 Created by KiCad (PCBNEW 7.0.8) date 2023-12-27 11:07:12*
%MOMM*%
%LPD*%
G01*
G04 APERTURE LIST*
G04 Aperture macros list*
%AMRoundRect*
0 Rectangle with rounded corners*
0 $1 Rounding radius*
0 $2 $3 $4 $5 $6 $7 $8 $9 X,Y pos of 4 corners*
0 Add a 4 corners polygon primitive as box body*
4,1,4,$2,$3,$4,$5,$6,$7,$8,$9,$2,$3,0*
0 Add four circle primitives for the rounded corners*
1,1,$1+$1,$2,$3*
1,1,$1+$1,$4,$5*
1,1,$1+$1,$6,$7*
1,1,$1+$1,$8,$9*
0 Add four rect primitives between the rounded corners*
20,1,$1+$1,$2,$3,$4,$5,0*
20,1,$1+$1,$4,$5,$6,$7,0*
20,1,$1+$1,$6,$7,$8,$9,0*
20,1,$1+$1,$8,$9,$2,$3,0*%
G04 Aperture macros list end*
%ADD10C,0.010000*%
%ADD11RoundRect,0.135000X0.185000X-0.135000X0.185000X0.135000X-0.185000X0.135000X-0.185000X-0.135000X0*%
%ADD12RoundRect,0.135000X0.135000X0.185000X-0.135000X0.185000X-0.135000X-0.185000X0.135000X-0.185000X0*%
%ADD13RoundRect,0.250000X-0.300000X0.300000X-0.300000X-0.300000X0.300000X-0.300000X0.300000X0.300000X0*%
%ADD14RoundRect,0.140000X0.140000X0.170000X-0.140000X0.170000X-0.140000X-0.170000X0.140000X-0.170000X0*%
%ADD15RoundRect,0.218750X-0.256250X0.218750X-0.256250X-0.218750X0.256250X-0.218750X0.256250X0.218750X0*%
%ADD16RoundRect,0.135000X-0.185000X0.135000X-0.185000X-0.135000X0.185000X-0.135000X0.185000X0.135000X0*%
%ADD17RoundRect,0.218750X0.218750X0.256250X-0.218750X0.256250X-0.218750X-0.256250X0.218750X-0.256250X0*%
%ADD18RoundRect,0.140000X-0.170000X0.140000X-0.170000X-0.140000X0.170000X-0.140000X0.170000X0.140000X0*%
%ADD19R,0.600000X1.800000*%
%ADD20R,1.300000X0.900000*%
%ADD21R,1.500000X0.900000*%
%ADD22R,0.700000X0.700000*%
%ADD23RoundRect,0.250000X0.300000X0.300000X-0.300000X0.300000X-0.300000X-0.300000X0.300000X-0.300000X0*%
G04 APERTURE END LIST*
%TO.C,S1*%
D10*
X108224840Y-99758963D02*
X108225190Y-99776894D01*
X108226420Y-99794781D01*
X108228520Y-99812588D01*
X108229910Y-99821447D01*
X108229900Y-99821456D01*
X108230720Y-99830472D01*
X108233030Y-99848422D01*
X108236220Y-99866237D01*
X108240300Y-99883872D01*
X108242660Y-99892609D01*
X108245070Y-99903463D01*
X108250700Y-99924975D01*
X108257390Y-99946184D01*
X108265120Y-99967041D01*
X108269370Y-99977316D01*
X108272470Y-99985541D01*
X108279320Y-100001725D01*
X108286990Y-100017537D01*
X108295470Y-100032934D01*
X108300010Y-100040463D01*
X108300000Y-100050000D01*
X108300000Y-101550000D01*
X107550000Y-101550000D01*
X107550000Y-99750000D01*
X108225000Y-99750000D01*
X108224840Y-99758963D01*
G36*
X108224840Y-99758963D02*
G01*
X108225190Y-99776894D01*
X108226420Y-99794781D01*
X108228520Y-99812588D01*
X108229910Y-99821447D01*
X108229900Y-99821456D01*
X108230720Y-99830472D01*
X108233030Y-99848422D01*
X108236220Y-99866237D01*
X108240300Y-99883872D01*
X108242660Y-99892609D01*
X108245070Y-99903463D01*
X108250700Y-99924975D01*
X108257390Y-99946184D01*
X108265120Y-99967041D01*
X108269370Y-99977316D01*
X108272470Y-99985541D01*
X108279320Y-100001725D01*
X108286990Y-100017537D01*
X108295470Y-100032934D01*
X108300010Y-100040463D01*
X108300000Y-100050000D01*
X108300000Y-101550000D01*
X107550000Y-101550000D01*
X107550000Y-99750000D01*
X108225000Y-99750000D01*
X108224840Y-99758963D01*
G37*
X105850000Y-101550000D02*
X105100000Y-101550000D01*
X105100000Y-100050000D01*
X105099990Y-100040463D01*
X105104530Y-100032934D01*
X105113010Y-100017537D01*
X105120680Y-100001725D01*
X105127530Y-99985541D01*
X105130630Y-99977316D01*
X105134880Y-99967041D01*
X105142610Y-99946184D01*
X105149300Y-99924975D01*
X105154930Y-99903463D01*
X105157340Y-99892609D01*
X105159700Y-99883872D01*
X105163780Y-99866237D01*
X105166970Y-99848422D01*
X105169280Y-99830472D01*
X105170100Y-99821456D01*
X105170090Y-99821447D01*
X105171480Y-99812588D01*
X105173580Y-99794781D01*
X105174810Y-99776894D01*
X105175160Y-99758963D01*
X105175000Y-99750000D01*
X105850000Y-99750000D01*
X105850000Y-101550000D01*
G36*
X105850000Y-101550000D02*
G01*
X105100000Y-101550000D01*
X105100000Y-100050000D01*
X105099990Y-100040463D01*
X105104530Y-100032934D01*
X105113010Y-100017537D01*
X105120680Y-100001725D01*
X105127530Y-99985541D01*
X105130630Y-99977316D01*
X105134880Y-99967041D01*
X105142610Y-99946184D01*
X105149300Y-99924975D01*
X105154930Y-99903463D01*
X105157340Y-99892609D01*
X105159700Y-99883872D01*
X105163780Y-99866237D01*
X105166970Y-99848422D01*
X105169280Y-99830472D01*
X105170100Y-99821456D01*
X105170090Y-99821447D01*
X105171480Y-99812588D01*
X105173580Y-99794781D01*
X105174810Y-99776894D01*
X105175160Y-99758963D01*
X105175000Y-99750000D01*
X105850000Y-99750000D01*
X105850000Y-101550000D01*
G37*
%TD*%
D11*
%TO.C,R3*%
X142800000Y-103810000D03*
X142800000Y-102790000D03*
%TD*%
D12*
%TO.C,R6*%
X100310000Y-102800000D03*
X99290000Y-102800000D03*
%TD*%
D13*
%TO.C,D5*%
X142100000Y-98600000D03*
X142100000Y-101400000D03*
%TD*%
D12*
%TO.C,R7*%
X100310000Y-103900000D03*
X99290000Y-103900000D03*
%TD*%
D14*
%TO.C,C2*%
X99980000Y-107500000D03*
X99020000Y-107500000D03*
%TD*%
D15*
%TO.C,D3*%
X143000000Y-108412500D03*
X143000000Y-109987500D03*
%TD*%
D11*
%TO.C,R5*%
X141500000Y-110310000D03*
X141500000Y-109290000D03*
%TD*%
D16*
%TO.C,R4*%
X99800000Y-100690000D03*
X99800000Y-101710000D03*
%TD*%
D11*
%TO.C,R1*%
X141700000Y-103810000D03*
X141700000Y-102790000D03*
%TD*%
D17*
%TO.C,D1*%
X99987500Y-105200000D03*
X98412500Y-105200000D03*
%TD*%
D18*
%TO.C,C3*%
X108100000Y-107620000D03*
X108100000Y-108580000D03*
%TD*%
D19*
%TO.C,S1*%
X106700000Y-100650000D03*
D20*
X108550000Y-98700000D03*
X104850000Y-98700000D03*
%TD*%
D21*
%TO.C,U1*%
X113750000Y-97750000D03*
X113750000Y-99250000D03*
X113750000Y-100750000D03*
X113750000Y-102250000D03*
X113750000Y-103750000D03*
X113750000Y-105250000D03*
X113750000Y-106750000D03*
X113750000Y-108250000D03*
X113750000Y-109750000D03*
X131250000Y-109750000D03*
X131250000Y-108250000D03*
X131250000Y-106750000D03*
X131250000Y-105250000D03*
X131250000Y-103750000D03*
X131250000Y-102250000D03*
X131250000Y-100750000D03*
X131250000Y-99250000D03*
X131250000Y-97750000D03*
D22*
X122360000Y-102850000D03*
X122360000Y-103950000D03*
X122360000Y-105050000D03*
X123410000Y-102850000D03*
X123410000Y-103950000D03*
X123410000Y-105050000D03*
X124560000Y-102850000D03*
X124560000Y-103950000D03*
X124560000Y-105050000D03*
%TD*%
D14*
%TO.C,C1*%
X99980000Y-108900000D03*
X99020000Y-108900000D03*
%TD*%
D23*
%TO.C,D2*%
X101500000Y-98900000D03*
X98700000Y-98900000D03*
%TD*%
D15*
%TO.C,D4*%
X143000000Y-105212500D03*
X143000000Y-106787500D03*
%TD*%
D11*
%TO.C,R2*%
X108100000Y-106610000D03*
X108100000Y-105590000D03*
%TD*%
M02*
