%TF.GenerationSoftware,KiCad,Pcbnew,7.0.8*%
%TF.CreationDate,2023-12-27T11:07:12+01:00*%
%TF.ProjectId,Frost-ESP32,46726f73-742d-4455-9350-33322e6b6963,rev?*%
%TF.SameCoordinates,Original*%
%TF.FileFunction,Soldermask,Top*%
%TF.FilePolarity,Negative*%
%FSLAX46Y46*%
G04 Gerber Fmt 4.6, Leading zero omitted, Abs format (unit mm)*
G04 Created by KiCad (PCBNEW 7.0.8) date 2023-12-27 11:07:12*
%MOMM*%
%LPD*%
G01*
G04 APERTURE LIST*
G04 Aperture macros list*
%AMRoundRect*
0 Rectangle with rounded corners*
0 $1 Rounding radius*
0 $2 $3 $4 $5 $6 $7 $8 $9 X,Y pos of 4 corners*
0 Add a 4 corners polygon primitive as box body*
4,1,4,$2,$3,$4,$5,$6,$7,$8,$9,$2,$3,0*
0 Add four circle primitives for the rounded corners*
1,1,$1+$1,$2,$3*
1,1,$1+$1,$4,$5*
1,1,$1+$1,$6,$7*
1,1,$1+$1,$8,$9*
0 Add four rect primitives between the rounded corners*
20,1,$1+$1,$2,$3,$4,$5,0*
20,1,$1+$1,$4,$5,$6,$7,0*
20,1,$1+$1,$6,$7,$8,$9,0*
20,1,$1+$1,$8,$9,$2,$3,0*%
G04 Aperture macros list end*
%ADD10C,0.010000*%
%ADD11C,1.000000*%
%ADD12RoundRect,0.135000X0.185000X-0.135000X0.185000X0.135000X-0.185000X0.135000X-0.185000X-0.135000X0*%
%ADD13RoundRect,0.135000X0.135000X0.185000X-0.135000X0.185000X-0.135000X-0.185000X0.135000X-0.185000X0*%
%ADD14RoundRect,0.250000X-0.300000X0.300000X-0.300000X-0.300000X0.300000X-0.300000X0.300000X0.300000X0*%
%ADD15C,3.200000*%
%ADD16R,1.000000X1.000000*%
%ADD17O,1.000000X1.000000*%
%ADD18RoundRect,0.140000X0.140000X0.170000X-0.140000X0.170000X-0.140000X-0.170000X0.140000X-0.170000X0*%
%ADD19RoundRect,0.218750X-0.256250X0.218750X-0.256250X-0.218750X0.256250X-0.218750X0.256250X0.218750X0*%
%ADD20RoundRect,0.135000X-0.185000X0.135000X-0.185000X-0.135000X0.185000X-0.135000X0.185000X0.135000X0*%
%ADD21RoundRect,0.218750X0.218750X0.256250X-0.218750X0.256250X-0.218750X-0.256250X0.218750X-0.256250X0*%
%ADD22RoundRect,0.140000X-0.170000X0.140000X-0.170000X-0.140000X0.170000X-0.140000X0.170000X0.140000X0*%
%ADD23C,0.900000*%
%ADD24RoundRect,0.102000X0.300000X0.900000X-0.300000X0.900000X-0.300000X-0.900000X0.300000X-0.900000X0*%
%ADD25RoundRect,0.102000X-0.650000X-0.450000X0.650000X-0.450000X0.650000X0.450000X-0.650000X0.450000X0*%
%ADD26RoundRect,0.102000X0.650000X0.450000X-0.650000X0.450000X-0.650000X-0.450000X0.650000X-0.450000X0*%
%ADD27R,1.500000X0.900000*%
%ADD28R,0.700000X0.700000*%
%ADD29RoundRect,0.250000X0.300000X0.300000X-0.300000X0.300000X-0.300000X-0.300000X0.300000X-0.300000X0*%
G04 APERTURE END LIST*
%TO.C,S1*%
D10*
X108231180Y-99667231D02*
X108228040Y-99701828D01*
X108226610Y-99736541D01*
X108226890Y-99771278D01*
X108227680Y-99788634D01*
X108227670Y-99788641D01*
X108228610Y-99798150D01*
X108230860Y-99817131D01*
X108233580Y-99836050D01*
X108236770Y-99854894D01*
X108238540Y-99864284D01*
X108240330Y-99873438D01*
X108244260Y-99891669D01*
X108248650Y-99909794D01*
X108253480Y-99927806D01*
X108256070Y-99936766D01*
X108268650Y-99969284D01*
X108298660Y-100032212D01*
X108334880Y-100091775D01*
X108376940Y-100147369D01*
X108400000Y-100173500D01*
X108400000Y-101650000D01*
X107450000Y-101650000D01*
X107450000Y-99650000D01*
X108233400Y-99650000D01*
X108231180Y-99667231D01*
G36*
X108231180Y-99667231D02*
G01*
X108228040Y-99701828D01*
X108226610Y-99736541D01*
X108226890Y-99771278D01*
X108227680Y-99788634D01*
X108227670Y-99788641D01*
X108228610Y-99798150D01*
X108230860Y-99817131D01*
X108233580Y-99836050D01*
X108236770Y-99854894D01*
X108238540Y-99864284D01*
X108240330Y-99873438D01*
X108244260Y-99891669D01*
X108248650Y-99909794D01*
X108253480Y-99927806D01*
X108256070Y-99936766D01*
X108268650Y-99969284D01*
X108298660Y-100032212D01*
X108334880Y-100091775D01*
X108376940Y-100147369D01*
X108400000Y-100173500D01*
X108400000Y-101650000D01*
X107450000Y-101650000D01*
X107450000Y-99650000D01*
X108233400Y-99650000D01*
X108231180Y-99667231D01*
G37*
X105950000Y-101650000D02*
X105000000Y-101650000D01*
X105000000Y-100173500D01*
X104999970Y-100173500D01*
X105023060Y-100147369D01*
X105065120Y-100091775D01*
X105101340Y-100032212D01*
X105131350Y-99969284D01*
X105143920Y-99936766D01*
X105146510Y-99927806D01*
X105151350Y-99909794D01*
X105155730Y-99891669D01*
X105159670Y-99873438D01*
X105161460Y-99864288D01*
X105161460Y-99864284D01*
X105163230Y-99854894D01*
X105166420Y-99836050D01*
X105169140Y-99817131D01*
X105171390Y-99798150D01*
X105172330Y-99788641D01*
X105172320Y-99788634D01*
X105173100Y-99771278D01*
X105173390Y-99736541D01*
X105171960Y-99701828D01*
X105168820Y-99667231D01*
X105166600Y-99650000D01*
X105950000Y-99650000D01*
X105950000Y-101650000D01*
G36*
X105950000Y-101650000D02*
G01*
X105000000Y-101650000D01*
X105000000Y-100173500D01*
X104999970Y-100173500D01*
X105023060Y-100147369D01*
X105065120Y-100091775D01*
X105101340Y-100032212D01*
X105131350Y-99969284D01*
X105143920Y-99936766D01*
X105146510Y-99927806D01*
X105151350Y-99909794D01*
X105155730Y-99891669D01*
X105159670Y-99873438D01*
X105161460Y-99864288D01*
X105161460Y-99864284D01*
X105163230Y-99854894D01*
X105166420Y-99836050D01*
X105169140Y-99817131D01*
X105171390Y-99798150D01*
X105172330Y-99788641D01*
X105172320Y-99788634D01*
X105173100Y-99771278D01*
X105173390Y-99736541D01*
X105171960Y-99701828D01*
X105168820Y-99667231D01*
X105166600Y-99650000D01*
X105950000Y-99650000D01*
X105950000Y-101650000D01*
G37*
%TD*%
D11*
%TO.C,TP7*%
X109500000Y-109900000D03*
%TD*%
%TO.C,TP6*%
X110700000Y-108200000D03*
%TD*%
D12*
%TO.C,R3*%
X142800000Y-103810000D03*
X142800000Y-102790000D03*
%TD*%
D13*
%TO.C,R6*%
X100310000Y-102800000D03*
X99290000Y-102800000D03*
%TD*%
D14*
%TO.C,D5*%
X142100000Y-98600000D03*
X142100000Y-101400000D03*
%TD*%
D15*
%TO.C,H1*%
X104000000Y-107000000D03*
%TD*%
D16*
%TO.C,J2*%
X95500000Y-109930000D03*
D17*
X95500000Y-108660000D03*
X95500000Y-107390000D03*
X95500000Y-106120000D03*
X95500000Y-104850000D03*
X95500000Y-103580000D03*
X95500000Y-102310000D03*
X95500000Y-101040000D03*
X95500000Y-99770000D03*
X95500000Y-98500000D03*
%TD*%
D13*
%TO.C,R7*%
X100310000Y-103900000D03*
X99290000Y-103900000D03*
%TD*%
D11*
%TO.C,TP2*%
X138000000Y-101300000D03*
%TD*%
%TO.C,TP3*%
X135400000Y-101300000D03*
%TD*%
%TO.C,TP1*%
X110750000Y-98750000D03*
%TD*%
D18*
%TO.C,C2*%
X99980000Y-107500000D03*
X99020000Y-107500000D03*
%TD*%
D19*
%TO.C,D3*%
X143000000Y-108412500D03*
X143000000Y-109987500D03*
%TD*%
D12*
%TO.C,R5*%
X141500000Y-110310000D03*
X141500000Y-109290000D03*
%TD*%
D11*
%TO.C,TP5*%
X102400000Y-101100000D03*
%TD*%
D20*
%TO.C,R4*%
X99800000Y-100690000D03*
X99800000Y-101710000D03*
%TD*%
D12*
%TO.C,R1*%
X141700000Y-103810000D03*
X141700000Y-102790000D03*
%TD*%
D21*
%TO.C,D1*%
X99987500Y-105200000D03*
X98412500Y-105200000D03*
%TD*%
D22*
%TO.C,C3*%
X108100000Y-107620000D03*
X108100000Y-108580000D03*
%TD*%
D15*
%TO.C,H2*%
X138000000Y-107000000D03*
%TD*%
D23*
%TO.C,S1*%
X108825000Y-99750000D03*
X104575000Y-99750000D03*
D24*
X106700000Y-100650000D03*
D25*
X108550000Y-98700000D03*
D26*
X104850000Y-98700000D03*
%TD*%
D27*
%TO.C,U1*%
X113750000Y-97750000D03*
X113750000Y-99250000D03*
X113750000Y-100750000D03*
X113750000Y-102250000D03*
X113750000Y-103750000D03*
X113750000Y-105250000D03*
X113750000Y-106750000D03*
X113750000Y-108250000D03*
X113750000Y-109750000D03*
X131250000Y-109750000D03*
X131250000Y-108250000D03*
X131250000Y-106750000D03*
X131250000Y-105250000D03*
X131250000Y-103750000D03*
X131250000Y-102250000D03*
X131250000Y-100750000D03*
X131250000Y-99250000D03*
X131250000Y-97750000D03*
D28*
X122360000Y-102850000D03*
X122360000Y-103950000D03*
X122360000Y-105050000D03*
X123410000Y-102850000D03*
X123410000Y-103950000D03*
X123410000Y-105050000D03*
X124560000Y-102850000D03*
X124560000Y-103950000D03*
X124560000Y-105050000D03*
%TD*%
D18*
%TO.C,C1*%
X99980000Y-108900000D03*
X99020000Y-108900000D03*
%TD*%
D11*
%TO.C,TP4*%
X98200000Y-101200000D03*
%TD*%
D29*
%TO.C,D2*%
X101500000Y-98900000D03*
X98700000Y-98900000D03*
%TD*%
D19*
%TO.C,D4*%
X143000000Y-105212500D03*
X143000000Y-106787500D03*
%TD*%
D12*
%TO.C,R2*%
X108100000Y-106610000D03*
X108100000Y-105590000D03*
%TD*%
M02*
