%TF.GenerationSoftware,KiCad,Pcbnew,7.0.8*%
%TF.CreationDate,2023-12-27T11:08:44+01:00*%
%TF.ProjectId,Frost-ESP32,46726f73-742d-4455-9350-33322e6b6963,rev?*%
%TF.SameCoordinates,Original*%
%TF.FileFunction,Copper,L4,Inr*%
%TF.FilePolarity,Positive*%
%FSLAX46Y46*%
G04 Gerber Fmt 4.6, Leading zero omitted, Abs format (unit mm)*
G04 Created by KiCad (PCBNEW 7.0.8) date 2023-12-27 11:08:44*
%MOMM*%
%LPD*%
G01*
G04 APERTURE LIST*
%TA.AperFunction,ComponentPad*%
%ADD10R,1.000000X1.000000*%
%TD*%
%TA.AperFunction,ComponentPad*%
%ADD11O,1.000000X1.000000*%
%TD*%
%TA.AperFunction,ViaPad*%
%ADD12C,0.600000*%
%TD*%
%TA.AperFunction,ViaPad*%
%ADD13C,0.800000*%
%TD*%
%TA.AperFunction,Conductor*%
%ADD14C,0.250000*%
%TD*%
%TA.AperFunction,Conductor*%
%ADD15C,0.500000*%
%TD*%
G04 APERTURE END LIST*
D10*
%TO.N,/Vconn*%
%TO.C,J2*%
X95500000Y-109930000D03*
D11*
%TO.N,/CANL*%
X95500000Y-108660000D03*
%TO.N,/CANH*%
X95500000Y-107390000D03*
%TO.N,GND*%
X95500000Y-106120000D03*
%TO.N,+5V*%
X95500000Y-104850000D03*
%TO.N,/RX*%
X95500000Y-103580000D03*
%TO.N,/TX*%
X95500000Y-102310000D03*
%TO.N,/GPIO8*%
X95500000Y-101040000D03*
%TO.N,/GPIO10*%
X95500000Y-99770000D03*
%TO.N,GND*%
X95500000Y-98500000D03*
%TD*%
D12*
%TO.N,/TX*%
X112000000Y-102275500D03*
D13*
X111800000Y-108800000D03*
D12*
%TO.N,/RX*%
X112000000Y-103600000D03*
D13*
X110700000Y-108200000D03*
D12*
%TO.N,/Vconn*%
X99000000Y-98900000D03*
%TO.N,+3V3*%
X108100000Y-105600000D03*
X101500000Y-107500000D03*
X118375000Y-104720000D03*
X102124307Y-103500554D03*
X97475500Y-105257744D03*
X113750000Y-97750000D03*
X142800000Y-103800000D03*
%TO.N,GND*%
X109200000Y-108000000D03*
D13*
X135900000Y-98300000D03*
D12*
X105475000Y-100650000D03*
X97900000Y-109300000D03*
X99923385Y-109720839D03*
X143000000Y-105212500D03*
X143000000Y-108500000D03*
X122360000Y-105050000D03*
X107925000Y-100650000D03*
X118375000Y-106920000D03*
X115400000Y-108700000D03*
X118250000Y-97750000D03*
X101500000Y-105700000D03*
%TO.N,/CANH*%
X99650500Y-101710000D03*
%TO.N,/CANL*%
X99000000Y-100690000D03*
%TO.N,+5V*%
X100900000Y-109637500D03*
D13*
X140300000Y-98500000D03*
X100400000Y-98900000D03*
D12*
%TO.N,/USB_D+*%
X133199479Y-103800521D03*
%TO.N,/USB_D-*%
X133800521Y-103199479D03*
%TO.N,/SD_CS*%
X113750000Y-105250000D03*
%TO.N,/CAN_RX*%
X105490969Y-102054500D03*
X125000000Y-100200000D03*
%TO.N,/CAN_TX*%
X127200000Y-99200000D03*
X102600000Y-98700000D03*
%TO.N,/SD_MOSI*%
X116500000Y-101660500D03*
%TO.N,/SD_SCK*%
X115895250Y-103354750D03*
%TO.N,/SD_MISO*%
X118375000Y-108020000D03*
X113750000Y-103750000D03*
%TO.N,/GPIO8*%
X99349500Y-102800000D03*
X108200000Y-103100000D03*
%TO.N,/GPIO10*%
X126250000Y-101250000D03*
%TO.N,/RX*%
X129750000Y-108250000D03*
%TO.N,/TX*%
X129750000Y-106750000D03*
%TO.N,Net-(U1-EN{slash}CHIP_PU)*%
X108100000Y-106610000D03*
X110700000Y-104400000D03*
%TO.N,/Vbus*%
X137500000Y-103925500D03*
D13*
X143200000Y-101600000D03*
%TD*%
D14*
%TO.N,/RX*%
X112000000Y-103000000D02*
X112000000Y-103600000D01*
X112000000Y-103000000D02*
X110919239Y-103000000D01*
X114400000Y-103000000D02*
X112000000Y-103000000D01*
D15*
%TO.N,+5V*%
X100962500Y-109700000D02*
X130300000Y-109700000D01*
X100900000Y-109637500D02*
X100962500Y-109700000D01*
X140300000Y-99700000D02*
X140300000Y-98500000D01*
X130300000Y-109700000D02*
X140300000Y-99700000D01*
D14*
%TO.N,/CAN_RX*%
X106025000Y-101375000D02*
X108366726Y-101375000D01*
X109541726Y-100200000D02*
X125000000Y-100200000D01*
X105490969Y-102054500D02*
X105490969Y-101909031D01*
X105490969Y-101909031D02*
X106025000Y-101375000D01*
X108366726Y-101375000D02*
X109541726Y-100200000D01*
%TO.N,/CAN_TX*%
X102600000Y-98700000D02*
X126700000Y-98700000D01*
X126700000Y-98700000D02*
X127200000Y-99200000D01*
%TO.N,/SD_MISO*%
X117320000Y-108020000D02*
X118375000Y-108020000D01*
X115100000Y-105100000D02*
X115100000Y-105800000D01*
X115100000Y-105800000D02*
X117320000Y-108020000D01*
X113750000Y-103750000D02*
X115100000Y-105100000D01*
%TO.N,/GPIO8*%
X98235000Y-101685500D02*
X96145500Y-101685500D01*
X103965000Y-102800000D02*
X104315000Y-103150000D01*
X99349500Y-102800000D02*
X103965000Y-102800000D01*
X104315000Y-103150000D02*
X108150000Y-103150000D01*
X96145500Y-101685500D02*
X95500000Y-101040000D01*
X99349500Y-102800000D02*
X98235000Y-101685500D01*
X108150000Y-103150000D02*
X108200000Y-103100000D01*
%TO.N,/GPIO10*%
X104748884Y-102700000D02*
X101818884Y-99770000D01*
X105900000Y-102700000D02*
X104748884Y-102700000D01*
X126010500Y-101010500D02*
X109989500Y-101010500D01*
X106715000Y-101885000D02*
X105900000Y-102700000D01*
X126250000Y-101250000D02*
X126010500Y-101010500D01*
X101818884Y-99770000D02*
X95500000Y-99770000D01*
X109115000Y-101885000D02*
X106715000Y-101885000D01*
X109989500Y-101010500D02*
X109115000Y-101885000D01*
%TO.N,/RX*%
X115404750Y-104004750D02*
X114400000Y-103000000D01*
X110919239Y-103000000D02*
X109119239Y-104800000D01*
X129750000Y-108250000D02*
X125504750Y-104004750D01*
X96830000Y-103580000D02*
X95500000Y-103580000D01*
X98050000Y-104800000D02*
X96830000Y-103580000D01*
X109119239Y-104800000D02*
X98050000Y-104800000D01*
X125504750Y-104004750D02*
X115404750Y-104004750D01*
%TO.N,/TX*%
X95500000Y-102310000D02*
X96910000Y-102310000D01*
X108258330Y-104125554D02*
X110023884Y-102360000D01*
X98725554Y-104125554D02*
X108258330Y-104125554D01*
X125360000Y-102360000D02*
X129750000Y-106750000D01*
X110023884Y-102360000D02*
X125360000Y-102360000D01*
X96910000Y-102310000D02*
X98725554Y-104125554D01*
%TD*%
M02*
