%TF.GenerationSoftware,KiCad,Pcbnew,7.0.8*%
%TF.CreationDate,2023-12-27T11:07:12+01:00*%
%TF.ProjectId,Frost-ESP32,46726f73-742d-4455-9350-33322e6b6963,rev?*%
%TF.SameCoordinates,Original*%
%TF.FileFunction,Legend,Bot*%
%TF.FilePolarity,Positive*%
%FSLAX46Y46*%
G04 Gerber Fmt 4.6, Leading zero omitted, Abs format (unit mm)*
G04 Created by KiCad (PCBNEW 7.0.8) date 2023-12-27 11:07:12*
%MOMM*%
%LPD*%
G01*
G04 APERTURE LIST*
%ADD10C,0.100000*%
%ADD11C,0.150000*%
%ADD12C,0.127000*%
%ADD13C,0.200000*%
%ADD14C,0.120000*%
G04 APERTURE END LIST*
D10*
X107862782Y-109496895D02*
X108243734Y-109496895D01*
X108243734Y-109496895D02*
X108281830Y-109877847D01*
X108281830Y-109877847D02*
X108243734Y-109839752D01*
X108243734Y-109839752D02*
X108167544Y-109801657D01*
X108167544Y-109801657D02*
X107977068Y-109801657D01*
X107977068Y-109801657D02*
X107900877Y-109839752D01*
X107900877Y-109839752D02*
X107862782Y-109877847D01*
X107862782Y-109877847D02*
X107824687Y-109954038D01*
X107824687Y-109954038D02*
X107824687Y-110144514D01*
X107824687Y-110144514D02*
X107862782Y-110220704D01*
X107862782Y-110220704D02*
X107900877Y-110258800D01*
X107900877Y-110258800D02*
X107977068Y-110296895D01*
X107977068Y-110296895D02*
X108167544Y-110296895D01*
X108167544Y-110296895D02*
X108243734Y-110258800D01*
X108243734Y-110258800D02*
X108281830Y-110220704D01*
X107596115Y-109496895D02*
X107329448Y-110296895D01*
X107329448Y-110296895D02*
X107062782Y-109496895D01*
X106186591Y-110296895D02*
X106186591Y-109496895D01*
X105805639Y-109763561D02*
X105805639Y-110296895D01*
X105805639Y-109839752D02*
X105767544Y-109801657D01*
X105767544Y-109801657D02*
X105691354Y-109763561D01*
X105691354Y-109763561D02*
X105577068Y-109763561D01*
X105577068Y-109763561D02*
X105500877Y-109801657D01*
X105500877Y-109801657D02*
X105462782Y-109877847D01*
X105462782Y-109877847D02*
X105462782Y-110296895D01*
X107786591Y-108820704D02*
X107824687Y-108858800D01*
X107824687Y-108858800D02*
X107938972Y-108896895D01*
X107938972Y-108896895D02*
X108015163Y-108896895D01*
X108015163Y-108896895D02*
X108129449Y-108858800D01*
X108129449Y-108858800D02*
X108205639Y-108782609D01*
X108205639Y-108782609D02*
X108243734Y-108706419D01*
X108243734Y-108706419D02*
X108281830Y-108554038D01*
X108281830Y-108554038D02*
X108281830Y-108439752D01*
X108281830Y-108439752D02*
X108243734Y-108287371D01*
X108243734Y-108287371D02*
X108205639Y-108211180D01*
X108205639Y-108211180D02*
X108129449Y-108134990D01*
X108129449Y-108134990D02*
X108015163Y-108096895D01*
X108015163Y-108096895D02*
X107938972Y-108096895D01*
X107938972Y-108096895D02*
X107824687Y-108134990D01*
X107824687Y-108134990D02*
X107786591Y-108173085D01*
X107481830Y-108668323D02*
X107100877Y-108668323D01*
X107558020Y-108896895D02*
X107291353Y-108096895D01*
X107291353Y-108096895D02*
X107024687Y-108896895D01*
X106758020Y-108896895D02*
X106758020Y-108096895D01*
X106758020Y-108096895D02*
X106300877Y-108896895D01*
X106300877Y-108896895D02*
X106300877Y-108096895D01*
X105919925Y-108896895D02*
X105919925Y-108096895D01*
X105919925Y-108477847D02*
X105462782Y-108477847D01*
X105462782Y-108896895D02*
X105462782Y-108096895D01*
X107786591Y-107520704D02*
X107824687Y-107558800D01*
X107824687Y-107558800D02*
X107938972Y-107596895D01*
X107938972Y-107596895D02*
X108015163Y-107596895D01*
X108015163Y-107596895D02*
X108129449Y-107558800D01*
X108129449Y-107558800D02*
X108205639Y-107482609D01*
X108205639Y-107482609D02*
X108243734Y-107406419D01*
X108243734Y-107406419D02*
X108281830Y-107254038D01*
X108281830Y-107254038D02*
X108281830Y-107139752D01*
X108281830Y-107139752D02*
X108243734Y-106987371D01*
X108243734Y-106987371D02*
X108205639Y-106911180D01*
X108205639Y-106911180D02*
X108129449Y-106834990D01*
X108129449Y-106834990D02*
X108015163Y-106796895D01*
X108015163Y-106796895D02*
X107938972Y-106796895D01*
X107938972Y-106796895D02*
X107824687Y-106834990D01*
X107824687Y-106834990D02*
X107786591Y-106873085D01*
X107481830Y-107368323D02*
X107100877Y-107368323D01*
X107558020Y-107596895D02*
X107291353Y-106796895D01*
X107291353Y-106796895D02*
X107024687Y-107596895D01*
X106758020Y-107596895D02*
X106758020Y-106796895D01*
X106758020Y-106796895D02*
X106300877Y-107596895D01*
X106300877Y-107596895D02*
X106300877Y-106796895D01*
X105538973Y-107596895D02*
X105919925Y-107596895D01*
X105919925Y-107596895D02*
X105919925Y-106796895D01*
X107824687Y-105534990D02*
X107900877Y-105496895D01*
X107900877Y-105496895D02*
X108015163Y-105496895D01*
X108015163Y-105496895D02*
X108129449Y-105534990D01*
X108129449Y-105534990D02*
X108205639Y-105611180D01*
X108205639Y-105611180D02*
X108243734Y-105687371D01*
X108243734Y-105687371D02*
X108281830Y-105839752D01*
X108281830Y-105839752D02*
X108281830Y-105954038D01*
X108281830Y-105954038D02*
X108243734Y-106106419D01*
X108243734Y-106106419D02*
X108205639Y-106182609D01*
X108205639Y-106182609D02*
X108129449Y-106258800D01*
X108129449Y-106258800D02*
X108015163Y-106296895D01*
X108015163Y-106296895D02*
X107938972Y-106296895D01*
X107938972Y-106296895D02*
X107824687Y-106258800D01*
X107824687Y-106258800D02*
X107786591Y-106220704D01*
X107786591Y-106220704D02*
X107786591Y-105954038D01*
X107786591Y-105954038D02*
X107938972Y-105954038D01*
X107443734Y-106296895D02*
X107443734Y-105496895D01*
X107443734Y-105496895D02*
X106986591Y-106296895D01*
X106986591Y-106296895D02*
X106986591Y-105496895D01*
X106605639Y-106296895D02*
X106605639Y-105496895D01*
X106605639Y-105496895D02*
X106415163Y-105496895D01*
X106415163Y-105496895D02*
X106300877Y-105534990D01*
X106300877Y-105534990D02*
X106224687Y-105611180D01*
X106224687Y-105611180D02*
X106186592Y-105687371D01*
X106186592Y-105687371D02*
X106148496Y-105839752D01*
X106148496Y-105839752D02*
X106148496Y-105954038D01*
X106148496Y-105954038D02*
X106186592Y-106106419D01*
X106186592Y-106106419D02*
X106224687Y-106182609D01*
X106224687Y-106182609D02*
X106300877Y-106258800D01*
X106300877Y-106258800D02*
X106415163Y-106296895D01*
X106415163Y-106296895D02*
X106605639Y-106296895D01*
X107862782Y-104296895D02*
X108243734Y-104296895D01*
X108243734Y-104296895D02*
X108281830Y-104677847D01*
X108281830Y-104677847D02*
X108243734Y-104639752D01*
X108243734Y-104639752D02*
X108167544Y-104601657D01*
X108167544Y-104601657D02*
X107977068Y-104601657D01*
X107977068Y-104601657D02*
X107900877Y-104639752D01*
X107900877Y-104639752D02*
X107862782Y-104677847D01*
X107862782Y-104677847D02*
X107824687Y-104754038D01*
X107824687Y-104754038D02*
X107824687Y-104944514D01*
X107824687Y-104944514D02*
X107862782Y-105020704D01*
X107862782Y-105020704D02*
X107900877Y-105058800D01*
X107900877Y-105058800D02*
X107977068Y-105096895D01*
X107977068Y-105096895D02*
X108167544Y-105096895D01*
X108167544Y-105096895D02*
X108243734Y-105058800D01*
X108243734Y-105058800D02*
X108281830Y-105020704D01*
X107596115Y-104296895D02*
X107329448Y-105096895D01*
X107329448Y-105096895D02*
X107062782Y-104296895D01*
X106034210Y-104296895D02*
X105881829Y-104296895D01*
X105881829Y-104296895D02*
X105805639Y-104334990D01*
X105805639Y-104334990D02*
X105729448Y-104411180D01*
X105729448Y-104411180D02*
X105691353Y-104563561D01*
X105691353Y-104563561D02*
X105691353Y-104830228D01*
X105691353Y-104830228D02*
X105729448Y-104982609D01*
X105729448Y-104982609D02*
X105805639Y-105058800D01*
X105805639Y-105058800D02*
X105881829Y-105096895D01*
X105881829Y-105096895D02*
X106034210Y-105096895D01*
X106034210Y-105096895D02*
X106110401Y-105058800D01*
X106110401Y-105058800D02*
X106186591Y-104982609D01*
X106186591Y-104982609D02*
X106224687Y-104830228D01*
X106224687Y-104830228D02*
X106224687Y-104563561D01*
X106224687Y-104563561D02*
X106186591Y-104411180D01*
X106186591Y-104411180D02*
X106110401Y-104334990D01*
X106110401Y-104334990D02*
X106034210Y-104296895D01*
X105005639Y-104563561D02*
X105005639Y-105096895D01*
X105348496Y-104563561D02*
X105348496Y-104982609D01*
X105348496Y-104982609D02*
X105310401Y-105058800D01*
X105310401Y-105058800D02*
X105234211Y-105096895D01*
X105234211Y-105096895D02*
X105119925Y-105096895D01*
X105119925Y-105096895D02*
X105043734Y-105058800D01*
X105043734Y-105058800D02*
X105005639Y-105020704D01*
X104738972Y-104563561D02*
X104434210Y-104563561D01*
X104624686Y-104296895D02*
X104624686Y-104982609D01*
X104624686Y-104982609D02*
X104586591Y-105058800D01*
X104586591Y-105058800D02*
X104510401Y-105096895D01*
X104510401Y-105096895D02*
X104434210Y-105096895D01*
X107786591Y-104096895D02*
X108053258Y-103715942D01*
X108243734Y-104096895D02*
X108243734Y-103296895D01*
X108243734Y-103296895D02*
X107938972Y-103296895D01*
X107938972Y-103296895D02*
X107862782Y-103334990D01*
X107862782Y-103334990D02*
X107824687Y-103373085D01*
X107824687Y-103373085D02*
X107786591Y-103449276D01*
X107786591Y-103449276D02*
X107786591Y-103563561D01*
X107786591Y-103563561D02*
X107824687Y-103639752D01*
X107824687Y-103639752D02*
X107862782Y-103677847D01*
X107862782Y-103677847D02*
X107938972Y-103715942D01*
X107938972Y-103715942D02*
X108243734Y-103715942D01*
X107519925Y-103296895D02*
X106986591Y-104096895D01*
X106986591Y-103296895D02*
X107519925Y-104096895D01*
X108358020Y-101896895D02*
X107900877Y-101896895D01*
X108129449Y-102696895D02*
X108129449Y-101896895D01*
X107710401Y-101896895D02*
X107177067Y-102696895D01*
X107177067Y-101896895D02*
X107710401Y-102696895D01*
X108243734Y-101396895D02*
X108243734Y-100596895D01*
X107710401Y-100596895D02*
X107558020Y-100596895D01*
X107558020Y-100596895D02*
X107481830Y-100634990D01*
X107481830Y-100634990D02*
X107405639Y-100711180D01*
X107405639Y-100711180D02*
X107367544Y-100863561D01*
X107367544Y-100863561D02*
X107367544Y-101130228D01*
X107367544Y-101130228D02*
X107405639Y-101282609D01*
X107405639Y-101282609D02*
X107481830Y-101358800D01*
X107481830Y-101358800D02*
X107558020Y-101396895D01*
X107558020Y-101396895D02*
X107710401Y-101396895D01*
X107710401Y-101396895D02*
X107786592Y-101358800D01*
X107786592Y-101358800D02*
X107862782Y-101282609D01*
X107862782Y-101282609D02*
X107900878Y-101130228D01*
X107900878Y-101130228D02*
X107900878Y-100863561D01*
X107900878Y-100863561D02*
X107862782Y-100711180D01*
X107862782Y-100711180D02*
X107786592Y-100634990D01*
X107786592Y-100634990D02*
X107710401Y-100596895D01*
X106872306Y-100596895D02*
X106796116Y-100596895D01*
X106796116Y-100596895D02*
X106719925Y-100634990D01*
X106719925Y-100634990D02*
X106681830Y-100673085D01*
X106681830Y-100673085D02*
X106643735Y-100749276D01*
X106643735Y-100749276D02*
X106605640Y-100901657D01*
X106605640Y-100901657D02*
X106605640Y-101092133D01*
X106605640Y-101092133D02*
X106643735Y-101244514D01*
X106643735Y-101244514D02*
X106681830Y-101320704D01*
X106681830Y-101320704D02*
X106719925Y-101358800D01*
X106719925Y-101358800D02*
X106796116Y-101396895D01*
X106796116Y-101396895D02*
X106872306Y-101396895D01*
X106872306Y-101396895D02*
X106948497Y-101358800D01*
X106948497Y-101358800D02*
X106986592Y-101320704D01*
X106986592Y-101320704D02*
X107024687Y-101244514D01*
X107024687Y-101244514D02*
X107062783Y-101092133D01*
X107062783Y-101092133D02*
X107062783Y-100901657D01*
X107062783Y-100901657D02*
X107024687Y-100749276D01*
X107024687Y-100749276D02*
X106986592Y-100673085D01*
X106986592Y-100673085D02*
X106948497Y-100634990D01*
X106948497Y-100634990D02*
X106872306Y-100596895D01*
X106148497Y-100939752D02*
X106224687Y-100901657D01*
X106224687Y-100901657D02*
X106262782Y-100863561D01*
X106262782Y-100863561D02*
X106300878Y-100787371D01*
X106300878Y-100787371D02*
X106300878Y-100749276D01*
X106300878Y-100749276D02*
X106262782Y-100673085D01*
X106262782Y-100673085D02*
X106224687Y-100634990D01*
X106224687Y-100634990D02*
X106148497Y-100596895D01*
X106148497Y-100596895D02*
X105996116Y-100596895D01*
X105996116Y-100596895D02*
X105919925Y-100634990D01*
X105919925Y-100634990D02*
X105881830Y-100673085D01*
X105881830Y-100673085D02*
X105843735Y-100749276D01*
X105843735Y-100749276D02*
X105843735Y-100787371D01*
X105843735Y-100787371D02*
X105881830Y-100863561D01*
X105881830Y-100863561D02*
X105919925Y-100901657D01*
X105919925Y-100901657D02*
X105996116Y-100939752D01*
X105996116Y-100939752D02*
X106148497Y-100939752D01*
X106148497Y-100939752D02*
X106224687Y-100977847D01*
X106224687Y-100977847D02*
X106262782Y-101015942D01*
X106262782Y-101015942D02*
X106300878Y-101092133D01*
X106300878Y-101092133D02*
X106300878Y-101244514D01*
X106300878Y-101244514D02*
X106262782Y-101320704D01*
X106262782Y-101320704D02*
X106224687Y-101358800D01*
X106224687Y-101358800D02*
X106148497Y-101396895D01*
X106148497Y-101396895D02*
X105996116Y-101396895D01*
X105996116Y-101396895D02*
X105919925Y-101358800D01*
X105919925Y-101358800D02*
X105881830Y-101320704D01*
X105881830Y-101320704D02*
X105843735Y-101244514D01*
X105843735Y-101244514D02*
X105843735Y-101092133D01*
X105843735Y-101092133D02*
X105881830Y-101015942D01*
X105881830Y-101015942D02*
X105919925Y-100977847D01*
X105919925Y-100977847D02*
X105996116Y-100939752D01*
X108243734Y-99996895D02*
X108243734Y-99196895D01*
X107710401Y-99196895D02*
X107558020Y-99196895D01*
X107558020Y-99196895D02*
X107481830Y-99234990D01*
X107481830Y-99234990D02*
X107405639Y-99311180D01*
X107405639Y-99311180D02*
X107367544Y-99463561D01*
X107367544Y-99463561D02*
X107367544Y-99730228D01*
X107367544Y-99730228D02*
X107405639Y-99882609D01*
X107405639Y-99882609D02*
X107481830Y-99958800D01*
X107481830Y-99958800D02*
X107558020Y-99996895D01*
X107558020Y-99996895D02*
X107710401Y-99996895D01*
X107710401Y-99996895D02*
X107786592Y-99958800D01*
X107786592Y-99958800D02*
X107862782Y-99882609D01*
X107862782Y-99882609D02*
X107900878Y-99730228D01*
X107900878Y-99730228D02*
X107900878Y-99463561D01*
X107900878Y-99463561D02*
X107862782Y-99311180D01*
X107862782Y-99311180D02*
X107786592Y-99234990D01*
X107786592Y-99234990D02*
X107710401Y-99196895D01*
X106605640Y-99996895D02*
X107062783Y-99996895D01*
X106834211Y-99996895D02*
X106834211Y-99196895D01*
X106834211Y-99196895D02*
X106910402Y-99311180D01*
X106910402Y-99311180D02*
X106986592Y-99387371D01*
X106986592Y-99387371D02*
X107062783Y-99425466D01*
X106110401Y-99196895D02*
X106034211Y-99196895D01*
X106034211Y-99196895D02*
X105958020Y-99234990D01*
X105958020Y-99234990D02*
X105919925Y-99273085D01*
X105919925Y-99273085D02*
X105881830Y-99349276D01*
X105881830Y-99349276D02*
X105843735Y-99501657D01*
X105843735Y-99501657D02*
X105843735Y-99692133D01*
X105843735Y-99692133D02*
X105881830Y-99844514D01*
X105881830Y-99844514D02*
X105919925Y-99920704D01*
X105919925Y-99920704D02*
X105958020Y-99958800D01*
X105958020Y-99958800D02*
X106034211Y-99996895D01*
X106034211Y-99996895D02*
X106110401Y-99996895D01*
X106110401Y-99996895D02*
X106186592Y-99958800D01*
X106186592Y-99958800D02*
X106224687Y-99920704D01*
X106224687Y-99920704D02*
X106262782Y-99844514D01*
X106262782Y-99844514D02*
X106300878Y-99692133D01*
X106300878Y-99692133D02*
X106300878Y-99501657D01*
X106300878Y-99501657D02*
X106262782Y-99349276D01*
X106262782Y-99349276D02*
X106224687Y-99273085D01*
X106224687Y-99273085D02*
X106186592Y-99234990D01*
X106186592Y-99234990D02*
X106110401Y-99196895D01*
X107824687Y-98134990D02*
X107900877Y-98096895D01*
X107900877Y-98096895D02*
X108015163Y-98096895D01*
X108015163Y-98096895D02*
X108129449Y-98134990D01*
X108129449Y-98134990D02*
X108205639Y-98211180D01*
X108205639Y-98211180D02*
X108243734Y-98287371D01*
X108243734Y-98287371D02*
X108281830Y-98439752D01*
X108281830Y-98439752D02*
X108281830Y-98554038D01*
X108281830Y-98554038D02*
X108243734Y-98706419D01*
X108243734Y-98706419D02*
X108205639Y-98782609D01*
X108205639Y-98782609D02*
X108129449Y-98858800D01*
X108129449Y-98858800D02*
X108015163Y-98896895D01*
X108015163Y-98896895D02*
X107938972Y-98896895D01*
X107938972Y-98896895D02*
X107824687Y-98858800D01*
X107824687Y-98858800D02*
X107786591Y-98820704D01*
X107786591Y-98820704D02*
X107786591Y-98554038D01*
X107786591Y-98554038D02*
X107938972Y-98554038D01*
X107443734Y-98896895D02*
X107443734Y-98096895D01*
X107443734Y-98096895D02*
X106986591Y-98896895D01*
X106986591Y-98896895D02*
X106986591Y-98096895D01*
X106605639Y-98896895D02*
X106605639Y-98096895D01*
X106605639Y-98096895D02*
X106415163Y-98096895D01*
X106415163Y-98096895D02*
X106300877Y-98134990D01*
X106300877Y-98134990D02*
X106224687Y-98211180D01*
X106224687Y-98211180D02*
X106186592Y-98287371D01*
X106186592Y-98287371D02*
X106148496Y-98439752D01*
X106148496Y-98439752D02*
X106148496Y-98554038D01*
X106148496Y-98554038D02*
X106186592Y-98706419D01*
X106186592Y-98706419D02*
X106224687Y-98782609D01*
X106224687Y-98782609D02*
X106300877Y-98858800D01*
X106300877Y-98858800D02*
X106415163Y-98896895D01*
X106415163Y-98896895D02*
X106605639Y-98896895D01*
D11*
X139328333Y-104009819D02*
X139328333Y-104724104D01*
X139328333Y-104724104D02*
X139375952Y-104866961D01*
X139375952Y-104866961D02*
X139471190Y-104962200D01*
X139471190Y-104962200D02*
X139614047Y-105009819D01*
X139614047Y-105009819D02*
X139709285Y-105009819D01*
X138947380Y-104009819D02*
X138328333Y-104009819D01*
X138328333Y-104009819D02*
X138661666Y-104390771D01*
X138661666Y-104390771D02*
X138518809Y-104390771D01*
X138518809Y-104390771D02*
X138423571Y-104438390D01*
X138423571Y-104438390D02*
X138375952Y-104486009D01*
X138375952Y-104486009D02*
X138328333Y-104581247D01*
X138328333Y-104581247D02*
X138328333Y-104819342D01*
X138328333Y-104819342D02*
X138375952Y-104914580D01*
X138375952Y-104914580D02*
X138423571Y-104962200D01*
X138423571Y-104962200D02*
X138518809Y-105009819D01*
X138518809Y-105009819D02*
X138804523Y-105009819D01*
X138804523Y-105009819D02*
X138899761Y-104962200D01*
X138899761Y-104962200D02*
X138947380Y-104914580D01*
D12*
%TO.C,J1*%
X125575000Y-97250000D02*
X127675000Y-97250000D01*
X119675000Y-97250000D02*
X122575000Y-97250000D01*
X116975000Y-97250000D02*
X116975000Y-110350000D01*
X131025000Y-97924000D02*
X131025000Y-98926000D01*
X131025000Y-104674000D02*
X131025000Y-109676000D01*
D13*
X116625000Y-101420000D02*
G75*
G03*
X116625000Y-101420000I-100000J0D01*
G01*
D14*
%TO.C,U2*%
X98390000Y-108500000D02*
X98390000Y-109300000D01*
X98390000Y-108500000D02*
X98390000Y-107700000D01*
X101510000Y-108500000D02*
X101510000Y-110300000D01*
X101510000Y-108500000D02*
X101510000Y-107700000D01*
%TO.C,J3*%
X135185000Y-98655000D02*
X135185000Y-98915000D01*
X135185000Y-101195000D02*
X135185000Y-102965000D01*
X135185000Y-102965000D02*
X135565000Y-102965000D01*
X142805000Y-98915000D02*
X142805000Y-98655000D01*
X142805000Y-102965000D02*
X142425000Y-102965000D01*
X142805000Y-102965000D02*
X142805000Y-101195000D01*
%TO.C,U3*%
X99900000Y-103160000D02*
X101850000Y-103160000D01*
X99900000Y-103160000D02*
X97950000Y-103160000D01*
X99900000Y-98040000D02*
X103350000Y-98040000D01*
X99900000Y-98040000D02*
X97950000Y-98040000D01*
%TD*%
M02*
