%TF.GenerationSoftware,KiCad,Pcbnew,7.0.8*%
%TF.CreationDate,2023-12-27T11:09:43+01:00*%
%TF.ProjectId,Frost-ESP32,46726f73-742d-4455-9350-33322e6b6963,rev?*%
%TF.SameCoordinates,Original*%
%TF.FileFunction,Drillmap*%
%TF.FilePolarity,Positive*%
%FSLAX45Y45*%
G04 Gerber Fmt 4.5, Leading zero omitted, Abs format (unit mm)*
G04 Created by KiCad (PCBNEW 7.0.8) date 2023-12-27 11:09:43*
%MOMM*%
%LPD*%
G01*
G04 APERTURE LIST*
%ADD10C,0.100000*%
%ADD11C,0.200000*%
%ADD12C,0.030000*%
%ADD13C,0.040000*%
%ADD14C,0.065000*%
G04 APERTURE END LIST*
D10*
X13260000Y-9725000D02*
G75*
G03*
X13285000Y-9750000I25000J0D01*
G01*
X11260000Y-9650000D02*
X13235000Y-9650000D01*
X13260000Y-9675000D02*
G75*
G03*
X13235000Y-9650000I-25000J0D01*
G01*
X14400000Y-9750000D02*
X14400000Y-11100000D01*
X11210000Y-9750000D02*
G75*
G03*
X11235000Y-9725000I0J25000D01*
G01*
X11235000Y-9725000D02*
X11235000Y-9675000D01*
X14400000Y-11100000D02*
X9400000Y-11100000D01*
X11260000Y-9650000D02*
G75*
G03*
X11235000Y-9675000I0J-25000D01*
G01*
X9400000Y-9750000D02*
X11210000Y-9750000D01*
X9400000Y-11100000D02*
X9400000Y-9750000D01*
X13285000Y-9750000D02*
X14400000Y-9750000D01*
X13260000Y-9675000D02*
X13260000Y-9725000D01*
D11*
D12*
X9732550Y-10510774D02*
X9762550Y-10540774D01*
X9762550Y-10510774D02*
X9732550Y-10540774D01*
X9775000Y-10915000D02*
X9805000Y-10945000D01*
X9805000Y-10915000D02*
X9775000Y-10945000D01*
X9885000Y-9875000D02*
X9915000Y-9905000D01*
X9915000Y-9875000D02*
X9885000Y-9905000D01*
X9885000Y-10054000D02*
X9915000Y-10084000D01*
X9915000Y-10054000D02*
X9885000Y-10084000D01*
X9919950Y-10265000D02*
X9949950Y-10295000D01*
X9949950Y-10265000D02*
X9919950Y-10295000D01*
X9950050Y-10156000D02*
X9980050Y-10186000D01*
X9980050Y-10156000D02*
X9950050Y-10186000D01*
X9977339Y-10957084D02*
X10007339Y-10987084D01*
X10007339Y-10957084D02*
X9977339Y-10987084D01*
X10075000Y-10948750D02*
X10105000Y-10978750D01*
X10105000Y-10948750D02*
X10075000Y-10978750D01*
X10135000Y-10555000D02*
X10165000Y-10585000D01*
X10165000Y-10555000D02*
X10135000Y-10585000D01*
X10135000Y-10735000D02*
X10165000Y-10765000D01*
X10165000Y-10735000D02*
X10135000Y-10765000D01*
X10197431Y-10335055D02*
X10227431Y-10365055D01*
X10227431Y-10335055D02*
X10197431Y-10365055D01*
X10245000Y-9855000D02*
X10275000Y-9885000D01*
X10275000Y-9855000D02*
X10245000Y-9885000D01*
X10532500Y-10050000D02*
X10562500Y-10080000D01*
X10562500Y-10050000D02*
X10532500Y-10080000D01*
X10534097Y-10190450D02*
X10564097Y-10220450D01*
X10564097Y-10190450D02*
X10534097Y-10220450D01*
X10777500Y-10050000D02*
X10807500Y-10080000D01*
X10807500Y-10050000D02*
X10777500Y-10080000D01*
X10795000Y-10545000D02*
X10825000Y-10575000D01*
X10825000Y-10545000D02*
X10795000Y-10575000D01*
X10795000Y-10646000D02*
X10825000Y-10676000D01*
X10825000Y-10646000D02*
X10795000Y-10676000D01*
X10805000Y-10295000D02*
X10835000Y-10325000D01*
X10835000Y-10295000D02*
X10805000Y-10325000D01*
X10905000Y-10785000D02*
X10935000Y-10815000D01*
X10935000Y-10785000D02*
X10905000Y-10815000D01*
X11055000Y-10425000D02*
X11085000Y-10455000D01*
X11085000Y-10425000D02*
X11055000Y-10455000D01*
X11185000Y-10212550D02*
X11215000Y-10242550D01*
X11215000Y-10212550D02*
X11185000Y-10242550D01*
X11185000Y-10345000D02*
X11215000Y-10375000D01*
X11215000Y-10345000D02*
X11185000Y-10375000D01*
X11360000Y-9760000D02*
X11390000Y-9790000D01*
X11390000Y-9760000D02*
X11360000Y-9790000D01*
X11360000Y-10360000D02*
X11390000Y-10390000D01*
X11390000Y-10360000D02*
X11360000Y-10390000D01*
X11360000Y-10510000D02*
X11390000Y-10540000D01*
X11390000Y-10510000D02*
X11360000Y-10540000D01*
X11525000Y-10855000D02*
X11555000Y-10885000D01*
X11555000Y-10855000D02*
X11525000Y-10885000D01*
X11574525Y-10320475D02*
X11604525Y-10350475D01*
X11604525Y-10320475D02*
X11574525Y-10350475D01*
X11635000Y-10151050D02*
X11665000Y-10181050D01*
X11665000Y-10151050D02*
X11635000Y-10181050D01*
X11810000Y-9760000D02*
X11840000Y-9790000D01*
X11840000Y-9760000D02*
X11810000Y-9790000D01*
X11822500Y-10457000D02*
X11852500Y-10487000D01*
X11852500Y-10457000D02*
X11822500Y-10487000D01*
X11822500Y-10677000D02*
X11852500Y-10707000D01*
X11852500Y-10677000D02*
X11822500Y-10707000D01*
X11822500Y-10787000D02*
X11852500Y-10817000D01*
X11852500Y-10787000D02*
X11822500Y-10817000D01*
X12221000Y-10490000D02*
X12251000Y-10520000D01*
X12251000Y-10490000D02*
X12221000Y-10520000D01*
X12485000Y-10005000D02*
X12515000Y-10035000D01*
X12515000Y-10005000D02*
X12485000Y-10035000D01*
X12610000Y-10110000D02*
X12640000Y-10140000D01*
X12640000Y-10110000D02*
X12610000Y-10140000D01*
X12705000Y-9905000D02*
X12735000Y-9935000D01*
X12735000Y-9905000D02*
X12705000Y-9935000D01*
X12960000Y-10660000D02*
X12990000Y-10690000D01*
X12990000Y-10660000D02*
X12960000Y-10690000D01*
X12960000Y-10810000D02*
X12990000Y-10840000D01*
X12990000Y-10810000D02*
X12960000Y-10840000D01*
X13304948Y-10365052D02*
X13334948Y-10395052D01*
X13334948Y-10365052D02*
X13304948Y-10395052D01*
X13365052Y-10304948D02*
X13395052Y-10334948D01*
X13395052Y-10304948D02*
X13365052Y-10334948D01*
X13735000Y-10377550D02*
X13765000Y-10407550D01*
X13765000Y-10377550D02*
X13735000Y-10407550D01*
X14265000Y-10365000D02*
X14295000Y-10395000D01*
X14295000Y-10365000D02*
X14265000Y-10395000D01*
X14285000Y-10506250D02*
X14315000Y-10536250D01*
X14315000Y-10506250D02*
X14285000Y-10536250D01*
X14285000Y-10835000D02*
X14315000Y-10865000D01*
X14315000Y-10835000D02*
X14285000Y-10865000D01*
D13*
X10060000Y-9890000D02*
G75*
G03*
X10060000Y-9890000I-20000J0D01*
G01*
X11090000Y-10820000D02*
G75*
G03*
X11090000Y-10820000I-20000J0D01*
G01*
X11200000Y-10880000D02*
G75*
G03*
X11200000Y-10880000I-20000J0D01*
G01*
X13610000Y-9830000D02*
G75*
G03*
X13610000Y-9830000I-20000J0D01*
G01*
X14050000Y-9850000D02*
G75*
G03*
X14050000Y-9850000I-20000J0D01*
G01*
X14340000Y-10160000D02*
G75*
G03*
X14340000Y-10160000I-20000J0D01*
G01*
D14*
X9550000Y-9817500D02*
X9550000Y-9882500D01*
X9517500Y-9850000D02*
X9582500Y-9850000D01*
X9550000Y-9944500D02*
X9550000Y-10009500D01*
X9517500Y-9977000D02*
X9582500Y-9977000D01*
X9550000Y-10071500D02*
X9550000Y-10136500D01*
X9517500Y-10104000D02*
X9582500Y-10104000D01*
X9550000Y-10198500D02*
X9550000Y-10263500D01*
X9517500Y-10231000D02*
X9582500Y-10231000D01*
X9550000Y-10325500D02*
X9550000Y-10390500D01*
X9517500Y-10358000D02*
X9582500Y-10358000D01*
X9550000Y-10452500D02*
X9550000Y-10517500D01*
X9517500Y-10485000D02*
X9582500Y-10485000D01*
X9550000Y-10579500D02*
X9550000Y-10644500D01*
X9517500Y-10612000D02*
X9582500Y-10612000D01*
X9550000Y-10706500D02*
X9550000Y-10771500D01*
X9517500Y-10739000D02*
X9582500Y-10739000D01*
X9550000Y-10833500D02*
X9550000Y-10898500D01*
X9517500Y-10866000D02*
X9582500Y-10866000D01*
X9550000Y-10960500D02*
X9550000Y-11025500D01*
X9517500Y-10993000D02*
X9582500Y-10993000D01*
D11*
X9655777Y-11416484D02*
X9655777Y-11216484D01*
X9655777Y-11216484D02*
X9703396Y-11216484D01*
X9703396Y-11216484D02*
X9731967Y-11226008D01*
X9731967Y-11226008D02*
X9751015Y-11245055D01*
X9751015Y-11245055D02*
X9760539Y-11264103D01*
X9760539Y-11264103D02*
X9770063Y-11302198D01*
X9770063Y-11302198D02*
X9770063Y-11330769D01*
X9770063Y-11330769D02*
X9760539Y-11368865D01*
X9760539Y-11368865D02*
X9751015Y-11387912D01*
X9751015Y-11387912D02*
X9731967Y-11406960D01*
X9731967Y-11406960D02*
X9703396Y-11416484D01*
X9703396Y-11416484D02*
X9655777Y-11416484D01*
X9855777Y-11416484D02*
X9855777Y-11283150D01*
X9855777Y-11321246D02*
X9865301Y-11302198D01*
X9865301Y-11302198D02*
X9874824Y-11292674D01*
X9874824Y-11292674D02*
X9893872Y-11283150D01*
X9893872Y-11283150D02*
X9912920Y-11283150D01*
X9979586Y-11416484D02*
X9979586Y-11283150D01*
X9979586Y-11216484D02*
X9970063Y-11226008D01*
X9970063Y-11226008D02*
X9979586Y-11235531D01*
X9979586Y-11235531D02*
X9989110Y-11226008D01*
X9989110Y-11226008D02*
X9979586Y-11216484D01*
X9979586Y-11216484D02*
X9979586Y-11235531D01*
X10103396Y-11416484D02*
X10084348Y-11406960D01*
X10084348Y-11406960D02*
X10074824Y-11387912D01*
X10074824Y-11387912D02*
X10074824Y-11216484D01*
X10208158Y-11416484D02*
X10189110Y-11406960D01*
X10189110Y-11406960D02*
X10179586Y-11387912D01*
X10179586Y-11387912D02*
X10179586Y-11216484D01*
X10436729Y-11416484D02*
X10436729Y-11216484D01*
X10436729Y-11216484D02*
X10503396Y-11359341D01*
X10503396Y-11359341D02*
X10570063Y-11216484D01*
X10570063Y-11216484D02*
X10570063Y-11416484D01*
X10751015Y-11416484D02*
X10751015Y-11311722D01*
X10751015Y-11311722D02*
X10741491Y-11292674D01*
X10741491Y-11292674D02*
X10722444Y-11283150D01*
X10722444Y-11283150D02*
X10684348Y-11283150D01*
X10684348Y-11283150D02*
X10665301Y-11292674D01*
X10751015Y-11406960D02*
X10731967Y-11416484D01*
X10731967Y-11416484D02*
X10684348Y-11416484D01*
X10684348Y-11416484D02*
X10665301Y-11406960D01*
X10665301Y-11406960D02*
X10655777Y-11387912D01*
X10655777Y-11387912D02*
X10655777Y-11368865D01*
X10655777Y-11368865D02*
X10665301Y-11349817D01*
X10665301Y-11349817D02*
X10684348Y-11340293D01*
X10684348Y-11340293D02*
X10731967Y-11340293D01*
X10731967Y-11340293D02*
X10751015Y-11330769D01*
X10846253Y-11283150D02*
X10846253Y-11483150D01*
X10846253Y-11292674D02*
X10865301Y-11283150D01*
X10865301Y-11283150D02*
X10903396Y-11283150D01*
X10903396Y-11283150D02*
X10922444Y-11292674D01*
X10922444Y-11292674D02*
X10931967Y-11302198D01*
X10931967Y-11302198D02*
X10941491Y-11321246D01*
X10941491Y-11321246D02*
X10941491Y-11378388D01*
X10941491Y-11378388D02*
X10931967Y-11397436D01*
X10931967Y-11397436D02*
X10922444Y-11406960D01*
X10922444Y-11406960D02*
X10903396Y-11416484D01*
X10903396Y-11416484D02*
X10865301Y-11416484D01*
X10865301Y-11416484D02*
X10846253Y-11406960D01*
X11027205Y-11397436D02*
X11036729Y-11406960D01*
X11036729Y-11406960D02*
X11027205Y-11416484D01*
X11027205Y-11416484D02*
X11017682Y-11406960D01*
X11017682Y-11406960D02*
X11027205Y-11397436D01*
X11027205Y-11397436D02*
X11027205Y-11416484D01*
X11027205Y-11292674D02*
X11036729Y-11302198D01*
X11036729Y-11302198D02*
X11027205Y-11311722D01*
X11027205Y-11311722D02*
X11017682Y-11302198D01*
X11017682Y-11302198D02*
X11027205Y-11292674D01*
X11027205Y-11292674D02*
X11027205Y-11311722D01*
D12*
X9365000Y-11730000D02*
X9395000Y-11760000D01*
X9395000Y-11730000D02*
X9365000Y-11760000D01*
D11*
X9693872Y-11636484D02*
X9712920Y-11636484D01*
X9712920Y-11636484D02*
X9731967Y-11646008D01*
X9731967Y-11646008D02*
X9741491Y-11655531D01*
X9741491Y-11655531D02*
X9751015Y-11674579D01*
X9751015Y-11674579D02*
X9760539Y-11712674D01*
X9760539Y-11712674D02*
X9760539Y-11760293D01*
X9760539Y-11760293D02*
X9751015Y-11798388D01*
X9751015Y-11798388D02*
X9741491Y-11817436D01*
X9741491Y-11817436D02*
X9731967Y-11826960D01*
X9731967Y-11826960D02*
X9712920Y-11836484D01*
X9712920Y-11836484D02*
X9693872Y-11836484D01*
X9693872Y-11836484D02*
X9674824Y-11826960D01*
X9674824Y-11826960D02*
X9665301Y-11817436D01*
X9665301Y-11817436D02*
X9655777Y-11798388D01*
X9655777Y-11798388D02*
X9646253Y-11760293D01*
X9646253Y-11760293D02*
X9646253Y-11712674D01*
X9646253Y-11712674D02*
X9655777Y-11674579D01*
X9655777Y-11674579D02*
X9665301Y-11655531D01*
X9665301Y-11655531D02*
X9674824Y-11646008D01*
X9674824Y-11646008D02*
X9693872Y-11636484D01*
X9846253Y-11817436D02*
X9855777Y-11826960D01*
X9855777Y-11826960D02*
X9846253Y-11836484D01*
X9846253Y-11836484D02*
X9836729Y-11826960D01*
X9836729Y-11826960D02*
X9846253Y-11817436D01*
X9846253Y-11817436D02*
X9846253Y-11836484D01*
X9922444Y-11636484D02*
X10046253Y-11636484D01*
X10046253Y-11636484D02*
X9979586Y-11712674D01*
X9979586Y-11712674D02*
X10008158Y-11712674D01*
X10008158Y-11712674D02*
X10027205Y-11722198D01*
X10027205Y-11722198D02*
X10036729Y-11731722D01*
X10036729Y-11731722D02*
X10046253Y-11750769D01*
X10046253Y-11750769D02*
X10046253Y-11798388D01*
X10046253Y-11798388D02*
X10036729Y-11817436D01*
X10036729Y-11817436D02*
X10027205Y-11826960D01*
X10027205Y-11826960D02*
X10008158Y-11836484D01*
X10008158Y-11836484D02*
X9951015Y-11836484D01*
X9951015Y-11836484D02*
X9931967Y-11826960D01*
X9931967Y-11826960D02*
X9922444Y-11817436D01*
X10170063Y-11636484D02*
X10189110Y-11636484D01*
X10189110Y-11636484D02*
X10208158Y-11646008D01*
X10208158Y-11646008D02*
X10217682Y-11655531D01*
X10217682Y-11655531D02*
X10227205Y-11674579D01*
X10227205Y-11674579D02*
X10236729Y-11712674D01*
X10236729Y-11712674D02*
X10236729Y-11760293D01*
X10236729Y-11760293D02*
X10227205Y-11798388D01*
X10227205Y-11798388D02*
X10217682Y-11817436D01*
X10217682Y-11817436D02*
X10208158Y-11826960D01*
X10208158Y-11826960D02*
X10189110Y-11836484D01*
X10189110Y-11836484D02*
X10170063Y-11836484D01*
X10170063Y-11836484D02*
X10151015Y-11826960D01*
X10151015Y-11826960D02*
X10141491Y-11817436D01*
X10141491Y-11817436D02*
X10131967Y-11798388D01*
X10131967Y-11798388D02*
X10122444Y-11760293D01*
X10122444Y-11760293D02*
X10122444Y-11712674D01*
X10122444Y-11712674D02*
X10131967Y-11674579D01*
X10131967Y-11674579D02*
X10141491Y-11655531D01*
X10141491Y-11655531D02*
X10151015Y-11646008D01*
X10151015Y-11646008D02*
X10170063Y-11636484D01*
X10360539Y-11636484D02*
X10379586Y-11636484D01*
X10379586Y-11636484D02*
X10398634Y-11646008D01*
X10398634Y-11646008D02*
X10408158Y-11655531D01*
X10408158Y-11655531D02*
X10417682Y-11674579D01*
X10417682Y-11674579D02*
X10427205Y-11712674D01*
X10427205Y-11712674D02*
X10427205Y-11760293D01*
X10427205Y-11760293D02*
X10417682Y-11798388D01*
X10417682Y-11798388D02*
X10408158Y-11817436D01*
X10408158Y-11817436D02*
X10398634Y-11826960D01*
X10398634Y-11826960D02*
X10379586Y-11836484D01*
X10379586Y-11836484D02*
X10360539Y-11836484D01*
X10360539Y-11836484D02*
X10341491Y-11826960D01*
X10341491Y-11826960D02*
X10331967Y-11817436D01*
X10331967Y-11817436D02*
X10322444Y-11798388D01*
X10322444Y-11798388D02*
X10312920Y-11760293D01*
X10312920Y-11760293D02*
X10312920Y-11712674D01*
X10312920Y-11712674D02*
X10322444Y-11674579D01*
X10322444Y-11674579D02*
X10331967Y-11655531D01*
X10331967Y-11655531D02*
X10341491Y-11646008D01*
X10341491Y-11646008D02*
X10360539Y-11636484D01*
X10512920Y-11836484D02*
X10512920Y-11703150D01*
X10512920Y-11722198D02*
X10522444Y-11712674D01*
X10522444Y-11712674D02*
X10541491Y-11703150D01*
X10541491Y-11703150D02*
X10570063Y-11703150D01*
X10570063Y-11703150D02*
X10589110Y-11712674D01*
X10589110Y-11712674D02*
X10598634Y-11731722D01*
X10598634Y-11731722D02*
X10598634Y-11836484D01*
X10598634Y-11731722D02*
X10608158Y-11712674D01*
X10608158Y-11712674D02*
X10627205Y-11703150D01*
X10627205Y-11703150D02*
X10655777Y-11703150D01*
X10655777Y-11703150D02*
X10674825Y-11712674D01*
X10674825Y-11712674D02*
X10684348Y-11731722D01*
X10684348Y-11731722D02*
X10684348Y-11836484D01*
X10779586Y-11836484D02*
X10779586Y-11703150D01*
X10779586Y-11722198D02*
X10789110Y-11712674D01*
X10789110Y-11712674D02*
X10808158Y-11703150D01*
X10808158Y-11703150D02*
X10836729Y-11703150D01*
X10836729Y-11703150D02*
X10855777Y-11712674D01*
X10855777Y-11712674D02*
X10865301Y-11731722D01*
X10865301Y-11731722D02*
X10865301Y-11836484D01*
X10865301Y-11731722D02*
X10874825Y-11712674D01*
X10874825Y-11712674D02*
X10893872Y-11703150D01*
X10893872Y-11703150D02*
X10922444Y-11703150D01*
X10922444Y-11703150D02*
X10941491Y-11712674D01*
X10941491Y-11712674D02*
X10951015Y-11731722D01*
X10951015Y-11731722D02*
X10951015Y-11836484D01*
X11341491Y-11626960D02*
X11170063Y-11884103D01*
X11598634Y-11636484D02*
X11617682Y-11636484D01*
X11617682Y-11636484D02*
X11636729Y-11646008D01*
X11636729Y-11646008D02*
X11646253Y-11655531D01*
X11646253Y-11655531D02*
X11655777Y-11674579D01*
X11655777Y-11674579D02*
X11665301Y-11712674D01*
X11665301Y-11712674D02*
X11665301Y-11760293D01*
X11665301Y-11760293D02*
X11655777Y-11798388D01*
X11655777Y-11798388D02*
X11646253Y-11817436D01*
X11646253Y-11817436D02*
X11636729Y-11826960D01*
X11636729Y-11826960D02*
X11617682Y-11836484D01*
X11617682Y-11836484D02*
X11598634Y-11836484D01*
X11598634Y-11836484D02*
X11579586Y-11826960D01*
X11579586Y-11826960D02*
X11570063Y-11817436D01*
X11570063Y-11817436D02*
X11560539Y-11798388D01*
X11560539Y-11798388D02*
X11551015Y-11760293D01*
X11551015Y-11760293D02*
X11551015Y-11712674D01*
X11551015Y-11712674D02*
X11560539Y-11674579D01*
X11560539Y-11674579D02*
X11570063Y-11655531D01*
X11570063Y-11655531D02*
X11579586Y-11646008D01*
X11579586Y-11646008D02*
X11598634Y-11636484D01*
X11751015Y-11817436D02*
X11760539Y-11826960D01*
X11760539Y-11826960D02*
X11751015Y-11836484D01*
X11751015Y-11836484D02*
X11741491Y-11826960D01*
X11741491Y-11826960D02*
X11751015Y-11817436D01*
X11751015Y-11817436D02*
X11751015Y-11836484D01*
X11884348Y-11636484D02*
X11903396Y-11636484D01*
X11903396Y-11636484D02*
X11922444Y-11646008D01*
X11922444Y-11646008D02*
X11931967Y-11655531D01*
X11931967Y-11655531D02*
X11941491Y-11674579D01*
X11941491Y-11674579D02*
X11951015Y-11712674D01*
X11951015Y-11712674D02*
X11951015Y-11760293D01*
X11951015Y-11760293D02*
X11941491Y-11798388D01*
X11941491Y-11798388D02*
X11931967Y-11817436D01*
X11931967Y-11817436D02*
X11922444Y-11826960D01*
X11922444Y-11826960D02*
X11903396Y-11836484D01*
X11903396Y-11836484D02*
X11884348Y-11836484D01*
X11884348Y-11836484D02*
X11865301Y-11826960D01*
X11865301Y-11826960D02*
X11855777Y-11817436D01*
X11855777Y-11817436D02*
X11846253Y-11798388D01*
X11846253Y-11798388D02*
X11836729Y-11760293D01*
X11836729Y-11760293D02*
X11836729Y-11712674D01*
X11836729Y-11712674D02*
X11846253Y-11674579D01*
X11846253Y-11674579D02*
X11855777Y-11655531D01*
X11855777Y-11655531D02*
X11865301Y-11646008D01*
X11865301Y-11646008D02*
X11884348Y-11636484D01*
X12141491Y-11836484D02*
X12027206Y-11836484D01*
X12084348Y-11836484D02*
X12084348Y-11636484D01*
X12084348Y-11636484D02*
X12065301Y-11665055D01*
X12065301Y-11665055D02*
X12046253Y-11684103D01*
X12046253Y-11684103D02*
X12027206Y-11693627D01*
X12331967Y-11836484D02*
X12217682Y-11836484D01*
X12274825Y-11836484D02*
X12274825Y-11636484D01*
X12274825Y-11636484D02*
X12255777Y-11665055D01*
X12255777Y-11665055D02*
X12236729Y-11684103D01*
X12236729Y-11684103D02*
X12217682Y-11693627D01*
X12446253Y-11722198D02*
X12427206Y-11712674D01*
X12427206Y-11712674D02*
X12417682Y-11703150D01*
X12417682Y-11703150D02*
X12408158Y-11684103D01*
X12408158Y-11684103D02*
X12408158Y-11674579D01*
X12408158Y-11674579D02*
X12417682Y-11655531D01*
X12417682Y-11655531D02*
X12427206Y-11646008D01*
X12427206Y-11646008D02*
X12446253Y-11636484D01*
X12446253Y-11636484D02*
X12484348Y-11636484D01*
X12484348Y-11636484D02*
X12503396Y-11646008D01*
X12503396Y-11646008D02*
X12512920Y-11655531D01*
X12512920Y-11655531D02*
X12522444Y-11674579D01*
X12522444Y-11674579D02*
X12522444Y-11684103D01*
X12522444Y-11684103D02*
X12512920Y-11703150D01*
X12512920Y-11703150D02*
X12503396Y-11712674D01*
X12503396Y-11712674D02*
X12484348Y-11722198D01*
X12484348Y-11722198D02*
X12446253Y-11722198D01*
X12446253Y-11722198D02*
X12427206Y-11731722D01*
X12427206Y-11731722D02*
X12417682Y-11741246D01*
X12417682Y-11741246D02*
X12408158Y-11760293D01*
X12408158Y-11760293D02*
X12408158Y-11798388D01*
X12408158Y-11798388D02*
X12417682Y-11817436D01*
X12417682Y-11817436D02*
X12427206Y-11826960D01*
X12427206Y-11826960D02*
X12446253Y-11836484D01*
X12446253Y-11836484D02*
X12484348Y-11836484D01*
X12484348Y-11836484D02*
X12503396Y-11826960D01*
X12503396Y-11826960D02*
X12512920Y-11817436D01*
X12512920Y-11817436D02*
X12522444Y-11798388D01*
X12522444Y-11798388D02*
X12522444Y-11760293D01*
X12522444Y-11760293D02*
X12512920Y-11741246D01*
X12512920Y-11741246D02*
X12503396Y-11731722D01*
X12503396Y-11731722D02*
X12484348Y-11722198D01*
X12598634Y-11636484D02*
X12598634Y-11674579D01*
X12674825Y-11636484D02*
X12674825Y-11674579D01*
X12970063Y-11912674D02*
X12960539Y-11903150D01*
X12960539Y-11903150D02*
X12941491Y-11874579D01*
X12941491Y-11874579D02*
X12931968Y-11855531D01*
X12931968Y-11855531D02*
X12922444Y-11826960D01*
X12922444Y-11826960D02*
X12912920Y-11779341D01*
X12912920Y-11779341D02*
X12912920Y-11741246D01*
X12912920Y-11741246D02*
X12922444Y-11693627D01*
X12922444Y-11693627D02*
X12931968Y-11665055D01*
X12931968Y-11665055D02*
X12941491Y-11646008D01*
X12941491Y-11646008D02*
X12960539Y-11617436D01*
X12960539Y-11617436D02*
X12970063Y-11607912D01*
X13131968Y-11703150D02*
X13131968Y-11836484D01*
X13084348Y-11626960D02*
X13036729Y-11769817D01*
X13036729Y-11769817D02*
X13160539Y-11769817D01*
X13322444Y-11703150D02*
X13322444Y-11836484D01*
X13274825Y-11626960D02*
X13227206Y-11769817D01*
X13227206Y-11769817D02*
X13351015Y-11769817D01*
X13579587Y-11836484D02*
X13579587Y-11636484D01*
X13665301Y-11836484D02*
X13665301Y-11731722D01*
X13665301Y-11731722D02*
X13655777Y-11712674D01*
X13655777Y-11712674D02*
X13636730Y-11703150D01*
X13636730Y-11703150D02*
X13608158Y-11703150D01*
X13608158Y-11703150D02*
X13589110Y-11712674D01*
X13589110Y-11712674D02*
X13579587Y-11722198D01*
X13789110Y-11836484D02*
X13770063Y-11826960D01*
X13770063Y-11826960D02*
X13760539Y-11817436D01*
X13760539Y-11817436D02*
X13751015Y-11798388D01*
X13751015Y-11798388D02*
X13751015Y-11741246D01*
X13751015Y-11741246D02*
X13760539Y-11722198D01*
X13760539Y-11722198D02*
X13770063Y-11712674D01*
X13770063Y-11712674D02*
X13789110Y-11703150D01*
X13789110Y-11703150D02*
X13817682Y-11703150D01*
X13817682Y-11703150D02*
X13836730Y-11712674D01*
X13836730Y-11712674D02*
X13846253Y-11722198D01*
X13846253Y-11722198D02*
X13855777Y-11741246D01*
X13855777Y-11741246D02*
X13855777Y-11798388D01*
X13855777Y-11798388D02*
X13846253Y-11817436D01*
X13846253Y-11817436D02*
X13836730Y-11826960D01*
X13836730Y-11826960D02*
X13817682Y-11836484D01*
X13817682Y-11836484D02*
X13789110Y-11836484D01*
X13970063Y-11836484D02*
X13951015Y-11826960D01*
X13951015Y-11826960D02*
X13941491Y-11807912D01*
X13941491Y-11807912D02*
X13941491Y-11636484D01*
X14122444Y-11826960D02*
X14103396Y-11836484D01*
X14103396Y-11836484D02*
X14065301Y-11836484D01*
X14065301Y-11836484D02*
X14046253Y-11826960D01*
X14046253Y-11826960D02*
X14036730Y-11807912D01*
X14036730Y-11807912D02*
X14036730Y-11731722D01*
X14036730Y-11731722D02*
X14046253Y-11712674D01*
X14046253Y-11712674D02*
X14065301Y-11703150D01*
X14065301Y-11703150D02*
X14103396Y-11703150D01*
X14103396Y-11703150D02*
X14122444Y-11712674D01*
X14122444Y-11712674D02*
X14131968Y-11731722D01*
X14131968Y-11731722D02*
X14131968Y-11750769D01*
X14131968Y-11750769D02*
X14036730Y-11769817D01*
X14208158Y-11826960D02*
X14227206Y-11836484D01*
X14227206Y-11836484D02*
X14265301Y-11836484D01*
X14265301Y-11836484D02*
X14284349Y-11826960D01*
X14284349Y-11826960D02*
X14293872Y-11807912D01*
X14293872Y-11807912D02*
X14293872Y-11798388D01*
X14293872Y-11798388D02*
X14284349Y-11779341D01*
X14284349Y-11779341D02*
X14265301Y-11769817D01*
X14265301Y-11769817D02*
X14236730Y-11769817D01*
X14236730Y-11769817D02*
X14217682Y-11760293D01*
X14217682Y-11760293D02*
X14208158Y-11741246D01*
X14208158Y-11741246D02*
X14208158Y-11731722D01*
X14208158Y-11731722D02*
X14217682Y-11712674D01*
X14217682Y-11712674D02*
X14236730Y-11703150D01*
X14236730Y-11703150D02*
X14265301Y-11703150D01*
X14265301Y-11703150D02*
X14284349Y-11712674D01*
X14360539Y-11912674D02*
X14370063Y-11903150D01*
X14370063Y-11903150D02*
X14389111Y-11874579D01*
X14389111Y-11874579D02*
X14398634Y-11855531D01*
X14398634Y-11855531D02*
X14408158Y-11826960D01*
X14408158Y-11826960D02*
X14417682Y-11779341D01*
X14417682Y-11779341D02*
X14417682Y-11741246D01*
X14417682Y-11741246D02*
X14408158Y-11693627D01*
X14408158Y-11693627D02*
X14398634Y-11665055D01*
X14398634Y-11665055D02*
X14389111Y-11646008D01*
X14389111Y-11646008D02*
X14370063Y-11617436D01*
X14370063Y-11617436D02*
X14360539Y-11607912D01*
D13*
X9395000Y-12009000D02*
G75*
G03*
X9395000Y-12009000I-20000J0D01*
G01*
D11*
X9693872Y-11900484D02*
X9712920Y-11900484D01*
X9712920Y-11900484D02*
X9731967Y-11910008D01*
X9731967Y-11910008D02*
X9741491Y-11919531D01*
X9741491Y-11919531D02*
X9751015Y-11938579D01*
X9751015Y-11938579D02*
X9760539Y-11976674D01*
X9760539Y-11976674D02*
X9760539Y-12024293D01*
X9760539Y-12024293D02*
X9751015Y-12062388D01*
X9751015Y-12062388D02*
X9741491Y-12081436D01*
X9741491Y-12081436D02*
X9731967Y-12090960D01*
X9731967Y-12090960D02*
X9712920Y-12100484D01*
X9712920Y-12100484D02*
X9693872Y-12100484D01*
X9693872Y-12100484D02*
X9674824Y-12090960D01*
X9674824Y-12090960D02*
X9665301Y-12081436D01*
X9665301Y-12081436D02*
X9655777Y-12062388D01*
X9655777Y-12062388D02*
X9646253Y-12024293D01*
X9646253Y-12024293D02*
X9646253Y-11976674D01*
X9646253Y-11976674D02*
X9655777Y-11938579D01*
X9655777Y-11938579D02*
X9665301Y-11919531D01*
X9665301Y-11919531D02*
X9674824Y-11910008D01*
X9674824Y-11910008D02*
X9693872Y-11900484D01*
X9846253Y-12081436D02*
X9855777Y-12090960D01*
X9855777Y-12090960D02*
X9846253Y-12100484D01*
X9846253Y-12100484D02*
X9836729Y-12090960D01*
X9836729Y-12090960D02*
X9846253Y-12081436D01*
X9846253Y-12081436D02*
X9846253Y-12100484D01*
X10027205Y-11967150D02*
X10027205Y-12100484D01*
X9979586Y-11890960D02*
X9931967Y-12033817D01*
X9931967Y-12033817D02*
X10055777Y-12033817D01*
X10170063Y-11900484D02*
X10189110Y-11900484D01*
X10189110Y-11900484D02*
X10208158Y-11910008D01*
X10208158Y-11910008D02*
X10217682Y-11919531D01*
X10217682Y-11919531D02*
X10227205Y-11938579D01*
X10227205Y-11938579D02*
X10236729Y-11976674D01*
X10236729Y-11976674D02*
X10236729Y-12024293D01*
X10236729Y-12024293D02*
X10227205Y-12062388D01*
X10227205Y-12062388D02*
X10217682Y-12081436D01*
X10217682Y-12081436D02*
X10208158Y-12090960D01*
X10208158Y-12090960D02*
X10189110Y-12100484D01*
X10189110Y-12100484D02*
X10170063Y-12100484D01*
X10170063Y-12100484D02*
X10151015Y-12090960D01*
X10151015Y-12090960D02*
X10141491Y-12081436D01*
X10141491Y-12081436D02*
X10131967Y-12062388D01*
X10131967Y-12062388D02*
X10122444Y-12024293D01*
X10122444Y-12024293D02*
X10122444Y-11976674D01*
X10122444Y-11976674D02*
X10131967Y-11938579D01*
X10131967Y-11938579D02*
X10141491Y-11919531D01*
X10141491Y-11919531D02*
X10151015Y-11910008D01*
X10151015Y-11910008D02*
X10170063Y-11900484D01*
X10360539Y-11900484D02*
X10379586Y-11900484D01*
X10379586Y-11900484D02*
X10398634Y-11910008D01*
X10398634Y-11910008D02*
X10408158Y-11919531D01*
X10408158Y-11919531D02*
X10417682Y-11938579D01*
X10417682Y-11938579D02*
X10427205Y-11976674D01*
X10427205Y-11976674D02*
X10427205Y-12024293D01*
X10427205Y-12024293D02*
X10417682Y-12062388D01*
X10417682Y-12062388D02*
X10408158Y-12081436D01*
X10408158Y-12081436D02*
X10398634Y-12090960D01*
X10398634Y-12090960D02*
X10379586Y-12100484D01*
X10379586Y-12100484D02*
X10360539Y-12100484D01*
X10360539Y-12100484D02*
X10341491Y-12090960D01*
X10341491Y-12090960D02*
X10331967Y-12081436D01*
X10331967Y-12081436D02*
X10322444Y-12062388D01*
X10322444Y-12062388D02*
X10312920Y-12024293D01*
X10312920Y-12024293D02*
X10312920Y-11976674D01*
X10312920Y-11976674D02*
X10322444Y-11938579D01*
X10322444Y-11938579D02*
X10331967Y-11919531D01*
X10331967Y-11919531D02*
X10341491Y-11910008D01*
X10341491Y-11910008D02*
X10360539Y-11900484D01*
X10512920Y-12100484D02*
X10512920Y-11967150D01*
X10512920Y-11986198D02*
X10522444Y-11976674D01*
X10522444Y-11976674D02*
X10541491Y-11967150D01*
X10541491Y-11967150D02*
X10570063Y-11967150D01*
X10570063Y-11967150D02*
X10589110Y-11976674D01*
X10589110Y-11976674D02*
X10598634Y-11995722D01*
X10598634Y-11995722D02*
X10598634Y-12100484D01*
X10598634Y-11995722D02*
X10608158Y-11976674D01*
X10608158Y-11976674D02*
X10627205Y-11967150D01*
X10627205Y-11967150D02*
X10655777Y-11967150D01*
X10655777Y-11967150D02*
X10674825Y-11976674D01*
X10674825Y-11976674D02*
X10684348Y-11995722D01*
X10684348Y-11995722D02*
X10684348Y-12100484D01*
X10779586Y-12100484D02*
X10779586Y-11967150D01*
X10779586Y-11986198D02*
X10789110Y-11976674D01*
X10789110Y-11976674D02*
X10808158Y-11967150D01*
X10808158Y-11967150D02*
X10836729Y-11967150D01*
X10836729Y-11967150D02*
X10855777Y-11976674D01*
X10855777Y-11976674D02*
X10865301Y-11995722D01*
X10865301Y-11995722D02*
X10865301Y-12100484D01*
X10865301Y-11995722D02*
X10874825Y-11976674D01*
X10874825Y-11976674D02*
X10893872Y-11967150D01*
X10893872Y-11967150D02*
X10922444Y-11967150D01*
X10922444Y-11967150D02*
X10941491Y-11976674D01*
X10941491Y-11976674D02*
X10951015Y-11995722D01*
X10951015Y-11995722D02*
X10951015Y-12100484D01*
X11341491Y-11890960D02*
X11170063Y-12148103D01*
X11598634Y-11900484D02*
X11617682Y-11900484D01*
X11617682Y-11900484D02*
X11636729Y-11910008D01*
X11636729Y-11910008D02*
X11646253Y-11919531D01*
X11646253Y-11919531D02*
X11655777Y-11938579D01*
X11655777Y-11938579D02*
X11665301Y-11976674D01*
X11665301Y-11976674D02*
X11665301Y-12024293D01*
X11665301Y-12024293D02*
X11655777Y-12062388D01*
X11655777Y-12062388D02*
X11646253Y-12081436D01*
X11646253Y-12081436D02*
X11636729Y-12090960D01*
X11636729Y-12090960D02*
X11617682Y-12100484D01*
X11617682Y-12100484D02*
X11598634Y-12100484D01*
X11598634Y-12100484D02*
X11579586Y-12090960D01*
X11579586Y-12090960D02*
X11570063Y-12081436D01*
X11570063Y-12081436D02*
X11560539Y-12062388D01*
X11560539Y-12062388D02*
X11551015Y-12024293D01*
X11551015Y-12024293D02*
X11551015Y-11976674D01*
X11551015Y-11976674D02*
X11560539Y-11938579D01*
X11560539Y-11938579D02*
X11570063Y-11919531D01*
X11570063Y-11919531D02*
X11579586Y-11910008D01*
X11579586Y-11910008D02*
X11598634Y-11900484D01*
X11751015Y-12081436D02*
X11760539Y-12090960D01*
X11760539Y-12090960D02*
X11751015Y-12100484D01*
X11751015Y-12100484D02*
X11741491Y-12090960D01*
X11741491Y-12090960D02*
X11751015Y-12081436D01*
X11751015Y-12081436D02*
X11751015Y-12100484D01*
X11884348Y-11900484D02*
X11903396Y-11900484D01*
X11903396Y-11900484D02*
X11922444Y-11910008D01*
X11922444Y-11910008D02*
X11931967Y-11919531D01*
X11931967Y-11919531D02*
X11941491Y-11938579D01*
X11941491Y-11938579D02*
X11951015Y-11976674D01*
X11951015Y-11976674D02*
X11951015Y-12024293D01*
X11951015Y-12024293D02*
X11941491Y-12062388D01*
X11941491Y-12062388D02*
X11931967Y-12081436D01*
X11931967Y-12081436D02*
X11922444Y-12090960D01*
X11922444Y-12090960D02*
X11903396Y-12100484D01*
X11903396Y-12100484D02*
X11884348Y-12100484D01*
X11884348Y-12100484D02*
X11865301Y-12090960D01*
X11865301Y-12090960D02*
X11855777Y-12081436D01*
X11855777Y-12081436D02*
X11846253Y-12062388D01*
X11846253Y-12062388D02*
X11836729Y-12024293D01*
X11836729Y-12024293D02*
X11836729Y-11976674D01*
X11836729Y-11976674D02*
X11846253Y-11938579D01*
X11846253Y-11938579D02*
X11855777Y-11919531D01*
X11855777Y-11919531D02*
X11865301Y-11910008D01*
X11865301Y-11910008D02*
X11884348Y-11900484D01*
X12141491Y-12100484D02*
X12027206Y-12100484D01*
X12084348Y-12100484D02*
X12084348Y-11900484D01*
X12084348Y-11900484D02*
X12065301Y-11929055D01*
X12065301Y-11929055D02*
X12046253Y-11948103D01*
X12046253Y-11948103D02*
X12027206Y-11957627D01*
X12322444Y-11900484D02*
X12227206Y-11900484D01*
X12227206Y-11900484D02*
X12217682Y-11995722D01*
X12217682Y-11995722D02*
X12227206Y-11986198D01*
X12227206Y-11986198D02*
X12246253Y-11976674D01*
X12246253Y-11976674D02*
X12293872Y-11976674D01*
X12293872Y-11976674D02*
X12312920Y-11986198D01*
X12312920Y-11986198D02*
X12322444Y-11995722D01*
X12322444Y-11995722D02*
X12331967Y-12014769D01*
X12331967Y-12014769D02*
X12331967Y-12062388D01*
X12331967Y-12062388D02*
X12322444Y-12081436D01*
X12322444Y-12081436D02*
X12312920Y-12090960D01*
X12312920Y-12090960D02*
X12293872Y-12100484D01*
X12293872Y-12100484D02*
X12246253Y-12100484D01*
X12246253Y-12100484D02*
X12227206Y-12090960D01*
X12227206Y-12090960D02*
X12217682Y-12081436D01*
X12398634Y-11900484D02*
X12531967Y-11900484D01*
X12531967Y-11900484D02*
X12446253Y-12100484D01*
X12598634Y-11900484D02*
X12598634Y-11938579D01*
X12674825Y-11900484D02*
X12674825Y-11938579D01*
X12970063Y-12176674D02*
X12960539Y-12167150D01*
X12960539Y-12167150D02*
X12941491Y-12138579D01*
X12941491Y-12138579D02*
X12931968Y-12119531D01*
X12931968Y-12119531D02*
X12922444Y-12090960D01*
X12922444Y-12090960D02*
X12912920Y-12043341D01*
X12912920Y-12043341D02*
X12912920Y-12005246D01*
X12912920Y-12005246D02*
X12922444Y-11957627D01*
X12922444Y-11957627D02*
X12931968Y-11929055D01*
X12931968Y-11929055D02*
X12941491Y-11910008D01*
X12941491Y-11910008D02*
X12960539Y-11881436D01*
X12960539Y-11881436D02*
X12970063Y-11871912D01*
X13131968Y-11900484D02*
X13093872Y-11900484D01*
X13093872Y-11900484D02*
X13074825Y-11910008D01*
X13074825Y-11910008D02*
X13065301Y-11919531D01*
X13065301Y-11919531D02*
X13046253Y-11948103D01*
X13046253Y-11948103D02*
X13036729Y-11986198D01*
X13036729Y-11986198D02*
X13036729Y-12062388D01*
X13036729Y-12062388D02*
X13046253Y-12081436D01*
X13046253Y-12081436D02*
X13055777Y-12090960D01*
X13055777Y-12090960D02*
X13074825Y-12100484D01*
X13074825Y-12100484D02*
X13112920Y-12100484D01*
X13112920Y-12100484D02*
X13131968Y-12090960D01*
X13131968Y-12090960D02*
X13141491Y-12081436D01*
X13141491Y-12081436D02*
X13151015Y-12062388D01*
X13151015Y-12062388D02*
X13151015Y-12014769D01*
X13151015Y-12014769D02*
X13141491Y-11995722D01*
X13141491Y-11995722D02*
X13131968Y-11986198D01*
X13131968Y-11986198D02*
X13112920Y-11976674D01*
X13112920Y-11976674D02*
X13074825Y-11976674D01*
X13074825Y-11976674D02*
X13055777Y-11986198D01*
X13055777Y-11986198D02*
X13046253Y-11995722D01*
X13046253Y-11995722D02*
X13036729Y-12014769D01*
X13389110Y-12100484D02*
X13389110Y-11900484D01*
X13474825Y-12100484D02*
X13474825Y-11995722D01*
X13474825Y-11995722D02*
X13465301Y-11976674D01*
X13465301Y-11976674D02*
X13446253Y-11967150D01*
X13446253Y-11967150D02*
X13417682Y-11967150D01*
X13417682Y-11967150D02*
X13398634Y-11976674D01*
X13398634Y-11976674D02*
X13389110Y-11986198D01*
X13598634Y-12100484D02*
X13579587Y-12090960D01*
X13579587Y-12090960D02*
X13570063Y-12081436D01*
X13570063Y-12081436D02*
X13560539Y-12062388D01*
X13560539Y-12062388D02*
X13560539Y-12005246D01*
X13560539Y-12005246D02*
X13570063Y-11986198D01*
X13570063Y-11986198D02*
X13579587Y-11976674D01*
X13579587Y-11976674D02*
X13598634Y-11967150D01*
X13598634Y-11967150D02*
X13627206Y-11967150D01*
X13627206Y-11967150D02*
X13646253Y-11976674D01*
X13646253Y-11976674D02*
X13655777Y-11986198D01*
X13655777Y-11986198D02*
X13665301Y-12005246D01*
X13665301Y-12005246D02*
X13665301Y-12062388D01*
X13665301Y-12062388D02*
X13655777Y-12081436D01*
X13655777Y-12081436D02*
X13646253Y-12090960D01*
X13646253Y-12090960D02*
X13627206Y-12100484D01*
X13627206Y-12100484D02*
X13598634Y-12100484D01*
X13779587Y-12100484D02*
X13760539Y-12090960D01*
X13760539Y-12090960D02*
X13751015Y-12071912D01*
X13751015Y-12071912D02*
X13751015Y-11900484D01*
X13931968Y-12090960D02*
X13912920Y-12100484D01*
X13912920Y-12100484D02*
X13874825Y-12100484D01*
X13874825Y-12100484D02*
X13855777Y-12090960D01*
X13855777Y-12090960D02*
X13846253Y-12071912D01*
X13846253Y-12071912D02*
X13846253Y-11995722D01*
X13846253Y-11995722D02*
X13855777Y-11976674D01*
X13855777Y-11976674D02*
X13874825Y-11967150D01*
X13874825Y-11967150D02*
X13912920Y-11967150D01*
X13912920Y-11967150D02*
X13931968Y-11976674D01*
X13931968Y-11976674D02*
X13941491Y-11995722D01*
X13941491Y-11995722D02*
X13941491Y-12014769D01*
X13941491Y-12014769D02*
X13846253Y-12033817D01*
X14017682Y-12090960D02*
X14036730Y-12100484D01*
X14036730Y-12100484D02*
X14074825Y-12100484D01*
X14074825Y-12100484D02*
X14093872Y-12090960D01*
X14093872Y-12090960D02*
X14103396Y-12071912D01*
X14103396Y-12071912D02*
X14103396Y-12062388D01*
X14103396Y-12062388D02*
X14093872Y-12043341D01*
X14093872Y-12043341D02*
X14074825Y-12033817D01*
X14074825Y-12033817D02*
X14046253Y-12033817D01*
X14046253Y-12033817D02*
X14027206Y-12024293D01*
X14027206Y-12024293D02*
X14017682Y-12005246D01*
X14017682Y-12005246D02*
X14017682Y-11995722D01*
X14017682Y-11995722D02*
X14027206Y-11976674D01*
X14027206Y-11976674D02*
X14046253Y-11967150D01*
X14046253Y-11967150D02*
X14074825Y-11967150D01*
X14074825Y-11967150D02*
X14093872Y-11976674D01*
X14170063Y-12176674D02*
X14179587Y-12167150D01*
X14179587Y-12167150D02*
X14198634Y-12138579D01*
X14198634Y-12138579D02*
X14208158Y-12119531D01*
X14208158Y-12119531D02*
X14217682Y-12090960D01*
X14217682Y-12090960D02*
X14227206Y-12043341D01*
X14227206Y-12043341D02*
X14227206Y-12005246D01*
X14227206Y-12005246D02*
X14217682Y-11957627D01*
X14217682Y-11957627D02*
X14208158Y-11929055D01*
X14208158Y-11929055D02*
X14198634Y-11910008D01*
X14198634Y-11910008D02*
X14179587Y-11881436D01*
X14179587Y-11881436D02*
X14170063Y-11871912D01*
D14*
X9362500Y-12240500D02*
X9362500Y-12305500D01*
X9330000Y-12273000D02*
X9395000Y-12273000D01*
D11*
X9693872Y-12164484D02*
X9712920Y-12164484D01*
X9712920Y-12164484D02*
X9731967Y-12174008D01*
X9731967Y-12174008D02*
X9741491Y-12183531D01*
X9741491Y-12183531D02*
X9751015Y-12202579D01*
X9751015Y-12202579D02*
X9760539Y-12240674D01*
X9760539Y-12240674D02*
X9760539Y-12288293D01*
X9760539Y-12288293D02*
X9751015Y-12326388D01*
X9751015Y-12326388D02*
X9741491Y-12345436D01*
X9741491Y-12345436D02*
X9731967Y-12354960D01*
X9731967Y-12354960D02*
X9712920Y-12364484D01*
X9712920Y-12364484D02*
X9693872Y-12364484D01*
X9693872Y-12364484D02*
X9674824Y-12354960D01*
X9674824Y-12354960D02*
X9665301Y-12345436D01*
X9665301Y-12345436D02*
X9655777Y-12326388D01*
X9655777Y-12326388D02*
X9646253Y-12288293D01*
X9646253Y-12288293D02*
X9646253Y-12240674D01*
X9646253Y-12240674D02*
X9655777Y-12202579D01*
X9655777Y-12202579D02*
X9665301Y-12183531D01*
X9665301Y-12183531D02*
X9674824Y-12174008D01*
X9674824Y-12174008D02*
X9693872Y-12164484D01*
X9846253Y-12345436D02*
X9855777Y-12354960D01*
X9855777Y-12354960D02*
X9846253Y-12364484D01*
X9846253Y-12364484D02*
X9836729Y-12354960D01*
X9836729Y-12354960D02*
X9846253Y-12345436D01*
X9846253Y-12345436D02*
X9846253Y-12364484D01*
X10027205Y-12164484D02*
X9989110Y-12164484D01*
X9989110Y-12164484D02*
X9970063Y-12174008D01*
X9970063Y-12174008D02*
X9960539Y-12183531D01*
X9960539Y-12183531D02*
X9941491Y-12212103D01*
X9941491Y-12212103D02*
X9931967Y-12250198D01*
X9931967Y-12250198D02*
X9931967Y-12326388D01*
X9931967Y-12326388D02*
X9941491Y-12345436D01*
X9941491Y-12345436D02*
X9951015Y-12354960D01*
X9951015Y-12354960D02*
X9970063Y-12364484D01*
X9970063Y-12364484D02*
X10008158Y-12364484D01*
X10008158Y-12364484D02*
X10027205Y-12354960D01*
X10027205Y-12354960D02*
X10036729Y-12345436D01*
X10036729Y-12345436D02*
X10046253Y-12326388D01*
X10046253Y-12326388D02*
X10046253Y-12278769D01*
X10046253Y-12278769D02*
X10036729Y-12259722D01*
X10036729Y-12259722D02*
X10027205Y-12250198D01*
X10027205Y-12250198D02*
X10008158Y-12240674D01*
X10008158Y-12240674D02*
X9970063Y-12240674D01*
X9970063Y-12240674D02*
X9951015Y-12250198D01*
X9951015Y-12250198D02*
X9941491Y-12259722D01*
X9941491Y-12259722D02*
X9931967Y-12278769D01*
X10227205Y-12164484D02*
X10131967Y-12164484D01*
X10131967Y-12164484D02*
X10122444Y-12259722D01*
X10122444Y-12259722D02*
X10131967Y-12250198D01*
X10131967Y-12250198D02*
X10151015Y-12240674D01*
X10151015Y-12240674D02*
X10198634Y-12240674D01*
X10198634Y-12240674D02*
X10217682Y-12250198D01*
X10217682Y-12250198D02*
X10227205Y-12259722D01*
X10227205Y-12259722D02*
X10236729Y-12278769D01*
X10236729Y-12278769D02*
X10236729Y-12326388D01*
X10236729Y-12326388D02*
X10227205Y-12345436D01*
X10227205Y-12345436D02*
X10217682Y-12354960D01*
X10217682Y-12354960D02*
X10198634Y-12364484D01*
X10198634Y-12364484D02*
X10151015Y-12364484D01*
X10151015Y-12364484D02*
X10131967Y-12354960D01*
X10131967Y-12354960D02*
X10122444Y-12345436D01*
X10360539Y-12164484D02*
X10379586Y-12164484D01*
X10379586Y-12164484D02*
X10398634Y-12174008D01*
X10398634Y-12174008D02*
X10408158Y-12183531D01*
X10408158Y-12183531D02*
X10417682Y-12202579D01*
X10417682Y-12202579D02*
X10427205Y-12240674D01*
X10427205Y-12240674D02*
X10427205Y-12288293D01*
X10427205Y-12288293D02*
X10417682Y-12326388D01*
X10417682Y-12326388D02*
X10408158Y-12345436D01*
X10408158Y-12345436D02*
X10398634Y-12354960D01*
X10398634Y-12354960D02*
X10379586Y-12364484D01*
X10379586Y-12364484D02*
X10360539Y-12364484D01*
X10360539Y-12364484D02*
X10341491Y-12354960D01*
X10341491Y-12354960D02*
X10331967Y-12345436D01*
X10331967Y-12345436D02*
X10322444Y-12326388D01*
X10322444Y-12326388D02*
X10312920Y-12288293D01*
X10312920Y-12288293D02*
X10312920Y-12240674D01*
X10312920Y-12240674D02*
X10322444Y-12202579D01*
X10322444Y-12202579D02*
X10331967Y-12183531D01*
X10331967Y-12183531D02*
X10341491Y-12174008D01*
X10341491Y-12174008D02*
X10360539Y-12164484D01*
X10512920Y-12364484D02*
X10512920Y-12231150D01*
X10512920Y-12250198D02*
X10522444Y-12240674D01*
X10522444Y-12240674D02*
X10541491Y-12231150D01*
X10541491Y-12231150D02*
X10570063Y-12231150D01*
X10570063Y-12231150D02*
X10589110Y-12240674D01*
X10589110Y-12240674D02*
X10598634Y-12259722D01*
X10598634Y-12259722D02*
X10598634Y-12364484D01*
X10598634Y-12259722D02*
X10608158Y-12240674D01*
X10608158Y-12240674D02*
X10627205Y-12231150D01*
X10627205Y-12231150D02*
X10655777Y-12231150D01*
X10655777Y-12231150D02*
X10674825Y-12240674D01*
X10674825Y-12240674D02*
X10684348Y-12259722D01*
X10684348Y-12259722D02*
X10684348Y-12364484D01*
X10779586Y-12364484D02*
X10779586Y-12231150D01*
X10779586Y-12250198D02*
X10789110Y-12240674D01*
X10789110Y-12240674D02*
X10808158Y-12231150D01*
X10808158Y-12231150D02*
X10836729Y-12231150D01*
X10836729Y-12231150D02*
X10855777Y-12240674D01*
X10855777Y-12240674D02*
X10865301Y-12259722D01*
X10865301Y-12259722D02*
X10865301Y-12364484D01*
X10865301Y-12259722D02*
X10874825Y-12240674D01*
X10874825Y-12240674D02*
X10893872Y-12231150D01*
X10893872Y-12231150D02*
X10922444Y-12231150D01*
X10922444Y-12231150D02*
X10941491Y-12240674D01*
X10941491Y-12240674D02*
X10951015Y-12259722D01*
X10951015Y-12259722D02*
X10951015Y-12364484D01*
X11341491Y-12154960D02*
X11170063Y-12412103D01*
X11598634Y-12164484D02*
X11617682Y-12164484D01*
X11617682Y-12164484D02*
X11636729Y-12174008D01*
X11636729Y-12174008D02*
X11646253Y-12183531D01*
X11646253Y-12183531D02*
X11655777Y-12202579D01*
X11655777Y-12202579D02*
X11665301Y-12240674D01*
X11665301Y-12240674D02*
X11665301Y-12288293D01*
X11665301Y-12288293D02*
X11655777Y-12326388D01*
X11655777Y-12326388D02*
X11646253Y-12345436D01*
X11646253Y-12345436D02*
X11636729Y-12354960D01*
X11636729Y-12354960D02*
X11617682Y-12364484D01*
X11617682Y-12364484D02*
X11598634Y-12364484D01*
X11598634Y-12364484D02*
X11579586Y-12354960D01*
X11579586Y-12354960D02*
X11570063Y-12345436D01*
X11570063Y-12345436D02*
X11560539Y-12326388D01*
X11560539Y-12326388D02*
X11551015Y-12288293D01*
X11551015Y-12288293D02*
X11551015Y-12240674D01*
X11551015Y-12240674D02*
X11560539Y-12202579D01*
X11560539Y-12202579D02*
X11570063Y-12183531D01*
X11570063Y-12183531D02*
X11579586Y-12174008D01*
X11579586Y-12174008D02*
X11598634Y-12164484D01*
X11751015Y-12345436D02*
X11760539Y-12354960D01*
X11760539Y-12354960D02*
X11751015Y-12364484D01*
X11751015Y-12364484D02*
X11741491Y-12354960D01*
X11741491Y-12354960D02*
X11751015Y-12345436D01*
X11751015Y-12345436D02*
X11751015Y-12364484D01*
X11884348Y-12164484D02*
X11903396Y-12164484D01*
X11903396Y-12164484D02*
X11922444Y-12174008D01*
X11922444Y-12174008D02*
X11931967Y-12183531D01*
X11931967Y-12183531D02*
X11941491Y-12202579D01*
X11941491Y-12202579D02*
X11951015Y-12240674D01*
X11951015Y-12240674D02*
X11951015Y-12288293D01*
X11951015Y-12288293D02*
X11941491Y-12326388D01*
X11941491Y-12326388D02*
X11931967Y-12345436D01*
X11931967Y-12345436D02*
X11922444Y-12354960D01*
X11922444Y-12354960D02*
X11903396Y-12364484D01*
X11903396Y-12364484D02*
X11884348Y-12364484D01*
X11884348Y-12364484D02*
X11865301Y-12354960D01*
X11865301Y-12354960D02*
X11855777Y-12345436D01*
X11855777Y-12345436D02*
X11846253Y-12326388D01*
X11846253Y-12326388D02*
X11836729Y-12288293D01*
X11836729Y-12288293D02*
X11836729Y-12240674D01*
X11836729Y-12240674D02*
X11846253Y-12202579D01*
X11846253Y-12202579D02*
X11855777Y-12183531D01*
X11855777Y-12183531D02*
X11865301Y-12174008D01*
X11865301Y-12174008D02*
X11884348Y-12164484D01*
X12027206Y-12183531D02*
X12036729Y-12174008D01*
X12036729Y-12174008D02*
X12055777Y-12164484D01*
X12055777Y-12164484D02*
X12103396Y-12164484D01*
X12103396Y-12164484D02*
X12122444Y-12174008D01*
X12122444Y-12174008D02*
X12131967Y-12183531D01*
X12131967Y-12183531D02*
X12141491Y-12202579D01*
X12141491Y-12202579D02*
X12141491Y-12221627D01*
X12141491Y-12221627D02*
X12131967Y-12250198D01*
X12131967Y-12250198D02*
X12017682Y-12364484D01*
X12017682Y-12364484D02*
X12141491Y-12364484D01*
X12322444Y-12164484D02*
X12227206Y-12164484D01*
X12227206Y-12164484D02*
X12217682Y-12259722D01*
X12217682Y-12259722D02*
X12227206Y-12250198D01*
X12227206Y-12250198D02*
X12246253Y-12240674D01*
X12246253Y-12240674D02*
X12293872Y-12240674D01*
X12293872Y-12240674D02*
X12312920Y-12250198D01*
X12312920Y-12250198D02*
X12322444Y-12259722D01*
X12322444Y-12259722D02*
X12331967Y-12278769D01*
X12331967Y-12278769D02*
X12331967Y-12326388D01*
X12331967Y-12326388D02*
X12322444Y-12345436D01*
X12322444Y-12345436D02*
X12312920Y-12354960D01*
X12312920Y-12354960D02*
X12293872Y-12364484D01*
X12293872Y-12364484D02*
X12246253Y-12364484D01*
X12246253Y-12364484D02*
X12227206Y-12354960D01*
X12227206Y-12354960D02*
X12217682Y-12345436D01*
X12503396Y-12164484D02*
X12465301Y-12164484D01*
X12465301Y-12164484D02*
X12446253Y-12174008D01*
X12446253Y-12174008D02*
X12436729Y-12183531D01*
X12436729Y-12183531D02*
X12417682Y-12212103D01*
X12417682Y-12212103D02*
X12408158Y-12250198D01*
X12408158Y-12250198D02*
X12408158Y-12326388D01*
X12408158Y-12326388D02*
X12417682Y-12345436D01*
X12417682Y-12345436D02*
X12427206Y-12354960D01*
X12427206Y-12354960D02*
X12446253Y-12364484D01*
X12446253Y-12364484D02*
X12484348Y-12364484D01*
X12484348Y-12364484D02*
X12503396Y-12354960D01*
X12503396Y-12354960D02*
X12512920Y-12345436D01*
X12512920Y-12345436D02*
X12522444Y-12326388D01*
X12522444Y-12326388D02*
X12522444Y-12278769D01*
X12522444Y-12278769D02*
X12512920Y-12259722D01*
X12512920Y-12259722D02*
X12503396Y-12250198D01*
X12503396Y-12250198D02*
X12484348Y-12240674D01*
X12484348Y-12240674D02*
X12446253Y-12240674D01*
X12446253Y-12240674D02*
X12427206Y-12250198D01*
X12427206Y-12250198D02*
X12417682Y-12259722D01*
X12417682Y-12259722D02*
X12408158Y-12278769D01*
X12598634Y-12164484D02*
X12598634Y-12202579D01*
X12674825Y-12164484D02*
X12674825Y-12202579D01*
X12970063Y-12440674D02*
X12960539Y-12431150D01*
X12960539Y-12431150D02*
X12941491Y-12402579D01*
X12941491Y-12402579D02*
X12931968Y-12383531D01*
X12931968Y-12383531D02*
X12922444Y-12354960D01*
X12922444Y-12354960D02*
X12912920Y-12307341D01*
X12912920Y-12307341D02*
X12912920Y-12269246D01*
X12912920Y-12269246D02*
X12922444Y-12221627D01*
X12922444Y-12221627D02*
X12931968Y-12193055D01*
X12931968Y-12193055D02*
X12941491Y-12174008D01*
X12941491Y-12174008D02*
X12960539Y-12145436D01*
X12960539Y-12145436D02*
X12970063Y-12135912D01*
X13151015Y-12364484D02*
X13036729Y-12364484D01*
X13093872Y-12364484D02*
X13093872Y-12164484D01*
X13093872Y-12164484D02*
X13074825Y-12193055D01*
X13074825Y-12193055D02*
X13055777Y-12212103D01*
X13055777Y-12212103D02*
X13036729Y-12221627D01*
X13274825Y-12164484D02*
X13293872Y-12164484D01*
X13293872Y-12164484D02*
X13312920Y-12174008D01*
X13312920Y-12174008D02*
X13322444Y-12183531D01*
X13322444Y-12183531D02*
X13331968Y-12202579D01*
X13331968Y-12202579D02*
X13341491Y-12240674D01*
X13341491Y-12240674D02*
X13341491Y-12288293D01*
X13341491Y-12288293D02*
X13331968Y-12326388D01*
X13331968Y-12326388D02*
X13322444Y-12345436D01*
X13322444Y-12345436D02*
X13312920Y-12354960D01*
X13312920Y-12354960D02*
X13293872Y-12364484D01*
X13293872Y-12364484D02*
X13274825Y-12364484D01*
X13274825Y-12364484D02*
X13255777Y-12354960D01*
X13255777Y-12354960D02*
X13246253Y-12345436D01*
X13246253Y-12345436D02*
X13236729Y-12326388D01*
X13236729Y-12326388D02*
X13227206Y-12288293D01*
X13227206Y-12288293D02*
X13227206Y-12240674D01*
X13227206Y-12240674D02*
X13236729Y-12202579D01*
X13236729Y-12202579D02*
X13246253Y-12183531D01*
X13246253Y-12183531D02*
X13255777Y-12174008D01*
X13255777Y-12174008D02*
X13274825Y-12164484D01*
X13579587Y-12364484D02*
X13579587Y-12164484D01*
X13665301Y-12364484D02*
X13665301Y-12259722D01*
X13665301Y-12259722D02*
X13655777Y-12240674D01*
X13655777Y-12240674D02*
X13636730Y-12231150D01*
X13636730Y-12231150D02*
X13608158Y-12231150D01*
X13608158Y-12231150D02*
X13589110Y-12240674D01*
X13589110Y-12240674D02*
X13579587Y-12250198D01*
X13789110Y-12364484D02*
X13770063Y-12354960D01*
X13770063Y-12354960D02*
X13760539Y-12345436D01*
X13760539Y-12345436D02*
X13751015Y-12326388D01*
X13751015Y-12326388D02*
X13751015Y-12269246D01*
X13751015Y-12269246D02*
X13760539Y-12250198D01*
X13760539Y-12250198D02*
X13770063Y-12240674D01*
X13770063Y-12240674D02*
X13789110Y-12231150D01*
X13789110Y-12231150D02*
X13817682Y-12231150D01*
X13817682Y-12231150D02*
X13836730Y-12240674D01*
X13836730Y-12240674D02*
X13846253Y-12250198D01*
X13846253Y-12250198D02*
X13855777Y-12269246D01*
X13855777Y-12269246D02*
X13855777Y-12326388D01*
X13855777Y-12326388D02*
X13846253Y-12345436D01*
X13846253Y-12345436D02*
X13836730Y-12354960D01*
X13836730Y-12354960D02*
X13817682Y-12364484D01*
X13817682Y-12364484D02*
X13789110Y-12364484D01*
X13970063Y-12364484D02*
X13951015Y-12354960D01*
X13951015Y-12354960D02*
X13941491Y-12335912D01*
X13941491Y-12335912D02*
X13941491Y-12164484D01*
X14122444Y-12354960D02*
X14103396Y-12364484D01*
X14103396Y-12364484D02*
X14065301Y-12364484D01*
X14065301Y-12364484D02*
X14046253Y-12354960D01*
X14046253Y-12354960D02*
X14036730Y-12335912D01*
X14036730Y-12335912D02*
X14036730Y-12259722D01*
X14036730Y-12259722D02*
X14046253Y-12240674D01*
X14046253Y-12240674D02*
X14065301Y-12231150D01*
X14065301Y-12231150D02*
X14103396Y-12231150D01*
X14103396Y-12231150D02*
X14122444Y-12240674D01*
X14122444Y-12240674D02*
X14131968Y-12259722D01*
X14131968Y-12259722D02*
X14131968Y-12278769D01*
X14131968Y-12278769D02*
X14036730Y-12297817D01*
X14208158Y-12354960D02*
X14227206Y-12364484D01*
X14227206Y-12364484D02*
X14265301Y-12364484D01*
X14265301Y-12364484D02*
X14284349Y-12354960D01*
X14284349Y-12354960D02*
X14293872Y-12335912D01*
X14293872Y-12335912D02*
X14293872Y-12326388D01*
X14293872Y-12326388D02*
X14284349Y-12307341D01*
X14284349Y-12307341D02*
X14265301Y-12297817D01*
X14265301Y-12297817D02*
X14236730Y-12297817D01*
X14236730Y-12297817D02*
X14217682Y-12288293D01*
X14217682Y-12288293D02*
X14208158Y-12269246D01*
X14208158Y-12269246D02*
X14208158Y-12259722D01*
X14208158Y-12259722D02*
X14217682Y-12240674D01*
X14217682Y-12240674D02*
X14236730Y-12231150D01*
X14236730Y-12231150D02*
X14265301Y-12231150D01*
X14265301Y-12231150D02*
X14284349Y-12240674D01*
X14360539Y-12440674D02*
X14370063Y-12431150D01*
X14370063Y-12431150D02*
X14389111Y-12402579D01*
X14389111Y-12402579D02*
X14398634Y-12383531D01*
X14398634Y-12383531D02*
X14408158Y-12354960D01*
X14408158Y-12354960D02*
X14417682Y-12307341D01*
X14417682Y-12307341D02*
X14417682Y-12269246D01*
X14417682Y-12269246D02*
X14408158Y-12221627D01*
X14408158Y-12221627D02*
X14398634Y-12193055D01*
X14398634Y-12193055D02*
X14389111Y-12174008D01*
X14389111Y-12174008D02*
X14370063Y-12145436D01*
X14370063Y-12145436D02*
X14360539Y-12135912D01*
M02*
