%TF.GenerationSoftware,KiCad,Pcbnew,7.0.8*%
%TF.CreationDate,2023-12-27T11:08:44+01:00*%
%TF.ProjectId,Frost-ESP32,46726f73-742d-4455-9350-33322e6b6963,rev?*%
%TF.SameCoordinates,Original*%
%TF.FileFunction,Legend,Top*%
%TF.FilePolarity,Positive*%
%FSLAX46Y46*%
G04 Gerber Fmt 4.6, Leading zero omitted, Abs format (unit mm)*
G04 Created by KiCad (PCBNEW 7.0.8) date 2023-12-27 11:08:44*
%MOMM*%
%LPD*%
G01*
G04 APERTURE LIST*
G04 Aperture macros list*
%AMRoundRect*
0 Rectangle with rounded corners*
0 $1 Rounding radius*
0 $2 $3 $4 $5 $6 $7 $8 $9 X,Y pos of 4 corners*
0 Add a 4 corners polygon primitive as box body*
4,1,4,$2,$3,$4,$5,$6,$7,$8,$9,$2,$3,0*
0 Add four circle primitives for the rounded corners*
1,1,$1+$1,$2,$3*
1,1,$1+$1,$4,$5*
1,1,$1+$1,$6,$7*
1,1,$1+$1,$8,$9*
0 Add four rect primitives between the rounded corners*
20,1,$1+$1,$2,$3,$4,$5,0*
20,1,$1+$1,$4,$5,$6,$7,0*
20,1,$1+$1,$6,$7,$8,$9,0*
20,1,$1+$1,$8,$9,$2,$3,0*%
G04 Aperture macros list end*
%ADD10C,0.150000*%
%ADD11C,0.100000*%
%ADD12C,0.120000*%
%ADD13C,0.127000*%
%ADD14C,0.200000*%
%ADD15C,0.010000*%
%ADD16C,1.000000*%
%ADD17RoundRect,0.135000X0.185000X-0.135000X0.185000X0.135000X-0.185000X0.135000X-0.185000X-0.135000X0*%
%ADD18RoundRect,0.135000X0.135000X0.185000X-0.135000X0.185000X-0.135000X-0.185000X0.135000X-0.185000X0*%
%ADD19RoundRect,0.250000X-0.300000X0.300000X-0.300000X-0.300000X0.300000X-0.300000X0.300000X0.300000X0*%
%ADD20C,3.200000*%
%ADD21R,1.000000X1.000000*%
%ADD22O,1.000000X1.000000*%
%ADD23RoundRect,0.140000X0.140000X0.170000X-0.140000X0.170000X-0.140000X-0.170000X0.140000X-0.170000X0*%
%ADD24RoundRect,0.218750X-0.256250X0.218750X-0.256250X-0.218750X0.256250X-0.218750X0.256250X0.218750X0*%
%ADD25RoundRect,0.135000X-0.185000X0.135000X-0.185000X-0.135000X0.185000X-0.135000X0.185000X0.135000X0*%
%ADD26RoundRect,0.218750X0.218750X0.256250X-0.218750X0.256250X-0.218750X-0.256250X0.218750X-0.256250X0*%
%ADD27RoundRect,0.140000X-0.170000X0.140000X-0.170000X-0.140000X0.170000X-0.140000X0.170000X0.140000X0*%
%ADD28C,0.900000*%
%ADD29RoundRect,0.102000X0.300000X0.900000X-0.300000X0.900000X-0.300000X-0.900000X0.300000X-0.900000X0*%
%ADD30RoundRect,0.102000X-0.650000X-0.450000X0.650000X-0.450000X0.650000X0.450000X-0.650000X0.450000X0*%
%ADD31RoundRect,0.102000X0.650000X0.450000X-0.650000X0.450000X-0.650000X-0.450000X0.650000X-0.450000X0*%
%ADD32R,1.500000X0.900000*%
%ADD33R,0.700000X0.700000*%
%ADD34RoundRect,0.250000X0.300000X0.300000X-0.300000X0.300000X-0.300000X-0.300000X0.300000X-0.300000X0*%
G04 APERTURE END LIST*
D10*
X106793922Y-109469819D02*
X107365350Y-109469819D01*
X107079636Y-110469819D02*
X107079636Y-109469819D01*
X107603446Y-109469819D02*
X108270112Y-110469819D01*
X108270112Y-109469819D02*
X107603446Y-110469819D01*
X110408207Y-107169819D02*
X110074874Y-106693628D01*
X109836779Y-107169819D02*
X109836779Y-106169819D01*
X109836779Y-106169819D02*
X110217731Y-106169819D01*
X110217731Y-106169819D02*
X110312969Y-106217438D01*
X110312969Y-106217438D02*
X110360588Y-106265057D01*
X110360588Y-106265057D02*
X110408207Y-106360295D01*
X110408207Y-106360295D02*
X110408207Y-106503152D01*
X110408207Y-106503152D02*
X110360588Y-106598390D01*
X110360588Y-106598390D02*
X110312969Y-106646009D01*
X110312969Y-106646009D02*
X110217731Y-106693628D01*
X110217731Y-106693628D02*
X109836779Y-106693628D01*
X110741541Y-106169819D02*
X111408207Y-107169819D01*
X111408207Y-106169819D02*
X110741541Y-107169819D01*
X109841541Y-100069819D02*
X110460588Y-100069819D01*
X110460588Y-100069819D02*
X110127255Y-100450771D01*
X110127255Y-100450771D02*
X110270112Y-100450771D01*
X110270112Y-100450771D02*
X110365350Y-100498390D01*
X110365350Y-100498390D02*
X110412969Y-100546009D01*
X110412969Y-100546009D02*
X110460588Y-100641247D01*
X110460588Y-100641247D02*
X110460588Y-100879342D01*
X110460588Y-100879342D02*
X110412969Y-100974580D01*
X110412969Y-100974580D02*
X110365350Y-101022200D01*
X110365350Y-101022200D02*
X110270112Y-101069819D01*
X110270112Y-101069819D02*
X109984398Y-101069819D01*
X109984398Y-101069819D02*
X109889160Y-101022200D01*
X109889160Y-101022200D02*
X109841541Y-100974580D01*
X110746303Y-100069819D02*
X111079636Y-101069819D01*
X111079636Y-101069819D02*
X111412969Y-100069819D01*
X111651065Y-100069819D02*
X112270112Y-100069819D01*
X112270112Y-100069819D02*
X111936779Y-100450771D01*
X111936779Y-100450771D02*
X112079636Y-100450771D01*
X112079636Y-100450771D02*
X112174874Y-100498390D01*
X112174874Y-100498390D02*
X112222493Y-100546009D01*
X112222493Y-100546009D02*
X112270112Y-100641247D01*
X112270112Y-100641247D02*
X112270112Y-100879342D01*
X112270112Y-100879342D02*
X112222493Y-100974580D01*
X112222493Y-100974580D02*
X112174874Y-101022200D01*
X112174874Y-101022200D02*
X112079636Y-101069819D01*
X112079636Y-101069819D02*
X111793922Y-101069819D01*
X111793922Y-101069819D02*
X111698684Y-101022200D01*
X111698684Y-101022200D02*
X111651065Y-100974580D01*
D11*
X97513408Y-103020704D02*
X97475312Y-103058800D01*
X97475312Y-103058800D02*
X97361027Y-103096895D01*
X97361027Y-103096895D02*
X97284836Y-103096895D01*
X97284836Y-103096895D02*
X97170550Y-103058800D01*
X97170550Y-103058800D02*
X97094360Y-102982609D01*
X97094360Y-102982609D02*
X97056265Y-102906419D01*
X97056265Y-102906419D02*
X97018169Y-102754038D01*
X97018169Y-102754038D02*
X97018169Y-102639752D01*
X97018169Y-102639752D02*
X97056265Y-102487371D01*
X97056265Y-102487371D02*
X97094360Y-102411180D01*
X97094360Y-102411180D02*
X97170550Y-102334990D01*
X97170550Y-102334990D02*
X97284836Y-102296895D01*
X97284836Y-102296895D02*
X97361027Y-102296895D01*
X97361027Y-102296895D02*
X97475312Y-102334990D01*
X97475312Y-102334990D02*
X97513408Y-102373085D01*
X97665789Y-103173085D02*
X98275312Y-103173085D01*
X98846741Y-103096895D02*
X98465789Y-103096895D01*
X98465789Y-103096895D02*
X98465789Y-102296895D01*
D10*
X134836779Y-103269819D02*
X134836779Y-102269819D01*
X134836779Y-102269819D02*
X135074874Y-102269819D01*
X135074874Y-102269819D02*
X135217731Y-102317438D01*
X135217731Y-102317438D02*
X135312969Y-102412676D01*
X135312969Y-102412676D02*
X135360588Y-102507914D01*
X135360588Y-102507914D02*
X135408207Y-102698390D01*
X135408207Y-102698390D02*
X135408207Y-102841247D01*
X135408207Y-102841247D02*
X135360588Y-103031723D01*
X135360588Y-103031723D02*
X135312969Y-103126961D01*
X135312969Y-103126961D02*
X135217731Y-103222200D01*
X135217731Y-103222200D02*
X135074874Y-103269819D01*
X135074874Y-103269819D02*
X134836779Y-103269819D01*
X135836779Y-102888866D02*
X136598684Y-102888866D01*
X136217731Y-103269819D02*
X136217731Y-102507914D01*
D11*
X101713408Y-102920704D02*
X101675312Y-102958800D01*
X101675312Y-102958800D02*
X101561027Y-102996895D01*
X101561027Y-102996895D02*
X101484836Y-102996895D01*
X101484836Y-102996895D02*
X101370550Y-102958800D01*
X101370550Y-102958800D02*
X101294360Y-102882609D01*
X101294360Y-102882609D02*
X101256265Y-102806419D01*
X101256265Y-102806419D02*
X101218169Y-102654038D01*
X101218169Y-102654038D02*
X101218169Y-102539752D01*
X101218169Y-102539752D02*
X101256265Y-102387371D01*
X101256265Y-102387371D02*
X101294360Y-102311180D01*
X101294360Y-102311180D02*
X101370550Y-102234990D01*
X101370550Y-102234990D02*
X101484836Y-102196895D01*
X101484836Y-102196895D02*
X101561027Y-102196895D01*
X101561027Y-102196895D02*
X101675312Y-102234990D01*
X101675312Y-102234990D02*
X101713408Y-102273085D01*
X101865789Y-103073085D02*
X102475312Y-103073085D01*
X102665789Y-102996895D02*
X102665789Y-102196895D01*
X102665789Y-102577847D02*
X103122932Y-102577847D01*
X103122932Y-102996895D02*
X103122932Y-102196895D01*
D10*
X137636779Y-103269819D02*
X137636779Y-102269819D01*
X137636779Y-102269819D02*
X137874874Y-102269819D01*
X137874874Y-102269819D02*
X138017731Y-102317438D01*
X138017731Y-102317438D02*
X138112969Y-102412676D01*
X138112969Y-102412676D02*
X138160588Y-102507914D01*
X138160588Y-102507914D02*
X138208207Y-102698390D01*
X138208207Y-102698390D02*
X138208207Y-102841247D01*
X138208207Y-102841247D02*
X138160588Y-103031723D01*
X138160588Y-103031723D02*
X138112969Y-103126961D01*
X138112969Y-103126961D02*
X138017731Y-103222200D01*
X138017731Y-103222200D02*
X137874874Y-103269819D01*
X137874874Y-103269819D02*
X137636779Y-103269819D01*
X138636779Y-102888866D02*
X139398684Y-102888866D01*
D12*
%TO.C,TP7*%
X110200000Y-109900000D02*
G75*
G03*
X110200000Y-109900000I-700000J0D01*
G01*
%TO.C,TP6*%
X111400000Y-108200000D02*
G75*
G03*
X111400000Y-108200000I-700000J0D01*
G01*
%TO.C,R3*%
X142420000Y-103453641D02*
X142420000Y-103146359D01*
X143180000Y-103453641D02*
X143180000Y-103146359D01*
%TO.C,R6*%
X99953641Y-103180000D02*
X99646359Y-103180000D01*
X99953641Y-102420000D02*
X99646359Y-102420000D01*
%TO.C,D5*%
X143100000Y-97790000D02*
X141100000Y-97790000D01*
X143100000Y-97790000D02*
X143100000Y-101650000D01*
X141100000Y-97790000D02*
X141100000Y-101650000D01*
D10*
%TO.C,H1*%
X107200000Y-107000000D02*
G75*
G03*
X107200000Y-107000000I-3200000J0D01*
G01*
D12*
%TO.C,J2*%
X96610000Y-110690000D02*
X95500000Y-110690000D01*
X96610000Y-109930000D02*
X96610000Y-110690000D01*
X96610000Y-109170000D02*
X96610000Y-97805000D01*
X96610000Y-109170000D02*
X96063471Y-109170000D01*
X96610000Y-97805000D02*
X95807530Y-97805000D01*
X95192470Y-97805000D02*
X94390000Y-97805000D01*
X94936529Y-109170000D02*
X94390000Y-109170000D01*
X94390000Y-109170000D02*
X94390000Y-97805000D01*
%TO.C,R7*%
X99953641Y-104280000D02*
X99646359Y-104280000D01*
X99953641Y-103520000D02*
X99646359Y-103520000D01*
%TO.C,TP2*%
X138700000Y-101300000D02*
G75*
G03*
X138700000Y-101300000I-700000J0D01*
G01*
%TO.C,TP3*%
X136100000Y-101300000D02*
G75*
G03*
X136100000Y-101300000I-700000J0D01*
G01*
%TO.C,TP1*%
X111450000Y-98750000D02*
G75*
G03*
X111450000Y-98750000I-700000J0D01*
G01*
%TO.C,C2*%
X99607836Y-107860000D02*
X99392164Y-107860000D01*
X99607836Y-107140000D02*
X99392164Y-107140000D01*
%TO.C,D3*%
X143735000Y-107715000D02*
X142265000Y-107715000D01*
X142265000Y-107715000D02*
X142265000Y-110000000D01*
X143735000Y-110000000D02*
X143735000Y-107715000D01*
%TO.C,R5*%
X141120000Y-109953641D02*
X141120000Y-109646359D01*
X141880000Y-109953641D02*
X141880000Y-109646359D01*
%TO.C,TP5*%
X103100000Y-101100000D02*
G75*
G03*
X103100000Y-101100000I-700000J0D01*
G01*
%TO.C,R4*%
X100180000Y-101046359D02*
X100180000Y-101353641D01*
X99420000Y-101046359D02*
X99420000Y-101353641D01*
%TO.C,R1*%
X141320000Y-103453641D02*
X141320000Y-103146359D01*
X142080000Y-103453641D02*
X142080000Y-103146359D01*
%TO.C,D1*%
X100685000Y-105935000D02*
X100685000Y-104465000D01*
X100685000Y-104465000D02*
X98400000Y-104465000D01*
X98400000Y-105935000D02*
X100685000Y-105935000D01*
%TO.C,C3*%
X108460000Y-107992164D02*
X108460000Y-108207836D01*
X107740000Y-107992164D02*
X107740000Y-108207836D01*
D10*
%TO.C,H2*%
X141200000Y-107000000D02*
G75*
G03*
X141200000Y-107000000I-3200000J0D01*
G01*
D13*
%TO.C,S1*%
X108950000Y-101100000D02*
X108950000Y-100513500D01*
X108613500Y-101100000D02*
X108950000Y-101100000D01*
X107700000Y-97700000D02*
X107700000Y-97936500D01*
X107700000Y-97700000D02*
X105700000Y-97700000D01*
X107586500Y-98550000D02*
X105813500Y-98550000D01*
X105700000Y-97700000D02*
X105700000Y-97936500D01*
X104786500Y-101100000D02*
X104450000Y-101100000D01*
X104450000Y-101100000D02*
X104450000Y-100513500D01*
D14*
X108025000Y-102150000D02*
G75*
G03*
X108025000Y-102150000I-100000J0D01*
G01*
D12*
%TO.C,U1*%
X113500000Y-90650000D02*
X113500000Y-97150000D01*
X113500000Y-90650000D02*
X131500000Y-90650000D01*
X113500000Y-110650000D02*
X113500000Y-110400000D01*
X131500000Y-90650000D02*
X131500000Y-97150000D01*
X131500000Y-96650000D02*
X113550000Y-96650000D01*
X131500000Y-110400000D02*
X131500000Y-110650000D01*
X131500000Y-110650000D02*
X113500000Y-110650000D01*
%TO.C,C1*%
X99607836Y-109260000D02*
X99392164Y-109260000D01*
X99607836Y-108540000D02*
X99392164Y-108540000D01*
%TO.C,TP4*%
X98900000Y-101200000D02*
G75*
G03*
X98900000Y-101200000I-700000J0D01*
G01*
%TO.C,D2*%
X102310000Y-99900000D02*
X102310000Y-97900000D01*
X102310000Y-99900000D02*
X98450000Y-99900000D01*
X102310000Y-97900000D02*
X98450000Y-97900000D01*
%TO.C,D4*%
X143735000Y-104515000D02*
X142265000Y-104515000D01*
X142265000Y-104515000D02*
X142265000Y-106800000D01*
X143735000Y-106800000D02*
X143735000Y-104515000D01*
%TO.C,R2*%
X107720000Y-106253641D02*
X107720000Y-105946359D01*
X108480000Y-106253641D02*
X108480000Y-105946359D01*
%TD*%
%LPC*%
%TO.C,S1*%
D15*
X108231180Y-99667231D02*
X108228040Y-99701828D01*
X108226610Y-99736541D01*
X108226890Y-99771278D01*
X108227680Y-99788634D01*
X108227670Y-99788641D01*
X108228610Y-99798150D01*
X108230860Y-99817131D01*
X108233580Y-99836050D01*
X108236770Y-99854894D01*
X108238540Y-99864284D01*
X108240330Y-99873438D01*
X108244260Y-99891669D01*
X108248650Y-99909794D01*
X108253480Y-99927806D01*
X108256070Y-99936766D01*
X108268650Y-99969284D01*
X108298660Y-100032212D01*
X108334880Y-100091775D01*
X108376940Y-100147369D01*
X108400000Y-100173500D01*
X108400000Y-101650000D01*
X107450000Y-101650000D01*
X107450000Y-99650000D01*
X108233400Y-99650000D01*
X108231180Y-99667231D01*
G36*
X108231180Y-99667231D02*
G01*
X108228040Y-99701828D01*
X108226610Y-99736541D01*
X108226890Y-99771278D01*
X108227680Y-99788634D01*
X108227670Y-99788641D01*
X108228610Y-99798150D01*
X108230860Y-99817131D01*
X108233580Y-99836050D01*
X108236770Y-99854894D01*
X108238540Y-99864284D01*
X108240330Y-99873438D01*
X108244260Y-99891669D01*
X108248650Y-99909794D01*
X108253480Y-99927806D01*
X108256070Y-99936766D01*
X108268650Y-99969284D01*
X108298660Y-100032212D01*
X108334880Y-100091775D01*
X108376940Y-100147369D01*
X108400000Y-100173500D01*
X108400000Y-101650000D01*
X107450000Y-101650000D01*
X107450000Y-99650000D01*
X108233400Y-99650000D01*
X108231180Y-99667231D01*
G37*
X105950000Y-101650000D02*
X105000000Y-101650000D01*
X105000000Y-100173500D01*
X104999970Y-100173500D01*
X105023060Y-100147369D01*
X105065120Y-100091775D01*
X105101340Y-100032212D01*
X105131350Y-99969284D01*
X105143920Y-99936766D01*
X105146510Y-99927806D01*
X105151350Y-99909794D01*
X105155730Y-99891669D01*
X105159670Y-99873438D01*
X105161460Y-99864288D01*
X105161460Y-99864284D01*
X105163230Y-99854894D01*
X105166420Y-99836050D01*
X105169140Y-99817131D01*
X105171390Y-99798150D01*
X105172330Y-99788641D01*
X105172320Y-99788634D01*
X105173100Y-99771278D01*
X105173390Y-99736541D01*
X105171960Y-99701828D01*
X105168820Y-99667231D01*
X105166600Y-99650000D01*
X105950000Y-99650000D01*
X105950000Y-101650000D01*
G36*
X105950000Y-101650000D02*
G01*
X105000000Y-101650000D01*
X105000000Y-100173500D01*
X104999970Y-100173500D01*
X105023060Y-100147369D01*
X105065120Y-100091775D01*
X105101340Y-100032212D01*
X105131350Y-99969284D01*
X105143920Y-99936766D01*
X105146510Y-99927806D01*
X105151350Y-99909794D01*
X105155730Y-99891669D01*
X105159670Y-99873438D01*
X105161460Y-99864288D01*
X105161460Y-99864284D01*
X105163230Y-99854894D01*
X105166420Y-99836050D01*
X105169140Y-99817131D01*
X105171390Y-99798150D01*
X105172330Y-99788641D01*
X105172320Y-99788634D01*
X105173100Y-99771278D01*
X105173390Y-99736541D01*
X105171960Y-99701828D01*
X105168820Y-99667231D01*
X105166600Y-99650000D01*
X105950000Y-99650000D01*
X105950000Y-101650000D01*
G37*
%TD*%
D16*
%TO.C,TP7*%
X109500000Y-109900000D03*
%TD*%
%TO.C,TP6*%
X110700000Y-108200000D03*
%TD*%
D17*
%TO.C,R3*%
X142800000Y-103810000D03*
X142800000Y-102790000D03*
%TD*%
D18*
%TO.C,R6*%
X100310000Y-102800000D03*
X99290000Y-102800000D03*
%TD*%
D19*
%TO.C,D5*%
X142100000Y-98600000D03*
X142100000Y-101400000D03*
%TD*%
D20*
%TO.C,H1*%
X104000000Y-107000000D03*
%TD*%
D21*
%TO.C,J2*%
X95500000Y-109930000D03*
D22*
X95500000Y-108660000D03*
X95500000Y-107390000D03*
X95500000Y-106120000D03*
X95500000Y-104850000D03*
X95500000Y-103580000D03*
X95500000Y-102310000D03*
X95500000Y-101040000D03*
X95500000Y-99770000D03*
X95500000Y-98500000D03*
%TD*%
D18*
%TO.C,R7*%
X100310000Y-103900000D03*
X99290000Y-103900000D03*
%TD*%
D16*
%TO.C,TP2*%
X138000000Y-101300000D03*
%TD*%
%TO.C,TP3*%
X135400000Y-101300000D03*
%TD*%
%TO.C,TP1*%
X110750000Y-98750000D03*
%TD*%
D23*
%TO.C,C2*%
X99980000Y-107500000D03*
X99020000Y-107500000D03*
%TD*%
D24*
%TO.C,D3*%
X143000000Y-108412500D03*
X143000000Y-109987500D03*
%TD*%
D17*
%TO.C,R5*%
X141500000Y-110310000D03*
X141500000Y-109290000D03*
%TD*%
D16*
%TO.C,TP5*%
X102400000Y-101100000D03*
%TD*%
D25*
%TO.C,R4*%
X99800000Y-100690000D03*
X99800000Y-101710000D03*
%TD*%
D17*
%TO.C,R1*%
X141700000Y-103810000D03*
X141700000Y-102790000D03*
%TD*%
D26*
%TO.C,D1*%
X99987500Y-105200000D03*
X98412500Y-105200000D03*
%TD*%
D27*
%TO.C,C3*%
X108100000Y-107620000D03*
X108100000Y-108580000D03*
%TD*%
D20*
%TO.C,H2*%
X138000000Y-107000000D03*
%TD*%
D28*
%TO.C,S1*%
X108825000Y-99750000D03*
X104575000Y-99750000D03*
D29*
X106700000Y-100650000D03*
D30*
X108550000Y-98700000D03*
D31*
X104850000Y-98700000D03*
%TD*%
D32*
%TO.C,U1*%
X113750000Y-97750000D03*
X113750000Y-99250000D03*
X113750000Y-100750000D03*
X113750000Y-102250000D03*
X113750000Y-103750000D03*
X113750000Y-105250000D03*
X113750000Y-106750000D03*
X113750000Y-108250000D03*
X113750000Y-109750000D03*
X131250000Y-109750000D03*
X131250000Y-108250000D03*
X131250000Y-106750000D03*
X131250000Y-105250000D03*
X131250000Y-103750000D03*
X131250000Y-102250000D03*
X131250000Y-100750000D03*
X131250000Y-99250000D03*
X131250000Y-97750000D03*
D33*
X122360000Y-102850000D03*
X122360000Y-103950000D03*
X122360000Y-105050000D03*
X123410000Y-102850000D03*
X123410000Y-103950000D03*
X123410000Y-105050000D03*
X124560000Y-102850000D03*
X124560000Y-103950000D03*
X124560000Y-105050000D03*
%TD*%
D23*
%TO.C,C1*%
X99980000Y-108900000D03*
X99020000Y-108900000D03*
%TD*%
D16*
%TO.C,TP4*%
X98200000Y-101200000D03*
%TD*%
D34*
%TO.C,D2*%
X101500000Y-98900000D03*
X98700000Y-98900000D03*
%TD*%
D24*
%TO.C,D4*%
X143000000Y-105212500D03*
X143000000Y-106787500D03*
%TD*%
D17*
%TO.C,R2*%
X108100000Y-106610000D03*
X108100000Y-105590000D03*
%TD*%
%LPD*%
M02*
