%TF.GenerationSoftware,KiCad,Pcbnew,7.0.8*%
%TF.CreationDate,2023-12-27T11:07:12+01:00*%
%TF.ProjectId,Frost-ESP32,46726f73-742d-4455-9350-33322e6b6963,rev?*%
%TF.SameCoordinates,Original*%
%TF.FileFunction,Copper,L5,Inr*%
%TF.FilePolarity,Positive*%
%FSLAX46Y46*%
G04 Gerber Fmt 4.6, Leading zero omitted, Abs format (unit mm)*
G04 Created by KiCad (PCBNEW 7.0.8) date 2023-12-27 11:07:12*
%MOMM*%
%LPD*%
G01*
G04 APERTURE LIST*
%TA.AperFunction,ComponentPad*%
%ADD10R,1.000000X1.000000*%
%TD*%
%TA.AperFunction,ComponentPad*%
%ADD11O,1.000000X1.000000*%
%TD*%
%TA.AperFunction,ViaPad*%
%ADD12C,0.600000*%
%TD*%
%TA.AperFunction,ViaPad*%
%ADD13C,0.800000*%
%TD*%
G04 APERTURE END LIST*
D10*
%TO.N,/Vconn*%
%TO.C,J2*%
X95500000Y-109930000D03*
D11*
%TO.N,/CANL*%
X95500000Y-108660000D03*
%TO.N,/CANH*%
X95500000Y-107390000D03*
%TO.N,GND*%
X95500000Y-106120000D03*
%TO.N,+5V*%
X95500000Y-104850000D03*
%TO.N,/RX*%
X95500000Y-103580000D03*
%TO.N,/TX*%
X95500000Y-102310000D03*
%TO.N,/GPIO8*%
X95500000Y-101040000D03*
%TO.N,/GPIO10*%
X95500000Y-99770000D03*
%TO.N,GND*%
X95500000Y-98500000D03*
%TD*%
D12*
%TO.N,/TX*%
X112000000Y-102275500D03*
D13*
X111800000Y-108800000D03*
D12*
%TO.N,/RX*%
X112000000Y-103600000D03*
D13*
X110700000Y-108200000D03*
D12*
%TO.N,/Vconn*%
X99000000Y-98900000D03*
%TO.N,+3V3*%
X108100000Y-105600000D03*
X101500000Y-107500000D03*
X118375000Y-104720000D03*
X102124307Y-103500554D03*
X97475500Y-105257744D03*
X113750000Y-97750000D03*
X142800000Y-103800000D03*
%TO.N,GND*%
X109200000Y-108000000D03*
D13*
X135900000Y-98300000D03*
D12*
X105475000Y-100650000D03*
X97900000Y-109300000D03*
X99923385Y-109720839D03*
X143000000Y-105212500D03*
X143000000Y-108500000D03*
X122360000Y-105050000D03*
X107925000Y-100650000D03*
X118375000Y-106920000D03*
X115400000Y-108700000D03*
X118250000Y-97750000D03*
X101500000Y-105700000D03*
%TO.N,/CANH*%
X99650500Y-101710000D03*
%TO.N,/CANL*%
X99000000Y-100690000D03*
%TO.N,+5V*%
X100900000Y-109637500D03*
D13*
X140300000Y-98500000D03*
X100400000Y-98900000D03*
D12*
%TO.N,/USB_D+*%
X133199479Y-103800521D03*
%TO.N,/USB_D-*%
X133800521Y-103199479D03*
%TO.N,/SD_CS*%
X113750000Y-105250000D03*
%TO.N,/CAN_RX*%
X105490969Y-102054500D03*
X125000000Y-100200000D03*
%TO.N,/CAN_TX*%
X127200000Y-99200000D03*
X102600000Y-98700000D03*
%TO.N,/SD_MOSI*%
X116500000Y-101660500D03*
%TO.N,/SD_SCK*%
X115895250Y-103354750D03*
%TO.N,/SD_MISO*%
X118375000Y-108020000D03*
X113750000Y-103750000D03*
%TO.N,/GPIO8*%
X99349500Y-102800000D03*
X108200000Y-103100000D03*
%TO.N,/GPIO10*%
X126250000Y-101250000D03*
%TO.N,/RX*%
X129750000Y-108250000D03*
%TO.N,/TX*%
X129750000Y-106750000D03*
%TO.N,Net-(U1-EN{slash}CHIP_PU)*%
X108100000Y-106610000D03*
X110700000Y-104400000D03*
%TO.N,/Vbus*%
X137500000Y-103925500D03*
D13*
X143200000Y-101600000D03*
%TD*%
%TA.AperFunction,Conductor*%
%TO.N,GND*%
G36*
X94667352Y-97720184D02*
G01*
X94713107Y-97772988D01*
X94723051Y-97842146D01*
X94696166Y-97903164D01*
X94664507Y-97941739D01*
X94664503Y-97941746D01*
X94571652Y-98115458D01*
X94530839Y-98249999D01*
X94530840Y-98250000D01*
X95285517Y-98250000D01*
X95214199Y-98334993D01*
X95175000Y-98442694D01*
X95175000Y-98557306D01*
X95214199Y-98665007D01*
X95285517Y-98750000D01*
X94530840Y-98750000D01*
X94571652Y-98884541D01*
X94664510Y-99058266D01*
X94665016Y-99059023D01*
X94665158Y-99059479D01*
X94667378Y-99063631D01*
X94666590Y-99064052D01*
X94685886Y-99125703D01*
X94667392Y-99193081D01*
X94657768Y-99206552D01*
X94657413Y-99206984D01*
X94657401Y-99207002D01*
X94563760Y-99382191D01*
X94506091Y-99572300D01*
X94486620Y-99770000D01*
X94506091Y-99967699D01*
X94563760Y-100157808D01*
X94657404Y-100333004D01*
X94659483Y-100336115D01*
X94660070Y-100337991D01*
X94660276Y-100338376D01*
X94660203Y-100338415D01*
X94680357Y-100402794D01*
X94661869Y-100470173D01*
X94659483Y-100473885D01*
X94657404Y-100476995D01*
X94563760Y-100652191D01*
X94506091Y-100842300D01*
X94486620Y-101040000D01*
X94506091Y-101237699D01*
X94563760Y-101427808D01*
X94657404Y-101603004D01*
X94659483Y-101606115D01*
X94660070Y-101607991D01*
X94660276Y-101608376D01*
X94660203Y-101608415D01*
X94680357Y-101672794D01*
X94661869Y-101740173D01*
X94659483Y-101743885D01*
X94657404Y-101746995D01*
X94563760Y-101922191D01*
X94506091Y-102112300D01*
X94486620Y-102310000D01*
X94506091Y-102507699D01*
X94563760Y-102697808D01*
X94657404Y-102873004D01*
X94659483Y-102876115D01*
X94660070Y-102877991D01*
X94660276Y-102878376D01*
X94660203Y-102878415D01*
X94680357Y-102942794D01*
X94661869Y-103010173D01*
X94659483Y-103013885D01*
X94657404Y-103016995D01*
X94563760Y-103192191D01*
X94506091Y-103382300D01*
X94486620Y-103580000D01*
X94506091Y-103777699D01*
X94563760Y-103967808D01*
X94657404Y-104143004D01*
X94659483Y-104146115D01*
X94660070Y-104147991D01*
X94660276Y-104148376D01*
X94660203Y-104148415D01*
X94680357Y-104212794D01*
X94661869Y-104280173D01*
X94659483Y-104283885D01*
X94657404Y-104286995D01*
X94563760Y-104462191D01*
X94506091Y-104652300D01*
X94486620Y-104850000D01*
X94506091Y-105047699D01*
X94563760Y-105237808D01*
X94657403Y-105413002D01*
X94657404Y-105413003D01*
X94657761Y-105413438D01*
X94657876Y-105413709D01*
X94660791Y-105418072D01*
X94659963Y-105418624D01*
X94685072Y-105477749D01*
X94673278Y-105546616D01*
X94665016Y-105560977D01*
X94664510Y-105561733D01*
X94571652Y-105735458D01*
X94530839Y-105869999D01*
X94530840Y-105870000D01*
X95285517Y-105870000D01*
X95214199Y-105954993D01*
X95175000Y-106062694D01*
X95175000Y-106177306D01*
X95214199Y-106285007D01*
X95285517Y-106370000D01*
X94530840Y-106370000D01*
X94571652Y-106504541D01*
X94664510Y-106678266D01*
X94665016Y-106679023D01*
X94665158Y-106679479D01*
X94667378Y-106683631D01*
X94666590Y-106684052D01*
X94685886Y-106745703D01*
X94667392Y-106813081D01*
X94657768Y-106826552D01*
X94657413Y-106826984D01*
X94657401Y-106827002D01*
X94563760Y-107002191D01*
X94506091Y-107192300D01*
X94486620Y-107390000D01*
X94506091Y-107587699D01*
X94563760Y-107777808D01*
X94657404Y-107953004D01*
X94659483Y-107956115D01*
X94660070Y-107957991D01*
X94660276Y-107958376D01*
X94660203Y-107958415D01*
X94680357Y-108022794D01*
X94661869Y-108090173D01*
X94659483Y-108093885D01*
X94657404Y-108096995D01*
X94563760Y-108272191D01*
X94506091Y-108462300D01*
X94486620Y-108660000D01*
X94506091Y-108857699D01*
X94563762Y-109047814D01*
X94566091Y-109053436D01*
X94564521Y-109054086D01*
X94577110Y-109114534D01*
X94552779Y-109178895D01*
X94549115Y-109183789D01*
X94549114Y-109183792D01*
X94549111Y-109183796D01*
X94549110Y-109183799D01*
X94498011Y-109320795D01*
X94498011Y-109320797D01*
X94491500Y-109381345D01*
X94491500Y-110478654D01*
X94498011Y-110539202D01*
X94498011Y-110539204D01*
X94532685Y-110632165D01*
X94537670Y-110701857D01*
X94504186Y-110763180D01*
X94442863Y-110796666D01*
X94416504Y-110799500D01*
X94324500Y-110799500D01*
X94257461Y-110779815D01*
X94211706Y-110727011D01*
X94200500Y-110675500D01*
X94200500Y-97824499D01*
X94220185Y-97757460D01*
X94272989Y-97711705D01*
X94324500Y-97700499D01*
X94600313Y-97700499D01*
X94667352Y-97720184D01*
G37*
%TD.AperFunction*%
%TA.AperFunction,Conductor*%
G36*
X112892835Y-97519685D02*
G01*
X112938590Y-97572489D01*
X112949016Y-97637883D01*
X112936384Y-97749996D01*
X112936384Y-97750003D01*
X112956781Y-97931041D01*
X112956782Y-97931046D01*
X113016958Y-98103017D01*
X113107552Y-98247195D01*
X113113889Y-98257281D01*
X113242719Y-98386111D01*
X113396985Y-98483043D01*
X113568953Y-98543217D01*
X113568958Y-98543218D01*
X113749996Y-98563616D01*
X113750000Y-98563616D01*
X113750004Y-98563616D01*
X113931041Y-98543218D01*
X113931044Y-98543217D01*
X113931047Y-98543217D01*
X114103015Y-98483043D01*
X114257281Y-98386111D01*
X114386111Y-98257281D01*
X114483043Y-98103015D01*
X114543217Y-97931047D01*
X114543218Y-97931041D01*
X114563616Y-97750003D01*
X114563616Y-97749996D01*
X114550984Y-97637883D01*
X114563038Y-97569062D01*
X114610388Y-97517682D01*
X114674204Y-97500000D01*
X132411536Y-97500000D01*
X132478575Y-97519685D01*
X132499217Y-97536319D01*
X132573387Y-97610489D01*
X132676114Y-97669799D01*
X132790691Y-97700500D01*
X132827410Y-97700500D01*
X139518858Y-97700500D01*
X139585897Y-97720185D01*
X139631652Y-97772989D01*
X139641596Y-97842147D01*
X139612571Y-97905703D01*
X139611008Y-97907472D01*
X139560959Y-97963057D01*
X139465473Y-98128443D01*
X139465470Y-98128450D01*
X139409944Y-98299343D01*
X139406458Y-98310072D01*
X139386496Y-98500000D01*
X139406458Y-98689928D01*
X139406459Y-98689931D01*
X139465470Y-98871549D01*
X139465473Y-98871556D01*
X139560960Y-99036944D01*
X139688747Y-99178866D01*
X139843248Y-99291118D01*
X140017712Y-99368794D01*
X140204513Y-99408500D01*
X140395487Y-99408500D01*
X140582288Y-99368794D01*
X140756752Y-99291118D01*
X140911253Y-99178866D01*
X141039040Y-99036944D01*
X141134527Y-98871556D01*
X141193542Y-98689928D01*
X141213504Y-98500000D01*
X141193542Y-98310072D01*
X141134527Y-98128444D01*
X141039040Y-97963056D01*
X140988992Y-97907472D01*
X140958762Y-97844481D01*
X140967387Y-97775145D01*
X141012129Y-97721480D01*
X141078781Y-97700522D01*
X141081142Y-97700500D01*
X143675500Y-97700500D01*
X143742539Y-97720185D01*
X143788294Y-97772989D01*
X143799500Y-97824500D01*
X143799500Y-100681493D01*
X143779815Y-100748532D01*
X143727011Y-100794287D01*
X143657853Y-100804231D01*
X143625066Y-100794773D01*
X143482289Y-100731206D01*
X143482286Y-100731205D01*
X143295487Y-100691500D01*
X143104513Y-100691500D01*
X142917714Y-100731205D01*
X142917712Y-100731206D01*
X142753695Y-100804231D01*
X142743246Y-100808883D01*
X142588745Y-100921135D01*
X142460959Y-101063057D01*
X142365473Y-101228443D01*
X142365470Y-101228450D01*
X142323708Y-101356982D01*
X142306458Y-101410072D01*
X142286496Y-101600000D01*
X142306458Y-101789928D01*
X142306459Y-101789931D01*
X142365470Y-101971549D01*
X142365473Y-101971556D01*
X142460960Y-102136944D01*
X142563290Y-102250594D01*
X142585712Y-102275496D01*
X142588747Y-102278866D01*
X142743248Y-102391118D01*
X142917712Y-102468794D01*
X143104513Y-102508500D01*
X143295487Y-102508500D01*
X143482283Y-102468795D01*
X143482282Y-102468795D01*
X143482288Y-102468794D01*
X143625068Y-102405224D01*
X143694315Y-102395941D01*
X143757591Y-102425569D01*
X143794804Y-102484704D01*
X143799500Y-102518505D01*
X143799500Y-103478662D01*
X143779815Y-103545701D01*
X143727011Y-103591456D01*
X143657853Y-103601400D01*
X143594297Y-103572375D01*
X143558459Y-103519617D01*
X143533044Y-103446988D01*
X143533043Y-103446984D01*
X143436438Y-103293240D01*
X143436111Y-103292719D01*
X143307281Y-103163889D01*
X143281255Y-103147536D01*
X143153017Y-103066958D01*
X143153016Y-103066957D01*
X143153015Y-103066957D01*
X143098693Y-103047949D01*
X142981046Y-103006782D01*
X142981041Y-103006781D01*
X142800004Y-102986384D01*
X142799996Y-102986384D01*
X142618958Y-103006781D01*
X142618953Y-103006782D01*
X142446982Y-103066958D01*
X142292718Y-103163889D01*
X142163889Y-103292718D01*
X142066958Y-103446982D01*
X142006782Y-103618953D01*
X142006781Y-103618958D01*
X141986384Y-103799996D01*
X141986384Y-103800003D01*
X142006781Y-103981041D01*
X142006782Y-103981046D01*
X142034305Y-104059702D01*
X142065347Y-104148415D01*
X142066958Y-104153017D01*
X142104519Y-104212794D01*
X142163889Y-104307281D01*
X142292719Y-104436111D01*
X142446985Y-104533043D01*
X142618953Y-104593217D01*
X142618958Y-104593218D01*
X142799996Y-104613616D01*
X142800000Y-104613616D01*
X142800004Y-104613616D01*
X142981041Y-104593218D01*
X142981044Y-104593217D01*
X142981047Y-104593217D01*
X143153015Y-104533043D01*
X143307281Y-104436111D01*
X143436111Y-104307281D01*
X143533043Y-104153015D01*
X143558458Y-104080381D01*
X143599180Y-104023606D01*
X143664133Y-103997859D01*
X143732694Y-104011315D01*
X143783097Y-104059702D01*
X143799500Y-104121337D01*
X143799500Y-110675500D01*
X143779815Y-110742539D01*
X143727011Y-110788294D01*
X143675500Y-110799500D01*
X96583496Y-110799500D01*
X96516457Y-110779815D01*
X96470702Y-110727011D01*
X96460758Y-110657853D01*
X96467315Y-110632165D01*
X96501988Y-110539204D01*
X96501988Y-110539203D01*
X96501989Y-110539201D01*
X96505591Y-110505692D01*
X96508499Y-110478654D01*
X96508500Y-110478637D01*
X96508500Y-109637503D01*
X100086384Y-109637503D01*
X100106781Y-109818541D01*
X100106782Y-109818546D01*
X100147949Y-109936193D01*
X100166957Y-109990515D01*
X100263889Y-110144781D01*
X100392719Y-110273611D01*
X100546985Y-110370543D01*
X100718953Y-110430717D01*
X100718958Y-110430718D01*
X100899996Y-110451116D01*
X100900000Y-110451116D01*
X100900004Y-110451116D01*
X101081041Y-110430718D01*
X101081044Y-110430717D01*
X101081047Y-110430717D01*
X101253015Y-110370543D01*
X101407281Y-110273611D01*
X101536111Y-110144781D01*
X101633043Y-109990515D01*
X101693217Y-109818547D01*
X101693218Y-109818541D01*
X101713616Y-109637503D01*
X101713616Y-109637496D01*
X101693218Y-109456458D01*
X101693217Y-109456453D01*
X101633043Y-109284485D01*
X101536111Y-109130219D01*
X101407281Y-109001389D01*
X101253015Y-108904457D01*
X101179874Y-108878864D01*
X101081046Y-108844282D01*
X101081041Y-108844281D01*
X100900004Y-108823884D01*
X100899996Y-108823884D01*
X100718958Y-108844281D01*
X100718953Y-108844282D01*
X100546982Y-108904458D01*
X100392718Y-109001389D01*
X100263889Y-109130218D01*
X100166958Y-109284482D01*
X100106782Y-109456453D01*
X100106781Y-109456458D01*
X100086384Y-109637496D01*
X100086384Y-109637503D01*
X96508500Y-109637503D01*
X96508500Y-109381362D01*
X96508499Y-109381345D01*
X96505157Y-109350270D01*
X96501989Y-109320799D01*
X96488444Y-109284485D01*
X96450888Y-109183793D01*
X96450887Y-109183792D01*
X96447224Y-109178899D01*
X96422806Y-109113435D01*
X96435450Y-109054070D01*
X96433910Y-109053432D01*
X96436238Y-109047811D01*
X96436238Y-109047807D01*
X96436241Y-109047804D01*
X96493908Y-108857701D01*
X96513380Y-108660000D01*
X96493908Y-108462299D01*
X96436241Y-108272196D01*
X96436239Y-108272193D01*
X96436239Y-108272191D01*
X96342600Y-108097004D01*
X96340525Y-108093899D01*
X96339936Y-108092021D01*
X96339724Y-108091623D01*
X96339799Y-108091582D01*
X96319642Y-108027224D01*
X96338121Y-107959842D01*
X96340525Y-107956101D01*
X96342589Y-107953010D01*
X96342595Y-107953004D01*
X96356317Y-107927333D01*
X96436239Y-107777808D01*
X96436239Y-107777807D01*
X96436241Y-107777804D01*
X96493908Y-107587701D01*
X96502546Y-107500003D01*
X100686384Y-107500003D01*
X100706781Y-107681041D01*
X100706782Y-107681046D01*
X100728363Y-107742719D01*
X100765338Y-107848389D01*
X100766958Y-107853017D01*
X100795336Y-107898180D01*
X100863889Y-108007281D01*
X100992719Y-108136111D01*
X101146985Y-108233043D01*
X101303529Y-108287820D01*
X101318953Y-108293217D01*
X101318958Y-108293218D01*
X101499996Y-108313616D01*
X101500000Y-108313616D01*
X101500004Y-108313616D01*
X101681041Y-108293218D01*
X101681044Y-108293217D01*
X101681047Y-108293217D01*
X101853015Y-108233043D01*
X102007281Y-108136111D01*
X102136111Y-108007281D01*
X102187210Y-107925956D01*
X102239543Y-107879667D01*
X102308597Y-107869018D01*
X102372445Y-107897393D01*
X102398046Y-107927330D01*
X102490979Y-108079605D01*
X102490983Y-108079611D01*
X102490986Y-108079615D01*
X102664253Y-108287819D01*
X102664259Y-108287824D01*
X102759341Y-108373017D01*
X102865998Y-108468582D01*
X103091910Y-108618044D01*
X103337176Y-108733020D01*
X103337183Y-108733022D01*
X103337185Y-108733023D01*
X103596557Y-108811057D01*
X103596564Y-108811058D01*
X103596569Y-108811060D01*
X103864561Y-108850500D01*
X103864566Y-108850500D01*
X104067636Y-108850500D01*
X104119133Y-108846730D01*
X104270156Y-108835677D01*
X104382758Y-108810593D01*
X104534546Y-108776782D01*
X104534548Y-108776781D01*
X104534553Y-108776780D01*
X104787558Y-108680014D01*
X105023777Y-108547441D01*
X105238177Y-108381888D01*
X105413538Y-108200000D01*
X109786496Y-108200000D01*
X109806458Y-108389928D01*
X109806459Y-108389931D01*
X109865470Y-108571549D01*
X109865473Y-108571556D01*
X109960960Y-108736944D01*
X110088747Y-108878866D01*
X110243248Y-108991118D01*
X110417712Y-109068794D01*
X110604513Y-109108500D01*
X110795483Y-109108500D01*
X110795487Y-109108500D01*
X110826911Y-109101820D01*
X110896575Y-109107135D01*
X110952309Y-109149271D01*
X110962082Y-109166009D01*
X110962224Y-109165928D01*
X110965472Y-109171554D01*
X110965473Y-109171556D01*
X111060960Y-109336944D01*
X111188747Y-109478866D01*
X111343248Y-109591118D01*
X111517712Y-109668794D01*
X111704513Y-109708500D01*
X111895487Y-109708500D01*
X112082288Y-109668794D01*
X112256752Y-109591118D01*
X112411253Y-109478866D01*
X112539040Y-109336944D01*
X112634527Y-109171556D01*
X112693542Y-108989928D01*
X112713504Y-108800000D01*
X112693542Y-108610072D01*
X112634527Y-108428444D01*
X112539040Y-108263056D01*
X112411253Y-108121134D01*
X112272059Y-108020003D01*
X117561384Y-108020003D01*
X117581781Y-108201041D01*
X117581782Y-108201046D01*
X117641958Y-108373017D01*
X117647532Y-108381888D01*
X117738889Y-108527281D01*
X117867719Y-108656111D01*
X118021985Y-108753043D01*
X118156181Y-108800000D01*
X118193953Y-108813217D01*
X118193958Y-108813218D01*
X118374996Y-108833616D01*
X118375000Y-108833616D01*
X118375004Y-108833616D01*
X118556041Y-108813218D01*
X118556044Y-108813217D01*
X118556047Y-108813217D01*
X118728015Y-108753043D01*
X118882281Y-108656111D01*
X119011111Y-108527281D01*
X119108043Y-108373015D01*
X119151087Y-108250003D01*
X128936384Y-108250003D01*
X128956781Y-108431041D01*
X128956782Y-108431046D01*
X129016958Y-108603017D01*
X129065339Y-108680014D01*
X129113889Y-108757281D01*
X129242719Y-108886111D01*
X129396985Y-108983043D01*
X129568953Y-109043217D01*
X129568958Y-109043218D01*
X129749996Y-109063616D01*
X129750000Y-109063616D01*
X129750004Y-109063616D01*
X129931041Y-109043218D01*
X129931044Y-109043217D01*
X129931047Y-109043217D01*
X130103015Y-108983043D01*
X130257281Y-108886111D01*
X130386111Y-108757281D01*
X130483043Y-108603015D01*
X130543217Y-108431047D01*
X130543510Y-108428450D01*
X130563616Y-108250003D01*
X130563616Y-108249996D01*
X130543218Y-108068958D01*
X130543217Y-108068953D01*
X130527065Y-108022794D01*
X130483043Y-107896985D01*
X130386111Y-107742719D01*
X130257281Y-107613889D01*
X130257278Y-107613886D01*
X130243125Y-107604994D01*
X130196833Y-107552660D01*
X130186184Y-107483606D01*
X130214559Y-107419758D01*
X130243125Y-107395006D01*
X130257278Y-107386113D01*
X130257278Y-107386112D01*
X130257281Y-107386111D01*
X130386111Y-107257281D01*
X130483043Y-107103015D01*
X130495378Y-107067763D01*
X136145787Y-107067763D01*
X136175413Y-107337013D01*
X136175415Y-107337024D01*
X136240951Y-107587701D01*
X136243928Y-107599088D01*
X136349870Y-107848390D01*
X136454604Y-108020003D01*
X136490979Y-108079605D01*
X136490986Y-108079615D01*
X136664253Y-108287819D01*
X136664259Y-108287824D01*
X136759341Y-108373017D01*
X136865998Y-108468582D01*
X137091910Y-108618044D01*
X137337176Y-108733020D01*
X137337183Y-108733022D01*
X137337185Y-108733023D01*
X137596557Y-108811057D01*
X137596564Y-108811058D01*
X137596569Y-108811060D01*
X137864561Y-108850500D01*
X137864566Y-108850500D01*
X138067636Y-108850500D01*
X138119133Y-108846730D01*
X138270156Y-108835677D01*
X138382758Y-108810593D01*
X138534546Y-108776782D01*
X138534548Y-108776781D01*
X138534553Y-108776780D01*
X138787558Y-108680014D01*
X139023777Y-108547441D01*
X139238177Y-108381888D01*
X139426186Y-108186881D01*
X139583799Y-107966579D01*
X139680855Y-107777804D01*
X139707649Y-107725690D01*
X139707651Y-107725684D01*
X139707656Y-107725675D01*
X139795118Y-107469305D01*
X139844319Y-107202933D01*
X139854212Y-106932235D01*
X139824586Y-106662982D01*
X139756072Y-106400912D01*
X139650130Y-106151610D01*
X139509018Y-105920390D01*
X139507845Y-105918981D01*
X139335746Y-105712180D01*
X139335740Y-105712175D01*
X139134002Y-105531418D01*
X138908092Y-105381957D01*
X138908090Y-105381956D01*
X138662824Y-105266980D01*
X138662819Y-105266978D01*
X138662814Y-105266976D01*
X138403442Y-105188942D01*
X138403428Y-105188939D01*
X138287791Y-105171921D01*
X138135439Y-105149500D01*
X137932369Y-105149500D01*
X137932364Y-105149500D01*
X137729844Y-105164323D01*
X137729831Y-105164325D01*
X137465453Y-105223217D01*
X137465446Y-105223220D01*
X137212439Y-105319987D01*
X136976226Y-105452557D01*
X136976224Y-105452558D01*
X136976223Y-105452559D01*
X136943601Y-105477749D01*
X136761822Y-105618112D01*
X136573822Y-105813109D01*
X136573816Y-105813116D01*
X136416202Y-106033419D01*
X136416199Y-106033424D01*
X136292350Y-106274309D01*
X136292343Y-106274327D01*
X136204884Y-106530685D01*
X136204881Y-106530699D01*
X136190234Y-106609996D01*
X136161243Y-106766958D01*
X136155681Y-106797068D01*
X136155680Y-106797075D01*
X136145787Y-107067763D01*
X130495378Y-107067763D01*
X130543217Y-106931047D01*
X130554942Y-106826984D01*
X130563616Y-106750003D01*
X130563616Y-106749996D01*
X130543218Y-106568958D01*
X130543217Y-106568953D01*
X130520678Y-106504541D01*
X130483043Y-106396985D01*
X130386111Y-106242719D01*
X130257281Y-106113889D01*
X130144809Y-106043218D01*
X130103017Y-106016958D01*
X130103016Y-106016957D01*
X130103015Y-106016957D01*
X130048693Y-105997949D01*
X129931046Y-105956782D01*
X129931041Y-105956781D01*
X129750004Y-105936384D01*
X129749996Y-105936384D01*
X129568958Y-105956781D01*
X129568953Y-105956782D01*
X129396982Y-106016958D01*
X129242718Y-106113889D01*
X129113889Y-106242718D01*
X129016958Y-106396982D01*
X128956782Y-106568953D01*
X128956781Y-106568958D01*
X128936384Y-106749996D01*
X128936384Y-106750003D01*
X128956781Y-106931041D01*
X128956782Y-106931046D01*
X129016958Y-107103017D01*
X129094725Y-107226782D01*
X129113889Y-107257281D01*
X129242719Y-107386111D01*
X129256875Y-107395006D01*
X129256877Y-107395007D01*
X129303167Y-107447343D01*
X129313814Y-107516396D01*
X129285438Y-107580244D01*
X129256877Y-107604993D01*
X129242717Y-107613890D01*
X129113889Y-107742718D01*
X129016958Y-107896982D01*
X128956782Y-108068953D01*
X128956781Y-108068958D01*
X128936384Y-108249996D01*
X128936384Y-108250003D01*
X119151087Y-108250003D01*
X119168217Y-108201047D01*
X119169813Y-108186881D01*
X119188616Y-108020003D01*
X119188616Y-108019996D01*
X119168218Y-107838958D01*
X119168217Y-107838953D01*
X119164539Y-107828443D01*
X119108043Y-107666985D01*
X119011111Y-107512719D01*
X118882281Y-107383889D01*
X118807696Y-107337024D01*
X118728017Y-107286958D01*
X118728016Y-107286957D01*
X118728015Y-107286957D01*
X118643206Y-107257281D01*
X118556046Y-107226782D01*
X118556041Y-107226781D01*
X118375004Y-107206384D01*
X118374996Y-107206384D01*
X118193958Y-107226781D01*
X118193953Y-107226782D01*
X118021982Y-107286958D01*
X117867718Y-107383889D01*
X117738889Y-107512718D01*
X117641958Y-107666982D01*
X117581782Y-107838953D01*
X117581781Y-107838958D01*
X117561384Y-108019996D01*
X117561384Y-108020003D01*
X112272059Y-108020003D01*
X112256752Y-108008882D01*
X112082288Y-107931206D01*
X112082286Y-107931205D01*
X111895487Y-107891500D01*
X111704513Y-107891500D01*
X111673086Y-107898179D01*
X111603421Y-107892863D01*
X111547688Y-107850725D01*
X111537918Y-107833989D01*
X111537776Y-107834072D01*
X111505290Y-107777804D01*
X111439040Y-107663056D01*
X111311253Y-107521134D01*
X111156752Y-107408882D01*
X110982288Y-107331206D01*
X110982286Y-107331205D01*
X110795487Y-107291500D01*
X110604513Y-107291500D01*
X110417714Y-107331205D01*
X110330480Y-107370044D01*
X110299384Y-107383889D01*
X110243246Y-107408883D01*
X110088745Y-107521135D01*
X109960959Y-107663057D01*
X109865473Y-107828443D01*
X109865470Y-107828450D01*
X109806844Y-108008883D01*
X109806458Y-108010072D01*
X109786496Y-108200000D01*
X105413538Y-108200000D01*
X105426186Y-108186881D01*
X105583799Y-107966579D01*
X105680855Y-107777804D01*
X105707649Y-107725690D01*
X105707651Y-107725684D01*
X105707656Y-107725675D01*
X105795118Y-107469305D01*
X105844319Y-107202933D01*
X105854212Y-106932235D01*
X105824586Y-106662982D01*
X105810735Y-106610003D01*
X107286384Y-106610003D01*
X107306781Y-106791041D01*
X107306782Y-106791046D01*
X107366958Y-106963017D01*
X107385621Y-106992719D01*
X107463889Y-107117281D01*
X107592719Y-107246111D01*
X107746985Y-107343043D01*
X107895490Y-107395007D01*
X107918953Y-107403217D01*
X107918958Y-107403218D01*
X108099996Y-107423616D01*
X108100000Y-107423616D01*
X108100004Y-107423616D01*
X108281041Y-107403218D01*
X108281044Y-107403217D01*
X108281047Y-107403217D01*
X108453015Y-107343043D01*
X108607281Y-107246111D01*
X108736111Y-107117281D01*
X108833043Y-106963015D01*
X108893217Y-106791047D01*
X108895931Y-106766958D01*
X108913616Y-106610003D01*
X108913616Y-106609996D01*
X108893218Y-106428958D01*
X108893217Y-106428953D01*
X108873570Y-106372805D01*
X108833043Y-106256985D01*
X108833041Y-106256982D01*
X108833041Y-106256981D01*
X108778998Y-106170973D01*
X108759997Y-106103736D01*
X108778998Y-106039027D01*
X108833041Y-105953018D01*
X108833040Y-105953018D01*
X108833043Y-105953015D01*
X108893217Y-105781047D01*
X108893218Y-105781041D01*
X108913616Y-105600003D01*
X108913616Y-105599996D01*
X108893218Y-105418958D01*
X108893217Y-105418953D01*
X108891133Y-105412998D01*
X108833043Y-105246985D01*
X108736111Y-105092719D01*
X108607281Y-104963889D01*
X108507267Y-104901046D01*
X108453017Y-104866958D01*
X108453016Y-104866957D01*
X108453015Y-104866957D01*
X108398693Y-104847949D01*
X108281046Y-104806782D01*
X108281041Y-104806781D01*
X108100004Y-104786384D01*
X108099996Y-104786384D01*
X107918958Y-104806781D01*
X107918953Y-104806782D01*
X107746982Y-104866958D01*
X107592718Y-104963889D01*
X107463889Y-105092718D01*
X107366958Y-105246982D01*
X107306782Y-105418953D01*
X107306781Y-105418958D01*
X107286384Y-105599996D01*
X107286384Y-105600003D01*
X107306781Y-105781041D01*
X107306782Y-105781046D01*
X107337909Y-105870000D01*
X107355542Y-105920394D01*
X107366958Y-105953017D01*
X107421002Y-106039029D01*
X107440002Y-106106266D01*
X107421002Y-106170971D01*
X107366958Y-106256982D01*
X107306782Y-106428953D01*
X107306781Y-106428958D01*
X107286384Y-106609996D01*
X107286384Y-106610003D01*
X105810735Y-106610003D01*
X105756072Y-106400912D01*
X105650130Y-106151610D01*
X105509018Y-105920390D01*
X105507845Y-105918981D01*
X105335746Y-105712180D01*
X105335740Y-105712175D01*
X105134002Y-105531418D01*
X104908092Y-105381957D01*
X104908090Y-105381956D01*
X104662824Y-105266980D01*
X104662819Y-105266978D01*
X104662814Y-105266976D01*
X104403442Y-105188942D01*
X104403428Y-105188939D01*
X104287791Y-105171921D01*
X104135439Y-105149500D01*
X103932369Y-105149500D01*
X103932364Y-105149500D01*
X103729844Y-105164323D01*
X103729831Y-105164325D01*
X103465453Y-105223217D01*
X103465446Y-105223220D01*
X103212439Y-105319987D01*
X102976226Y-105452557D01*
X102976224Y-105452558D01*
X102976223Y-105452559D01*
X102943601Y-105477749D01*
X102761822Y-105618112D01*
X102573822Y-105813109D01*
X102573816Y-105813116D01*
X102416202Y-106033419D01*
X102416199Y-106033424D01*
X102292350Y-106274309D01*
X102292343Y-106274327D01*
X102204884Y-106530685D01*
X102204881Y-106530699D01*
X102162379Y-106760801D01*
X102130845Y-106823150D01*
X102070609Y-106858553D01*
X102000795Y-106855769D01*
X101974470Y-106843272D01*
X101853017Y-106766958D01*
X101853016Y-106766957D01*
X101853015Y-106766957D01*
X101792274Y-106745703D01*
X101681046Y-106706782D01*
X101681041Y-106706781D01*
X101500004Y-106686384D01*
X101499996Y-106686384D01*
X101318958Y-106706781D01*
X101318953Y-106706782D01*
X101146982Y-106766958D01*
X100992718Y-106863889D01*
X100863889Y-106992718D01*
X100766958Y-107146982D01*
X100706782Y-107318953D01*
X100706781Y-107318958D01*
X100686384Y-107499996D01*
X100686384Y-107500003D01*
X96502546Y-107500003D01*
X96513380Y-107390000D01*
X96493908Y-107192299D01*
X96436241Y-107002196D01*
X96436239Y-107002193D01*
X96436239Y-107002191D01*
X96342596Y-106826997D01*
X96342594Y-106826994D01*
X96342240Y-106826563D01*
X96342125Y-106826292D01*
X96339209Y-106821928D01*
X96340036Y-106821374D01*
X96314928Y-106762252D01*
X96326720Y-106693385D01*
X96335002Y-106678993D01*
X96335499Y-106678249D01*
X96428347Y-106504541D01*
X96469160Y-106370000D01*
X95714483Y-106370000D01*
X95785801Y-106285007D01*
X95825000Y-106177306D01*
X95825000Y-106062694D01*
X95785801Y-105954993D01*
X95714483Y-105870000D01*
X96469160Y-105870000D01*
X96469160Y-105869999D01*
X96428347Y-105735458D01*
X96335493Y-105561740D01*
X96334991Y-105560989D01*
X96334848Y-105560535D01*
X96332622Y-105556369D01*
X96333412Y-105555946D01*
X96314114Y-105494311D01*
X96332600Y-105426932D01*
X96342241Y-105413435D01*
X96342595Y-105413004D01*
X96342596Y-105413000D01*
X96342599Y-105412998D01*
X96432805Y-105244233D01*
X96481767Y-105194389D01*
X96549904Y-105178928D01*
X96615584Y-105202759D01*
X96657953Y-105258317D01*
X96665383Y-105288803D01*
X96682281Y-105438785D01*
X96682282Y-105438790D01*
X96720012Y-105546616D01*
X96742457Y-105610759D01*
X96839389Y-105765025D01*
X96968219Y-105893855D01*
X97122485Y-105990787D01*
X97272322Y-106043217D01*
X97294453Y-106050961D01*
X97294458Y-106050962D01*
X97475496Y-106071360D01*
X97475500Y-106071360D01*
X97475504Y-106071360D01*
X97656541Y-106050962D01*
X97656544Y-106050961D01*
X97656547Y-106050961D01*
X97828515Y-105990787D01*
X97982781Y-105893855D01*
X98111611Y-105765025D01*
X98208543Y-105610759D01*
X98268717Y-105438791D01*
X98269590Y-105431046D01*
X98289116Y-105257747D01*
X98289116Y-105257740D01*
X98268718Y-105076702D01*
X98268717Y-105076697D01*
X98254515Y-105036110D01*
X98208543Y-104904729D01*
X98111611Y-104750463D01*
X97982781Y-104621633D01*
X97938388Y-104593739D01*
X97828517Y-104524702D01*
X97828516Y-104524701D01*
X97828515Y-104524701D01*
X97774193Y-104505693D01*
X97656546Y-104464526D01*
X97656541Y-104464525D01*
X97475504Y-104444128D01*
X97475496Y-104444128D01*
X97294458Y-104464525D01*
X97294453Y-104464526D01*
X97122482Y-104524702D01*
X96968218Y-104621633D01*
X96839389Y-104750462D01*
X96839387Y-104750465D01*
X96741945Y-104905541D01*
X96689610Y-104951832D01*
X96620557Y-104962479D01*
X96556709Y-104934104D01*
X96518337Y-104875714D01*
X96513549Y-104851722D01*
X96513379Y-104850003D01*
X96513380Y-104850000D01*
X96493908Y-104652299D01*
X96436241Y-104462196D01*
X96436239Y-104462193D01*
X96436239Y-104462191D01*
X96402999Y-104400003D01*
X109886384Y-104400003D01*
X109906781Y-104581041D01*
X109906782Y-104581046D01*
X109931715Y-104652299D01*
X109963354Y-104742719D01*
X109966958Y-104753017D01*
X110000741Y-104806782D01*
X110063889Y-104907281D01*
X110192719Y-105036111D01*
X110346985Y-105133043D01*
X110506727Y-105188939D01*
X110518953Y-105193217D01*
X110518958Y-105193218D01*
X110699996Y-105213616D01*
X110700000Y-105213616D01*
X110700004Y-105213616D01*
X110881041Y-105193218D01*
X110881044Y-105193217D01*
X110881047Y-105193217D01*
X111053015Y-105133043D01*
X111207281Y-105036111D01*
X111336111Y-104907281D01*
X111433043Y-104753015D01*
X111493217Y-104581047D01*
X111493308Y-104580244D01*
X111504259Y-104483043D01*
X111508523Y-104445197D01*
X111535589Y-104380785D01*
X111593184Y-104341230D01*
X111663020Y-104339091D01*
X111672698Y-104342041D01*
X111818945Y-104393215D01*
X111818951Y-104393216D01*
X111818953Y-104393217D01*
X111818954Y-104393217D01*
X111818958Y-104393218D01*
X111999996Y-104413616D01*
X112000000Y-104413616D01*
X112000004Y-104413616D01*
X112181041Y-104393218D01*
X112181044Y-104393217D01*
X112181047Y-104393217D01*
X112353015Y-104333043D01*
X112507281Y-104236111D01*
X112636111Y-104107281D01*
X112733043Y-103953015D01*
X112736064Y-103946742D01*
X112738201Y-103947771D01*
X112772425Y-103900044D01*
X112837374Y-103874289D01*
X112905938Y-103887738D01*
X112956346Y-103936119D01*
X112965797Y-103956811D01*
X113016955Y-104103011D01*
X113016956Y-104103015D01*
X113085936Y-104212794D01*
X113113889Y-104257281D01*
X113242719Y-104386111D01*
X113254025Y-104393215D01*
X113256877Y-104395007D01*
X113303167Y-104447343D01*
X113313814Y-104516396D01*
X113285438Y-104580244D01*
X113256877Y-104604993D01*
X113242717Y-104613890D01*
X113113889Y-104742718D01*
X113016958Y-104896982D01*
X112956782Y-105068953D01*
X112956781Y-105068958D01*
X112936384Y-105249996D01*
X112936384Y-105250003D01*
X112956781Y-105431041D01*
X112956782Y-105431046D01*
X112978920Y-105494311D01*
X113016957Y-105603015D01*
X113113889Y-105757281D01*
X113242719Y-105886111D01*
X113396985Y-105983043D01*
X113568953Y-106043217D01*
X113568958Y-106043218D01*
X113749996Y-106063616D01*
X113750000Y-106063616D01*
X113750004Y-106063616D01*
X113931041Y-106043218D01*
X113931044Y-106043217D01*
X113931047Y-106043217D01*
X114103015Y-105983043D01*
X114257281Y-105886111D01*
X114386111Y-105757281D01*
X114483043Y-105603015D01*
X114543217Y-105431047D01*
X114545201Y-105413438D01*
X114563616Y-105250003D01*
X114563616Y-105249996D01*
X114543218Y-105068958D01*
X114543217Y-105068953D01*
X114531725Y-105036110D01*
X114483043Y-104896985D01*
X114386111Y-104742719D01*
X114363395Y-104720003D01*
X117561384Y-104720003D01*
X117581781Y-104901041D01*
X117581782Y-104901046D01*
X117583964Y-104907281D01*
X117640537Y-105068958D01*
X117641958Y-105073017D01*
X117723481Y-105202759D01*
X117738889Y-105227281D01*
X117867719Y-105356111D01*
X118021985Y-105453043D01*
X118139923Y-105494311D01*
X118193953Y-105513217D01*
X118193958Y-105513218D01*
X118374996Y-105533616D01*
X118375000Y-105533616D01*
X118375004Y-105533616D01*
X118556041Y-105513218D01*
X118556044Y-105513217D01*
X118556047Y-105513217D01*
X118728015Y-105453043D01*
X118882281Y-105356111D01*
X119011111Y-105227281D01*
X119108043Y-105073015D01*
X119168217Y-104901047D01*
X119168675Y-104896982D01*
X119188616Y-104720003D01*
X119188616Y-104719996D01*
X119168218Y-104538958D01*
X119168217Y-104538953D01*
X119142174Y-104464526D01*
X119108043Y-104366985D01*
X119011111Y-104212719D01*
X118882281Y-104083889D01*
X118822261Y-104046176D01*
X118728017Y-103986958D01*
X118728016Y-103986957D01*
X118728015Y-103986957D01*
X118673279Y-103967804D01*
X118556046Y-103926782D01*
X118556041Y-103926781D01*
X118375004Y-103906384D01*
X118374996Y-103906384D01*
X118193958Y-103926781D01*
X118193953Y-103926782D01*
X118021982Y-103986958D01*
X117867718Y-104083889D01*
X117738889Y-104212718D01*
X117641958Y-104366982D01*
X117581782Y-104538953D01*
X117581781Y-104538958D01*
X117561384Y-104719996D01*
X117561384Y-104720003D01*
X114363395Y-104720003D01*
X114257281Y-104613889D01*
X114257278Y-104613886D01*
X114243125Y-104604994D01*
X114196833Y-104552660D01*
X114186184Y-104483606D01*
X114214559Y-104419758D01*
X114243125Y-104395006D01*
X114257278Y-104386113D01*
X114257278Y-104386112D01*
X114257281Y-104386111D01*
X114386111Y-104257281D01*
X114483043Y-104103015D01*
X114543217Y-103931047D01*
X114543218Y-103931041D01*
X114563616Y-103750003D01*
X114563616Y-103749996D01*
X114543218Y-103568958D01*
X114543217Y-103568953D01*
X114531613Y-103535791D01*
X114483043Y-103396985D01*
X114456507Y-103354753D01*
X115081634Y-103354753D01*
X115102031Y-103535791D01*
X115102032Y-103535796D01*
X115126872Y-103606783D01*
X115161855Y-103706760D01*
X115162208Y-103707767D01*
X115206151Y-103777701D01*
X115259139Y-103862031D01*
X115387969Y-103990861D01*
X115542235Y-104087793D01*
X115681901Y-104136664D01*
X115714203Y-104147967D01*
X115714208Y-104147968D01*
X115895246Y-104168366D01*
X115895250Y-104168366D01*
X115895254Y-104168366D01*
X116076291Y-104147968D01*
X116076294Y-104147967D01*
X116076297Y-104147967D01*
X116248265Y-104087793D01*
X116402531Y-103990861D01*
X116531361Y-103862031D01*
X116570009Y-103800524D01*
X132385863Y-103800524D01*
X132406260Y-103981562D01*
X132406261Y-103981567D01*
X132443431Y-104087791D01*
X132466254Y-104153017D01*
X132466437Y-104153538D01*
X132546893Y-104281582D01*
X132563368Y-104307802D01*
X132692198Y-104436632D01*
X132846464Y-104533564D01*
X133016943Y-104593217D01*
X133018432Y-104593738D01*
X133018437Y-104593739D01*
X133199475Y-104614137D01*
X133199479Y-104614137D01*
X133199483Y-104614137D01*
X133380520Y-104593739D01*
X133380523Y-104593738D01*
X133380526Y-104593738D01*
X133552494Y-104533564D01*
X133706760Y-104436632D01*
X133835590Y-104307802D01*
X133932522Y-104153536D01*
X133970088Y-104046175D01*
X134010809Y-103989400D01*
X134046174Y-103970088D01*
X134153536Y-103932522D01*
X134164707Y-103925503D01*
X136686384Y-103925503D01*
X136706781Y-104106541D01*
X136706782Y-104106546D01*
X136766958Y-104278517D01*
X136831218Y-104380785D01*
X136863889Y-104432781D01*
X136992719Y-104561611D01*
X137146985Y-104658543D01*
X137318953Y-104718717D01*
X137318958Y-104718718D01*
X137499996Y-104739116D01*
X137500000Y-104739116D01*
X137500004Y-104739116D01*
X137681041Y-104718718D01*
X137681044Y-104718717D01*
X137681047Y-104718717D01*
X137853015Y-104658543D01*
X138007281Y-104561611D01*
X138136111Y-104432781D01*
X138233043Y-104278515D01*
X138293217Y-104106547D01*
X138293615Y-104103015D01*
X138313616Y-103925503D01*
X138313616Y-103925496D01*
X138293218Y-103744458D01*
X138293217Y-103744453D01*
X138280379Y-103707765D01*
X138233043Y-103572485D01*
X138136111Y-103418219D01*
X138007281Y-103289389D01*
X137939796Y-103246985D01*
X137853017Y-103192458D01*
X137853016Y-103192457D01*
X137853015Y-103192457D01*
X137740302Y-103153017D01*
X137681046Y-103132282D01*
X137681041Y-103132281D01*
X137500004Y-103111884D01*
X137499996Y-103111884D01*
X137318958Y-103132281D01*
X137318953Y-103132282D01*
X137146982Y-103192458D01*
X136992718Y-103289389D01*
X136863889Y-103418218D01*
X136766958Y-103572482D01*
X136706782Y-103744453D01*
X136706781Y-103744458D01*
X136686384Y-103925496D01*
X136686384Y-103925503D01*
X134164707Y-103925503D01*
X134307802Y-103835590D01*
X134436632Y-103706760D01*
X134533564Y-103552494D01*
X134593738Y-103380526D01*
X134596642Y-103354753D01*
X134614137Y-103199482D01*
X134614137Y-103199475D01*
X134593739Y-103018437D01*
X134593738Y-103018432D01*
X134589662Y-103006783D01*
X134533564Y-102846464D01*
X134436632Y-102692198D01*
X134307802Y-102563368D01*
X134224634Y-102511110D01*
X134153538Y-102466437D01*
X134153537Y-102466436D01*
X134153536Y-102466436D01*
X134078815Y-102440290D01*
X133981567Y-102406261D01*
X133981562Y-102406260D01*
X133800525Y-102385863D01*
X133800517Y-102385863D01*
X133619479Y-102406260D01*
X133619474Y-102406261D01*
X133447503Y-102466437D01*
X133293239Y-102563368D01*
X133164410Y-102692197D01*
X133067479Y-102846461D01*
X133067478Y-102846462D01*
X133029910Y-102953825D01*
X132989188Y-103010600D01*
X132953825Y-103029910D01*
X132846462Y-103067478D01*
X132846461Y-103067479D01*
X132692197Y-103164410D01*
X132563368Y-103293239D01*
X132466437Y-103447503D01*
X132406261Y-103619474D01*
X132406260Y-103619479D01*
X132385863Y-103800517D01*
X132385863Y-103800524D01*
X116570009Y-103800524D01*
X116628293Y-103707765D01*
X116688467Y-103535797D01*
X116688468Y-103535791D01*
X116708866Y-103354753D01*
X116708866Y-103354746D01*
X116688468Y-103173708D01*
X116688467Y-103173703D01*
X116679311Y-103147536D01*
X116628293Y-103001735D01*
X116531361Y-102847469D01*
X116402531Y-102718639D01*
X116369379Y-102697808D01*
X116367054Y-102696347D01*
X116320764Y-102644012D01*
X116310117Y-102574958D01*
X116338493Y-102511110D01*
X116396883Y-102472739D01*
X116446910Y-102468134D01*
X116487779Y-102472739D01*
X116499999Y-102474116D01*
X116500000Y-102474116D01*
X116500004Y-102474116D01*
X116681041Y-102453718D01*
X116681044Y-102453717D01*
X116681047Y-102453717D01*
X116853015Y-102393543D01*
X117007281Y-102296611D01*
X117136111Y-102167781D01*
X117233043Y-102013515D01*
X117293217Y-101841547D01*
X117301479Y-101768218D01*
X117313616Y-101660503D01*
X117313616Y-101660496D01*
X117293218Y-101479458D01*
X117293217Y-101479453D01*
X117233043Y-101307485D01*
X117136111Y-101153219D01*
X117007281Y-101024389D01*
X116890932Y-100951282D01*
X116853017Y-100927458D01*
X116853016Y-100927457D01*
X116853015Y-100927457D01*
X116765931Y-100896985D01*
X116681046Y-100867282D01*
X116681041Y-100867281D01*
X116500004Y-100846884D01*
X116499996Y-100846884D01*
X116318958Y-100867281D01*
X116318953Y-100867282D01*
X116146982Y-100927458D01*
X115992718Y-101024389D01*
X115863889Y-101153218D01*
X115766958Y-101307482D01*
X115706782Y-101479453D01*
X115706781Y-101479458D01*
X115686384Y-101660496D01*
X115686384Y-101660503D01*
X115706781Y-101841541D01*
X115706782Y-101841546D01*
X115724104Y-101891049D01*
X115756294Y-101983043D01*
X115766958Y-102013517D01*
X115863889Y-102167781D01*
X115992718Y-102296610D01*
X115992721Y-102296612D01*
X116028194Y-102318902D01*
X116074485Y-102371237D01*
X116085132Y-102440290D01*
X116056757Y-102504138D01*
X115998367Y-102542510D01*
X115948338Y-102547115D01*
X115895254Y-102541134D01*
X115895246Y-102541134D01*
X115714208Y-102561531D01*
X115714203Y-102561532D01*
X115542232Y-102621708D01*
X115387968Y-102718639D01*
X115259139Y-102847468D01*
X115162208Y-103001732D01*
X115102032Y-103173703D01*
X115102031Y-103173708D01*
X115081634Y-103354746D01*
X115081634Y-103354753D01*
X114456507Y-103354753D01*
X114386111Y-103242719D01*
X114257281Y-103113889D01*
X114235177Y-103100000D01*
X114103017Y-103016958D01*
X114103016Y-103016957D01*
X114103015Y-103016957D01*
X114035327Y-102993272D01*
X113931046Y-102956782D01*
X113931041Y-102956781D01*
X113750004Y-102936384D01*
X113749996Y-102936384D01*
X113568958Y-102956781D01*
X113568953Y-102956782D01*
X113396982Y-103016958D01*
X113242718Y-103113889D01*
X113113889Y-103242718D01*
X113016956Y-103396984D01*
X113013936Y-103403258D01*
X113011806Y-103402232D01*
X112977532Y-103449988D01*
X112912571Y-103475714D01*
X112844014Y-103462237D01*
X112793626Y-103413833D01*
X112784201Y-103393187D01*
X112733043Y-103246985D01*
X112730362Y-103242719D01*
X112686997Y-103173703D01*
X112636111Y-103092719D01*
X112568823Y-103025431D01*
X112535338Y-102964108D01*
X112540322Y-102894416D01*
X112568823Y-102850069D01*
X112572431Y-102846461D01*
X112636111Y-102782781D01*
X112733043Y-102628515D01*
X112793217Y-102456547D01*
X112793536Y-102453717D01*
X112813616Y-102275503D01*
X112813616Y-102275496D01*
X112793218Y-102094458D01*
X112793217Y-102094453D01*
X112764896Y-102013517D01*
X112733043Y-101922485D01*
X112636111Y-101768219D01*
X112507281Y-101639389D01*
X112457924Y-101608376D01*
X112353017Y-101542458D01*
X112353016Y-101542457D01*
X112353015Y-101542457D01*
X112298693Y-101523449D01*
X112181046Y-101482282D01*
X112181041Y-101482281D01*
X112000004Y-101461884D01*
X111999996Y-101461884D01*
X111818958Y-101482281D01*
X111818953Y-101482282D01*
X111646982Y-101542458D01*
X111492718Y-101639389D01*
X111363889Y-101768218D01*
X111266958Y-101922482D01*
X111206782Y-102094453D01*
X111206781Y-102094458D01*
X111186384Y-102275496D01*
X111186384Y-102275503D01*
X111206781Y-102456541D01*
X111206782Y-102456546D01*
X111238474Y-102547115D01*
X111263608Y-102618945D01*
X111266958Y-102628517D01*
X111363889Y-102782781D01*
X111431177Y-102850069D01*
X111464662Y-102911392D01*
X111459678Y-102981084D01*
X111431177Y-103025431D01*
X111363889Y-103092718D01*
X111266958Y-103246982D01*
X111206782Y-103418953D01*
X111206781Y-103418957D01*
X111191476Y-103554801D01*
X111164409Y-103619215D01*
X111106815Y-103658770D01*
X111036978Y-103660907D01*
X111027302Y-103657959D01*
X110881049Y-103606783D01*
X110881041Y-103606781D01*
X110700004Y-103586384D01*
X110699996Y-103586384D01*
X110518958Y-103606781D01*
X110518953Y-103606782D01*
X110346982Y-103666958D01*
X110192718Y-103763889D01*
X110063889Y-103892718D01*
X109966958Y-104046982D01*
X109906782Y-104218953D01*
X109906781Y-104218958D01*
X109886384Y-104399996D01*
X109886384Y-104400003D01*
X96402999Y-104400003D01*
X96342600Y-104287004D01*
X96340525Y-104283899D01*
X96339936Y-104282021D01*
X96339724Y-104281623D01*
X96339799Y-104281582D01*
X96319642Y-104217224D01*
X96338121Y-104149842D01*
X96340525Y-104146101D01*
X96342589Y-104143010D01*
X96342595Y-104143004D01*
X96363969Y-104103017D01*
X96436239Y-103967808D01*
X96436239Y-103967807D01*
X96436241Y-103967804D01*
X96493908Y-103777701D01*
X96513380Y-103580000D01*
X96493908Y-103382299D01*
X96436241Y-103192196D01*
X96436239Y-103192193D01*
X96436239Y-103192191D01*
X96342600Y-103017004D01*
X96340525Y-103013899D01*
X96339936Y-103012021D01*
X96339724Y-103011623D01*
X96339799Y-103011582D01*
X96319642Y-102947224D01*
X96338121Y-102879842D01*
X96340525Y-102876101D01*
X96342589Y-102873010D01*
X96342595Y-102873004D01*
X96356783Y-102846461D01*
X96436239Y-102697808D01*
X96436239Y-102697807D01*
X96436241Y-102697804D01*
X96493908Y-102507701D01*
X96513380Y-102310000D01*
X96493908Y-102112299D01*
X96436241Y-101922196D01*
X96436239Y-101922193D01*
X96436239Y-101922191D01*
X96342600Y-101747004D01*
X96340525Y-101743899D01*
X96339936Y-101742021D01*
X96339724Y-101741623D01*
X96339799Y-101741582D01*
X96319642Y-101677224D01*
X96338121Y-101609842D01*
X96340525Y-101606101D01*
X96342589Y-101603010D01*
X96342595Y-101603004D01*
X96374958Y-101542458D01*
X96436239Y-101427808D01*
X96436239Y-101427807D01*
X96436241Y-101427804D01*
X96493908Y-101237701D01*
X96513380Y-101040000D01*
X96493908Y-100842299D01*
X96447710Y-100690003D01*
X98186384Y-100690003D01*
X98206781Y-100871041D01*
X98206782Y-100871046D01*
X98266958Y-101043017D01*
X98336202Y-101153218D01*
X98363889Y-101197281D01*
X98492719Y-101326111D01*
X98646985Y-101423043D01*
X98767449Y-101465195D01*
X98824224Y-101505916D01*
X98849972Y-101570868D01*
X98849714Y-101596119D01*
X98836884Y-101709995D01*
X98836884Y-101710003D01*
X98857281Y-101891041D01*
X98857283Y-101891049D01*
X98900171Y-102013616D01*
X98903732Y-102083395D01*
X98869003Y-102144022D01*
X98849103Y-102159562D01*
X98842225Y-102163883D01*
X98842220Y-102163887D01*
X98713389Y-102292718D01*
X98616458Y-102446982D01*
X98556282Y-102618953D01*
X98556281Y-102618958D01*
X98535884Y-102799996D01*
X98535884Y-102800003D01*
X98556281Y-102981041D01*
X98556282Y-102981046D01*
X98616458Y-103153017D01*
X98675501Y-103246983D01*
X98713389Y-103307281D01*
X98842219Y-103436111D01*
X98996485Y-103533043D01*
X99163420Y-103591456D01*
X99168453Y-103593217D01*
X99168458Y-103593218D01*
X99349496Y-103613616D01*
X99349500Y-103613616D01*
X99349504Y-103613616D01*
X99530541Y-103593218D01*
X99530544Y-103593217D01*
X99530547Y-103593217D01*
X99702515Y-103533043D01*
X99754216Y-103500557D01*
X101310691Y-103500557D01*
X101331088Y-103681595D01*
X101331089Y-103681600D01*
X101391265Y-103853571D01*
X101481928Y-103997859D01*
X101488196Y-104007835D01*
X101617026Y-104136665D01*
X101771292Y-104233597D01*
X101923898Y-104286996D01*
X101943260Y-104293771D01*
X101943265Y-104293772D01*
X102124303Y-104314170D01*
X102124307Y-104314170D01*
X102124311Y-104314170D01*
X102305348Y-104293772D01*
X102305351Y-104293771D01*
X102305354Y-104293771D01*
X102477322Y-104233597D01*
X102631588Y-104136665D01*
X102760418Y-104007835D01*
X102857350Y-103853569D01*
X102917524Y-103681601D01*
X102919856Y-103660907D01*
X102937923Y-103500557D01*
X102937923Y-103500550D01*
X102917525Y-103319512D01*
X102917524Y-103319507D01*
X102908332Y-103293239D01*
X102857350Y-103147539D01*
X102827481Y-103100003D01*
X107386384Y-103100003D01*
X107406781Y-103281041D01*
X107406782Y-103281046D01*
X107432574Y-103354753D01*
X107465029Y-103447506D01*
X107466958Y-103453017D01*
X107553945Y-103591456D01*
X107563889Y-103607281D01*
X107692719Y-103736111D01*
X107846985Y-103833043D01*
X108003295Y-103887738D01*
X108018953Y-103893217D01*
X108018958Y-103893218D01*
X108199996Y-103913616D01*
X108200000Y-103913616D01*
X108200004Y-103913616D01*
X108381041Y-103893218D01*
X108381044Y-103893217D01*
X108381047Y-103893217D01*
X108553015Y-103833043D01*
X108707281Y-103736111D01*
X108836111Y-103607281D01*
X108933043Y-103453015D01*
X108993217Y-103281047D01*
X108997055Y-103246983D01*
X109013616Y-103100003D01*
X109013616Y-103099996D01*
X108993218Y-102918958D01*
X108993217Y-102918953D01*
X108984631Y-102894416D01*
X108933043Y-102746985D01*
X108836111Y-102592719D01*
X108707281Y-102463889D01*
X108617563Y-102407515D01*
X108553017Y-102366958D01*
X108553016Y-102366957D01*
X108553015Y-102366957D01*
X108493435Y-102346109D01*
X108381046Y-102306782D01*
X108381041Y-102306781D01*
X108200004Y-102286384D01*
X108199996Y-102286384D01*
X108018958Y-102306781D01*
X108018953Y-102306782D01*
X107846982Y-102366958D01*
X107692718Y-102463889D01*
X107563889Y-102592718D01*
X107466958Y-102746982D01*
X107406782Y-102918953D01*
X107406781Y-102918958D01*
X107386384Y-103099996D01*
X107386384Y-103100003D01*
X102827481Y-103100003D01*
X102760418Y-102993273D01*
X102631588Y-102864443D01*
X102602975Y-102846464D01*
X102477324Y-102767512D01*
X102477323Y-102767511D01*
X102477322Y-102767511D01*
X102418653Y-102746982D01*
X102305353Y-102707336D01*
X102305348Y-102707335D01*
X102124311Y-102686938D01*
X102124303Y-102686938D01*
X101943265Y-102707335D01*
X101943260Y-102707336D01*
X101771289Y-102767512D01*
X101617025Y-102864443D01*
X101488196Y-102993272D01*
X101391265Y-103147536D01*
X101331089Y-103319507D01*
X101331088Y-103319512D01*
X101310691Y-103500550D01*
X101310691Y-103500557D01*
X99754216Y-103500557D01*
X99856781Y-103436111D01*
X99985611Y-103307281D01*
X100082543Y-103153015D01*
X100142717Y-102981047D01*
X100144626Y-102964108D01*
X100163116Y-102800003D01*
X100163116Y-102799996D01*
X100142718Y-102618958D01*
X100142715Y-102618945D01*
X100099829Y-102496384D01*
X100096267Y-102426605D01*
X100130995Y-102365978D01*
X100150895Y-102350437D01*
X100157781Y-102346111D01*
X100286611Y-102217281D01*
X100383543Y-102063015D01*
X100386521Y-102054503D01*
X104677353Y-102054503D01*
X104697750Y-102235541D01*
X104697751Y-102235546D01*
X104719119Y-102296611D01*
X104757487Y-102406261D01*
X104757927Y-102407517D01*
X104796430Y-102468794D01*
X104854858Y-102561781D01*
X104983688Y-102690611D01*
X105137954Y-102787543D01*
X105306333Y-102846461D01*
X105309922Y-102847717D01*
X105309927Y-102847718D01*
X105490965Y-102868116D01*
X105490969Y-102868116D01*
X105490973Y-102868116D01*
X105672010Y-102847718D01*
X105672013Y-102847717D01*
X105672016Y-102847717D01*
X105843984Y-102787543D01*
X105998250Y-102690611D01*
X106127080Y-102561781D01*
X106224012Y-102407515D01*
X106284186Y-102235547D01*
X106286244Y-102217281D01*
X106304585Y-102054503D01*
X106304585Y-102054496D01*
X106284187Y-101873458D01*
X106284186Y-101873453D01*
X106224012Y-101701485D01*
X106127080Y-101547219D01*
X105998250Y-101418389D01*
X105985007Y-101410068D01*
X105843986Y-101321458D01*
X105843985Y-101321457D01*
X105843984Y-101321457D01*
X105789662Y-101302449D01*
X105672015Y-101261282D01*
X105672010Y-101261281D01*
X105490973Y-101240884D01*
X105490965Y-101240884D01*
X105309927Y-101261281D01*
X105309922Y-101261282D01*
X105137951Y-101321458D01*
X104983687Y-101418389D01*
X104854858Y-101547218D01*
X104757927Y-101701482D01*
X104697751Y-101873453D01*
X104697750Y-101873458D01*
X104677353Y-102054496D01*
X104677353Y-102054503D01*
X100386521Y-102054503D01*
X100443717Y-101891047D01*
X100444273Y-101886111D01*
X100464116Y-101710003D01*
X100464116Y-101709996D01*
X100443718Y-101528958D01*
X100443717Y-101528953D01*
X100427713Y-101483217D01*
X100383543Y-101356985D01*
X100286611Y-101202719D01*
X100157781Y-101073889D01*
X100140542Y-101063057D01*
X100003516Y-100976957D01*
X99883051Y-100934805D01*
X99826274Y-100894083D01*
X99800527Y-100829130D01*
X99800785Y-100803879D01*
X99813616Y-100690002D01*
X99813616Y-100689996D01*
X99793218Y-100508958D01*
X99793217Y-100508953D01*
X99788389Y-100495156D01*
X99733043Y-100336985D01*
X99636111Y-100182719D01*
X99507281Y-100053889D01*
X99421877Y-100000226D01*
X99353017Y-99956958D01*
X99353016Y-99956957D01*
X99353015Y-99956957D01*
X99224653Y-99912041D01*
X99167878Y-99871320D01*
X99153503Y-99835056D01*
X103874500Y-99835056D01*
X103883438Y-99871320D01*
X103915210Y-100000226D01*
X103994263Y-100150849D01*
X103994266Y-100150852D01*
X104107071Y-100278183D01*
X104192260Y-100336985D01*
X104247068Y-100374817D01*
X104247069Y-100374817D01*
X104247070Y-100374818D01*
X104406128Y-100435140D01*
X104482028Y-100444356D01*
X104532626Y-100450500D01*
X104532628Y-100450500D01*
X104617374Y-100450500D01*
X104659538Y-100445380D01*
X104743872Y-100435140D01*
X104902930Y-100374818D01*
X105042929Y-100278183D01*
X105155734Y-100150852D01*
X105234790Y-100000225D01*
X105275500Y-99835056D01*
X108124500Y-99835056D01*
X108133438Y-99871320D01*
X108165210Y-100000226D01*
X108244263Y-100150849D01*
X108244266Y-100150852D01*
X108357071Y-100278183D01*
X108442260Y-100336985D01*
X108497068Y-100374817D01*
X108497069Y-100374817D01*
X108497070Y-100374818D01*
X108656128Y-100435140D01*
X108732028Y-100444356D01*
X108782626Y-100450500D01*
X108782628Y-100450500D01*
X108867374Y-100450500D01*
X108909538Y-100445380D01*
X108993872Y-100435140D01*
X109152930Y-100374818D01*
X109292929Y-100278183D01*
X109362190Y-100200003D01*
X124186384Y-100200003D01*
X124206781Y-100381041D01*
X124206782Y-100381046D01*
X124266958Y-100553017D01*
X124329277Y-100652196D01*
X124363889Y-100707281D01*
X124492719Y-100836111D01*
X124646985Y-100933043D01*
X124798357Y-100986010D01*
X124818953Y-100993217D01*
X124818958Y-100993218D01*
X124999996Y-101013616D01*
X125000000Y-101013616D01*
X125000004Y-101013616D01*
X125181041Y-100993218D01*
X125181043Y-100993217D01*
X125181047Y-100993217D01*
X125181050Y-100993215D01*
X125181054Y-100993215D01*
X125290712Y-100954844D01*
X125360491Y-100951282D01*
X125421118Y-100986010D01*
X125453346Y-101048003D01*
X125454887Y-101085768D01*
X125436384Y-101249995D01*
X125436384Y-101250003D01*
X125456781Y-101431041D01*
X125456782Y-101431046D01*
X125516958Y-101603017D01*
X125613889Y-101757281D01*
X125742719Y-101886111D01*
X125896985Y-101983043D01*
X126068953Y-102043217D01*
X126068958Y-102043218D01*
X126249996Y-102063616D01*
X126250000Y-102063616D01*
X126250004Y-102063616D01*
X126431041Y-102043218D01*
X126431044Y-102043217D01*
X126431047Y-102043217D01*
X126603015Y-101983043D01*
X126757281Y-101886111D01*
X126886111Y-101757281D01*
X126983043Y-101603015D01*
X127043217Y-101431047D01*
X127043582Y-101427808D01*
X127063616Y-101250003D01*
X127063616Y-101249996D01*
X127043218Y-101068958D01*
X127043217Y-101068953D01*
X127035886Y-101048003D01*
X126983043Y-100896985D01*
X126886111Y-100742719D01*
X126757281Y-100613889D01*
X126603015Y-100516957D01*
X126540711Y-100495156D01*
X126431046Y-100456782D01*
X126431041Y-100456781D01*
X126250004Y-100436384D01*
X126249996Y-100436384D01*
X126068958Y-100456781D01*
X126068950Y-100456783D01*
X125959286Y-100495156D01*
X125889507Y-100498717D01*
X125828880Y-100463988D01*
X125796653Y-100401994D01*
X125795112Y-100364230D01*
X125813616Y-100200002D01*
X125813616Y-100199996D01*
X125793218Y-100018958D01*
X125793217Y-100018953D01*
X125733043Y-99846985D01*
X125636111Y-99692719D01*
X125507281Y-99563889D01*
X125406648Y-99500657D01*
X125353017Y-99466958D01*
X125353016Y-99466957D01*
X125353015Y-99466957D01*
X125298693Y-99447949D01*
X125181046Y-99406782D01*
X125181041Y-99406781D01*
X125000004Y-99386384D01*
X124999996Y-99386384D01*
X124818958Y-99406781D01*
X124818953Y-99406782D01*
X124646982Y-99466958D01*
X124492718Y-99563889D01*
X124363889Y-99692718D01*
X124266958Y-99846982D01*
X124206782Y-100018953D01*
X124206781Y-100018958D01*
X124186384Y-100199996D01*
X124186384Y-100200003D01*
X109362190Y-100200003D01*
X109405734Y-100150852D01*
X109484790Y-100000225D01*
X109525500Y-99835056D01*
X109525500Y-99664944D01*
X109484790Y-99499775D01*
X109467566Y-99466957D01*
X109405736Y-99349150D01*
X109354322Y-99291116D01*
X109292929Y-99221817D01*
X109261326Y-99200003D01*
X126386384Y-99200003D01*
X126406781Y-99381041D01*
X126406782Y-99381046D01*
X126466958Y-99553017D01*
X126483199Y-99578864D01*
X126563889Y-99707281D01*
X126692719Y-99836111D01*
X126846985Y-99933043D01*
X127018953Y-99993217D01*
X127018958Y-99993218D01*
X127199996Y-100013616D01*
X127200000Y-100013616D01*
X127200004Y-100013616D01*
X127381041Y-99993218D01*
X127381044Y-99993217D01*
X127381047Y-99993217D01*
X127553015Y-99933043D01*
X127707281Y-99836111D01*
X127836111Y-99707281D01*
X127933043Y-99553015D01*
X127993217Y-99381047D01*
X128005554Y-99271556D01*
X128013616Y-99200003D01*
X128013616Y-99199996D01*
X127993218Y-99018958D01*
X127993217Y-99018953D01*
X127961183Y-98927405D01*
X127933043Y-98846985D01*
X127836111Y-98692719D01*
X127707281Y-98563889D01*
X127635766Y-98518953D01*
X127553017Y-98466958D01*
X127553016Y-98466957D01*
X127553015Y-98466957D01*
X127483675Y-98442694D01*
X127381046Y-98406782D01*
X127381041Y-98406781D01*
X127200004Y-98386384D01*
X127199996Y-98386384D01*
X127018958Y-98406781D01*
X127018953Y-98406782D01*
X126846982Y-98466958D01*
X126692718Y-98563889D01*
X126563889Y-98692718D01*
X126466958Y-98846982D01*
X126406782Y-99018953D01*
X126406781Y-99018958D01*
X126386384Y-99199996D01*
X126386384Y-99200003D01*
X109261326Y-99200003D01*
X109230701Y-99178864D01*
X109152931Y-99125182D01*
X108993874Y-99064860D01*
X108993868Y-99064859D01*
X108867374Y-99049500D01*
X108867372Y-99049500D01*
X108782628Y-99049500D01*
X108782626Y-99049500D01*
X108656131Y-99064859D01*
X108656125Y-99064860D01*
X108497068Y-99125182D01*
X108357072Y-99221816D01*
X108244263Y-99349150D01*
X108165210Y-99499773D01*
X108124500Y-99664944D01*
X108124500Y-99835056D01*
X105275500Y-99835056D01*
X105275500Y-99664944D01*
X105234790Y-99499775D01*
X105217566Y-99466957D01*
X105155736Y-99349150D01*
X105104322Y-99291116D01*
X105042929Y-99221817D01*
X104980701Y-99178864D01*
X104902931Y-99125182D01*
X104743874Y-99064860D01*
X104743868Y-99064859D01*
X104617374Y-99049500D01*
X104617372Y-99049500D01*
X104532628Y-99049500D01*
X104532626Y-99049500D01*
X104406131Y-99064859D01*
X104406125Y-99064860D01*
X104247068Y-99125182D01*
X104107072Y-99221816D01*
X103994263Y-99349150D01*
X103915210Y-99499773D01*
X103874500Y-99664944D01*
X103874500Y-99835056D01*
X99153503Y-99835056D01*
X99142131Y-99806367D01*
X99155587Y-99737806D01*
X99203974Y-99687403D01*
X99224651Y-99677959D01*
X99353015Y-99633043D01*
X99507281Y-99536111D01*
X99542736Y-99500655D01*
X99604056Y-99467171D01*
X99673748Y-99472155D01*
X99722566Y-99505365D01*
X99782834Y-99572299D01*
X99788747Y-99578866D01*
X99943248Y-99691118D01*
X100117712Y-99768794D01*
X100304513Y-99808500D01*
X100495487Y-99808500D01*
X100682288Y-99768794D01*
X100856752Y-99691118D01*
X101011253Y-99578866D01*
X101139040Y-99436944D01*
X101234527Y-99271556D01*
X101293542Y-99089928D01*
X101313504Y-98900000D01*
X101293542Y-98710072D01*
X101234527Y-98528444D01*
X101139040Y-98363056D01*
X101011253Y-98221134D01*
X100856752Y-98108882D01*
X100682288Y-98031206D01*
X100682286Y-98031205D01*
X100495487Y-97991500D01*
X100304513Y-97991500D01*
X100117714Y-98031205D01*
X100117712Y-98031206D01*
X99947963Y-98106783D01*
X99943246Y-98108883D01*
X99788744Y-98221136D01*
X99722565Y-98294635D01*
X99663078Y-98331283D01*
X99593221Y-98329952D01*
X99542735Y-98299343D01*
X99507281Y-98263889D01*
X99353017Y-98166958D01*
X99353016Y-98166957D01*
X99353015Y-98166957D01*
X99298693Y-98147949D01*
X99181046Y-98106782D01*
X99181041Y-98106781D01*
X99000004Y-98086384D01*
X98999996Y-98086384D01*
X98818958Y-98106781D01*
X98818953Y-98106782D01*
X98646982Y-98166958D01*
X98492718Y-98263889D01*
X98363889Y-98392718D01*
X98266958Y-98546982D01*
X98206782Y-98718953D01*
X98206781Y-98718958D01*
X98186384Y-98899996D01*
X98186384Y-98900003D01*
X98206781Y-99081041D01*
X98206782Y-99081046D01*
X98241011Y-99178866D01*
X98256040Y-99221817D01*
X98266958Y-99253017D01*
X98359864Y-99400875D01*
X98363889Y-99407281D01*
X98492719Y-99536111D01*
X98519625Y-99553017D01*
X98646984Y-99633043D01*
X98646988Y-99633044D01*
X98775345Y-99677959D01*
X98832121Y-99718680D01*
X98857868Y-99783633D01*
X98844412Y-99852195D01*
X98796024Y-99902597D01*
X98775345Y-99912041D01*
X98646988Y-99956955D01*
X98646984Y-99956956D01*
X98492718Y-100053889D01*
X98363889Y-100182718D01*
X98266958Y-100336982D01*
X98206782Y-100508953D01*
X98206781Y-100508958D01*
X98186384Y-100689996D01*
X98186384Y-100690003D01*
X96447710Y-100690003D01*
X96436241Y-100652196D01*
X96436239Y-100652193D01*
X96436239Y-100652191D01*
X96342600Y-100477004D01*
X96340525Y-100473899D01*
X96339936Y-100472021D01*
X96339724Y-100471623D01*
X96339799Y-100471582D01*
X96319642Y-100407224D01*
X96338121Y-100339842D01*
X96340525Y-100336101D01*
X96342589Y-100333010D01*
X96342595Y-100333004D01*
X96436241Y-100157804D01*
X96493908Y-99967701D01*
X96513380Y-99770000D01*
X96493908Y-99572299D01*
X96436241Y-99382196D01*
X96436239Y-99382193D01*
X96436239Y-99382191D01*
X96342596Y-99206997D01*
X96342594Y-99206994D01*
X96342240Y-99206563D01*
X96342125Y-99206292D01*
X96339209Y-99201928D01*
X96340036Y-99201374D01*
X96314928Y-99142252D01*
X96326720Y-99073385D01*
X96335002Y-99058993D01*
X96335499Y-99058249D01*
X96428347Y-98884541D01*
X96469160Y-98750000D01*
X95714483Y-98750000D01*
X95785801Y-98665007D01*
X95825000Y-98557306D01*
X95825000Y-98442694D01*
X95785801Y-98334993D01*
X95714483Y-98250000D01*
X96469160Y-98250000D01*
X96469160Y-98249999D01*
X96428347Y-98115458D01*
X96335496Y-97941746D01*
X96335492Y-97941739D01*
X96303834Y-97903164D01*
X96276521Y-97838854D01*
X96288312Y-97769986D01*
X96335464Y-97718426D01*
X96399687Y-97700499D01*
X102278666Y-97700499D01*
X102345705Y-97720184D01*
X102391460Y-97772988D01*
X102401404Y-97842146D01*
X102372379Y-97905702D01*
X102319622Y-97941540D01*
X102258133Y-97963056D01*
X102246982Y-97966958D01*
X102092718Y-98063889D01*
X101963889Y-98192718D01*
X101866958Y-98346982D01*
X101806782Y-98518953D01*
X101806781Y-98518958D01*
X101786384Y-98699996D01*
X101786384Y-98700003D01*
X101806781Y-98881041D01*
X101806782Y-98881046D01*
X101866958Y-99053017D01*
X101879756Y-99073385D01*
X101963889Y-99207281D01*
X102092719Y-99336111D01*
X102246985Y-99433043D01*
X102418953Y-99493217D01*
X102418958Y-99493218D01*
X102599996Y-99513616D01*
X102600000Y-99513616D01*
X102600004Y-99513616D01*
X102781041Y-99493218D01*
X102781044Y-99493217D01*
X102781047Y-99493217D01*
X102953015Y-99433043D01*
X103107281Y-99336111D01*
X103236111Y-99207281D01*
X103333043Y-99053015D01*
X103393217Y-98881047D01*
X103393218Y-98881041D01*
X103413616Y-98700003D01*
X103413616Y-98699996D01*
X103393218Y-98518958D01*
X103393217Y-98518953D01*
X103386585Y-98500000D01*
X103333043Y-98346985D01*
X103236111Y-98192719D01*
X103107281Y-98063889D01*
X102953017Y-97966958D01*
X102953016Y-97966957D01*
X102953015Y-97966957D01*
X102880378Y-97941540D01*
X102823603Y-97900819D01*
X102797856Y-97835866D01*
X102811312Y-97767305D01*
X102859699Y-97716902D01*
X102921334Y-97700499D01*
X112159305Y-97700499D01*
X112159308Y-97700499D01*
X112273885Y-97669798D01*
X112376612Y-97610489D01*
X112450782Y-97536319D01*
X112512105Y-97502834D01*
X112538463Y-97500000D01*
X112825796Y-97500000D01*
X112892835Y-97519685D01*
G37*
%TD.AperFunction*%
%TD*%
M02*
