%TF.GenerationSoftware,KiCad,Pcbnew,7.0.8*%
%TF.CreationDate,2023-12-27T11:07:12+01:00*%
%TF.ProjectId,Frost-ESP32,46726f73-742d-4455-9350-33322e6b6963,rev?*%
%TF.SameCoordinates,Original*%
%TF.FileFunction,Legend,Top*%
%TF.FilePolarity,Positive*%
%FSLAX46Y46*%
G04 Gerber Fmt 4.6, Leading zero omitted, Abs format (unit mm)*
G04 Created by KiCad (PCBNEW 7.0.8) date 2023-12-27 11:07:12*
%MOMM*%
%LPD*%
G01*
G04 APERTURE LIST*
%ADD10C,0.150000*%
%ADD11C,0.100000*%
%ADD12C,0.120000*%
%ADD13C,0.127000*%
%ADD14C,0.200000*%
G04 APERTURE END LIST*
D10*
X106793922Y-109469819D02*
X107365350Y-109469819D01*
X107079636Y-110469819D02*
X107079636Y-109469819D01*
X107603446Y-109469819D02*
X108270112Y-110469819D01*
X108270112Y-109469819D02*
X107603446Y-110469819D01*
X110408207Y-107169819D02*
X110074874Y-106693628D01*
X109836779Y-107169819D02*
X109836779Y-106169819D01*
X109836779Y-106169819D02*
X110217731Y-106169819D01*
X110217731Y-106169819D02*
X110312969Y-106217438D01*
X110312969Y-106217438D02*
X110360588Y-106265057D01*
X110360588Y-106265057D02*
X110408207Y-106360295D01*
X110408207Y-106360295D02*
X110408207Y-106503152D01*
X110408207Y-106503152D02*
X110360588Y-106598390D01*
X110360588Y-106598390D02*
X110312969Y-106646009D01*
X110312969Y-106646009D02*
X110217731Y-106693628D01*
X110217731Y-106693628D02*
X109836779Y-106693628D01*
X110741541Y-106169819D02*
X111408207Y-107169819D01*
X111408207Y-106169819D02*
X110741541Y-107169819D01*
X109841541Y-100069819D02*
X110460588Y-100069819D01*
X110460588Y-100069819D02*
X110127255Y-100450771D01*
X110127255Y-100450771D02*
X110270112Y-100450771D01*
X110270112Y-100450771D02*
X110365350Y-100498390D01*
X110365350Y-100498390D02*
X110412969Y-100546009D01*
X110412969Y-100546009D02*
X110460588Y-100641247D01*
X110460588Y-100641247D02*
X110460588Y-100879342D01*
X110460588Y-100879342D02*
X110412969Y-100974580D01*
X110412969Y-100974580D02*
X110365350Y-101022200D01*
X110365350Y-101022200D02*
X110270112Y-101069819D01*
X110270112Y-101069819D02*
X109984398Y-101069819D01*
X109984398Y-101069819D02*
X109889160Y-101022200D01*
X109889160Y-101022200D02*
X109841541Y-100974580D01*
X110746303Y-100069819D02*
X111079636Y-101069819D01*
X111079636Y-101069819D02*
X111412969Y-100069819D01*
X111651065Y-100069819D02*
X112270112Y-100069819D01*
X112270112Y-100069819D02*
X111936779Y-100450771D01*
X111936779Y-100450771D02*
X112079636Y-100450771D01*
X112079636Y-100450771D02*
X112174874Y-100498390D01*
X112174874Y-100498390D02*
X112222493Y-100546009D01*
X112222493Y-100546009D02*
X112270112Y-100641247D01*
X112270112Y-100641247D02*
X112270112Y-100879342D01*
X112270112Y-100879342D02*
X112222493Y-100974580D01*
X112222493Y-100974580D02*
X112174874Y-101022200D01*
X112174874Y-101022200D02*
X112079636Y-101069819D01*
X112079636Y-101069819D02*
X111793922Y-101069819D01*
X111793922Y-101069819D02*
X111698684Y-101022200D01*
X111698684Y-101022200D02*
X111651065Y-100974580D01*
D11*
X97513408Y-103020704D02*
X97475312Y-103058800D01*
X97475312Y-103058800D02*
X97361027Y-103096895D01*
X97361027Y-103096895D02*
X97284836Y-103096895D01*
X97284836Y-103096895D02*
X97170550Y-103058800D01*
X97170550Y-103058800D02*
X97094360Y-102982609D01*
X97094360Y-102982609D02*
X97056265Y-102906419D01*
X97056265Y-102906419D02*
X97018169Y-102754038D01*
X97018169Y-102754038D02*
X97018169Y-102639752D01*
X97018169Y-102639752D02*
X97056265Y-102487371D01*
X97056265Y-102487371D02*
X97094360Y-102411180D01*
X97094360Y-102411180D02*
X97170550Y-102334990D01*
X97170550Y-102334990D02*
X97284836Y-102296895D01*
X97284836Y-102296895D02*
X97361027Y-102296895D01*
X97361027Y-102296895D02*
X97475312Y-102334990D01*
X97475312Y-102334990D02*
X97513408Y-102373085D01*
X97665789Y-103173085D02*
X98275312Y-103173085D01*
X98846741Y-103096895D02*
X98465789Y-103096895D01*
X98465789Y-103096895D02*
X98465789Y-102296895D01*
D10*
X134836779Y-103269819D02*
X134836779Y-102269819D01*
X134836779Y-102269819D02*
X135074874Y-102269819D01*
X135074874Y-102269819D02*
X135217731Y-102317438D01*
X135217731Y-102317438D02*
X135312969Y-102412676D01*
X135312969Y-102412676D02*
X135360588Y-102507914D01*
X135360588Y-102507914D02*
X135408207Y-102698390D01*
X135408207Y-102698390D02*
X135408207Y-102841247D01*
X135408207Y-102841247D02*
X135360588Y-103031723D01*
X135360588Y-103031723D02*
X135312969Y-103126961D01*
X135312969Y-103126961D02*
X135217731Y-103222200D01*
X135217731Y-103222200D02*
X135074874Y-103269819D01*
X135074874Y-103269819D02*
X134836779Y-103269819D01*
X135836779Y-102888866D02*
X136598684Y-102888866D01*
X136217731Y-103269819D02*
X136217731Y-102507914D01*
D11*
X101713408Y-102920704D02*
X101675312Y-102958800D01*
X101675312Y-102958800D02*
X101561027Y-102996895D01*
X101561027Y-102996895D02*
X101484836Y-102996895D01*
X101484836Y-102996895D02*
X101370550Y-102958800D01*
X101370550Y-102958800D02*
X101294360Y-102882609D01*
X101294360Y-102882609D02*
X101256265Y-102806419D01*
X101256265Y-102806419D02*
X101218169Y-102654038D01*
X101218169Y-102654038D02*
X101218169Y-102539752D01*
X101218169Y-102539752D02*
X101256265Y-102387371D01*
X101256265Y-102387371D02*
X101294360Y-102311180D01*
X101294360Y-102311180D02*
X101370550Y-102234990D01*
X101370550Y-102234990D02*
X101484836Y-102196895D01*
X101484836Y-102196895D02*
X101561027Y-102196895D01*
X101561027Y-102196895D02*
X101675312Y-102234990D01*
X101675312Y-102234990D02*
X101713408Y-102273085D01*
X101865789Y-103073085D02*
X102475312Y-103073085D01*
X102665789Y-102996895D02*
X102665789Y-102196895D01*
X102665789Y-102577847D02*
X103122932Y-102577847D01*
X103122932Y-102996895D02*
X103122932Y-102196895D01*
D10*
X137636779Y-103269819D02*
X137636779Y-102269819D01*
X137636779Y-102269819D02*
X137874874Y-102269819D01*
X137874874Y-102269819D02*
X138017731Y-102317438D01*
X138017731Y-102317438D02*
X138112969Y-102412676D01*
X138112969Y-102412676D02*
X138160588Y-102507914D01*
X138160588Y-102507914D02*
X138208207Y-102698390D01*
X138208207Y-102698390D02*
X138208207Y-102841247D01*
X138208207Y-102841247D02*
X138160588Y-103031723D01*
X138160588Y-103031723D02*
X138112969Y-103126961D01*
X138112969Y-103126961D02*
X138017731Y-103222200D01*
X138017731Y-103222200D02*
X137874874Y-103269819D01*
X137874874Y-103269819D02*
X137636779Y-103269819D01*
X138636779Y-102888866D02*
X139398684Y-102888866D01*
D12*
%TO.C,TP7*%
X110200000Y-109900000D02*
G75*
G03*
X110200000Y-109900000I-700000J0D01*
G01*
%TO.C,TP6*%
X111400000Y-108200000D02*
G75*
G03*
X111400000Y-108200000I-700000J0D01*
G01*
%TO.C,R3*%
X142420000Y-103453641D02*
X142420000Y-103146359D01*
X143180000Y-103453641D02*
X143180000Y-103146359D01*
%TO.C,R6*%
X99953641Y-103180000D02*
X99646359Y-103180000D01*
X99953641Y-102420000D02*
X99646359Y-102420000D01*
%TO.C,D5*%
X143100000Y-97790000D02*
X141100000Y-97790000D01*
X143100000Y-97790000D02*
X143100000Y-101650000D01*
X141100000Y-97790000D02*
X141100000Y-101650000D01*
D10*
%TO.C,H1*%
X107200000Y-107000000D02*
G75*
G03*
X107200000Y-107000000I-3200000J0D01*
G01*
D12*
%TO.C,J2*%
X96610000Y-110690000D02*
X95500000Y-110690000D01*
X96610000Y-109930000D02*
X96610000Y-110690000D01*
X96610000Y-109170000D02*
X96610000Y-97805000D01*
X96610000Y-109170000D02*
X96063471Y-109170000D01*
X96610000Y-97805000D02*
X95807530Y-97805000D01*
X95192470Y-97805000D02*
X94390000Y-97805000D01*
X94936529Y-109170000D02*
X94390000Y-109170000D01*
X94390000Y-109170000D02*
X94390000Y-97805000D01*
%TO.C,R7*%
X99953641Y-104280000D02*
X99646359Y-104280000D01*
X99953641Y-103520000D02*
X99646359Y-103520000D01*
%TO.C,TP2*%
X138700000Y-101300000D02*
G75*
G03*
X138700000Y-101300000I-700000J0D01*
G01*
%TO.C,TP3*%
X136100000Y-101300000D02*
G75*
G03*
X136100000Y-101300000I-700000J0D01*
G01*
%TO.C,TP1*%
X111450000Y-98750000D02*
G75*
G03*
X111450000Y-98750000I-700000J0D01*
G01*
%TO.C,C2*%
X99607836Y-107860000D02*
X99392164Y-107860000D01*
X99607836Y-107140000D02*
X99392164Y-107140000D01*
%TO.C,D3*%
X143735000Y-107715000D02*
X142265000Y-107715000D01*
X142265000Y-107715000D02*
X142265000Y-110000000D01*
X143735000Y-110000000D02*
X143735000Y-107715000D01*
%TO.C,R5*%
X141120000Y-109953641D02*
X141120000Y-109646359D01*
X141880000Y-109953641D02*
X141880000Y-109646359D01*
%TO.C,TP5*%
X103100000Y-101100000D02*
G75*
G03*
X103100000Y-101100000I-700000J0D01*
G01*
%TO.C,R4*%
X100180000Y-101046359D02*
X100180000Y-101353641D01*
X99420000Y-101046359D02*
X99420000Y-101353641D01*
%TO.C,R1*%
X141320000Y-103453641D02*
X141320000Y-103146359D01*
X142080000Y-103453641D02*
X142080000Y-103146359D01*
%TO.C,D1*%
X100685000Y-105935000D02*
X100685000Y-104465000D01*
X100685000Y-104465000D02*
X98400000Y-104465000D01*
X98400000Y-105935000D02*
X100685000Y-105935000D01*
%TO.C,C3*%
X108460000Y-107992164D02*
X108460000Y-108207836D01*
X107740000Y-107992164D02*
X107740000Y-108207836D01*
D10*
%TO.C,H2*%
X141200000Y-107000000D02*
G75*
G03*
X141200000Y-107000000I-3200000J0D01*
G01*
D13*
%TO.C,S1*%
X108950000Y-101100000D02*
X108950000Y-100513500D01*
X108613500Y-101100000D02*
X108950000Y-101100000D01*
X107700000Y-97700000D02*
X107700000Y-97936500D01*
X107700000Y-97700000D02*
X105700000Y-97700000D01*
X107586500Y-98550000D02*
X105813500Y-98550000D01*
X105700000Y-97700000D02*
X105700000Y-97936500D01*
X104786500Y-101100000D02*
X104450000Y-101100000D01*
X104450000Y-101100000D02*
X104450000Y-100513500D01*
D14*
X108025000Y-102150000D02*
G75*
G03*
X108025000Y-102150000I-100000J0D01*
G01*
D12*
%TO.C,U1*%
X113500000Y-90650000D02*
X113500000Y-97150000D01*
X113500000Y-90650000D02*
X131500000Y-90650000D01*
X113500000Y-110650000D02*
X113500000Y-110400000D01*
X131500000Y-90650000D02*
X131500000Y-97150000D01*
X131500000Y-96650000D02*
X113550000Y-96650000D01*
X131500000Y-110400000D02*
X131500000Y-110650000D01*
X131500000Y-110650000D02*
X113500000Y-110650000D01*
%TO.C,C1*%
X99607836Y-109260000D02*
X99392164Y-109260000D01*
X99607836Y-108540000D02*
X99392164Y-108540000D01*
%TO.C,TP4*%
X98900000Y-101200000D02*
G75*
G03*
X98900000Y-101200000I-700000J0D01*
G01*
%TO.C,D2*%
X102310000Y-99900000D02*
X102310000Y-97900000D01*
X102310000Y-99900000D02*
X98450000Y-99900000D01*
X102310000Y-97900000D02*
X98450000Y-97900000D01*
%TO.C,D4*%
X143735000Y-104515000D02*
X142265000Y-104515000D01*
X142265000Y-104515000D02*
X142265000Y-106800000D01*
X143735000Y-106800000D02*
X143735000Y-104515000D01*
%TO.C,R2*%
X107720000Y-106253641D02*
X107720000Y-105946359D01*
X108480000Y-106253641D02*
X108480000Y-105946359D01*
%TD*%
M02*
