%TF.GenerationSoftware,KiCad,Pcbnew,(6.0.7-1)-1*%
%TF.CreationDate,2022-11-24T20:11:57+01:00*%
%TF.ProjectId,Frost-ESP32,46726f73-742d-4455-9350-33322e6b6963,rev?*%
%TF.SameCoordinates,Original*%
%TF.FileFunction,Drillmap*%
%TF.FilePolarity,Positive*%
%FSLAX45Y45*%
G04 Gerber Fmt 4.5, Leading zero omitted, Abs format (unit mm)*
G04 Created by KiCad (PCBNEW (6.0.7-1)-1) date 2022-11-24 20:11:57*
%MOMM*%
%LPD*%
G01*
G04 APERTURE LIST*
%ADD10C,0.100000*%
%ADD11C,0.200000*%
%ADD12C,0.030000*%
%ADD13C,0.040000*%
%ADD14C,0.060000*%
%ADD15C,0.075000*%
%ADD16C,0.240000*%
G04 APERTURE END LIST*
D10*
X9400000Y-6100000D02*
X11900000Y-6100000D01*
X11900000Y-6100000D02*
X11900000Y-9600000D01*
X11900000Y-9600000D02*
X9400000Y-9600000D01*
X9400000Y-9600000D02*
X9400000Y-6100000D01*
D11*
D12*
X9845000Y-7775000D02*
X9875000Y-7805000D01*
X9875000Y-7775000D02*
X9845000Y-7805000D01*
X10135000Y-7505000D02*
X10165000Y-7535000D01*
X10165000Y-7505000D02*
X10135000Y-7535000D01*
X10305000Y-9035000D02*
X10335000Y-9065000D01*
X10335000Y-9035000D02*
X10305000Y-9065000D01*
X11195000Y-7945000D02*
X11225000Y-7975000D01*
X11225000Y-7945000D02*
X11195000Y-7975000D01*
D13*
X9520000Y-7120000D02*
G75*
G03*
X9520000Y-7120000I-20000J0D01*
G01*
X10210000Y-7300000D02*
G75*
G03*
X10210000Y-7300000I-20000J0D01*
G01*
X10610000Y-9240000D02*
G75*
G03*
X10610000Y-9240000I-20000J0D01*
G01*
X10630000Y-7660000D02*
G75*
G03*
X10630000Y-7660000I-20000J0D01*
G01*
X10680000Y-8010000D02*
G75*
G03*
X10680000Y-8010000I-20000J0D01*
G01*
X10690000Y-8240000D02*
G75*
G03*
X10690000Y-8240000I-20000J0D01*
G01*
X10787027Y-7983023D02*
G75*
G03*
X10787027Y-7983023I-20000J0D01*
G01*
X10890000Y-7980000D02*
G75*
G03*
X10890000Y-7980000I-20000J0D01*
G01*
X11610000Y-7660000D02*
G75*
G03*
X11610000Y-7660000I-20000J0D01*
G01*
D14*
X11199500Y-8178000D02*
X11199500Y-8238000D01*
X11169500Y-8208000D02*
X11229500Y-8208000D01*
D11*
X11144500Y-8238000D02*
X11254500Y-8238000D01*
X11144500Y-8178000D02*
X11254500Y-8178000D01*
X11254500Y-8238000D02*
G75*
G03*
X11254500Y-8178000I0J30000D01*
G01*
X11144500Y-8178000D02*
G75*
G03*
X11144500Y-8238000I0J-30000D01*
G01*
D14*
X11199500Y-9042000D02*
X11199500Y-9102000D01*
X11169500Y-9072000D02*
X11229500Y-9072000D01*
D11*
X11144500Y-9102000D02*
X11254500Y-9102000D01*
X11144500Y-9042000D02*
X11254500Y-9042000D01*
X11254500Y-9102000D02*
G75*
G03*
X11254500Y-9042000I0J30000D01*
G01*
X11144500Y-9042000D02*
G75*
G03*
X11144500Y-9102000I0J-30000D01*
G01*
D14*
X11617500Y-8178000D02*
X11617500Y-8238000D01*
X11587500Y-8208000D02*
X11647500Y-8208000D01*
D11*
X11587500Y-8238000D02*
X11647500Y-8238000D01*
X11587500Y-8178000D02*
X11647500Y-8178000D01*
X11647500Y-8238000D02*
G75*
G03*
X11647500Y-8178000I0J30000D01*
G01*
X11587500Y-8178000D02*
G75*
G03*
X11587500Y-8238000I0J-30000D01*
G01*
D14*
X11617500Y-9042000D02*
X11617500Y-9102000D01*
X11587500Y-9072000D02*
X11647500Y-9072000D01*
D11*
X11587500Y-9102000D02*
X11647500Y-9102000D01*
X11587500Y-9042000D02*
X11647500Y-9042000D01*
X11647500Y-9102000D02*
G75*
G03*
X11647500Y-9042000I0J30000D01*
G01*
X11587500Y-9042000D02*
G75*
G03*
X11587500Y-9102000I0J-30000D01*
G01*
D15*
X9676517Y-9321517D02*
X9676517Y-9268483D01*
X9623483Y-9268483D01*
X9623483Y-9321517D01*
X9676517Y-9321517D01*
X9876517Y-9321517D02*
X9876517Y-9268483D01*
X9823483Y-9268483D01*
X9823483Y-9321517D01*
X9876517Y-9321517D01*
X10076517Y-9321517D02*
X10076517Y-9268483D01*
X10023483Y-9268483D01*
X10023483Y-9321517D01*
X10076517Y-9321517D01*
X10276517Y-9321517D02*
X10276517Y-9268483D01*
X10223483Y-9268483D01*
X10223483Y-9321517D01*
X10276517Y-9321517D01*
D16*
X10630000Y-7415000D02*
X10750000Y-7295000D01*
X10630000Y-7175000D01*
X10510000Y-7295000D01*
X10630000Y-7415000D01*
D11*
X9652619Y-9915476D02*
X9652619Y-9715476D01*
X9700238Y-9715476D01*
X9728810Y-9725000D01*
X9747857Y-9744048D01*
X9757381Y-9763095D01*
X9766905Y-9801190D01*
X9766905Y-9829762D01*
X9757381Y-9867857D01*
X9747857Y-9886905D01*
X9728810Y-9905952D01*
X9700238Y-9915476D01*
X9652619Y-9915476D01*
X9852619Y-9915476D02*
X9852619Y-9782143D01*
X9852619Y-9820238D02*
X9862143Y-9801190D01*
X9871667Y-9791667D01*
X9890714Y-9782143D01*
X9909762Y-9782143D01*
X9976429Y-9915476D02*
X9976429Y-9782143D01*
X9976429Y-9715476D02*
X9966905Y-9725000D01*
X9976429Y-9734524D01*
X9985952Y-9725000D01*
X9976429Y-9715476D01*
X9976429Y-9734524D01*
X10100238Y-9915476D02*
X10081190Y-9905952D01*
X10071667Y-9886905D01*
X10071667Y-9715476D01*
X10205000Y-9915476D02*
X10185952Y-9905952D01*
X10176429Y-9886905D01*
X10176429Y-9715476D01*
X10433571Y-9915476D02*
X10433571Y-9715476D01*
X10500238Y-9858333D01*
X10566905Y-9715476D01*
X10566905Y-9915476D01*
X10747857Y-9915476D02*
X10747857Y-9810714D01*
X10738333Y-9791667D01*
X10719286Y-9782143D01*
X10681190Y-9782143D01*
X10662143Y-9791667D01*
X10747857Y-9905952D02*
X10728810Y-9915476D01*
X10681190Y-9915476D01*
X10662143Y-9905952D01*
X10652619Y-9886905D01*
X10652619Y-9867857D01*
X10662143Y-9848810D01*
X10681190Y-9839286D01*
X10728810Y-9839286D01*
X10747857Y-9829762D01*
X10843095Y-9782143D02*
X10843095Y-9982143D01*
X10843095Y-9791667D02*
X10862143Y-9782143D01*
X10900238Y-9782143D01*
X10919286Y-9791667D01*
X10928810Y-9801190D01*
X10938333Y-9820238D01*
X10938333Y-9877381D01*
X10928810Y-9896429D01*
X10919286Y-9905952D01*
X10900238Y-9915476D01*
X10862143Y-9915476D01*
X10843095Y-9905952D01*
X11024048Y-9896429D02*
X11033571Y-9905952D01*
X11024048Y-9915476D01*
X11014524Y-9905952D01*
X11024048Y-9896429D01*
X11024048Y-9915476D01*
X11024048Y-9791667D02*
X11033571Y-9801190D01*
X11024048Y-9810714D01*
X11014524Y-9801190D01*
X11024048Y-9791667D01*
X11024048Y-9810714D01*
D12*
X9365000Y-10230000D02*
X9395000Y-10260000D01*
X9395000Y-10230000D02*
X9365000Y-10260000D01*
D11*
X9690714Y-10135476D02*
X9709762Y-10135476D01*
X9728810Y-10145000D01*
X9738333Y-10154524D01*
X9747857Y-10173571D01*
X9757381Y-10211667D01*
X9757381Y-10259286D01*
X9747857Y-10297381D01*
X9738333Y-10316429D01*
X9728810Y-10325952D01*
X9709762Y-10335476D01*
X9690714Y-10335476D01*
X9671667Y-10325952D01*
X9662143Y-10316429D01*
X9652619Y-10297381D01*
X9643095Y-10259286D01*
X9643095Y-10211667D01*
X9652619Y-10173571D01*
X9662143Y-10154524D01*
X9671667Y-10145000D01*
X9690714Y-10135476D01*
X9843095Y-10316429D02*
X9852619Y-10325952D01*
X9843095Y-10335476D01*
X9833571Y-10325952D01*
X9843095Y-10316429D01*
X9843095Y-10335476D01*
X9919286Y-10135476D02*
X10043095Y-10135476D01*
X9976429Y-10211667D01*
X10005000Y-10211667D01*
X10024048Y-10221190D01*
X10033571Y-10230714D01*
X10043095Y-10249762D01*
X10043095Y-10297381D01*
X10033571Y-10316429D01*
X10024048Y-10325952D01*
X10005000Y-10335476D01*
X9947857Y-10335476D01*
X9928810Y-10325952D01*
X9919286Y-10316429D01*
X10166905Y-10135476D02*
X10185952Y-10135476D01*
X10205000Y-10145000D01*
X10214524Y-10154524D01*
X10224048Y-10173571D01*
X10233571Y-10211667D01*
X10233571Y-10259286D01*
X10224048Y-10297381D01*
X10214524Y-10316429D01*
X10205000Y-10325952D01*
X10185952Y-10335476D01*
X10166905Y-10335476D01*
X10147857Y-10325952D01*
X10138333Y-10316429D01*
X10128810Y-10297381D01*
X10119286Y-10259286D01*
X10119286Y-10211667D01*
X10128810Y-10173571D01*
X10138333Y-10154524D01*
X10147857Y-10145000D01*
X10166905Y-10135476D01*
X10357381Y-10135476D02*
X10376429Y-10135476D01*
X10395476Y-10145000D01*
X10405000Y-10154524D01*
X10414524Y-10173571D01*
X10424048Y-10211667D01*
X10424048Y-10259286D01*
X10414524Y-10297381D01*
X10405000Y-10316429D01*
X10395476Y-10325952D01*
X10376429Y-10335476D01*
X10357381Y-10335476D01*
X10338333Y-10325952D01*
X10328810Y-10316429D01*
X10319286Y-10297381D01*
X10309762Y-10259286D01*
X10309762Y-10211667D01*
X10319286Y-10173571D01*
X10328810Y-10154524D01*
X10338333Y-10145000D01*
X10357381Y-10135476D01*
X10509762Y-10335476D02*
X10509762Y-10202143D01*
X10509762Y-10221190D02*
X10519286Y-10211667D01*
X10538333Y-10202143D01*
X10566905Y-10202143D01*
X10585952Y-10211667D01*
X10595476Y-10230714D01*
X10595476Y-10335476D01*
X10595476Y-10230714D02*
X10605000Y-10211667D01*
X10624048Y-10202143D01*
X10652619Y-10202143D01*
X10671667Y-10211667D01*
X10681190Y-10230714D01*
X10681190Y-10335476D01*
X10776429Y-10335476D02*
X10776429Y-10202143D01*
X10776429Y-10221190D02*
X10785952Y-10211667D01*
X10805000Y-10202143D01*
X10833571Y-10202143D01*
X10852619Y-10211667D01*
X10862143Y-10230714D01*
X10862143Y-10335476D01*
X10862143Y-10230714D02*
X10871667Y-10211667D01*
X10890714Y-10202143D01*
X10919286Y-10202143D01*
X10938333Y-10211667D01*
X10947857Y-10230714D01*
X10947857Y-10335476D01*
X11338333Y-10125952D02*
X11166905Y-10383095D01*
X11595476Y-10135476D02*
X11614524Y-10135476D01*
X11633571Y-10145000D01*
X11643095Y-10154524D01*
X11652619Y-10173571D01*
X11662143Y-10211667D01*
X11662143Y-10259286D01*
X11652619Y-10297381D01*
X11643095Y-10316429D01*
X11633571Y-10325952D01*
X11614524Y-10335476D01*
X11595476Y-10335476D01*
X11576428Y-10325952D01*
X11566905Y-10316429D01*
X11557381Y-10297381D01*
X11547857Y-10259286D01*
X11547857Y-10211667D01*
X11557381Y-10173571D01*
X11566905Y-10154524D01*
X11576428Y-10145000D01*
X11595476Y-10135476D01*
X11747857Y-10316429D02*
X11757381Y-10325952D01*
X11747857Y-10335476D01*
X11738333Y-10325952D01*
X11747857Y-10316429D01*
X11747857Y-10335476D01*
X11881190Y-10135476D02*
X11900238Y-10135476D01*
X11919286Y-10145000D01*
X11928809Y-10154524D01*
X11938333Y-10173571D01*
X11947857Y-10211667D01*
X11947857Y-10259286D01*
X11938333Y-10297381D01*
X11928809Y-10316429D01*
X11919286Y-10325952D01*
X11900238Y-10335476D01*
X11881190Y-10335476D01*
X11862143Y-10325952D01*
X11852619Y-10316429D01*
X11843095Y-10297381D01*
X11833571Y-10259286D01*
X11833571Y-10211667D01*
X11843095Y-10173571D01*
X11852619Y-10154524D01*
X11862143Y-10145000D01*
X11881190Y-10135476D01*
X12138333Y-10335476D02*
X12024048Y-10335476D01*
X12081190Y-10335476D02*
X12081190Y-10135476D01*
X12062143Y-10164048D01*
X12043095Y-10183095D01*
X12024048Y-10192619D01*
X12328809Y-10335476D02*
X12214524Y-10335476D01*
X12271667Y-10335476D02*
X12271667Y-10135476D01*
X12252619Y-10164048D01*
X12233571Y-10183095D01*
X12214524Y-10192619D01*
X12443095Y-10221190D02*
X12424048Y-10211667D01*
X12414524Y-10202143D01*
X12405000Y-10183095D01*
X12405000Y-10173571D01*
X12414524Y-10154524D01*
X12424048Y-10145000D01*
X12443095Y-10135476D01*
X12481190Y-10135476D01*
X12500238Y-10145000D01*
X12509762Y-10154524D01*
X12519286Y-10173571D01*
X12519286Y-10183095D01*
X12509762Y-10202143D01*
X12500238Y-10211667D01*
X12481190Y-10221190D01*
X12443095Y-10221190D01*
X12424048Y-10230714D01*
X12414524Y-10240238D01*
X12405000Y-10259286D01*
X12405000Y-10297381D01*
X12414524Y-10316429D01*
X12424048Y-10325952D01*
X12443095Y-10335476D01*
X12481190Y-10335476D01*
X12500238Y-10325952D01*
X12509762Y-10316429D01*
X12519286Y-10297381D01*
X12519286Y-10259286D01*
X12509762Y-10240238D01*
X12500238Y-10230714D01*
X12481190Y-10221190D01*
X12595476Y-10135476D02*
X12595476Y-10173571D01*
X12671667Y-10135476D02*
X12671667Y-10173571D01*
X12966905Y-10411667D02*
X12957381Y-10402143D01*
X12938333Y-10373571D01*
X12928809Y-10354524D01*
X12919286Y-10325952D01*
X12909762Y-10278333D01*
X12909762Y-10240238D01*
X12919286Y-10192619D01*
X12928809Y-10164048D01*
X12938333Y-10145000D01*
X12957381Y-10116429D01*
X12966905Y-10106905D01*
X13128809Y-10202143D02*
X13128809Y-10335476D01*
X13081190Y-10125952D02*
X13033571Y-10268810D01*
X13157381Y-10268810D01*
X13385952Y-10335476D02*
X13385952Y-10135476D01*
X13471667Y-10335476D02*
X13471667Y-10230714D01*
X13462143Y-10211667D01*
X13443095Y-10202143D01*
X13414524Y-10202143D01*
X13395476Y-10211667D01*
X13385952Y-10221190D01*
X13595476Y-10335476D02*
X13576428Y-10325952D01*
X13566905Y-10316429D01*
X13557381Y-10297381D01*
X13557381Y-10240238D01*
X13566905Y-10221190D01*
X13576428Y-10211667D01*
X13595476Y-10202143D01*
X13624048Y-10202143D01*
X13643095Y-10211667D01*
X13652619Y-10221190D01*
X13662143Y-10240238D01*
X13662143Y-10297381D01*
X13652619Y-10316429D01*
X13643095Y-10325952D01*
X13624048Y-10335476D01*
X13595476Y-10335476D01*
X13776428Y-10335476D02*
X13757381Y-10325952D01*
X13747857Y-10306905D01*
X13747857Y-10135476D01*
X13928809Y-10325952D02*
X13909762Y-10335476D01*
X13871667Y-10335476D01*
X13852619Y-10325952D01*
X13843095Y-10306905D01*
X13843095Y-10230714D01*
X13852619Y-10211667D01*
X13871667Y-10202143D01*
X13909762Y-10202143D01*
X13928809Y-10211667D01*
X13938333Y-10230714D01*
X13938333Y-10249762D01*
X13843095Y-10268810D01*
X14014524Y-10325952D02*
X14033571Y-10335476D01*
X14071667Y-10335476D01*
X14090714Y-10325952D01*
X14100238Y-10306905D01*
X14100238Y-10297381D01*
X14090714Y-10278333D01*
X14071667Y-10268810D01*
X14043095Y-10268810D01*
X14024048Y-10259286D01*
X14014524Y-10240238D01*
X14014524Y-10230714D01*
X14024048Y-10211667D01*
X14043095Y-10202143D01*
X14071667Y-10202143D01*
X14090714Y-10211667D01*
X14166905Y-10411667D02*
X14176428Y-10402143D01*
X14195476Y-10373571D01*
X14205000Y-10354524D01*
X14214524Y-10325952D01*
X14224048Y-10278333D01*
X14224048Y-10240238D01*
X14214524Y-10192619D01*
X14205000Y-10164048D01*
X14195476Y-10145000D01*
X14176428Y-10116429D01*
X14166905Y-10106905D01*
D13*
X9395000Y-10509000D02*
G75*
G03*
X9395000Y-10509000I-20000J0D01*
G01*
D11*
X9690714Y-10399476D02*
X9709762Y-10399476D01*
X9728810Y-10409000D01*
X9738333Y-10418524D01*
X9747857Y-10437571D01*
X9757381Y-10475667D01*
X9757381Y-10523286D01*
X9747857Y-10561381D01*
X9738333Y-10580429D01*
X9728810Y-10589952D01*
X9709762Y-10599476D01*
X9690714Y-10599476D01*
X9671667Y-10589952D01*
X9662143Y-10580429D01*
X9652619Y-10561381D01*
X9643095Y-10523286D01*
X9643095Y-10475667D01*
X9652619Y-10437571D01*
X9662143Y-10418524D01*
X9671667Y-10409000D01*
X9690714Y-10399476D01*
X9843095Y-10580429D02*
X9852619Y-10589952D01*
X9843095Y-10599476D01*
X9833571Y-10589952D01*
X9843095Y-10580429D01*
X9843095Y-10599476D01*
X10024048Y-10466143D02*
X10024048Y-10599476D01*
X9976429Y-10389952D02*
X9928810Y-10532810D01*
X10052619Y-10532810D01*
X10166905Y-10399476D02*
X10185952Y-10399476D01*
X10205000Y-10409000D01*
X10214524Y-10418524D01*
X10224048Y-10437571D01*
X10233571Y-10475667D01*
X10233571Y-10523286D01*
X10224048Y-10561381D01*
X10214524Y-10580429D01*
X10205000Y-10589952D01*
X10185952Y-10599476D01*
X10166905Y-10599476D01*
X10147857Y-10589952D01*
X10138333Y-10580429D01*
X10128810Y-10561381D01*
X10119286Y-10523286D01*
X10119286Y-10475667D01*
X10128810Y-10437571D01*
X10138333Y-10418524D01*
X10147857Y-10409000D01*
X10166905Y-10399476D01*
X10357381Y-10399476D02*
X10376429Y-10399476D01*
X10395476Y-10409000D01*
X10405000Y-10418524D01*
X10414524Y-10437571D01*
X10424048Y-10475667D01*
X10424048Y-10523286D01*
X10414524Y-10561381D01*
X10405000Y-10580429D01*
X10395476Y-10589952D01*
X10376429Y-10599476D01*
X10357381Y-10599476D01*
X10338333Y-10589952D01*
X10328810Y-10580429D01*
X10319286Y-10561381D01*
X10309762Y-10523286D01*
X10309762Y-10475667D01*
X10319286Y-10437571D01*
X10328810Y-10418524D01*
X10338333Y-10409000D01*
X10357381Y-10399476D01*
X10509762Y-10599476D02*
X10509762Y-10466143D01*
X10509762Y-10485190D02*
X10519286Y-10475667D01*
X10538333Y-10466143D01*
X10566905Y-10466143D01*
X10585952Y-10475667D01*
X10595476Y-10494714D01*
X10595476Y-10599476D01*
X10595476Y-10494714D02*
X10605000Y-10475667D01*
X10624048Y-10466143D01*
X10652619Y-10466143D01*
X10671667Y-10475667D01*
X10681190Y-10494714D01*
X10681190Y-10599476D01*
X10776429Y-10599476D02*
X10776429Y-10466143D01*
X10776429Y-10485190D02*
X10785952Y-10475667D01*
X10805000Y-10466143D01*
X10833571Y-10466143D01*
X10852619Y-10475667D01*
X10862143Y-10494714D01*
X10862143Y-10599476D01*
X10862143Y-10494714D02*
X10871667Y-10475667D01*
X10890714Y-10466143D01*
X10919286Y-10466143D01*
X10938333Y-10475667D01*
X10947857Y-10494714D01*
X10947857Y-10599476D01*
X11338333Y-10389952D02*
X11166905Y-10647095D01*
X11595476Y-10399476D02*
X11614524Y-10399476D01*
X11633571Y-10409000D01*
X11643095Y-10418524D01*
X11652619Y-10437571D01*
X11662143Y-10475667D01*
X11662143Y-10523286D01*
X11652619Y-10561381D01*
X11643095Y-10580429D01*
X11633571Y-10589952D01*
X11614524Y-10599476D01*
X11595476Y-10599476D01*
X11576428Y-10589952D01*
X11566905Y-10580429D01*
X11557381Y-10561381D01*
X11547857Y-10523286D01*
X11547857Y-10475667D01*
X11557381Y-10437571D01*
X11566905Y-10418524D01*
X11576428Y-10409000D01*
X11595476Y-10399476D01*
X11747857Y-10580429D02*
X11757381Y-10589952D01*
X11747857Y-10599476D01*
X11738333Y-10589952D01*
X11747857Y-10580429D01*
X11747857Y-10599476D01*
X11881190Y-10399476D02*
X11900238Y-10399476D01*
X11919286Y-10409000D01*
X11928809Y-10418524D01*
X11938333Y-10437571D01*
X11947857Y-10475667D01*
X11947857Y-10523286D01*
X11938333Y-10561381D01*
X11928809Y-10580429D01*
X11919286Y-10589952D01*
X11900238Y-10599476D01*
X11881190Y-10599476D01*
X11862143Y-10589952D01*
X11852619Y-10580429D01*
X11843095Y-10561381D01*
X11833571Y-10523286D01*
X11833571Y-10475667D01*
X11843095Y-10437571D01*
X11852619Y-10418524D01*
X11862143Y-10409000D01*
X11881190Y-10399476D01*
X12138333Y-10599476D02*
X12024048Y-10599476D01*
X12081190Y-10599476D02*
X12081190Y-10399476D01*
X12062143Y-10428048D01*
X12043095Y-10447095D01*
X12024048Y-10456619D01*
X12319286Y-10399476D02*
X12224048Y-10399476D01*
X12214524Y-10494714D01*
X12224048Y-10485190D01*
X12243095Y-10475667D01*
X12290714Y-10475667D01*
X12309762Y-10485190D01*
X12319286Y-10494714D01*
X12328809Y-10513762D01*
X12328809Y-10561381D01*
X12319286Y-10580429D01*
X12309762Y-10589952D01*
X12290714Y-10599476D01*
X12243095Y-10599476D01*
X12224048Y-10589952D01*
X12214524Y-10580429D01*
X12395476Y-10399476D02*
X12528809Y-10399476D01*
X12443095Y-10599476D01*
X12595476Y-10399476D02*
X12595476Y-10437571D01*
X12671667Y-10399476D02*
X12671667Y-10437571D01*
X12966905Y-10675667D02*
X12957381Y-10666143D01*
X12938333Y-10637571D01*
X12928809Y-10618524D01*
X12919286Y-10589952D01*
X12909762Y-10542333D01*
X12909762Y-10504238D01*
X12919286Y-10456619D01*
X12928809Y-10428048D01*
X12938333Y-10409000D01*
X12957381Y-10380429D01*
X12966905Y-10370905D01*
X13052619Y-10599476D02*
X13090714Y-10599476D01*
X13109762Y-10589952D01*
X13119286Y-10580429D01*
X13138333Y-10551857D01*
X13147857Y-10513762D01*
X13147857Y-10437571D01*
X13138333Y-10418524D01*
X13128809Y-10409000D01*
X13109762Y-10399476D01*
X13071667Y-10399476D01*
X13052619Y-10409000D01*
X13043095Y-10418524D01*
X13033571Y-10437571D01*
X13033571Y-10485190D01*
X13043095Y-10504238D01*
X13052619Y-10513762D01*
X13071667Y-10523286D01*
X13109762Y-10523286D01*
X13128809Y-10513762D01*
X13138333Y-10504238D01*
X13147857Y-10485190D01*
X13385952Y-10599476D02*
X13385952Y-10399476D01*
X13471667Y-10599476D02*
X13471667Y-10494714D01*
X13462143Y-10475667D01*
X13443095Y-10466143D01*
X13414524Y-10466143D01*
X13395476Y-10475667D01*
X13385952Y-10485190D01*
X13595476Y-10599476D02*
X13576428Y-10589952D01*
X13566905Y-10580429D01*
X13557381Y-10561381D01*
X13557381Y-10504238D01*
X13566905Y-10485190D01*
X13576428Y-10475667D01*
X13595476Y-10466143D01*
X13624048Y-10466143D01*
X13643095Y-10475667D01*
X13652619Y-10485190D01*
X13662143Y-10504238D01*
X13662143Y-10561381D01*
X13652619Y-10580429D01*
X13643095Y-10589952D01*
X13624048Y-10599476D01*
X13595476Y-10599476D01*
X13776428Y-10599476D02*
X13757381Y-10589952D01*
X13747857Y-10570905D01*
X13747857Y-10399476D01*
X13928809Y-10589952D02*
X13909762Y-10599476D01*
X13871667Y-10599476D01*
X13852619Y-10589952D01*
X13843095Y-10570905D01*
X13843095Y-10494714D01*
X13852619Y-10475667D01*
X13871667Y-10466143D01*
X13909762Y-10466143D01*
X13928809Y-10475667D01*
X13938333Y-10494714D01*
X13938333Y-10513762D01*
X13843095Y-10532810D01*
X14014524Y-10589952D02*
X14033571Y-10599476D01*
X14071667Y-10599476D01*
X14090714Y-10589952D01*
X14100238Y-10570905D01*
X14100238Y-10561381D01*
X14090714Y-10542333D01*
X14071667Y-10532810D01*
X14043095Y-10532810D01*
X14024048Y-10523286D01*
X14014524Y-10504238D01*
X14014524Y-10494714D01*
X14024048Y-10475667D01*
X14043095Y-10466143D01*
X14071667Y-10466143D01*
X14090714Y-10475667D01*
X14166905Y-10675667D02*
X14176428Y-10666143D01*
X14195476Y-10637571D01*
X14205000Y-10618524D01*
X14214524Y-10589952D01*
X14224048Y-10542333D01*
X14224048Y-10504238D01*
X14214524Y-10456619D01*
X14205000Y-10428048D01*
X14195476Y-10409000D01*
X14176428Y-10380429D01*
X14166905Y-10370905D01*
D14*
X9365000Y-10743000D02*
X9365000Y-10803000D01*
X9335000Y-10773000D02*
X9395000Y-10773000D01*
D11*
X9690714Y-10663476D02*
X9709762Y-10663476D01*
X9728810Y-10673000D01*
X9738333Y-10682524D01*
X9747857Y-10701571D01*
X9757381Y-10739667D01*
X9757381Y-10787286D01*
X9747857Y-10825381D01*
X9738333Y-10844429D01*
X9728810Y-10853952D01*
X9709762Y-10863476D01*
X9690714Y-10863476D01*
X9671667Y-10853952D01*
X9662143Y-10844429D01*
X9652619Y-10825381D01*
X9643095Y-10787286D01*
X9643095Y-10739667D01*
X9652619Y-10701571D01*
X9662143Y-10682524D01*
X9671667Y-10673000D01*
X9690714Y-10663476D01*
X9843095Y-10844429D02*
X9852619Y-10853952D01*
X9843095Y-10863476D01*
X9833571Y-10853952D01*
X9843095Y-10844429D01*
X9843095Y-10863476D01*
X10024048Y-10663476D02*
X9985952Y-10663476D01*
X9966905Y-10673000D01*
X9957381Y-10682524D01*
X9938333Y-10711095D01*
X9928810Y-10749190D01*
X9928810Y-10825381D01*
X9938333Y-10844429D01*
X9947857Y-10853952D01*
X9966905Y-10863476D01*
X10005000Y-10863476D01*
X10024048Y-10853952D01*
X10033571Y-10844429D01*
X10043095Y-10825381D01*
X10043095Y-10777762D01*
X10033571Y-10758714D01*
X10024048Y-10749190D01*
X10005000Y-10739667D01*
X9966905Y-10739667D01*
X9947857Y-10749190D01*
X9938333Y-10758714D01*
X9928810Y-10777762D01*
X10166905Y-10663476D02*
X10185952Y-10663476D01*
X10205000Y-10673000D01*
X10214524Y-10682524D01*
X10224048Y-10701571D01*
X10233571Y-10739667D01*
X10233571Y-10787286D01*
X10224048Y-10825381D01*
X10214524Y-10844429D01*
X10205000Y-10853952D01*
X10185952Y-10863476D01*
X10166905Y-10863476D01*
X10147857Y-10853952D01*
X10138333Y-10844429D01*
X10128810Y-10825381D01*
X10119286Y-10787286D01*
X10119286Y-10739667D01*
X10128810Y-10701571D01*
X10138333Y-10682524D01*
X10147857Y-10673000D01*
X10166905Y-10663476D01*
X10357381Y-10663476D02*
X10376429Y-10663476D01*
X10395476Y-10673000D01*
X10405000Y-10682524D01*
X10414524Y-10701571D01*
X10424048Y-10739667D01*
X10424048Y-10787286D01*
X10414524Y-10825381D01*
X10405000Y-10844429D01*
X10395476Y-10853952D01*
X10376429Y-10863476D01*
X10357381Y-10863476D01*
X10338333Y-10853952D01*
X10328810Y-10844429D01*
X10319286Y-10825381D01*
X10309762Y-10787286D01*
X10309762Y-10739667D01*
X10319286Y-10701571D01*
X10328810Y-10682524D01*
X10338333Y-10673000D01*
X10357381Y-10663476D01*
X10509762Y-10863476D02*
X10509762Y-10730143D01*
X10509762Y-10749190D02*
X10519286Y-10739667D01*
X10538333Y-10730143D01*
X10566905Y-10730143D01*
X10585952Y-10739667D01*
X10595476Y-10758714D01*
X10595476Y-10863476D01*
X10595476Y-10758714D02*
X10605000Y-10739667D01*
X10624048Y-10730143D01*
X10652619Y-10730143D01*
X10671667Y-10739667D01*
X10681190Y-10758714D01*
X10681190Y-10863476D01*
X10776429Y-10863476D02*
X10776429Y-10730143D01*
X10776429Y-10749190D02*
X10785952Y-10739667D01*
X10805000Y-10730143D01*
X10833571Y-10730143D01*
X10852619Y-10739667D01*
X10862143Y-10758714D01*
X10862143Y-10863476D01*
X10862143Y-10758714D02*
X10871667Y-10739667D01*
X10890714Y-10730143D01*
X10919286Y-10730143D01*
X10938333Y-10739667D01*
X10947857Y-10758714D01*
X10947857Y-10863476D01*
X11338333Y-10653952D02*
X11166905Y-10911095D01*
X11595476Y-10663476D02*
X11614524Y-10663476D01*
X11633571Y-10673000D01*
X11643095Y-10682524D01*
X11652619Y-10701571D01*
X11662143Y-10739667D01*
X11662143Y-10787286D01*
X11652619Y-10825381D01*
X11643095Y-10844429D01*
X11633571Y-10853952D01*
X11614524Y-10863476D01*
X11595476Y-10863476D01*
X11576428Y-10853952D01*
X11566905Y-10844429D01*
X11557381Y-10825381D01*
X11547857Y-10787286D01*
X11547857Y-10739667D01*
X11557381Y-10701571D01*
X11566905Y-10682524D01*
X11576428Y-10673000D01*
X11595476Y-10663476D01*
X11747857Y-10844429D02*
X11757381Y-10853952D01*
X11747857Y-10863476D01*
X11738333Y-10853952D01*
X11747857Y-10844429D01*
X11747857Y-10863476D01*
X11881190Y-10663476D02*
X11900238Y-10663476D01*
X11919286Y-10673000D01*
X11928809Y-10682524D01*
X11938333Y-10701571D01*
X11947857Y-10739667D01*
X11947857Y-10787286D01*
X11938333Y-10825381D01*
X11928809Y-10844429D01*
X11919286Y-10853952D01*
X11900238Y-10863476D01*
X11881190Y-10863476D01*
X11862143Y-10853952D01*
X11852619Y-10844429D01*
X11843095Y-10825381D01*
X11833571Y-10787286D01*
X11833571Y-10739667D01*
X11843095Y-10701571D01*
X11852619Y-10682524D01*
X11862143Y-10673000D01*
X11881190Y-10663476D01*
X12024048Y-10682524D02*
X12033571Y-10673000D01*
X12052619Y-10663476D01*
X12100238Y-10663476D01*
X12119286Y-10673000D01*
X12128809Y-10682524D01*
X12138333Y-10701571D01*
X12138333Y-10720619D01*
X12128809Y-10749190D01*
X12014524Y-10863476D01*
X12138333Y-10863476D01*
X12205000Y-10663476D02*
X12328809Y-10663476D01*
X12262143Y-10739667D01*
X12290714Y-10739667D01*
X12309762Y-10749190D01*
X12319286Y-10758714D01*
X12328809Y-10777762D01*
X12328809Y-10825381D01*
X12319286Y-10844429D01*
X12309762Y-10853952D01*
X12290714Y-10863476D01*
X12233571Y-10863476D01*
X12214524Y-10853952D01*
X12205000Y-10844429D01*
X12500238Y-10663476D02*
X12462143Y-10663476D01*
X12443095Y-10673000D01*
X12433571Y-10682524D01*
X12414524Y-10711095D01*
X12405000Y-10749190D01*
X12405000Y-10825381D01*
X12414524Y-10844429D01*
X12424048Y-10853952D01*
X12443095Y-10863476D01*
X12481190Y-10863476D01*
X12500238Y-10853952D01*
X12509762Y-10844429D01*
X12519286Y-10825381D01*
X12519286Y-10777762D01*
X12509762Y-10758714D01*
X12500238Y-10749190D01*
X12481190Y-10739667D01*
X12443095Y-10739667D01*
X12424048Y-10749190D01*
X12414524Y-10758714D01*
X12405000Y-10777762D01*
X12595476Y-10663476D02*
X12595476Y-10701571D01*
X12671667Y-10663476D02*
X12671667Y-10701571D01*
X12966905Y-10939667D02*
X12957381Y-10930143D01*
X12938333Y-10901571D01*
X12928809Y-10882524D01*
X12919286Y-10853952D01*
X12909762Y-10806333D01*
X12909762Y-10768238D01*
X12919286Y-10720619D01*
X12928809Y-10692048D01*
X12938333Y-10673000D01*
X12957381Y-10644429D01*
X12966905Y-10634905D01*
X13081190Y-10663476D02*
X13100238Y-10663476D01*
X13119286Y-10673000D01*
X13128809Y-10682524D01*
X13138333Y-10701571D01*
X13147857Y-10739667D01*
X13147857Y-10787286D01*
X13138333Y-10825381D01*
X13128809Y-10844429D01*
X13119286Y-10853952D01*
X13100238Y-10863476D01*
X13081190Y-10863476D01*
X13062143Y-10853952D01*
X13052619Y-10844429D01*
X13043095Y-10825381D01*
X13033571Y-10787286D01*
X13033571Y-10739667D01*
X13043095Y-10701571D01*
X13052619Y-10682524D01*
X13062143Y-10673000D01*
X13081190Y-10663476D01*
X13385952Y-10863476D02*
X13385952Y-10663476D01*
X13471667Y-10863476D02*
X13471667Y-10758714D01*
X13462143Y-10739667D01*
X13443095Y-10730143D01*
X13414524Y-10730143D01*
X13395476Y-10739667D01*
X13385952Y-10749190D01*
X13595476Y-10863476D02*
X13576428Y-10853952D01*
X13566905Y-10844429D01*
X13557381Y-10825381D01*
X13557381Y-10768238D01*
X13566905Y-10749190D01*
X13576428Y-10739667D01*
X13595476Y-10730143D01*
X13624048Y-10730143D01*
X13643095Y-10739667D01*
X13652619Y-10749190D01*
X13662143Y-10768238D01*
X13662143Y-10825381D01*
X13652619Y-10844429D01*
X13643095Y-10853952D01*
X13624048Y-10863476D01*
X13595476Y-10863476D01*
X13776428Y-10863476D02*
X13757381Y-10853952D01*
X13747857Y-10834905D01*
X13747857Y-10663476D01*
X13928809Y-10853952D02*
X13909762Y-10863476D01*
X13871667Y-10863476D01*
X13852619Y-10853952D01*
X13843095Y-10834905D01*
X13843095Y-10758714D01*
X13852619Y-10739667D01*
X13871667Y-10730143D01*
X13909762Y-10730143D01*
X13928809Y-10739667D01*
X13938333Y-10758714D01*
X13938333Y-10777762D01*
X13843095Y-10796810D01*
X14014524Y-10853952D02*
X14033571Y-10863476D01*
X14071667Y-10863476D01*
X14090714Y-10853952D01*
X14100238Y-10834905D01*
X14100238Y-10825381D01*
X14090714Y-10806333D01*
X14071667Y-10796810D01*
X14043095Y-10796810D01*
X14024048Y-10787286D01*
X14014524Y-10768238D01*
X14014524Y-10758714D01*
X14024048Y-10739667D01*
X14043095Y-10730143D01*
X14071667Y-10730143D01*
X14090714Y-10739667D01*
X14338333Y-10787286D02*
X14490714Y-10787286D01*
X14414524Y-10863476D02*
X14414524Y-10711095D01*
X14824048Y-10730143D02*
X14824048Y-10863476D01*
X14776428Y-10653952D02*
X14728809Y-10796810D01*
X14852619Y-10796810D01*
X15071667Y-10853952D02*
X15090714Y-10863476D01*
X15128809Y-10863476D01*
X15147857Y-10853952D01*
X15157381Y-10834905D01*
X15157381Y-10825381D01*
X15147857Y-10806333D01*
X15128809Y-10796810D01*
X15100238Y-10796810D01*
X15081190Y-10787286D01*
X15071667Y-10768238D01*
X15071667Y-10758714D01*
X15081190Y-10739667D01*
X15100238Y-10730143D01*
X15128809Y-10730143D01*
X15147857Y-10739667D01*
X15271667Y-10863476D02*
X15252619Y-10853952D01*
X15243095Y-10834905D01*
X15243095Y-10663476D01*
X15376428Y-10863476D02*
X15357381Y-10853952D01*
X15347857Y-10844429D01*
X15338333Y-10825381D01*
X15338333Y-10768238D01*
X15347857Y-10749190D01*
X15357381Y-10739667D01*
X15376428Y-10730143D01*
X15405000Y-10730143D01*
X15424048Y-10739667D01*
X15433571Y-10749190D01*
X15443095Y-10768238D01*
X15443095Y-10825381D01*
X15433571Y-10844429D01*
X15424048Y-10853952D01*
X15405000Y-10863476D01*
X15376428Y-10863476D01*
X15500238Y-10730143D02*
X15576428Y-10730143D01*
X15528809Y-10663476D02*
X15528809Y-10834905D01*
X15538333Y-10853952D01*
X15557381Y-10863476D01*
X15576428Y-10863476D01*
X15633571Y-10853952D02*
X15652619Y-10863476D01*
X15690714Y-10863476D01*
X15709762Y-10853952D01*
X15719286Y-10834905D01*
X15719286Y-10825381D01*
X15709762Y-10806333D01*
X15690714Y-10796810D01*
X15662143Y-10796810D01*
X15643095Y-10787286D01*
X15633571Y-10768238D01*
X15633571Y-10758714D01*
X15643095Y-10739667D01*
X15662143Y-10730143D01*
X15690714Y-10730143D01*
X15709762Y-10739667D01*
X15785952Y-10939667D02*
X15795476Y-10930143D01*
X15814524Y-10901571D01*
X15824048Y-10882524D01*
X15833571Y-10853952D01*
X15843095Y-10806333D01*
X15843095Y-10768238D01*
X15833571Y-10720619D01*
X15824048Y-10692048D01*
X15814524Y-10673000D01*
X15795476Y-10644429D01*
X15785952Y-10634905D01*
D15*
X9384017Y-11063517D02*
X9384017Y-11010483D01*
X9330983Y-11010483D01*
X9330983Y-11063517D01*
X9384017Y-11063517D01*
D11*
X9690714Y-10927476D02*
X9709762Y-10927476D01*
X9728810Y-10937000D01*
X9738333Y-10946524D01*
X9747857Y-10965571D01*
X9757381Y-11003667D01*
X9757381Y-11051286D01*
X9747857Y-11089381D01*
X9738333Y-11108429D01*
X9728810Y-11117952D01*
X9709762Y-11127476D01*
X9690714Y-11127476D01*
X9671667Y-11117952D01*
X9662143Y-11108429D01*
X9652619Y-11089381D01*
X9643095Y-11051286D01*
X9643095Y-11003667D01*
X9652619Y-10965571D01*
X9662143Y-10946524D01*
X9671667Y-10937000D01*
X9690714Y-10927476D01*
X9843095Y-11108429D02*
X9852619Y-11117952D01*
X9843095Y-11127476D01*
X9833571Y-11117952D01*
X9843095Y-11108429D01*
X9843095Y-11127476D01*
X9919286Y-10927476D02*
X10052619Y-10927476D01*
X9966905Y-11127476D01*
X10224048Y-10927476D02*
X10128810Y-10927476D01*
X10119286Y-11022714D01*
X10128810Y-11013190D01*
X10147857Y-11003667D01*
X10195476Y-11003667D01*
X10214524Y-11013190D01*
X10224048Y-11022714D01*
X10233571Y-11041762D01*
X10233571Y-11089381D01*
X10224048Y-11108429D01*
X10214524Y-11117952D01*
X10195476Y-11127476D01*
X10147857Y-11127476D01*
X10128810Y-11117952D01*
X10119286Y-11108429D01*
X10357381Y-10927476D02*
X10376429Y-10927476D01*
X10395476Y-10937000D01*
X10405000Y-10946524D01*
X10414524Y-10965571D01*
X10424048Y-11003667D01*
X10424048Y-11051286D01*
X10414524Y-11089381D01*
X10405000Y-11108429D01*
X10395476Y-11117952D01*
X10376429Y-11127476D01*
X10357381Y-11127476D01*
X10338333Y-11117952D01*
X10328810Y-11108429D01*
X10319286Y-11089381D01*
X10309762Y-11051286D01*
X10309762Y-11003667D01*
X10319286Y-10965571D01*
X10328810Y-10946524D01*
X10338333Y-10937000D01*
X10357381Y-10927476D01*
X10509762Y-11127476D02*
X10509762Y-10994143D01*
X10509762Y-11013190D02*
X10519286Y-11003667D01*
X10538333Y-10994143D01*
X10566905Y-10994143D01*
X10585952Y-11003667D01*
X10595476Y-11022714D01*
X10595476Y-11127476D01*
X10595476Y-11022714D02*
X10605000Y-11003667D01*
X10624048Y-10994143D01*
X10652619Y-10994143D01*
X10671667Y-11003667D01*
X10681190Y-11022714D01*
X10681190Y-11127476D01*
X10776429Y-11127476D02*
X10776429Y-10994143D01*
X10776429Y-11013190D02*
X10785952Y-11003667D01*
X10805000Y-10994143D01*
X10833571Y-10994143D01*
X10852619Y-11003667D01*
X10862143Y-11022714D01*
X10862143Y-11127476D01*
X10862143Y-11022714D02*
X10871667Y-11003667D01*
X10890714Y-10994143D01*
X10919286Y-10994143D01*
X10938333Y-11003667D01*
X10947857Y-11022714D01*
X10947857Y-11127476D01*
X11338333Y-10917952D02*
X11166905Y-11175095D01*
X11595476Y-10927476D02*
X11614524Y-10927476D01*
X11633571Y-10937000D01*
X11643095Y-10946524D01*
X11652619Y-10965571D01*
X11662143Y-11003667D01*
X11662143Y-11051286D01*
X11652619Y-11089381D01*
X11643095Y-11108429D01*
X11633571Y-11117952D01*
X11614524Y-11127476D01*
X11595476Y-11127476D01*
X11576428Y-11117952D01*
X11566905Y-11108429D01*
X11557381Y-11089381D01*
X11547857Y-11051286D01*
X11547857Y-11003667D01*
X11557381Y-10965571D01*
X11566905Y-10946524D01*
X11576428Y-10937000D01*
X11595476Y-10927476D01*
X11747857Y-11108429D02*
X11757381Y-11117952D01*
X11747857Y-11127476D01*
X11738333Y-11117952D01*
X11747857Y-11108429D01*
X11747857Y-11127476D01*
X11881190Y-10927476D02*
X11900238Y-10927476D01*
X11919286Y-10937000D01*
X11928809Y-10946524D01*
X11938333Y-10965571D01*
X11947857Y-11003667D01*
X11947857Y-11051286D01*
X11938333Y-11089381D01*
X11928809Y-11108429D01*
X11919286Y-11117952D01*
X11900238Y-11127476D01*
X11881190Y-11127476D01*
X11862143Y-11117952D01*
X11852619Y-11108429D01*
X11843095Y-11089381D01*
X11833571Y-11051286D01*
X11833571Y-11003667D01*
X11843095Y-10965571D01*
X11852619Y-10946524D01*
X11862143Y-10937000D01*
X11881190Y-10927476D01*
X12024048Y-10946524D02*
X12033571Y-10937000D01*
X12052619Y-10927476D01*
X12100238Y-10927476D01*
X12119286Y-10937000D01*
X12128809Y-10946524D01*
X12138333Y-10965571D01*
X12138333Y-10984619D01*
X12128809Y-11013190D01*
X12014524Y-11127476D01*
X12138333Y-11127476D01*
X12233571Y-11127476D02*
X12271667Y-11127476D01*
X12290714Y-11117952D01*
X12300238Y-11108429D01*
X12319286Y-11079857D01*
X12328809Y-11041762D01*
X12328809Y-10965571D01*
X12319286Y-10946524D01*
X12309762Y-10937000D01*
X12290714Y-10927476D01*
X12252619Y-10927476D01*
X12233571Y-10937000D01*
X12224048Y-10946524D01*
X12214524Y-10965571D01*
X12214524Y-11013190D01*
X12224048Y-11032238D01*
X12233571Y-11041762D01*
X12252619Y-11051286D01*
X12290714Y-11051286D01*
X12309762Y-11041762D01*
X12319286Y-11032238D01*
X12328809Y-11013190D01*
X12509762Y-10927476D02*
X12414524Y-10927476D01*
X12405000Y-11022714D01*
X12414524Y-11013190D01*
X12433571Y-11003667D01*
X12481190Y-11003667D01*
X12500238Y-11013190D01*
X12509762Y-11022714D01*
X12519286Y-11041762D01*
X12519286Y-11089381D01*
X12509762Y-11108429D01*
X12500238Y-11117952D01*
X12481190Y-11127476D01*
X12433571Y-11127476D01*
X12414524Y-11117952D01*
X12405000Y-11108429D01*
X12595476Y-10927476D02*
X12595476Y-10965571D01*
X12671667Y-10927476D02*
X12671667Y-10965571D01*
X12966905Y-11203667D02*
X12957381Y-11194143D01*
X12938333Y-11165571D01*
X12928809Y-11146524D01*
X12919286Y-11117952D01*
X12909762Y-11070333D01*
X12909762Y-11032238D01*
X12919286Y-10984619D01*
X12928809Y-10956048D01*
X12938333Y-10937000D01*
X12957381Y-10908429D01*
X12966905Y-10898905D01*
X13128809Y-10994143D02*
X13128809Y-11127476D01*
X13081190Y-10917952D02*
X13033571Y-11060810D01*
X13157381Y-11060810D01*
X13385952Y-11127476D02*
X13385952Y-10927476D01*
X13471667Y-11127476D02*
X13471667Y-11022714D01*
X13462143Y-11003667D01*
X13443095Y-10994143D01*
X13414524Y-10994143D01*
X13395476Y-11003667D01*
X13385952Y-11013190D01*
X13595476Y-11127476D02*
X13576428Y-11117952D01*
X13566905Y-11108429D01*
X13557381Y-11089381D01*
X13557381Y-11032238D01*
X13566905Y-11013190D01*
X13576428Y-11003667D01*
X13595476Y-10994143D01*
X13624048Y-10994143D01*
X13643095Y-11003667D01*
X13652619Y-11013190D01*
X13662143Y-11032238D01*
X13662143Y-11089381D01*
X13652619Y-11108429D01*
X13643095Y-11117952D01*
X13624048Y-11127476D01*
X13595476Y-11127476D01*
X13776428Y-11127476D02*
X13757381Y-11117952D01*
X13747857Y-11098905D01*
X13747857Y-10927476D01*
X13928809Y-11117952D02*
X13909762Y-11127476D01*
X13871667Y-11127476D01*
X13852619Y-11117952D01*
X13843095Y-11098905D01*
X13843095Y-11022714D01*
X13852619Y-11003667D01*
X13871667Y-10994143D01*
X13909762Y-10994143D01*
X13928809Y-11003667D01*
X13938333Y-11022714D01*
X13938333Y-11041762D01*
X13843095Y-11060810D01*
X14014524Y-11117952D02*
X14033571Y-11127476D01*
X14071667Y-11127476D01*
X14090714Y-11117952D01*
X14100238Y-11098905D01*
X14100238Y-11089381D01*
X14090714Y-11070333D01*
X14071667Y-11060810D01*
X14043095Y-11060810D01*
X14024048Y-11051286D01*
X14014524Y-11032238D01*
X14014524Y-11022714D01*
X14024048Y-11003667D01*
X14043095Y-10994143D01*
X14071667Y-10994143D01*
X14090714Y-11003667D01*
X14166905Y-11203667D02*
X14176428Y-11194143D01*
X14195476Y-11165571D01*
X14205000Y-11146524D01*
X14214524Y-11117952D01*
X14224048Y-11070333D01*
X14224048Y-11032238D01*
X14214524Y-10984619D01*
X14205000Y-10956048D01*
X14195476Y-10937000D01*
X14176428Y-10908429D01*
X14166905Y-10898905D01*
X9295000Y-11401000D02*
X9395000Y-11301000D01*
X9295000Y-11201000D01*
X9195000Y-11301000D01*
X9295000Y-11401000D01*
X9643095Y-11210524D02*
X9652619Y-11201000D01*
X9671667Y-11191476D01*
X9719286Y-11191476D01*
X9738333Y-11201000D01*
X9747857Y-11210524D01*
X9757381Y-11229571D01*
X9757381Y-11248619D01*
X9747857Y-11277190D01*
X9633571Y-11391476D01*
X9757381Y-11391476D01*
X9843095Y-11372428D02*
X9852619Y-11381952D01*
X9843095Y-11391476D01*
X9833571Y-11381952D01*
X9843095Y-11372428D01*
X9843095Y-11391476D01*
X10024048Y-11258143D02*
X10024048Y-11391476D01*
X9976429Y-11181952D02*
X9928810Y-11324809D01*
X10052619Y-11324809D01*
X10166905Y-11191476D02*
X10185952Y-11191476D01*
X10205000Y-11201000D01*
X10214524Y-11210524D01*
X10224048Y-11229571D01*
X10233571Y-11267667D01*
X10233571Y-11315286D01*
X10224048Y-11353381D01*
X10214524Y-11372428D01*
X10205000Y-11381952D01*
X10185952Y-11391476D01*
X10166905Y-11391476D01*
X10147857Y-11381952D01*
X10138333Y-11372428D01*
X10128810Y-11353381D01*
X10119286Y-11315286D01*
X10119286Y-11267667D01*
X10128810Y-11229571D01*
X10138333Y-11210524D01*
X10147857Y-11201000D01*
X10166905Y-11191476D01*
X10357381Y-11191476D02*
X10376429Y-11191476D01*
X10395476Y-11201000D01*
X10405000Y-11210524D01*
X10414524Y-11229571D01*
X10424048Y-11267667D01*
X10424048Y-11315286D01*
X10414524Y-11353381D01*
X10405000Y-11372428D01*
X10395476Y-11381952D01*
X10376429Y-11391476D01*
X10357381Y-11391476D01*
X10338333Y-11381952D01*
X10328810Y-11372428D01*
X10319286Y-11353381D01*
X10309762Y-11315286D01*
X10309762Y-11267667D01*
X10319286Y-11229571D01*
X10328810Y-11210524D01*
X10338333Y-11201000D01*
X10357381Y-11191476D01*
X10509762Y-11391476D02*
X10509762Y-11258143D01*
X10509762Y-11277190D02*
X10519286Y-11267667D01*
X10538333Y-11258143D01*
X10566905Y-11258143D01*
X10585952Y-11267667D01*
X10595476Y-11286714D01*
X10595476Y-11391476D01*
X10595476Y-11286714D02*
X10605000Y-11267667D01*
X10624048Y-11258143D01*
X10652619Y-11258143D01*
X10671667Y-11267667D01*
X10681190Y-11286714D01*
X10681190Y-11391476D01*
X10776429Y-11391476D02*
X10776429Y-11258143D01*
X10776429Y-11277190D02*
X10785952Y-11267667D01*
X10805000Y-11258143D01*
X10833571Y-11258143D01*
X10852619Y-11267667D01*
X10862143Y-11286714D01*
X10862143Y-11391476D01*
X10862143Y-11286714D02*
X10871667Y-11267667D01*
X10890714Y-11258143D01*
X10919286Y-11258143D01*
X10938333Y-11267667D01*
X10947857Y-11286714D01*
X10947857Y-11391476D01*
X11338333Y-11181952D02*
X11166905Y-11439095D01*
X11595476Y-11191476D02*
X11614524Y-11191476D01*
X11633571Y-11201000D01*
X11643095Y-11210524D01*
X11652619Y-11229571D01*
X11662143Y-11267667D01*
X11662143Y-11315286D01*
X11652619Y-11353381D01*
X11643095Y-11372428D01*
X11633571Y-11381952D01*
X11614524Y-11391476D01*
X11595476Y-11391476D01*
X11576428Y-11381952D01*
X11566905Y-11372428D01*
X11557381Y-11353381D01*
X11547857Y-11315286D01*
X11547857Y-11267667D01*
X11557381Y-11229571D01*
X11566905Y-11210524D01*
X11576428Y-11201000D01*
X11595476Y-11191476D01*
X11747857Y-11372428D02*
X11757381Y-11381952D01*
X11747857Y-11391476D01*
X11738333Y-11381952D01*
X11747857Y-11372428D01*
X11747857Y-11391476D01*
X11881190Y-11191476D02*
X11900238Y-11191476D01*
X11919286Y-11201000D01*
X11928809Y-11210524D01*
X11938333Y-11229571D01*
X11947857Y-11267667D01*
X11947857Y-11315286D01*
X11938333Y-11353381D01*
X11928809Y-11372428D01*
X11919286Y-11381952D01*
X11900238Y-11391476D01*
X11881190Y-11391476D01*
X11862143Y-11381952D01*
X11852619Y-11372428D01*
X11843095Y-11353381D01*
X11833571Y-11315286D01*
X11833571Y-11267667D01*
X11843095Y-11229571D01*
X11852619Y-11210524D01*
X11862143Y-11201000D01*
X11881190Y-11191476D01*
X12043095Y-11391476D02*
X12081190Y-11391476D01*
X12100238Y-11381952D01*
X12109762Y-11372428D01*
X12128809Y-11343857D01*
X12138333Y-11305762D01*
X12138333Y-11229571D01*
X12128809Y-11210524D01*
X12119286Y-11201000D01*
X12100238Y-11191476D01*
X12062143Y-11191476D01*
X12043095Y-11201000D01*
X12033571Y-11210524D01*
X12024048Y-11229571D01*
X12024048Y-11277190D01*
X12033571Y-11296238D01*
X12043095Y-11305762D01*
X12062143Y-11315286D01*
X12100238Y-11315286D01*
X12119286Y-11305762D01*
X12128809Y-11296238D01*
X12138333Y-11277190D01*
X12309762Y-11258143D02*
X12309762Y-11391476D01*
X12262143Y-11181952D02*
X12214524Y-11324809D01*
X12338333Y-11324809D01*
X12509762Y-11191476D02*
X12414524Y-11191476D01*
X12405000Y-11286714D01*
X12414524Y-11277190D01*
X12433571Y-11267667D01*
X12481190Y-11267667D01*
X12500238Y-11277190D01*
X12509762Y-11286714D01*
X12519286Y-11305762D01*
X12519286Y-11353381D01*
X12509762Y-11372428D01*
X12500238Y-11381952D01*
X12481190Y-11391476D01*
X12433571Y-11391476D01*
X12414524Y-11381952D01*
X12405000Y-11372428D01*
X12595476Y-11191476D02*
X12595476Y-11229571D01*
X12671667Y-11191476D02*
X12671667Y-11229571D01*
X12966905Y-11467667D02*
X12957381Y-11458143D01*
X12938333Y-11429571D01*
X12928809Y-11410524D01*
X12919286Y-11381952D01*
X12909762Y-11334333D01*
X12909762Y-11296238D01*
X12919286Y-11248619D01*
X12928809Y-11220048D01*
X12938333Y-11201000D01*
X12957381Y-11172429D01*
X12966905Y-11162905D01*
X13147857Y-11391476D02*
X13033571Y-11391476D01*
X13090714Y-11391476D02*
X13090714Y-11191476D01*
X13071667Y-11220048D01*
X13052619Y-11239095D01*
X13033571Y-11248619D01*
X13385952Y-11391476D02*
X13385952Y-11191476D01*
X13471667Y-11391476D02*
X13471667Y-11286714D01*
X13462143Y-11267667D01*
X13443095Y-11258143D01*
X13414524Y-11258143D01*
X13395476Y-11267667D01*
X13385952Y-11277190D01*
X13595476Y-11391476D02*
X13576428Y-11381952D01*
X13566905Y-11372428D01*
X13557381Y-11353381D01*
X13557381Y-11296238D01*
X13566905Y-11277190D01*
X13576428Y-11267667D01*
X13595476Y-11258143D01*
X13624048Y-11258143D01*
X13643095Y-11267667D01*
X13652619Y-11277190D01*
X13662143Y-11296238D01*
X13662143Y-11353381D01*
X13652619Y-11372428D01*
X13643095Y-11381952D01*
X13624048Y-11391476D01*
X13595476Y-11391476D01*
X13776428Y-11391476D02*
X13757381Y-11381952D01*
X13747857Y-11362905D01*
X13747857Y-11191476D01*
X13928809Y-11381952D02*
X13909762Y-11391476D01*
X13871667Y-11391476D01*
X13852619Y-11381952D01*
X13843095Y-11362905D01*
X13843095Y-11286714D01*
X13852619Y-11267667D01*
X13871667Y-11258143D01*
X13909762Y-11258143D01*
X13928809Y-11267667D01*
X13938333Y-11286714D01*
X13938333Y-11305762D01*
X13843095Y-11324809D01*
X14005000Y-11467667D02*
X14014524Y-11458143D01*
X14033571Y-11429571D01*
X14043095Y-11410524D01*
X14052619Y-11381952D01*
X14062143Y-11334333D01*
X14062143Y-11296238D01*
X14052619Y-11248619D01*
X14043095Y-11220048D01*
X14033571Y-11201000D01*
X14014524Y-11172429D01*
X14005000Y-11162905D01*
M02*
