%TF.GenerationSoftware,KiCad,Pcbnew,7.0.8*%
%TF.CreationDate,2023-12-27T11:14:03+01:00*%
%TF.ProjectId,Frost-ESP32,46726f73-742d-4455-9350-33322e6b6963,rev?*%
%TF.SameCoordinates,Original*%
%TF.FileFunction,Copper,L6,Bot*%
%TF.FilePolarity,Positive*%
%FSLAX46Y46*%
G04 Gerber Fmt 4.6, Leading zero omitted, Abs format (unit mm)*
G04 Created by KiCad (PCBNEW 7.0.8) date 2023-12-27 11:14:03*
%MOMM*%
%LPD*%
G01*
G04 APERTURE LIST*
G04 Aperture macros list*
%AMRoundRect*
0 Rectangle with rounded corners*
0 $1 Rounding radius*
0 $2 $3 $4 $5 $6 $7 $8 $9 X,Y pos of 4 corners*
0 Add a 4 corners polygon primitive as box body*
4,1,4,$2,$3,$4,$5,$6,$7,$8,$9,$2,$3,0*
0 Add four circle primitives for the rounded corners*
1,1,$1+$1,$2,$3*
1,1,$1+$1,$4,$5*
1,1,$1+$1,$6,$7*
1,1,$1+$1,$8,$9*
0 Add four rect primitives between the rounded corners*
20,1,$1+$1,$2,$3,$4,$5,0*
20,1,$1+$1,$4,$5,$6,$7,0*
20,1,$1+$1,$6,$7,$8,$9,0*
20,1,$1+$1,$8,$9,$2,$3,0*%
G04 Aperture macros list end*
%TA.AperFunction,ComponentPad*%
%ADD10R,1.000000X1.000000*%
%TD*%
%TA.AperFunction,ComponentPad*%
%ADD11O,1.000000X1.000000*%
%TD*%
%TA.AperFunction,SMDPad,CuDef*%
%ADD12R,1.100000X0.700000*%
%TD*%
%TA.AperFunction,SMDPad,CuDef*%
%ADD13R,0.930000X0.900000*%
%TD*%
%TA.AperFunction,SMDPad,CuDef*%
%ADD14R,0.780000X1.050000*%
%TD*%
%TA.AperFunction,SMDPad,CuDef*%
%ADD15R,1.830000X1.140000*%
%TD*%
%TA.AperFunction,SMDPad,CuDef*%
%ADD16R,2.800000X0.860000*%
%TD*%
%TA.AperFunction,SMDPad,CuDef*%
%ADD17R,3.330000X0.700000*%
%TD*%
%TA.AperFunction,SMDPad,CuDef*%
%ADD18RoundRect,0.150000X0.150000X-0.512500X0.150000X0.512500X-0.150000X0.512500X-0.150000X-0.512500X0*%
%TD*%
%TA.AperFunction,SMDPad,CuDef*%
%ADD19R,0.450000X1.380000*%
%TD*%
%TA.AperFunction,SMDPad,CuDef*%
%ADD20R,1.650000X1.300000*%
%TD*%
%TA.AperFunction,SMDPad,CuDef*%
%ADD21R,1.425000X1.550000*%
%TD*%
%TA.AperFunction,SMDPad,CuDef*%
%ADD22R,1.800000X1.900000*%
%TD*%
%TA.AperFunction,SMDPad,CuDef*%
%ADD23R,1.000000X1.900000*%
%TD*%
%TA.AperFunction,SMDPad,CuDef*%
%ADD24RoundRect,0.150000X0.825000X0.150000X-0.825000X0.150000X-0.825000X-0.150000X0.825000X-0.150000X0*%
%TD*%
%TA.AperFunction,ViaPad*%
%ADD25C,0.600000*%
%TD*%
%TA.AperFunction,ViaPad*%
%ADD26C,0.800000*%
%TD*%
%TA.AperFunction,Conductor*%
%ADD27C,0.500000*%
%TD*%
%TA.AperFunction,Conductor*%
%ADD28C,0.200000*%
%TD*%
%TA.AperFunction,Conductor*%
%ADD29C,0.250000*%
%TD*%
%TA.AperFunction,Conductor*%
%ADD30C,0.300000*%
%TD*%
G04 APERTURE END LIST*
D10*
%TO.P,J2,1,Pin_1*%
%TO.N,/Vconn*%
X95500000Y-109930000D03*
D11*
%TO.P,J2,2,Pin_2*%
%TO.N,/CANL*%
X95500000Y-108660000D03*
%TO.P,J2,3,Pin_3*%
%TO.N,/CANH*%
X95500000Y-107390000D03*
%TO.P,J2,4,Pin_4*%
%TO.N,GND*%
X95500000Y-106120000D03*
%TO.P,J2,5,Pin_5*%
%TO.N,+5V*%
X95500000Y-104850000D03*
%TO.P,J2,6,Pin_6*%
%TO.N,/RX*%
X95500000Y-103580000D03*
%TO.P,J2,7,Pin_7*%
%TO.N,/TX*%
X95500000Y-102310000D03*
%TO.P,J2,8,Pin_8*%
%TO.N,/GPIO8*%
X95500000Y-101040000D03*
%TO.P,J2,9,Pin_9*%
%TO.N,/GPIO10*%
X95500000Y-99770000D03*
%TO.P,J2,10,Pin_10*%
%TO.N,GND*%
X95500000Y-98500000D03*
%TD*%
D12*
%TO.P,J1,1,DAT2*%
%TO.N,unconnected-(J1-DAT2-Pad1)*%
X118375000Y-101420000D03*
%TO.P,J1,2,DAT3/CD*%
%TO.N,/SD_CS*%
X118375000Y-102520000D03*
%TO.P,J1,3,CMD*%
%TO.N,/SD_MOSI*%
X118375000Y-103620000D03*
%TO.P,J1,4,VDD*%
%TO.N,+3V3*%
X118375000Y-104720000D03*
%TO.P,J1,5,CLK*%
%TO.N,/SD_SCK*%
X118375000Y-105820000D03*
%TO.P,J1,6,VSS*%
%TO.N,GND*%
X118375000Y-106920000D03*
%TO.P,J1,7,DAT0*%
%TO.N,/SD_MISO*%
X118375000Y-108020000D03*
%TO.P,J1,8,DAT1*%
%TO.N,unconnected-(J1-DAT1-Pad8)*%
X118375000Y-109120000D03*
D13*
%TO.P,J1,9,DET_B*%
%TO.N,unconnected-(J1-DET_B-Pad9)*%
X130840000Y-99630000D03*
D14*
%TO.P,J1,10,DET_A*%
%TO.N,unconnected-(J1-DET_A-Pad10)*%
X130915000Y-103895000D03*
D15*
%TO.P,J1,P1,P1*%
%TO.N,GND*%
X118390000Y-97540000D03*
D16*
%TO.P,J1,P2*%
%TO.N,N/C*%
X118875000Y-110200000D03*
D17*
%TO.P,J1,P3*%
X129640000Y-97320000D03*
%TO.P,J1,P4*%
X129640000Y-110280000D03*
%TD*%
D18*
%TO.P,U2,1,VIN*%
%TO.N,+5V*%
X100900000Y-109637500D03*
%TO.P,U2,2,GND*%
%TO.N,GND*%
X99950000Y-109637500D03*
%TO.P,U2,3,EN*%
%TO.N,+5V*%
X99000000Y-109637500D03*
%TO.P,U2,4,NC*%
%TO.N,unconnected-(U2-NC-Pad4)*%
X99000000Y-107362500D03*
%TO.P,U2,5,VOUT*%
%TO.N,+3V3*%
X100900000Y-107362500D03*
%TD*%
D19*
%TO.P,J3,1,VBUS*%
%TO.N,/Vbus*%
X137695000Y-102715000D03*
%TO.P,J3,2,D-*%
%TO.N,/USB_D-*%
X138345000Y-102715000D03*
%TO.P,J3,3,D+*%
%TO.N,/USB_D+*%
X138995000Y-102715000D03*
%TO.P,J3,4,ID*%
%TO.N,unconnected-(J3-ID-Pad4)*%
X139645000Y-102715000D03*
%TO.P,J3,5,GND*%
%TO.N,GND*%
X140295000Y-102715000D03*
D20*
%TO.P,J3,6,Shield*%
X135620000Y-100055000D03*
D21*
X136507500Y-102630000D03*
D22*
X137845000Y-100055000D03*
D23*
X140545000Y-100055000D03*
D21*
X141482500Y-102630000D03*
D20*
X142370000Y-100055000D03*
%TD*%
D24*
%TO.P,U3,1,TXD*%
%TO.N,/CAN_TX*%
X102375000Y-98695000D03*
%TO.P,U3,2,GND*%
%TO.N,GND*%
X102375000Y-99965000D03*
%TO.P,U3,3,VCC*%
%TO.N,+5V*%
X102375000Y-101235000D03*
%TO.P,U3,4,RXD*%
%TO.N,/CAN_RX*%
X102375000Y-102505000D03*
%TO.P,U3,5,VIO*%
%TO.N,+3V3*%
X97425000Y-102505000D03*
%TO.P,U3,6,CANL*%
%TO.N,/CANL*%
X97425000Y-101235000D03*
%TO.P,U3,7,CANH*%
%TO.N,/CANH*%
X97425000Y-99965000D03*
%TO.P,U3,8,S*%
%TO.N,GND*%
X97425000Y-98695000D03*
%TD*%
D25*
%TO.N,/TX*%
X112000000Y-102275500D03*
D26*
X111800000Y-108800000D03*
D25*
%TO.N,/RX*%
X112000000Y-103600000D03*
D26*
X110700000Y-108200000D03*
D25*
%TO.N,/Vconn*%
X99000000Y-98900000D03*
%TO.N,+3V3*%
X108100000Y-105600000D03*
X101500000Y-107500000D03*
X118375000Y-104720000D03*
X102124307Y-103500554D03*
X97475500Y-105257744D03*
X113750000Y-97750000D03*
X142800000Y-103800000D03*
%TO.N,GND*%
X109200000Y-108000000D03*
D26*
X135900000Y-98300000D03*
D25*
X105475000Y-100650000D03*
X97900000Y-109300000D03*
X99923385Y-109720839D03*
X143000000Y-105212500D03*
X143000000Y-108500000D03*
X122360000Y-105050000D03*
X107925000Y-100650000D03*
X118375000Y-106920000D03*
X115400000Y-108700000D03*
X118250000Y-97750000D03*
X101500000Y-105700000D03*
%TO.N,/CANH*%
X99650500Y-101710000D03*
%TO.N,/CANL*%
X99000000Y-100690000D03*
%TO.N,+5V*%
X100900000Y-109637500D03*
D26*
X140300000Y-98500000D03*
X100400000Y-98900000D03*
D25*
%TO.N,/USB_D+*%
X133199479Y-103800521D03*
%TO.N,/USB_D-*%
X133800521Y-103199479D03*
%TO.N,/SD_CS*%
X113750000Y-105250000D03*
%TO.N,/CAN_RX*%
X105490969Y-102054500D03*
X125000000Y-100200000D03*
%TO.N,/CAN_TX*%
X127200000Y-99200000D03*
X102600000Y-98700000D03*
%TO.N,/SD_MOSI*%
X116500000Y-101660500D03*
%TO.N,/SD_SCK*%
X115895250Y-103354750D03*
%TO.N,/SD_MISO*%
X118375000Y-108020000D03*
X113750000Y-103750000D03*
%TO.N,/GPIO8*%
X99349500Y-102800000D03*
X108200000Y-103100000D03*
%TO.N,/GPIO10*%
X126250000Y-101250000D03*
%TO.N,/RX*%
X129750000Y-108250000D03*
%TO.N,/TX*%
X129750000Y-106750000D03*
%TO.N,Net-(U1-EN{slash}CHIP_PU)*%
X108100000Y-106610000D03*
X110700000Y-104400000D03*
%TO.N,/Vbus*%
X137500000Y-103925500D03*
D26*
X143200000Y-101600000D03*
%TD*%
D27*
%TO.N,GND*%
X103365000Y-99965000D02*
X102375000Y-99965000D01*
X104100000Y-100700000D02*
X103365000Y-99965000D01*
X105475000Y-100650000D02*
X105425000Y-100700000D01*
X105425000Y-100700000D02*
X104100000Y-100700000D01*
D28*
%TO.N,/TX*%
X112700000Y-107900000D02*
X112700000Y-102975500D01*
X111800000Y-108800000D02*
X112700000Y-107900000D01*
X112700000Y-102975500D02*
X112000000Y-102275500D01*
%TO.N,/RX*%
X112000000Y-106900000D02*
X112000000Y-103600000D01*
X110700000Y-108200000D02*
X112000000Y-106900000D01*
%TO.N,+3V3*%
X97425000Y-105207244D02*
X97425000Y-102505000D01*
X97475500Y-105257744D02*
X97425000Y-105207244D01*
D27*
X101037500Y-107500000D02*
X100900000Y-107362500D01*
X101500000Y-107500000D02*
X101037500Y-107500000D01*
D29*
%TO.N,GND*%
X141482500Y-102630000D02*
X140380000Y-102630000D01*
X140295000Y-102715000D02*
X140295000Y-100305000D01*
D28*
X138345000Y-100345000D02*
X137500000Y-99500000D01*
D29*
X135620000Y-100055000D02*
X135620000Y-98580000D01*
X135620000Y-100055000D02*
X137845000Y-100055000D01*
X136507500Y-102630000D02*
X136507500Y-100942500D01*
D30*
X118390000Y-97610000D02*
X118250000Y-97750000D01*
D29*
X136507500Y-100942500D02*
X135620000Y-100055000D01*
D27*
X99950000Y-109694224D02*
X99923385Y-109720839D01*
D29*
X140380000Y-102630000D02*
X140295000Y-102715000D01*
D27*
X99950000Y-109637500D02*
X99950000Y-109694224D01*
D29*
X137845000Y-100055000D02*
X140545000Y-100055000D01*
X142370000Y-100055000D02*
X140545000Y-100055000D01*
D27*
X95695000Y-98695000D02*
X95500000Y-98500000D01*
D29*
X135620000Y-98580000D02*
X135900000Y-98300000D01*
X140295000Y-100305000D02*
X140545000Y-100055000D01*
D30*
X118390000Y-97540000D02*
X118390000Y-97610000D01*
D27*
X97425000Y-98695000D02*
X95695000Y-98695000D01*
D29*
%TO.N,/CANH*%
X99165000Y-99965000D02*
X99700000Y-100500000D01*
X99800000Y-101560500D02*
X99650500Y-101710000D01*
X97425000Y-99965000D02*
X99165000Y-99965000D01*
X99700000Y-100500000D02*
X99800000Y-100500000D01*
X99800000Y-100500000D02*
X99800000Y-101560500D01*
%TO.N,/CANL*%
X98400000Y-101235000D02*
X98725000Y-101560000D01*
X98725000Y-105012500D02*
X98653248Y-105012500D01*
X97970000Y-100690000D02*
X97425000Y-101235000D01*
X98725000Y-101560000D02*
X98725000Y-105012500D01*
X99000000Y-100690000D02*
X97970000Y-100690000D01*
X97900000Y-107300000D02*
X96540000Y-108660000D01*
X96540000Y-108660000D02*
X95500000Y-108660000D01*
X98653248Y-105012500D02*
X97900000Y-105765748D01*
X97425000Y-101235000D02*
X98400000Y-101235000D01*
X97900000Y-105765748D02*
X97900000Y-107300000D01*
D27*
%TO.N,+5V*%
X100900000Y-109012500D02*
X100900000Y-109637500D01*
D29*
X100500000Y-101100000D02*
X100500000Y-99000000D01*
X100500000Y-99000000D02*
X100400000Y-98900000D01*
X100635000Y-101235000D02*
X100500000Y-101100000D01*
D27*
X100412500Y-108525000D02*
X100900000Y-109012500D01*
X99000000Y-109076472D02*
X99551472Y-108525000D01*
X99000000Y-109637500D02*
X99000000Y-109076472D01*
X99551472Y-108525000D02*
X100412500Y-108525000D01*
D29*
X102375000Y-101235000D02*
X100635000Y-101235000D01*
D28*
%TO.N,/USB_D+*%
X138895000Y-104173200D02*
X138093200Y-104975000D01*
X138093200Y-104975000D02*
X134656801Y-104975000D01*
X138995000Y-103580000D02*
X138895000Y-103680000D01*
X138995000Y-103155000D02*
X138995000Y-103580000D01*
X133482322Y-103800521D02*
X133199479Y-103800521D01*
X134656801Y-104975000D02*
X133482322Y-103800521D01*
X138895000Y-103680000D02*
X138895000Y-104173200D01*
%TO.N,/USB_D-*%
X138345000Y-103155000D02*
X138345000Y-103580000D01*
X137906800Y-104525000D02*
X134843199Y-104525000D01*
X138345000Y-103580000D02*
X138445000Y-103680000D01*
X138445000Y-103986800D02*
X137906800Y-104525000D01*
X134843199Y-104525000D02*
X133800521Y-103482322D01*
X138445000Y-103680000D02*
X138445000Y-103986800D01*
X133800521Y-103482322D02*
X133800521Y-103199479D01*
D29*
%TO.N,/SD_CS*%
X116473384Y-100750000D02*
X117250000Y-101526616D01*
X115750000Y-100750000D02*
X116473384Y-100750000D01*
X117625000Y-102520000D02*
X118375000Y-102520000D01*
X115000000Y-104000000D02*
X115000000Y-101500000D01*
X117250000Y-102145000D02*
X117625000Y-102520000D01*
X113750000Y-105250000D02*
X115000000Y-104000000D01*
X117250000Y-101526616D02*
X117250000Y-102145000D01*
X115000000Y-101500000D02*
X115750000Y-100750000D01*
%TO.N,/CAN_RX*%
X105045469Y-102500000D02*
X105490969Y-102054500D01*
X102375000Y-102505000D02*
X102380000Y-102500000D01*
X102380000Y-102500000D02*
X105045469Y-102500000D01*
D27*
%TO.N,/CAN_TX*%
X102375000Y-98695000D02*
X102595000Y-98695000D01*
X102595000Y-98695000D02*
X102600000Y-98700000D01*
D29*
%TO.N,/SD_MOSI*%
X116500000Y-102204620D02*
X117915380Y-103620000D01*
X117915380Y-103620000D02*
X118375000Y-103620000D01*
X116500000Y-101660500D02*
X116500000Y-102204620D01*
D30*
%TO.N,/SD_SCK*%
X116700000Y-104159500D02*
X116700000Y-105200000D01*
X116700000Y-105200000D02*
X117320000Y-105820000D01*
X117320000Y-105820000D02*
X118375000Y-105820000D01*
X115895250Y-103354750D02*
X116700000Y-104159500D01*
%TO.N,Net-(U1-EN{slash}CHIP_PU)*%
X108490000Y-106610000D02*
X110700000Y-104400000D01*
X108100000Y-106610000D02*
X108490000Y-106610000D01*
D29*
%TO.N,/Vbus*%
X137695000Y-103405000D02*
X137695000Y-102715000D01*
X137500000Y-103925500D02*
X137500000Y-103600000D01*
X137500000Y-103600000D02*
X137695000Y-103405000D01*
%TD*%
M02*
