%TF.GenerationSoftware,KiCad,Pcbnew,(6.0.7-1)-1*%
%TF.CreationDate,2022-11-24T20:11:50+01:00*%
%TF.ProjectId,Frost-ESP32,46726f73-742d-4455-9350-33322e6b6963,rev?*%
%TF.SameCoordinates,Original*%
%TF.FileFunction,Paste,Top*%
%TF.FilePolarity,Positive*%
%FSLAX46Y46*%
G04 Gerber Fmt 4.6, Leading zero omitted, Abs format (unit mm)*
G04 Created by KiCad (PCBNEW (6.0.7-1)-1) date 2022-11-24 20:11:50*
%MOMM*%
%LPD*%
G01*
G04 APERTURE LIST*
G04 Aperture macros list*
%AMRoundRect*
0 Rectangle with rounded corners*
0 $1 Rounding radius*
0 $2 $3 $4 $5 $6 $7 $8 $9 X,Y pos of 4 corners*
0 Add a 4 corners polygon primitive as box body*
4,1,4,$2,$3,$4,$5,$6,$7,$8,$9,$2,$3,0*
0 Add four circle primitives for the rounded corners*
1,1,$1+$1,$2,$3*
1,1,$1+$1,$4,$5*
1,1,$1+$1,$6,$7*
1,1,$1+$1,$8,$9*
0 Add four rect primitives between the rounded corners*
20,1,$1+$1,$2,$3,$4,$5,0*
20,1,$1+$1,$4,$5,$6,$7,0*
20,1,$1+$1,$6,$7,$8,$9,0*
20,1,$1+$1,$8,$9,$2,$3,0*%
%AMFreePoly0*
4,1,6,0.725000,-0.725000,-0.725000,-0.725000,-0.725000,0.125000,-0.125000,0.725000,0.725000,0.725000,0.725000,-0.725000,0.725000,-0.725000,$1*%
G04 Aperture macros list end*
%ADD10RoundRect,0.225000X-0.225000X-0.250000X0.225000X-0.250000X0.225000X0.250000X-0.225000X0.250000X0*%
%ADD11RoundRect,0.250000X0.450000X-0.262500X0.450000X0.262500X-0.450000X0.262500X-0.450000X-0.262500X0*%
%ADD12RoundRect,0.250000X-0.475000X0.250000X-0.475000X-0.250000X0.475000X-0.250000X0.475000X0.250000X0*%
%ADD13R,1.150000X0.300000*%
%ADD14RoundRect,0.243750X-0.456250X0.243750X-0.456250X-0.243750X0.456250X-0.243750X0.456250X0.243750X0*%
%ADD15RoundRect,0.250000X-0.250000X-0.475000X0.250000X-0.475000X0.250000X0.475000X-0.250000X0.475000X0*%
%ADD16R,1.800000X0.400000*%
%ADD17R,0.400000X1.800000*%
%ADD18R,0.400000X0.800000*%
%ADD19R,1.450000X1.450000*%
%ADD20FreePoly0,0.000000*%
%ADD21R,1.700000X0.700000*%
%ADD22R,1.700000X1.700000*%
%ADD23RoundRect,0.250000X-0.262500X-0.450000X0.262500X-0.450000X0.262500X0.450000X-0.262500X0.450000X0*%
%ADD24RoundRect,0.250000X-0.450000X0.262500X-0.450000X-0.262500X0.450000X-0.262500X0.450000X0.262500X0*%
%ADD25RoundRect,0.243750X0.243750X0.456250X-0.243750X0.456250X-0.243750X-0.456250X0.243750X-0.456250X0*%
%ADD26RoundRect,0.150000X0.150000X-0.512500X0.150000X0.512500X-0.150000X0.512500X-0.150000X-0.512500X0*%
%ADD27RoundRect,0.250000X0.262500X0.450000X-0.262500X0.450000X-0.262500X-0.450000X0.262500X-0.450000X0*%
%ADD28RoundRect,0.150000X-0.150000X0.825000X-0.150000X-0.825000X0.150000X-0.825000X0.150000X0.825000X0*%
%ADD29R,1.100000X1.100000*%
G04 APERTURE END LIST*
D10*
%TO.C,C3*%
X106125000Y-81400000D03*
X107675000Y-81400000D03*
%TD*%
D11*
%TO.C,R2*%
X97300000Y-74112500D03*
X97300000Y-72287500D03*
%TD*%
D12*
%TO.C,C4*%
X97300000Y-76350000D03*
X97300000Y-78250000D03*
%TD*%
D13*
%TO.C,J3*%
X111430000Y-89750000D03*
X111430000Y-88950000D03*
X111430000Y-87650000D03*
X111430000Y-86650000D03*
X111430000Y-86150000D03*
X111430000Y-85150000D03*
X111430000Y-83850000D03*
X111430000Y-83050000D03*
X111430000Y-83350000D03*
X111430000Y-84150000D03*
X111430000Y-84650000D03*
X111430000Y-85650000D03*
X111430000Y-87150000D03*
X111430000Y-88150000D03*
X111430000Y-88650000D03*
X111430000Y-89450000D03*
%TD*%
D14*
%TO.C,D3*%
X115500000Y-69100000D03*
X115500000Y-70975000D03*
%TD*%
D15*
%TO.C,C1*%
X105850000Y-90100000D03*
X107750000Y-90100000D03*
%TD*%
D16*
%TO.C,U1*%
X99900000Y-68950000D03*
X99900000Y-69750000D03*
X99900000Y-70550000D03*
X99900000Y-71350000D03*
X99900000Y-72150000D03*
X99900000Y-72950000D03*
X99900000Y-73750000D03*
X99900000Y-74550000D03*
X99900000Y-75350000D03*
X99900000Y-76150000D03*
X99900000Y-76950000D03*
D17*
X101500000Y-78350000D03*
X102300000Y-78350000D03*
X103100000Y-78350000D03*
X103900000Y-78350000D03*
X104700000Y-78350000D03*
X105500000Y-78350000D03*
X106300000Y-78350000D03*
X107100000Y-78350000D03*
X107900000Y-78350000D03*
X108700000Y-78350000D03*
X109500000Y-78350000D03*
X110300000Y-78350000D03*
X111100000Y-78350000D03*
D16*
X112700000Y-76950000D03*
X112700000Y-76150000D03*
X112700000Y-75350000D03*
X112700000Y-74550000D03*
X112700000Y-73750000D03*
X112700000Y-72950000D03*
X112700000Y-72150000D03*
X112700000Y-71350000D03*
X112700000Y-70550000D03*
X112700000Y-69750000D03*
X112700000Y-68950000D03*
D18*
X111100000Y-68050000D03*
X110300000Y-68050000D03*
X109500000Y-68050000D03*
X108700000Y-68050000D03*
X107900000Y-68050000D03*
X107100000Y-68050000D03*
X106300000Y-68050000D03*
X105500000Y-68050000D03*
X104700000Y-68050000D03*
X103900000Y-68050000D03*
X103100000Y-68050000D03*
X102300000Y-68050000D03*
X101500000Y-68050000D03*
D19*
X108275000Y-70975000D03*
X104325000Y-74925000D03*
X106300000Y-70975000D03*
D20*
X104325000Y-70975000D03*
D19*
X104325000Y-72950000D03*
X108275000Y-72950000D03*
X108275000Y-74925000D03*
X106300000Y-74925000D03*
D21*
X112650000Y-68000000D03*
D22*
X112650000Y-78350000D03*
X99950000Y-78350000D03*
D21*
X99950000Y-68000000D03*
%TD*%
D23*
%TO.C,R1*%
X108487500Y-93800000D03*
X110312500Y-93800000D03*
%TD*%
D15*
%TO.C,C2*%
X105850000Y-83500000D03*
X107750000Y-83500000D03*
%TD*%
D24*
%TO.C,R3*%
X97300000Y-68587500D03*
X97300000Y-70412500D03*
%TD*%
D11*
%TO.C,R5*%
X115600000Y-74812500D03*
X115600000Y-72987500D03*
%TD*%
D25*
%TO.C,D1*%
X114237500Y-93800000D03*
X112362500Y-93800000D03*
%TD*%
D26*
%TO.C,U2*%
X105850000Y-87937500D03*
X106800000Y-87937500D03*
X107750000Y-87937500D03*
X107750000Y-85662500D03*
X105850000Y-85662500D03*
%TD*%
D27*
%TO.C,R4*%
X101812500Y-89000000D03*
X99987500Y-89000000D03*
%TD*%
D28*
%TO.C,U3*%
X102905000Y-81525000D03*
X101635000Y-81525000D03*
X100365000Y-81525000D03*
X99095000Y-81525000D03*
X99095000Y-86475000D03*
X100365000Y-86475000D03*
X101635000Y-86475000D03*
X102905000Y-86475000D03*
%TD*%
D29*
%TO.C,D2*%
X96200000Y-84400000D03*
X96200000Y-87200000D03*
%TD*%
M02*
