%TF.GenerationSoftware,KiCad,Pcbnew,(6.0.7-1)-1*%
%TF.CreationDate,2022-11-24T20:11:51+01:00*%
%TF.ProjectId,Frost-ESP32,46726f73-742d-4455-9350-33322e6b6963,rev?*%
%TF.SameCoordinates,Original*%
%TF.FileFunction,Legend,Top*%
%TF.FilePolarity,Positive*%
%FSLAX46Y46*%
G04 Gerber Fmt 4.6, Leading zero omitted, Abs format (unit mm)*
G04 Created by KiCad (PCBNEW (6.0.7-1)-1) date 2022-11-24 20:11:51*
%MOMM*%
%LPD*%
G01*
G04 APERTURE LIST*
%ADD10C,0.150000*%
%ADD11C,0.120000*%
G04 APERTURE END LIST*
D10*
%TO.C,C3*%
X109133333Y-81757142D02*
X109085714Y-81804761D01*
X108942857Y-81852380D01*
X108847619Y-81852380D01*
X108704761Y-81804761D01*
X108609523Y-81709523D01*
X108561904Y-81614285D01*
X108514285Y-81423809D01*
X108514285Y-81280952D01*
X108561904Y-81090476D01*
X108609523Y-80995238D01*
X108704761Y-80900000D01*
X108847619Y-80852380D01*
X108942857Y-80852380D01*
X109085714Y-80900000D01*
X109133333Y-80947619D01*
X109466666Y-80852380D02*
X110085714Y-80852380D01*
X109752380Y-81233333D01*
X109895238Y-81233333D01*
X109990476Y-81280952D01*
X110038095Y-81328571D01*
X110085714Y-81423809D01*
X110085714Y-81661904D01*
X110038095Y-81757142D01*
X109990476Y-81804761D01*
X109895238Y-81852380D01*
X109609523Y-81852380D01*
X109514285Y-81804761D01*
X109466666Y-81757142D01*
%TO.C,R2*%
X96052380Y-73366666D02*
X95576190Y-73700000D01*
X96052380Y-73938095D02*
X95052380Y-73938095D01*
X95052380Y-73557142D01*
X95100000Y-73461904D01*
X95147619Y-73414285D01*
X95242857Y-73366666D01*
X95385714Y-73366666D01*
X95480952Y-73414285D01*
X95528571Y-73461904D01*
X95576190Y-73557142D01*
X95576190Y-73938095D01*
X95147619Y-72985714D02*
X95100000Y-72938095D01*
X95052380Y-72842857D01*
X95052380Y-72604761D01*
X95100000Y-72509523D01*
X95147619Y-72461904D01*
X95242857Y-72414285D01*
X95338095Y-72414285D01*
X95480952Y-72461904D01*
X96052380Y-73033333D01*
X96052380Y-72414285D01*
%TO.C,C4*%
X95957142Y-77466666D02*
X96004761Y-77514285D01*
X96052380Y-77657142D01*
X96052380Y-77752380D01*
X96004761Y-77895238D01*
X95909523Y-77990476D01*
X95814285Y-78038095D01*
X95623809Y-78085714D01*
X95480952Y-78085714D01*
X95290476Y-78038095D01*
X95195238Y-77990476D01*
X95100000Y-77895238D01*
X95052380Y-77752380D01*
X95052380Y-77657142D01*
X95100000Y-77514285D01*
X95147619Y-77466666D01*
X95385714Y-76609523D02*
X96052380Y-76609523D01*
X95004761Y-76847619D02*
X95719047Y-77085714D01*
X95719047Y-76466666D01*
%TO.C,J3*%
X116367380Y-80433333D02*
X117081666Y-80433333D01*
X117224523Y-80480952D01*
X117319761Y-80576190D01*
X117367380Y-80719047D01*
X117367380Y-80814285D01*
X116367380Y-80052380D02*
X116367380Y-79433333D01*
X116748333Y-79766666D01*
X116748333Y-79623809D01*
X116795952Y-79528571D01*
X116843571Y-79480952D01*
X116938809Y-79433333D01*
X117176904Y-79433333D01*
X117272142Y-79480952D01*
X117319761Y-79528571D01*
X117367380Y-79623809D01*
X117367380Y-79909523D01*
X117319761Y-80004761D01*
X117272142Y-80052380D01*
%TO.C,D3*%
X117852380Y-70838095D02*
X116852380Y-70838095D01*
X116852380Y-70600000D01*
X116900000Y-70457142D01*
X116995238Y-70361904D01*
X117090476Y-70314285D01*
X117280952Y-70266666D01*
X117423809Y-70266666D01*
X117614285Y-70314285D01*
X117709523Y-70361904D01*
X117804761Y-70457142D01*
X117852380Y-70600000D01*
X117852380Y-70838095D01*
X116852380Y-69933333D02*
X116852380Y-69314285D01*
X117233333Y-69647619D01*
X117233333Y-69504761D01*
X117280952Y-69409523D01*
X117328571Y-69361904D01*
X117423809Y-69314285D01*
X117661904Y-69314285D01*
X117757142Y-69361904D01*
X117804761Y-69409523D01*
X117852380Y-69504761D01*
X117852380Y-69790476D01*
X117804761Y-69885714D01*
X117757142Y-69933333D01*
%TO.C,J2*%
X94866666Y-89202380D02*
X94866666Y-89916666D01*
X94819047Y-90059523D01*
X94723809Y-90154761D01*
X94580952Y-90202380D01*
X94485714Y-90202380D01*
X95295238Y-89297619D02*
X95342857Y-89250000D01*
X95438095Y-89202380D01*
X95676190Y-89202380D01*
X95771428Y-89250000D01*
X95819047Y-89297619D01*
X95866666Y-89392857D01*
X95866666Y-89488095D01*
X95819047Y-89630952D01*
X95247619Y-90202380D01*
X95866666Y-90202380D01*
%TO.C,C1*%
X109333333Y-90357142D02*
X109285714Y-90404761D01*
X109142857Y-90452380D01*
X109047619Y-90452380D01*
X108904761Y-90404761D01*
X108809523Y-90309523D01*
X108761904Y-90214285D01*
X108714285Y-90023809D01*
X108714285Y-89880952D01*
X108761904Y-89690476D01*
X108809523Y-89595238D01*
X108904761Y-89500000D01*
X109047619Y-89452380D01*
X109142857Y-89452380D01*
X109285714Y-89500000D01*
X109333333Y-89547619D01*
X110285714Y-90452380D02*
X109714285Y-90452380D01*
X110000000Y-90452380D02*
X110000000Y-89452380D01*
X109904761Y-89595238D01*
X109809523Y-89690476D01*
X109714285Y-89738095D01*
%TO.C,U1*%
X114238095Y-63452380D02*
X114238095Y-64261904D01*
X114285714Y-64357142D01*
X114333333Y-64404761D01*
X114428571Y-64452380D01*
X114619047Y-64452380D01*
X114714285Y-64404761D01*
X114761904Y-64357142D01*
X114809523Y-64261904D01*
X114809523Y-63452380D01*
X115809523Y-64452380D02*
X115238095Y-64452380D01*
X115523809Y-64452380D02*
X115523809Y-63452380D01*
X115428571Y-63595238D01*
X115333333Y-63690476D01*
X115238095Y-63738095D01*
X101538095Y-64566666D02*
X102014285Y-64566666D01*
X101442857Y-64852380D02*
X101776190Y-63852380D01*
X102109523Y-64852380D01*
X102442857Y-64185714D02*
X102442857Y-64852380D01*
X102442857Y-64280952D02*
X102490476Y-64233333D01*
X102585714Y-64185714D01*
X102728571Y-64185714D01*
X102823809Y-64233333D01*
X102871428Y-64328571D01*
X102871428Y-64852380D01*
X103204761Y-64185714D02*
X103585714Y-64185714D01*
X103347619Y-63852380D02*
X103347619Y-64709523D01*
X103395238Y-64804761D01*
X103490476Y-64852380D01*
X103585714Y-64852380D01*
X104300000Y-64804761D02*
X104204761Y-64852380D01*
X104014285Y-64852380D01*
X103919047Y-64804761D01*
X103871428Y-64709523D01*
X103871428Y-64328571D01*
X103919047Y-64233333D01*
X104014285Y-64185714D01*
X104204761Y-64185714D01*
X104300000Y-64233333D01*
X104347619Y-64328571D01*
X104347619Y-64423809D01*
X103871428Y-64519047D01*
X104776190Y-64185714D02*
X104776190Y-64852380D01*
X104776190Y-64280952D02*
X104823809Y-64233333D01*
X104919047Y-64185714D01*
X105061904Y-64185714D01*
X105157142Y-64233333D01*
X105204761Y-64328571D01*
X105204761Y-64852380D01*
X105680952Y-64185714D02*
X105680952Y-64852380D01*
X105680952Y-64280952D02*
X105728571Y-64233333D01*
X105823809Y-64185714D01*
X105966666Y-64185714D01*
X106061904Y-64233333D01*
X106109523Y-64328571D01*
X106109523Y-64852380D01*
X107014285Y-64852380D02*
X107014285Y-64328571D01*
X106966666Y-64233333D01*
X106871428Y-64185714D01*
X106680952Y-64185714D01*
X106585714Y-64233333D01*
X107014285Y-64804761D02*
X106919047Y-64852380D01*
X106680952Y-64852380D01*
X106585714Y-64804761D01*
X106538095Y-64709523D01*
X106538095Y-64614285D01*
X106585714Y-64519047D01*
X106680952Y-64471428D01*
X106919047Y-64471428D01*
X107014285Y-64423809D01*
X108204761Y-64566666D02*
X108680952Y-64566666D01*
X108109523Y-64852380D02*
X108442857Y-63852380D01*
X108776190Y-64852380D01*
X109109523Y-64852380D02*
X109109523Y-64185714D01*
X109109523Y-64376190D02*
X109157142Y-64280952D01*
X109204761Y-64233333D01*
X109300000Y-64185714D01*
X109395238Y-64185714D01*
X110109523Y-64804761D02*
X110014285Y-64852380D01*
X109823809Y-64852380D01*
X109728571Y-64804761D01*
X109680952Y-64709523D01*
X109680952Y-64328571D01*
X109728571Y-64233333D01*
X109823809Y-64185714D01*
X110014285Y-64185714D01*
X110109523Y-64233333D01*
X110157142Y-64328571D01*
X110157142Y-64423809D01*
X109680952Y-64519047D01*
X111014285Y-64852380D02*
X111014285Y-64328571D01*
X110966666Y-64233333D01*
X110871428Y-64185714D01*
X110680952Y-64185714D01*
X110585714Y-64233333D01*
X111014285Y-64804761D02*
X110919047Y-64852380D01*
X110680952Y-64852380D01*
X110585714Y-64804761D01*
X110538095Y-64709523D01*
X110538095Y-64614285D01*
X110585714Y-64519047D01*
X110680952Y-64471428D01*
X110919047Y-64471428D01*
X111014285Y-64423809D01*
%TO.C,R1*%
X106433333Y-94152380D02*
X106100000Y-93676190D01*
X105861904Y-94152380D02*
X105861904Y-93152380D01*
X106242857Y-93152380D01*
X106338095Y-93200000D01*
X106385714Y-93247619D01*
X106433333Y-93342857D01*
X106433333Y-93485714D01*
X106385714Y-93580952D01*
X106338095Y-93628571D01*
X106242857Y-93676190D01*
X105861904Y-93676190D01*
X107385714Y-94152380D02*
X106814285Y-94152380D01*
X107100000Y-94152380D02*
X107100000Y-93152380D01*
X107004761Y-93295238D01*
X106909523Y-93390476D01*
X106814285Y-93438095D01*
%TO.C,C2*%
X109233333Y-83957142D02*
X109185714Y-84004761D01*
X109042857Y-84052380D01*
X108947619Y-84052380D01*
X108804761Y-84004761D01*
X108709523Y-83909523D01*
X108661904Y-83814285D01*
X108614285Y-83623809D01*
X108614285Y-83480952D01*
X108661904Y-83290476D01*
X108709523Y-83195238D01*
X108804761Y-83100000D01*
X108947619Y-83052380D01*
X109042857Y-83052380D01*
X109185714Y-83100000D01*
X109233333Y-83147619D01*
X109614285Y-83147619D02*
X109661904Y-83100000D01*
X109757142Y-83052380D01*
X109995238Y-83052380D01*
X110090476Y-83100000D01*
X110138095Y-83147619D01*
X110185714Y-83242857D01*
X110185714Y-83338095D01*
X110138095Y-83480952D01*
X109566666Y-84052380D01*
X110185714Y-84052380D01*
%TO.C,R3*%
X96052380Y-69766666D02*
X95576190Y-70100000D01*
X96052380Y-70338095D02*
X95052380Y-70338095D01*
X95052380Y-69957142D01*
X95100000Y-69861904D01*
X95147619Y-69814285D01*
X95242857Y-69766666D01*
X95385714Y-69766666D01*
X95480952Y-69814285D01*
X95528571Y-69861904D01*
X95576190Y-69957142D01*
X95576190Y-70338095D01*
X95052380Y-69433333D02*
X95052380Y-68814285D01*
X95433333Y-69147619D01*
X95433333Y-69004761D01*
X95480952Y-68909523D01*
X95528571Y-68861904D01*
X95623809Y-68814285D01*
X95861904Y-68814285D01*
X95957142Y-68861904D01*
X96004761Y-68909523D01*
X96052380Y-69004761D01*
X96052380Y-69290476D01*
X96004761Y-69385714D01*
X95957142Y-69433333D01*
%TO.C,R5*%
X117952380Y-73766666D02*
X117476190Y-74100000D01*
X117952380Y-74338095D02*
X116952380Y-74338095D01*
X116952380Y-73957142D01*
X117000000Y-73861904D01*
X117047619Y-73814285D01*
X117142857Y-73766666D01*
X117285714Y-73766666D01*
X117380952Y-73814285D01*
X117428571Y-73861904D01*
X117476190Y-73957142D01*
X117476190Y-74338095D01*
X116952380Y-72861904D02*
X116952380Y-73338095D01*
X117428571Y-73385714D01*
X117380952Y-73338095D01*
X117333333Y-73242857D01*
X117333333Y-73004761D01*
X117380952Y-72909523D01*
X117428571Y-72861904D01*
X117523809Y-72814285D01*
X117761904Y-72814285D01*
X117857142Y-72861904D01*
X117904761Y-72909523D01*
X117952380Y-73004761D01*
X117952380Y-73242857D01*
X117904761Y-73338095D01*
X117857142Y-73385714D01*
%TO.C,D1*%
X115561904Y-94252380D02*
X115561904Y-93252380D01*
X115800000Y-93252380D01*
X115942857Y-93300000D01*
X116038095Y-93395238D01*
X116085714Y-93490476D01*
X116133333Y-93680952D01*
X116133333Y-93823809D01*
X116085714Y-94014285D01*
X116038095Y-94109523D01*
X115942857Y-94204761D01*
X115800000Y-94252380D01*
X115561904Y-94252380D01*
X117085714Y-94252380D02*
X116514285Y-94252380D01*
X116800000Y-94252380D02*
X116800000Y-93252380D01*
X116704761Y-93395238D01*
X116609523Y-93490476D01*
X116514285Y-93538095D01*
%TO.C,U2*%
X108738095Y-86052380D02*
X108738095Y-86861904D01*
X108785714Y-86957142D01*
X108833333Y-87004761D01*
X108928571Y-87052380D01*
X109119047Y-87052380D01*
X109214285Y-87004761D01*
X109261904Y-86957142D01*
X109309523Y-86861904D01*
X109309523Y-86052380D01*
X109738095Y-86147619D02*
X109785714Y-86100000D01*
X109880952Y-86052380D01*
X110119047Y-86052380D01*
X110214285Y-86100000D01*
X110261904Y-86147619D01*
X110309523Y-86242857D01*
X110309523Y-86338095D01*
X110261904Y-86480952D01*
X109690476Y-87052380D01*
X110309523Y-87052380D01*
%TO.C,R4*%
X98033333Y-89452380D02*
X97700000Y-88976190D01*
X97461904Y-89452380D02*
X97461904Y-88452380D01*
X97842857Y-88452380D01*
X97938095Y-88500000D01*
X97985714Y-88547619D01*
X98033333Y-88642857D01*
X98033333Y-88785714D01*
X97985714Y-88880952D01*
X97938095Y-88928571D01*
X97842857Y-88976190D01*
X97461904Y-88976190D01*
X98890476Y-88785714D02*
X98890476Y-89452380D01*
X98652380Y-88404761D02*
X98414285Y-89119047D01*
X99033333Y-89119047D01*
%TO.C,U3*%
X96852380Y-81761904D02*
X97661904Y-81761904D01*
X97757142Y-81714285D01*
X97804761Y-81666666D01*
X97852380Y-81571428D01*
X97852380Y-81380952D01*
X97804761Y-81285714D01*
X97757142Y-81238095D01*
X97661904Y-81190476D01*
X96852380Y-81190476D01*
X96852380Y-80809523D02*
X96852380Y-80190476D01*
X97233333Y-80523809D01*
X97233333Y-80380952D01*
X97280952Y-80285714D01*
X97328571Y-80238095D01*
X97423809Y-80190476D01*
X97661904Y-80190476D01*
X97757142Y-80238095D01*
X97804761Y-80285714D01*
X97852380Y-80380952D01*
X97852380Y-80666666D01*
X97804761Y-80761904D01*
X97757142Y-80809523D01*
%TO.C,D2*%
X95852380Y-83138095D02*
X94852380Y-83138095D01*
X94852380Y-82900000D01*
X94900000Y-82757142D01*
X94995238Y-82661904D01*
X95090476Y-82614285D01*
X95280952Y-82566666D01*
X95423809Y-82566666D01*
X95614285Y-82614285D01*
X95709523Y-82661904D01*
X95804761Y-82757142D01*
X95852380Y-82900000D01*
X95852380Y-83138095D01*
X94947619Y-82185714D02*
X94900000Y-82138095D01*
X94852380Y-82042857D01*
X94852380Y-81804761D01*
X94900000Y-81709523D01*
X94947619Y-81661904D01*
X95042857Y-81614285D01*
X95138095Y-81614285D01*
X95280952Y-81661904D01*
X95852380Y-82233333D01*
X95852380Y-81614285D01*
D11*
%TO.C,C3*%
X106759420Y-81910000D02*
X107040580Y-81910000D01*
X106759420Y-80890000D02*
X107040580Y-80890000D01*
%TO.C,R2*%
X96565000Y-73427064D02*
X96565000Y-72972936D01*
X98035000Y-73427064D02*
X98035000Y-72972936D01*
%TO.C,C4*%
X98035000Y-77038748D02*
X98035000Y-77561252D01*
X96565000Y-77038748D02*
X96565000Y-77561252D01*
%TO.C,J3*%
X113250000Y-90980000D02*
X115170000Y-90980000D01*
X117180000Y-81820000D02*
X118885000Y-81820000D01*
X115170000Y-81820000D02*
X113250000Y-81820000D01*
X118885000Y-81820000D02*
X118885000Y-90980000D01*
X118885000Y-90980000D02*
X117180000Y-90980000D01*
%TO.C,D3*%
X116460000Y-68352500D02*
X114540000Y-68352500D01*
X116460000Y-71037500D02*
X116460000Y-68352500D01*
X114540000Y-68352500D02*
X114540000Y-71037500D01*
%TO.C,J2*%
X94440000Y-93750000D02*
X95050000Y-93750000D01*
X101400000Y-95250000D02*
X101400000Y-94750000D01*
X94440000Y-95860000D02*
X104560000Y-95860000D01*
X99600000Y-94750000D02*
X99600000Y-95250000D01*
X95390000Y-90840000D02*
X94140000Y-90840000D01*
X103950000Y-95250000D02*
X103950000Y-91750000D01*
X101400000Y-94750000D02*
X101600000Y-94750000D01*
X95900000Y-90940000D02*
X95900000Y-91140000D01*
X99500000Y-95250000D02*
X99500000Y-94750000D01*
X95050000Y-91750000D02*
X95050000Y-95250000D01*
X97400000Y-95250000D02*
X97400000Y-94750000D01*
X94440000Y-92450000D02*
X95050000Y-92450000D01*
X99400000Y-94750000D02*
X99600000Y-94750000D01*
X99400000Y-95250000D02*
X99400000Y-94750000D01*
X97400000Y-94750000D02*
X97600000Y-94750000D01*
X104560000Y-91140000D02*
X94440000Y-91140000D01*
X97600000Y-94750000D02*
X97600000Y-95250000D01*
X104560000Y-92450000D02*
X103950000Y-92450000D01*
X95050000Y-95250000D02*
X103950000Y-95250000D01*
X101600000Y-94750000D02*
X101600000Y-95250000D01*
X97000000Y-91140000D02*
X97000000Y-91750000D01*
X96200000Y-91040000D02*
X95900000Y-91040000D01*
X103950000Y-91750000D02*
X102000000Y-91750000D01*
X94440000Y-91140000D02*
X94440000Y-95860000D01*
X104560000Y-95860000D02*
X104560000Y-91140000D01*
X102000000Y-91750000D02*
X102000000Y-91140000D01*
X101500000Y-95250000D02*
X101500000Y-94750000D01*
X96200000Y-90940000D02*
X95900000Y-90940000D01*
X94140000Y-90840000D02*
X94140000Y-92090000D01*
X96200000Y-91140000D02*
X96200000Y-90940000D01*
X97500000Y-95250000D02*
X97500000Y-94750000D01*
X104560000Y-93750000D02*
X103950000Y-93750000D01*
X97000000Y-91750000D02*
X95050000Y-91750000D01*
%TO.C,C1*%
X106538748Y-90835000D02*
X107061252Y-90835000D01*
X106538748Y-89365000D02*
X107061252Y-89365000D01*
%TO.C,U1*%
X99700000Y-67350000D02*
X112900000Y-67350000D01*
X112900000Y-62050000D02*
X112900000Y-67550000D01*
X99700000Y-62050000D02*
X99700000Y-67550000D01*
X99700000Y-62050000D02*
X112900000Y-62050000D01*
%TO.C,R1*%
X109172936Y-94535000D02*
X109627064Y-94535000D01*
X109172936Y-93065000D02*
X109627064Y-93065000D01*
%TO.C,C2*%
X106538748Y-84235000D02*
X107061252Y-84235000D01*
X106538748Y-82765000D02*
X107061252Y-82765000D01*
%TO.C,R3*%
X96565000Y-69272936D02*
X96565000Y-69727064D01*
X98035000Y-69272936D02*
X98035000Y-69727064D01*
%TO.C,R5*%
X114865000Y-74127064D02*
X114865000Y-73672936D01*
X116335000Y-74127064D02*
X116335000Y-73672936D01*
%TO.C,D1*%
X114985000Y-94760000D02*
X114985000Y-92840000D01*
X114985000Y-92840000D02*
X112300000Y-92840000D01*
X112300000Y-94760000D02*
X114985000Y-94760000D01*
%TO.C,U2*%
X105240000Y-86800000D02*
X105240000Y-88600000D01*
X105240000Y-86800000D02*
X105240000Y-86000000D01*
X108360000Y-86800000D02*
X108360000Y-87600000D01*
X108360000Y-86800000D02*
X108360000Y-86000000D01*
%TO.C,R4*%
X101127064Y-88265000D02*
X100672936Y-88265000D01*
X101127064Y-89735000D02*
X100672936Y-89735000D01*
%TO.C,U3*%
X103560000Y-84000000D02*
X103560000Y-85950000D01*
X103560000Y-84000000D02*
X103560000Y-80550000D01*
X98440000Y-84000000D02*
X98440000Y-85950000D01*
X98440000Y-84000000D02*
X98440000Y-82050000D01*
%TO.C,D2*%
X97200000Y-83600000D02*
X95200000Y-83600000D01*
X95200000Y-83600000D02*
X95200000Y-87450000D01*
X97200000Y-83600000D02*
X97200000Y-87450000D01*
%TD*%
M02*
