%TF.GenerationSoftware,KiCad,Pcbnew,(6.0.7-1)-1*%
%TF.CreationDate,2022-11-24T20:11:50+01:00*%
%TF.ProjectId,Frost-ESP32,46726f73-742d-4455-9350-33322e6b6963,rev?*%
%TF.SameCoordinates,Original*%
%TF.FileFunction,Copper,L1,Top*%
%TF.FilePolarity,Positive*%
%FSLAX46Y46*%
G04 Gerber Fmt 4.6, Leading zero omitted, Abs format (unit mm)*
G04 Created by KiCad (PCBNEW (6.0.7-1)-1) date 2022-11-24 20:11:50*
%MOMM*%
%LPD*%
G01*
G04 APERTURE LIST*
G04 Aperture macros list*
%AMRoundRect*
0 Rectangle with rounded corners*
0 $1 Rounding radius*
0 $2 $3 $4 $5 $6 $7 $8 $9 X,Y pos of 4 corners*
0 Add a 4 corners polygon primitive as box body*
4,1,4,$2,$3,$4,$5,$6,$7,$8,$9,$2,$3,0*
0 Add four circle primitives for the rounded corners*
1,1,$1+$1,$2,$3*
1,1,$1+$1,$4,$5*
1,1,$1+$1,$6,$7*
1,1,$1+$1,$8,$9*
0 Add four rect primitives between the rounded corners*
20,1,$1+$1,$2,$3,$4,$5,0*
20,1,$1+$1,$4,$5,$6,$7,0*
20,1,$1+$1,$6,$7,$8,$9,0*
20,1,$1+$1,$8,$9,$2,$3,0*%
%AMFreePoly0*
4,1,6,0.725000,-0.725000,-0.725000,-0.725000,-0.725000,0.125000,-0.125000,0.725000,0.725000,0.725000,0.725000,-0.725000,0.725000,-0.725000,$1*%
G04 Aperture macros list end*
%TA.AperFunction,SMDPad,CuDef*%
%ADD10RoundRect,0.225000X-0.225000X-0.250000X0.225000X-0.250000X0.225000X0.250000X-0.225000X0.250000X0*%
%TD*%
%TA.AperFunction,SMDPad,CuDef*%
%ADD11RoundRect,0.250000X0.450000X-0.262500X0.450000X0.262500X-0.450000X0.262500X-0.450000X-0.262500X0*%
%TD*%
%TA.AperFunction,SMDPad,CuDef*%
%ADD12RoundRect,0.250000X-0.475000X0.250000X-0.475000X-0.250000X0.475000X-0.250000X0.475000X0.250000X0*%
%TD*%
%TA.AperFunction,SMDPad,CuDef*%
%ADD13R,1.150000X0.300000*%
%TD*%
%TA.AperFunction,ComponentPad*%
%ADD14O,2.100000X1.000000*%
%TD*%
%TA.AperFunction,ComponentPad*%
%ADD15O,1.600000X1.000000*%
%TD*%
%TA.AperFunction,SMDPad,CuDef*%
%ADD16RoundRect,0.243750X-0.456250X0.243750X-0.456250X-0.243750X0.456250X-0.243750X0.456250X0.243750X0*%
%TD*%
%TA.AperFunction,ComponentPad*%
%ADD17RoundRect,0.250000X-0.350000X-0.625000X0.350000X-0.625000X0.350000X0.625000X-0.350000X0.625000X0*%
%TD*%
%TA.AperFunction,ComponentPad*%
%ADD18O,1.200000X1.750000*%
%TD*%
%TA.AperFunction,SMDPad,CuDef*%
%ADD19RoundRect,0.250000X-0.250000X-0.475000X0.250000X-0.475000X0.250000X0.475000X-0.250000X0.475000X0*%
%TD*%
%TA.AperFunction,SMDPad,CuDef*%
%ADD20R,1.800000X0.400000*%
%TD*%
%TA.AperFunction,SMDPad,CuDef*%
%ADD21R,0.400000X1.800000*%
%TD*%
%TA.AperFunction,SMDPad,CuDef*%
%ADD22R,0.400000X0.800000*%
%TD*%
%TA.AperFunction,SMDPad,CuDef*%
%ADD23R,1.450000X1.450000*%
%TD*%
%TA.AperFunction,SMDPad,CuDef*%
%ADD24FreePoly0,0.000000*%
%TD*%
%TA.AperFunction,ComponentPad*%
%ADD25C,2.800000*%
%TD*%
%TA.AperFunction,SMDPad,CuDef*%
%ADD26R,1.700000X0.700000*%
%TD*%
%TA.AperFunction,SMDPad,CuDef*%
%ADD27R,1.700000X1.700000*%
%TD*%
%TA.AperFunction,SMDPad,CuDef*%
%ADD28RoundRect,0.250000X-0.262500X-0.450000X0.262500X-0.450000X0.262500X0.450000X-0.262500X0.450000X0*%
%TD*%
%TA.AperFunction,SMDPad,CuDef*%
%ADD29RoundRect,0.250000X-0.450000X0.262500X-0.450000X-0.262500X0.450000X-0.262500X0.450000X0.262500X0*%
%TD*%
%TA.AperFunction,SMDPad,CuDef*%
%ADD30RoundRect,0.243750X0.243750X0.456250X-0.243750X0.456250X-0.243750X-0.456250X0.243750X-0.456250X0*%
%TD*%
%TA.AperFunction,SMDPad,CuDef*%
%ADD31RoundRect,0.150000X0.150000X-0.512500X0.150000X0.512500X-0.150000X0.512500X-0.150000X-0.512500X0*%
%TD*%
%TA.AperFunction,SMDPad,CuDef*%
%ADD32RoundRect,0.250000X0.262500X0.450000X-0.262500X0.450000X-0.262500X-0.450000X0.262500X-0.450000X0*%
%TD*%
%TA.AperFunction,SMDPad,CuDef*%
%ADD33RoundRect,0.150000X-0.150000X0.825000X-0.150000X-0.825000X0.150000X-0.825000X0.150000X0.825000X0*%
%TD*%
%TA.AperFunction,SMDPad,CuDef*%
%ADD34R,1.100000X1.100000*%
%TD*%
%TA.AperFunction,ViaPad*%
%ADD35C,0.800000*%
%TD*%
%TA.AperFunction,ViaPad*%
%ADD36C,0.600000*%
%TD*%
%TA.AperFunction,Conductor*%
%ADD37C,0.500000*%
%TD*%
%TA.AperFunction,Conductor*%
%ADD38C,0.250000*%
%TD*%
%TA.AperFunction,Conductor*%
%ADD39C,1.000000*%
%TD*%
%TA.AperFunction,Conductor*%
%ADD40C,0.300000*%
%TD*%
G04 APERTURE END LIST*
D10*
%TO.P,C3,1*%
%TO.N,+3V3*%
X106125000Y-81400000D03*
%TO.P,C3,2*%
%TO.N,GND*%
X107675000Y-81400000D03*
%TD*%
D11*
%TO.P,R2,1*%
%TO.N,Net-(C4-Pad1)*%
X97300000Y-74112500D03*
%TO.P,R2,2*%
%TO.N,+3V3*%
X97300000Y-72287500D03*
%TD*%
D12*
%TO.P,C4,1*%
%TO.N,Net-(C4-Pad1)*%
X97300000Y-76350000D03*
%TO.P,C4,2*%
%TO.N,GND*%
X97300000Y-78250000D03*
%TD*%
D13*
%TO.P,J3,A1,GND*%
%TO.N,GND*%
X111430000Y-89750000D03*
%TO.P,J3,A4,VBUS*%
%TO.N,+5V*%
X111430000Y-88950000D03*
%TO.P,J3,A5,CC1*%
%TO.N,unconnected-(J3-PadA5)*%
X111430000Y-87650000D03*
%TO.P,J3,A6,D+*%
%TO.N,/USB_D+*%
X111430000Y-86650000D03*
%TO.P,J3,A7,D-*%
%TO.N,/USB_D-*%
X111430000Y-86150000D03*
%TO.P,J3,A8,SBU1*%
%TO.N,unconnected-(J3-PadA8)*%
X111430000Y-85150000D03*
%TO.P,J3,A9,VBUS*%
%TO.N,+5V*%
X111430000Y-83850000D03*
%TO.P,J3,A12,GND*%
%TO.N,GND*%
X111430000Y-83050000D03*
%TO.P,J3,B1,GND*%
X111430000Y-83350000D03*
%TO.P,J3,B4,VBUS*%
%TO.N,+5V*%
X111430000Y-84150000D03*
%TO.P,J3,B5,CC2*%
%TO.N,unconnected-(J3-PadB5)*%
X111430000Y-84650000D03*
%TO.P,J3,B6,D+*%
%TO.N,/USB_D+*%
X111430000Y-85650000D03*
%TO.P,J3,B7,D-*%
%TO.N,/USB_D-*%
X111430000Y-87150000D03*
%TO.P,J3,B8,SBU2*%
%TO.N,unconnected-(J3-PadB8)*%
X111430000Y-88150000D03*
%TO.P,J3,B9,VBUS*%
%TO.N,+5V*%
X111430000Y-88650000D03*
%TO.P,J3,B12,GND*%
%TO.N,GND*%
X111430000Y-89450000D03*
D14*
%TO.P,J3,S1,SHIELD*%
X111995000Y-82080000D03*
D15*
X116175000Y-90720000D03*
X116175000Y-82080000D03*
D14*
X111995000Y-90720000D03*
%TD*%
D16*
%TO.P,D3,1,K*%
%TO.N,GND*%
X115500000Y-69100000D03*
%TO.P,D3,2,A*%
%TO.N,Net-(D3-Pad2)*%
X115500000Y-70975000D03*
%TD*%
D17*
%TO.P,J2,1,Pin_1*%
%TO.N,Net-(D2-Pad2)*%
X96500000Y-92950000D03*
D18*
%TO.P,J2,2,Pin_2*%
%TO.N,/CANL*%
X98500000Y-92950000D03*
%TO.P,J2,3,Pin_3*%
%TO.N,/CANH*%
X100500000Y-92950000D03*
%TO.P,J2,4,Pin_4*%
%TO.N,GND*%
X102500000Y-92950000D03*
%TD*%
D19*
%TO.P,C1,1*%
%TO.N,+5V*%
X105850000Y-90100000D03*
%TO.P,C1,2*%
%TO.N,GND*%
X107750000Y-90100000D03*
%TD*%
D20*
%TO.P,U1,1,GND*%
%TO.N,GND*%
X99900000Y-68950000D03*
%TO.P,U1,2,GND*%
X99900000Y-69750000D03*
%TO.P,U1,3,3V3*%
%TO.N,+3V3*%
X99900000Y-70550000D03*
%TO.P,U1,4,NC*%
%TO.N,unconnected-(U1-Pad4)*%
X99900000Y-71350000D03*
%TO.P,U1,5,GPIO2/ADC1_CH2*%
%TO.N,/MISO*%
X99900000Y-72150000D03*
%TO.P,U1,6,GPIO3/ADC1_CH3*%
%TO.N,/LED*%
X99900000Y-72950000D03*
%TO.P,U1,7,NC*%
%TO.N,unconnected-(U1-Pad7)*%
X99900000Y-73750000D03*
%TO.P,U1,8,EN/CHIP_PU*%
%TO.N,Net-(C4-Pad1)*%
X99900000Y-74550000D03*
%TO.P,U1,9,NC*%
%TO.N,unconnected-(U1-Pad9)*%
X99900000Y-75350000D03*
%TO.P,U1,10,NC*%
%TO.N,unconnected-(U1-Pad10)*%
X99900000Y-76150000D03*
%TO.P,U1,11*%
%TO.N,N/C*%
X99900000Y-76950000D03*
D21*
%TO.P,U1,12,GPIO0/ADC1_CH0/XTAL_32K_P*%
%TO.N,/CAN_RX*%
X101500000Y-78350000D03*
%TO.P,U1,13,GPIO1/ADC1_CH1/XTAL_32K_N*%
%TO.N,/CAN_TX*%
X102300000Y-78350000D03*
%TO.P,U1,14*%
%TO.N,N/C*%
X103100000Y-78350000D03*
%TO.P,U1,15,NC*%
%TO.N,unconnected-(U1-Pad15)*%
X103900000Y-78350000D03*
%TO.P,U1,16,GPIO10*%
%TO.N,/CS*%
X104700000Y-78350000D03*
%TO.P,U1,17,NC*%
%TO.N,unconnected-(U1-Pad17)*%
X105500000Y-78350000D03*
%TO.P,U1,18,GPIO4/ADC1_CH4*%
%TO.N,unconnected-(U1-Pad18)*%
X106300000Y-78350000D03*
%TO.P,U1,19,GPIO5/ADC2_CH0*%
%TO.N,unconnected-(U1-Pad19)*%
X107100000Y-78350000D03*
%TO.P,U1,20,GPIO6*%
%TO.N,/CLK*%
X107900000Y-78350000D03*
%TO.P,U1,21,GPIO7*%
%TO.N,/MOSI*%
X108700000Y-78350000D03*
%TO.P,U1,22,GPIO8*%
%TO.N,unconnected-(U1-Pad22)*%
X109500000Y-78350000D03*
%TO.P,U1,23,GPIO9*%
%TO.N,unconnected-(U1-Pad23)*%
X110300000Y-78350000D03*
%TO.P,U1,24,NC*%
%TO.N,unconnected-(U1-Pad24)*%
X111100000Y-78350000D03*
D20*
%TO.P,U1,25,NC*%
%TO.N,unconnected-(U1-Pad25)*%
X112700000Y-76950000D03*
%TO.P,U1,26,GPIO18/USB_D-*%
%TO.N,/USB_D-*%
X112700000Y-76150000D03*
%TO.P,U1,27,GPIO19/USB_D+*%
%TO.N,/USB_D+*%
X112700000Y-75350000D03*
%TO.P,U1,28,NC*%
%TO.N,unconnected-(U1-Pad28)*%
X112700000Y-74550000D03*
%TO.P,U1,29,NC*%
%TO.N,unconnected-(U1-Pad29)*%
X112700000Y-73750000D03*
%TO.P,U1,30,GPIO20/U0RXD*%
%TO.N,/RX*%
X112700000Y-72950000D03*
%TO.P,U1,31,GPIO21/U0TXD*%
%TO.N,/TX*%
X112700000Y-72150000D03*
%TO.P,U1,32,NC*%
%TO.N,unconnected-(U1-Pad32)*%
X112700000Y-71350000D03*
%TO.P,U1,33,NC*%
%TO.N,unconnected-(U1-Pad33)*%
X112700000Y-70550000D03*
%TO.P,U1,34,NC*%
%TO.N,unconnected-(U1-Pad34)*%
X112700000Y-69750000D03*
%TO.P,U1,35,NC*%
%TO.N,unconnected-(U1-Pad35)*%
X112700000Y-68950000D03*
D22*
%TO.P,U1,36,GND*%
%TO.N,GND*%
X111100000Y-68050000D03*
%TO.P,U1,37,GND*%
X110300000Y-68050000D03*
%TO.P,U1,38,GND*%
X109500000Y-68050000D03*
%TO.P,U1,39,GND*%
X108700000Y-68050000D03*
%TO.P,U1,40,GND*%
X107900000Y-68050000D03*
%TO.P,U1,41,GND*%
X107100000Y-68050000D03*
%TO.P,U1,42,GND*%
X106300000Y-68050000D03*
%TO.P,U1,43,GND*%
X105500000Y-68050000D03*
%TO.P,U1,44,GND*%
X104700000Y-68050000D03*
%TO.P,U1,45,GND*%
X103900000Y-68050000D03*
%TO.P,U1,46,GND*%
X103100000Y-68050000D03*
%TO.P,U1,47,GND*%
X102300000Y-68050000D03*
%TO.P,U1,48,GND*%
X101500000Y-68050000D03*
D23*
%TO.P,U1,49,GND*%
X108275000Y-70975000D03*
X104325000Y-74925000D03*
X106300000Y-70975000D03*
D24*
X104325000Y-70975000D03*
D23*
X104325000Y-72950000D03*
X108275000Y-72950000D03*
D25*
X106300000Y-72950000D03*
D23*
X108275000Y-74925000D03*
X106300000Y-74925000D03*
D26*
%TO.P,U1,50,GND*%
X112650000Y-68000000D03*
D27*
%TO.P,U1,51,GND*%
X112650000Y-78350000D03*
%TO.P,U1,52,GND*%
X99950000Y-78350000D03*
D26*
%TO.P,U1,53,GND*%
X99950000Y-68000000D03*
%TD*%
D28*
%TO.P,R1,1*%
%TO.N,+3V3*%
X108487500Y-93800000D03*
%TO.P,R1,2*%
%TO.N,Net-(D1-Pad2)*%
X110312500Y-93800000D03*
%TD*%
D19*
%TO.P,C2,1*%
%TO.N,+3V3*%
X105850000Y-83500000D03*
%TO.P,C2,2*%
%TO.N,GND*%
X107750000Y-83500000D03*
%TD*%
D29*
%TO.P,R3,1*%
%TO.N,+3V3*%
X97300000Y-68587500D03*
%TO.P,R3,2*%
%TO.N,/MISO*%
X97300000Y-70412500D03*
%TD*%
D11*
%TO.P,R5,1*%
%TO.N,/LED*%
X115600000Y-74812500D03*
%TO.P,R5,2*%
%TO.N,Net-(D3-Pad2)*%
X115600000Y-72987500D03*
%TD*%
D30*
%TO.P,D1,1,K*%
%TO.N,GND*%
X114237500Y-93800000D03*
%TO.P,D1,2,A*%
%TO.N,Net-(D1-Pad2)*%
X112362500Y-93800000D03*
%TD*%
D31*
%TO.P,U2,1,VIN*%
%TO.N,+5V*%
X105850000Y-87937500D03*
%TO.P,U2,2,GND*%
%TO.N,GND*%
X106800000Y-87937500D03*
%TO.P,U2,3,EN*%
%TO.N,+5V*%
X107750000Y-87937500D03*
%TO.P,U2,4,NC*%
%TO.N,unconnected-(U2-Pad4)*%
X107750000Y-85662500D03*
%TO.P,U2,5,VOUT*%
%TO.N,+3V3*%
X105850000Y-85662500D03*
%TD*%
D32*
%TO.P,R4,1*%
%TO.N,/CANH*%
X101812500Y-89000000D03*
%TO.P,R4,2*%
%TO.N,/CANL*%
X99987500Y-89000000D03*
%TD*%
D33*
%TO.P,U3,1,TXD*%
%TO.N,/CAN_TX*%
X102905000Y-81525000D03*
%TO.P,U3,2,GND*%
%TO.N,GND*%
X101635000Y-81525000D03*
%TO.P,U3,3,VCC*%
%TO.N,+5V*%
X100365000Y-81525000D03*
%TO.P,U3,4,RXD*%
%TO.N,/CAN_RX*%
X99095000Y-81525000D03*
%TO.P,U3,5,VIO*%
%TO.N,+3V3*%
X99095000Y-86475000D03*
%TO.P,U3,6,CANL*%
%TO.N,/CANL*%
X100365000Y-86475000D03*
%TO.P,U3,7,CANH*%
%TO.N,/CANH*%
X101635000Y-86475000D03*
%TO.P,U3,8,S*%
%TO.N,GND*%
X102905000Y-86475000D03*
%TD*%
D34*
%TO.P,D2,1,K*%
%TO.N,+5V*%
X96200000Y-84400000D03*
%TO.P,D2,2,A*%
%TO.N,Net-(D2-Pad2)*%
X96200000Y-87200000D03*
%TD*%
D35*
%TO.N,+3V3*%
X95000000Y-71200000D03*
X105900000Y-92400000D03*
X106700000Y-82400000D03*
D36*
%TO.N,GND*%
X98600000Y-77900000D03*
D35*
X106600000Y-80100000D03*
D36*
X112100000Y-79600000D03*
X103200000Y-90500000D03*
D35*
%TO.N,/LED*%
X115900000Y-76600000D03*
X101900000Y-73000000D03*
%TO.N,/CS*%
X106100000Y-76600000D03*
%TO.N,/MOSI*%
X108700000Y-79800000D03*
%TO.N,/CLK*%
X107670271Y-79830226D03*
D36*
%TO.N,/MISO*%
X101500000Y-75200000D03*
%TD*%
D37*
%TO.N,+3V3*%
X104200000Y-92100000D02*
X104200000Y-85936396D01*
X105850000Y-83500000D02*
X105850000Y-85662500D01*
X95900000Y-70887500D02*
X95900000Y-70700000D01*
X95000000Y-71200000D02*
X95500000Y-70700000D01*
X105900000Y-93800000D02*
X105050000Y-92950000D01*
X105350000Y-92950000D02*
X105900000Y-92400000D01*
X104200000Y-85936396D02*
X104189924Y-85936396D01*
X97375000Y-86475000D02*
X96600000Y-85700000D01*
X97300000Y-72287500D02*
X95900000Y-70887500D01*
X105850000Y-82450000D02*
X105850000Y-81675000D01*
X105900000Y-82400000D02*
X105850000Y-82450000D01*
X95500000Y-70700000D02*
X95900000Y-70700000D01*
X98450000Y-70150000D02*
X98850000Y-70550000D01*
X97300000Y-68587500D02*
X98450000Y-69737500D01*
X99095000Y-86475000D02*
X97375000Y-86475000D01*
X105850000Y-83500000D02*
X105850000Y-82450000D01*
X108487500Y-93800000D02*
X105900000Y-93800000D01*
X95100000Y-71300000D02*
X95000000Y-71200000D01*
X105850000Y-81675000D02*
X106125000Y-81400000D01*
X105050000Y-92950000D02*
X104200000Y-92100000D01*
X96600000Y-85700000D02*
X95100000Y-85700000D01*
X104189924Y-85936396D02*
X103303528Y-85050000D01*
X99095000Y-85605000D02*
X99095000Y-86475000D01*
X95900000Y-70700000D02*
X95900000Y-69987500D01*
X103303528Y-85050000D02*
X99650000Y-85050000D01*
X95900000Y-69987500D02*
X97300000Y-68587500D01*
X99650000Y-85050000D02*
X99095000Y-85605000D01*
X98850000Y-70550000D02*
X99900000Y-70550000D01*
X95100000Y-85700000D02*
X95100000Y-71300000D01*
X106700000Y-82400000D02*
X105900000Y-82400000D01*
X105050000Y-92950000D02*
X105350000Y-92950000D01*
X98450000Y-69737500D02*
X98450000Y-70150000D01*
D38*
%TO.N,GND*%
X102905000Y-87314502D02*
X102905000Y-86475000D01*
D39*
X112650000Y-79050000D02*
X112150000Y-79550000D01*
D40*
X107675000Y-81175000D02*
X106600000Y-80100000D01*
D38*
X107750000Y-83500000D02*
X107750000Y-83750000D01*
D40*
X98650000Y-78350000D02*
X97400000Y-78350000D01*
X106800000Y-89150000D02*
X107750000Y-90100000D01*
X99950000Y-78350000D02*
X98650000Y-78350000D01*
X111430000Y-89750000D02*
X111430000Y-90155000D01*
D38*
X102905000Y-86475000D02*
X103000000Y-86570000D01*
D40*
X107675000Y-81400000D02*
X107675000Y-81175000D01*
X97400000Y-78350000D02*
X97300000Y-78250000D01*
D38*
X103000000Y-90300000D02*
X103200000Y-90500000D01*
D40*
X107675000Y-81400000D02*
X107675000Y-83425000D01*
D38*
X107750000Y-83750000D02*
X106800000Y-84700000D01*
D40*
X98600000Y-78300000D02*
X98600000Y-77900000D01*
D38*
X106800000Y-84700000D02*
X106800000Y-87300000D01*
D39*
X112650000Y-78350000D02*
X112650000Y-79050000D01*
D40*
X107675000Y-83425000D02*
X107750000Y-83500000D01*
D39*
X112150000Y-79550000D02*
X112100000Y-79550000D01*
D40*
X111430000Y-90155000D02*
X111995000Y-90720000D01*
X106800000Y-87937500D02*
X106800000Y-89150000D01*
X98650000Y-78350000D02*
X98600000Y-78300000D01*
D38*
X103000000Y-86570000D02*
X103000000Y-90300000D01*
%TO.N,Net-(C4-Pad1)*%
X97300000Y-74112500D02*
X97912500Y-74112500D01*
X97912500Y-74112500D02*
X98400000Y-74600000D01*
X98450000Y-74550000D02*
X99900000Y-74550000D01*
X97300000Y-76350000D02*
X97300000Y-74112500D01*
X98400000Y-74600000D02*
X98450000Y-74550000D01*
%TO.N,/CANH*%
X101635000Y-86475000D02*
X101635000Y-88822500D01*
X101635000Y-88822500D02*
X101812500Y-89000000D01*
X100500000Y-90312500D02*
X100500000Y-92950000D01*
X101812500Y-89000000D02*
X100500000Y-90312500D01*
%TO.N,/CANL*%
X98500000Y-90487500D02*
X98500000Y-92950000D01*
X99987500Y-89000000D02*
X100365000Y-88622500D01*
X99987500Y-89000000D02*
X98500000Y-90487500D01*
X100365000Y-88622500D02*
X100365000Y-86475000D01*
D37*
%TO.N,+5V*%
X99310050Y-84400000D02*
X99360051Y-84350000D01*
X99360051Y-84350000D02*
X99950000Y-84350000D01*
X105850000Y-90950000D02*
X106400000Y-91500000D01*
D40*
X112150000Y-84150000D02*
X113500000Y-85500000D01*
D37*
X100365000Y-83935000D02*
X100365000Y-83035000D01*
X107750000Y-87937500D02*
X108467398Y-87937500D01*
X109650000Y-88750000D02*
X111430000Y-88750000D01*
D40*
X112235001Y-88564999D02*
X112200000Y-88600000D01*
X113500000Y-85500000D02*
X113500000Y-87500000D01*
D37*
X105850000Y-90100000D02*
X105850000Y-90950000D01*
X100365000Y-83035000D02*
X100365000Y-83965000D01*
X106400000Y-91500000D02*
X108064949Y-91500000D01*
D40*
X111430000Y-84150000D02*
X112150000Y-84150000D01*
D37*
X103600000Y-84200000D02*
X104900000Y-85500000D01*
X100365000Y-83965000D02*
X100600000Y-84200000D01*
D40*
X111430000Y-88650000D02*
X112100000Y-88650000D01*
D37*
X96200000Y-84400000D02*
X99310050Y-84400000D01*
X105850000Y-87937500D02*
X105850000Y-90100000D01*
D40*
X113500000Y-87500000D02*
X112435001Y-88564999D01*
D37*
X105137500Y-87937500D02*
X105850000Y-87937500D01*
X108467398Y-87937500D02*
X109464949Y-88935051D01*
X100365000Y-83035000D02*
X100365000Y-81525000D01*
X100600000Y-84200000D02*
X103600000Y-84200000D01*
X99950000Y-84350000D02*
X100365000Y-83935000D01*
X109464949Y-88935051D02*
X109650000Y-88750000D01*
D40*
X112435001Y-88564999D02*
X112235001Y-88564999D01*
D37*
X109464949Y-90100000D02*
X109464949Y-88935051D01*
X104900000Y-85500000D02*
X104900000Y-87700000D01*
X104900000Y-87700000D02*
X105137500Y-87937500D01*
X108064949Y-91500000D02*
X109464949Y-90100000D01*
D40*
%TO.N,/USB_D+*%
X114900000Y-76450000D02*
X114900000Y-79300000D01*
X114900000Y-79300000D02*
X113300000Y-80900000D01*
X112600000Y-86000000D02*
X112600000Y-86400000D01*
X111107106Y-80900000D02*
X110400000Y-81607106D01*
X112700000Y-75350000D02*
X113800000Y-75350000D01*
X110400000Y-81607106D02*
X110400000Y-85392894D01*
X110400000Y-85392894D02*
X110657106Y-85650000D01*
X112600000Y-86400000D02*
X112350000Y-86650000D01*
X113300000Y-80900000D02*
X111107106Y-80900000D01*
X112250000Y-85650000D02*
X112600000Y-86000000D01*
X112350000Y-86650000D02*
X111430000Y-86650000D01*
X113800000Y-75350000D02*
X114900000Y-76450000D01*
X111430000Y-85650000D02*
X112250000Y-85650000D01*
X110657106Y-85650000D02*
X111430000Y-85650000D01*
%TO.N,/USB_D-*%
X112700000Y-76150000D02*
X113850000Y-76150000D01*
X114300000Y-76600000D02*
X114300000Y-79000000D01*
X109900000Y-81400000D02*
X109900000Y-85600000D01*
X114300000Y-79000000D02*
X112900000Y-80400000D01*
X111430000Y-87150000D02*
X110605000Y-87150000D01*
X112900000Y-80400000D02*
X110900000Y-80400000D01*
X109900000Y-85600000D02*
X110450000Y-86150000D01*
X110450000Y-86995000D02*
X110450000Y-86150000D01*
X110900000Y-80400000D02*
X109900000Y-81400000D01*
X113850000Y-76150000D02*
X114300000Y-76600000D01*
X110605000Y-87150000D02*
X110450000Y-86995000D01*
X110450000Y-86150000D02*
X111430000Y-86150000D01*
D37*
%TO.N,Net-(D2-Pad2)*%
X96500000Y-92950000D02*
X96200000Y-92650000D01*
X96200000Y-92650000D02*
X96200000Y-87200000D01*
D38*
%TO.N,/LED*%
X115900000Y-76600000D02*
X115900000Y-75112500D01*
X99900000Y-72950000D02*
X101850000Y-72950000D01*
X115900000Y-75112500D02*
X115600000Y-74812500D01*
X101850000Y-72950000D02*
X101900000Y-73000000D01*
%TO.N,/CAN_RX*%
X99095000Y-81525000D02*
X99095000Y-80205000D01*
X99500000Y-79800000D02*
X101000000Y-79800000D01*
X99095000Y-80205000D02*
X99500000Y-79800000D01*
X101500000Y-79300000D02*
X101500000Y-78350000D01*
X101000000Y-79800000D02*
X101500000Y-79300000D01*
%TO.N,/CAN_TX*%
X102300000Y-78350000D02*
X102300000Y-79600000D01*
X102300000Y-79600000D02*
X102905000Y-80205000D01*
X102905000Y-80205000D02*
X102905000Y-81525000D01*
D37*
%TO.N,Net-(D1-Pad2)*%
X110312500Y-93800000D02*
X112362500Y-93800000D01*
D38*
%TO.N,Net-(D3-Pad2)*%
X115600000Y-72987500D02*
X115600000Y-71075000D01*
X115600000Y-71075000D02*
X115500000Y-70975000D01*
D40*
%TO.N,/CS*%
X105450000Y-76600000D02*
X104700000Y-77350000D01*
X106100000Y-76600000D02*
X105450000Y-76600000D01*
X104700000Y-77350000D02*
X104700000Y-78350000D01*
%TO.N,/MOSI*%
X108700000Y-79800000D02*
X108700000Y-78350000D01*
%TO.N,/CLK*%
X107900000Y-79600497D02*
X107670271Y-79830226D01*
X107900000Y-78350000D02*
X107900000Y-79600497D01*
%TO.N,/MISO*%
X102450000Y-72150000D02*
X99900000Y-72150000D01*
X102900000Y-72600000D02*
X102450000Y-72150000D01*
X101500000Y-75200000D02*
X102900000Y-73800000D01*
X102900000Y-73800000D02*
X102900000Y-72600000D01*
D38*
X97300000Y-70500000D02*
X98950000Y-72150000D01*
X98950000Y-72150000D02*
X99900000Y-72150000D01*
X97300000Y-70412500D02*
X97300000Y-70500000D01*
%TD*%
%TA.AperFunction,Conductor*%
%TO.N,GND*%
G36*
X118433621Y-67520002D02*
G01*
X118480114Y-67573658D01*
X118491500Y-67626000D01*
X118491500Y-95365500D01*
X118471498Y-95433621D01*
X118417842Y-95480114D01*
X118365500Y-95491500D01*
X94634500Y-95491500D01*
X94566379Y-95471498D01*
X94519886Y-95417842D01*
X94508500Y-95365500D01*
X94508500Y-86455473D01*
X94528502Y-86387352D01*
X94582158Y-86340859D01*
X94652432Y-86330755D01*
X94691802Y-86343257D01*
X94733736Y-86364670D01*
X94739719Y-86367932D01*
X94789159Y-86396649D01*
X94789161Y-86396650D01*
X94795490Y-86400326D01*
X94802494Y-86402447D01*
X94802498Y-86402449D01*
X94804575Y-86403078D01*
X94825351Y-86411451D01*
X94833808Y-86415769D01*
X94896495Y-86431108D01*
X94903012Y-86432891D01*
X94964767Y-86451595D01*
X94974017Y-86452169D01*
X94974246Y-86452183D01*
X94996383Y-86455551D01*
X95000154Y-86456474D01*
X95000166Y-86456476D01*
X95005610Y-86457808D01*
X95013921Y-86458324D01*
X95014795Y-86458378D01*
X95014800Y-86458378D01*
X95016764Y-86458500D01*
X95018737Y-86458500D01*
X95020547Y-86458556D01*
X95088016Y-86480658D01*
X95132825Y-86535727D01*
X95141460Y-86595040D01*
X95142053Y-86595072D01*
X95141894Y-86598015D01*
X95141908Y-86598112D01*
X95141500Y-86601866D01*
X95141500Y-87798134D01*
X95148255Y-87860316D01*
X95199385Y-87996705D01*
X95286739Y-88113261D01*
X95293919Y-88118642D01*
X95391065Y-88191449D01*
X95433580Y-88248308D01*
X95441500Y-88292275D01*
X95441500Y-92031312D01*
X95435093Y-92070978D01*
X95402203Y-92170139D01*
X95401503Y-92176975D01*
X95401502Y-92176978D01*
X95400902Y-92182833D01*
X95391500Y-92274600D01*
X95391500Y-93625400D01*
X95402474Y-93731166D01*
X95458450Y-93898946D01*
X95551522Y-94049348D01*
X95676697Y-94174305D01*
X95682927Y-94178145D01*
X95682928Y-94178146D01*
X95820090Y-94262694D01*
X95827262Y-94267115D01*
X95863942Y-94279281D01*
X95988611Y-94320632D01*
X95988613Y-94320632D01*
X95995139Y-94322797D01*
X96001975Y-94323497D01*
X96001978Y-94323498D01*
X96040386Y-94327433D01*
X96099600Y-94333500D01*
X96900400Y-94333500D01*
X96903646Y-94333163D01*
X96903650Y-94333163D01*
X96999308Y-94323238D01*
X96999312Y-94323237D01*
X97006166Y-94322526D01*
X97012702Y-94320345D01*
X97012704Y-94320345D01*
X97148867Y-94274917D01*
X97173946Y-94266550D01*
X97324348Y-94173478D01*
X97449305Y-94048303D01*
X97481075Y-93996764D01*
X97533846Y-93949271D01*
X97603918Y-93937847D01*
X97669042Y-93966121D01*
X97687418Y-93985045D01*
X97693604Y-93992920D01*
X97698135Y-93996852D01*
X97698138Y-93996855D01*
X97783620Y-94071032D01*
X97853363Y-94131552D01*
X97858549Y-94134552D01*
X97858553Y-94134555D01*
X97954957Y-94190326D01*
X98036454Y-94237473D01*
X98236271Y-94306861D01*
X98242206Y-94307722D01*
X98242208Y-94307722D01*
X98439664Y-94336352D01*
X98439667Y-94336352D01*
X98445604Y-94337213D01*
X98656899Y-94327433D01*
X98788758Y-94295655D01*
X98856701Y-94279281D01*
X98856703Y-94279280D01*
X98862534Y-94277875D01*
X98867992Y-94275393D01*
X98867996Y-94275392D01*
X98983041Y-94223084D01*
X99055087Y-94190326D01*
X99227611Y-94067946D01*
X99373881Y-93915150D01*
X99385124Y-93897738D01*
X99394746Y-93882837D01*
X99448501Y-93836460D01*
X99518797Y-93826507D01*
X99583314Y-93856139D01*
X99599681Y-93873351D01*
X99693604Y-93992920D01*
X99698135Y-93996852D01*
X99698138Y-93996855D01*
X99783620Y-94071032D01*
X99853363Y-94131552D01*
X99858549Y-94134552D01*
X99858553Y-94134555D01*
X99954957Y-94190326D01*
X100036454Y-94237473D01*
X100236271Y-94306861D01*
X100242206Y-94307722D01*
X100242208Y-94307722D01*
X100439664Y-94336352D01*
X100439667Y-94336352D01*
X100445604Y-94337213D01*
X100656899Y-94327433D01*
X100788758Y-94295655D01*
X100856701Y-94279281D01*
X100856703Y-94279280D01*
X100862534Y-94277875D01*
X100867992Y-94275393D01*
X100867996Y-94275392D01*
X100983041Y-94223084D01*
X101055087Y-94190326D01*
X101227611Y-94067946D01*
X101373881Y-93915150D01*
X101377130Y-93910119D01*
X101377135Y-93910112D01*
X101395033Y-93882393D01*
X101448789Y-93836016D01*
X101519085Y-93826063D01*
X101583602Y-93855696D01*
X101599970Y-93872909D01*
X101690262Y-93987857D01*
X101698499Y-93996506D01*
X101849123Y-94127212D01*
X101858847Y-94134147D01*
X102031467Y-94234010D01*
X102042331Y-94238984D01*
X102230727Y-94304407D01*
X102231716Y-94304648D01*
X102242008Y-94303180D01*
X102246000Y-94289615D01*
X102246000Y-94285402D01*
X102754000Y-94285402D01*
X102757973Y-94298933D01*
X102767399Y-94300288D01*
X102856537Y-94278806D01*
X102867832Y-94274917D01*
X103049382Y-94192371D01*
X103059724Y-94186424D01*
X103222397Y-94071032D01*
X103231425Y-94063239D01*
X103369342Y-93919169D01*
X103376738Y-93909804D01*
X103484921Y-93742259D01*
X103490417Y-93731655D01*
X103564961Y-93546688D01*
X103568355Y-93535230D01*
X103606857Y-93338072D01*
X103607934Y-93329209D01*
X103608000Y-93326500D01*
X103608000Y-93222115D01*
X103603525Y-93206876D01*
X103602135Y-93205671D01*
X103594452Y-93204000D01*
X102772115Y-93204000D01*
X102756876Y-93208475D01*
X102755671Y-93209865D01*
X102754000Y-93217548D01*
X102754000Y-94285402D01*
X102246000Y-94285402D01*
X102246000Y-91614598D01*
X102242027Y-91601067D01*
X102232601Y-91599712D01*
X102143463Y-91621194D01*
X102132168Y-91625083D01*
X101950618Y-91707629D01*
X101940276Y-91713576D01*
X101777603Y-91828968D01*
X101768575Y-91836761D01*
X101630658Y-91980831D01*
X101623259Y-91990200D01*
X101605582Y-92017577D01*
X101551828Y-92063955D01*
X101481532Y-92073909D01*
X101417015Y-92044278D01*
X101400644Y-92027063D01*
X101310102Y-91911798D01*
X101306396Y-91907080D01*
X101176918Y-91794725D01*
X101138579Y-91734973D01*
X101133500Y-91699561D01*
X101133500Y-90627094D01*
X101153502Y-90558973D01*
X101170405Y-90537999D01*
X101462999Y-90245405D01*
X101525311Y-90211379D01*
X101552094Y-90208500D01*
X102125400Y-90208500D01*
X102128646Y-90208163D01*
X102128650Y-90208163D01*
X102224308Y-90198238D01*
X102224312Y-90198237D01*
X102231166Y-90197526D01*
X102237702Y-90195345D01*
X102237704Y-90195345D01*
X102391998Y-90143868D01*
X102398946Y-90141550D01*
X102549348Y-90048478D01*
X102674305Y-89923303D01*
X102755243Y-89791998D01*
X102763275Y-89778968D01*
X102763276Y-89778966D01*
X102767115Y-89772738D01*
X102797159Y-89682158D01*
X102820632Y-89611389D01*
X102820632Y-89611387D01*
X102822797Y-89604861D01*
X102833500Y-89500400D01*
X102833500Y-88499600D01*
X102822526Y-88393834D01*
X102766550Y-88226054D01*
X102673478Y-88075652D01*
X102668297Y-88070480D01*
X102668182Y-88070335D01*
X102641546Y-88004524D01*
X102651000Y-87947132D01*
X102651000Y-86347000D01*
X102671002Y-86278879D01*
X102724658Y-86232386D01*
X102777000Y-86221000D01*
X103033000Y-86221000D01*
X103101121Y-86241002D01*
X103147614Y-86294658D01*
X103159000Y-86347000D01*
X103159000Y-87936878D01*
X103162973Y-87950409D01*
X103170871Y-87951544D01*
X103280346Y-87919738D01*
X103351343Y-87919941D01*
X103410959Y-87958494D01*
X103440268Y-88023159D01*
X103441500Y-88040735D01*
X103441500Y-91748817D01*
X103421498Y-91816938D01*
X103367842Y-91863431D01*
X103297568Y-91873535D01*
X103232919Y-91843982D01*
X103150876Y-91772788D01*
X103141153Y-91765853D01*
X102968533Y-91665990D01*
X102957669Y-91661016D01*
X102769273Y-91595593D01*
X102768284Y-91595352D01*
X102757992Y-91596820D01*
X102754000Y-91610385D01*
X102754000Y-92677885D01*
X102758475Y-92693124D01*
X102759865Y-92694329D01*
X102767548Y-92696000D01*
X103589885Y-92696000D01*
X103621302Y-92686775D01*
X103692298Y-92686775D01*
X103745895Y-92718576D01*
X104466230Y-93438911D01*
X104478616Y-93453323D01*
X104487149Y-93464918D01*
X104487154Y-93464923D01*
X104491492Y-93470818D01*
X104497070Y-93475557D01*
X104497073Y-93475560D01*
X104531768Y-93505035D01*
X104539284Y-93511965D01*
X105316230Y-94288911D01*
X105328616Y-94303323D01*
X105337149Y-94314918D01*
X105337154Y-94314923D01*
X105341492Y-94320818D01*
X105347070Y-94325557D01*
X105347073Y-94325560D01*
X105381768Y-94355035D01*
X105389284Y-94361965D01*
X105394980Y-94367661D01*
X105397841Y-94369924D01*
X105397846Y-94369929D01*
X105417266Y-94385293D01*
X105420667Y-94388082D01*
X105453835Y-94416260D01*
X105476285Y-94435333D01*
X105482805Y-94438662D01*
X105487852Y-94442028D01*
X105492976Y-94445193D01*
X105498717Y-94449735D01*
X105505348Y-94452834D01*
X105505351Y-94452836D01*
X105564830Y-94480634D01*
X105568776Y-94482562D01*
X105633808Y-94515769D01*
X105640914Y-94517508D01*
X105646564Y-94519609D01*
X105652321Y-94521524D01*
X105658950Y-94524622D01*
X105730435Y-94539491D01*
X105734701Y-94540457D01*
X105805610Y-94557808D01*
X105811212Y-94558156D01*
X105811215Y-94558156D01*
X105816764Y-94558500D01*
X105816762Y-94558535D01*
X105820734Y-94558775D01*
X105824955Y-94559152D01*
X105832115Y-94560641D01*
X105909542Y-94558546D01*
X105912950Y-94558500D01*
X107453689Y-94558500D01*
X107521810Y-94578502D01*
X107560833Y-94618196D01*
X107626522Y-94724348D01*
X107751697Y-94849305D01*
X107757927Y-94853145D01*
X107757928Y-94853146D01*
X107895246Y-94937790D01*
X107902262Y-94942115D01*
X107909480Y-94944509D01*
X108063611Y-94995632D01*
X108063613Y-94995632D01*
X108070139Y-94997797D01*
X108076975Y-94998497D01*
X108076978Y-94998498D01*
X108120031Y-95002909D01*
X108174600Y-95008500D01*
X108800400Y-95008500D01*
X108803646Y-95008163D01*
X108803650Y-95008163D01*
X108899308Y-94998238D01*
X108899312Y-94998237D01*
X108906166Y-94997526D01*
X108912702Y-94995345D01*
X108912704Y-94995345D01*
X109065077Y-94944509D01*
X109073946Y-94941550D01*
X109224348Y-94848478D01*
X109310784Y-94761891D01*
X109373066Y-94727812D01*
X109443886Y-94732815D01*
X109488976Y-94761736D01*
X109576697Y-94849305D01*
X109582927Y-94853145D01*
X109582928Y-94853146D01*
X109720246Y-94937790D01*
X109727262Y-94942115D01*
X109734480Y-94944509D01*
X109888611Y-94995632D01*
X109888613Y-94995632D01*
X109895139Y-94997797D01*
X109901975Y-94998497D01*
X109901978Y-94998498D01*
X109945031Y-95002909D01*
X109999600Y-95008500D01*
X110625400Y-95008500D01*
X110628646Y-95008163D01*
X110628650Y-95008163D01*
X110724308Y-94998238D01*
X110724312Y-94998237D01*
X110731166Y-94997526D01*
X110737702Y-94995345D01*
X110737704Y-94995345D01*
X110890077Y-94944509D01*
X110898946Y-94941550D01*
X111049348Y-94848478D01*
X111174305Y-94723303D01*
X111238979Y-94618383D01*
X111291750Y-94570891D01*
X111346238Y-94558500D01*
X111350922Y-94558500D01*
X111419043Y-94578502D01*
X111458065Y-94618196D01*
X111525203Y-94726689D01*
X111649347Y-94850617D01*
X111798671Y-94942661D01*
X111805619Y-94944966D01*
X111805620Y-94944966D01*
X111958634Y-94995719D01*
X111958636Y-94995719D01*
X111965165Y-94997885D01*
X112068769Y-95008500D01*
X112360234Y-95008500D01*
X112656230Y-95008499D01*
X112761129Y-94997616D01*
X112767660Y-94995437D01*
X112767665Y-94995436D01*
X112920578Y-94944420D01*
X112927526Y-94942102D01*
X113076689Y-94849797D01*
X113200617Y-94725653D01*
X113202614Y-94722413D01*
X113259352Y-94682186D01*
X113330275Y-94678953D01*
X113391687Y-94714578D01*
X113399066Y-94723078D01*
X113405782Y-94731552D01*
X113519479Y-94845051D01*
X113530890Y-94854063D01*
X113667654Y-94938365D01*
X113680832Y-94944509D01*
X113833740Y-94995227D01*
X113847106Y-94998093D01*
X113940601Y-95007672D01*
X113947016Y-95008000D01*
X113965385Y-95008000D01*
X113980624Y-95003525D01*
X113981829Y-95002135D01*
X113983500Y-94994452D01*
X113983500Y-94989884D01*
X114491500Y-94989884D01*
X114495975Y-95005123D01*
X114497365Y-95006328D01*
X114505048Y-95007999D01*
X114527933Y-95007999D01*
X114534452Y-95007662D01*
X114629170Y-94997834D01*
X114642564Y-94994942D01*
X114795365Y-94943964D01*
X114808543Y-94937790D01*
X114945149Y-94853256D01*
X114956550Y-94844220D01*
X115070051Y-94730521D01*
X115079063Y-94719110D01*
X115163365Y-94582346D01*
X115169509Y-94569168D01*
X115220227Y-94416260D01*
X115223093Y-94402894D01*
X115232672Y-94309399D01*
X115233000Y-94302984D01*
X115233000Y-94072115D01*
X115228525Y-94056876D01*
X115227135Y-94055671D01*
X115219452Y-94054000D01*
X114509615Y-94054000D01*
X114494376Y-94058475D01*
X114493171Y-94059865D01*
X114491500Y-94067548D01*
X114491500Y-94989884D01*
X113983500Y-94989884D01*
X113983500Y-93527885D01*
X114491500Y-93527885D01*
X114495975Y-93543124D01*
X114497365Y-93544329D01*
X114505048Y-93546000D01*
X115214884Y-93546000D01*
X115230123Y-93541525D01*
X115231328Y-93540135D01*
X115232999Y-93532452D01*
X115232999Y-93297067D01*
X115232662Y-93290548D01*
X115222834Y-93195830D01*
X115219942Y-93182436D01*
X115168964Y-93029635D01*
X115162790Y-93016457D01*
X115078256Y-92879851D01*
X115069220Y-92868450D01*
X114955521Y-92754949D01*
X114944110Y-92745937D01*
X114807346Y-92661635D01*
X114794168Y-92655491D01*
X114641260Y-92604773D01*
X114627894Y-92601907D01*
X114534399Y-92592328D01*
X114527984Y-92592000D01*
X114509615Y-92592000D01*
X114494376Y-92596475D01*
X114493171Y-92597865D01*
X114491500Y-92605548D01*
X114491500Y-93527885D01*
X113983500Y-93527885D01*
X113983500Y-92610116D01*
X113979025Y-92594877D01*
X113977635Y-92593672D01*
X113969952Y-92592001D01*
X113947067Y-92592001D01*
X113940548Y-92592338D01*
X113845830Y-92602166D01*
X113832436Y-92605058D01*
X113679635Y-92656036D01*
X113666457Y-92662210D01*
X113529851Y-92746744D01*
X113518450Y-92755780D01*
X113404949Y-92869479D01*
X113399206Y-92876751D01*
X113341289Y-92917814D01*
X113270366Y-92921046D01*
X113208954Y-92885421D01*
X113203160Y-92878746D01*
X113199797Y-92873311D01*
X113075653Y-92749383D01*
X112926329Y-92657339D01*
X112886955Y-92644279D01*
X112766366Y-92604281D01*
X112766364Y-92604281D01*
X112759835Y-92602115D01*
X112656231Y-92591500D01*
X112364766Y-92591500D01*
X112068770Y-92591501D01*
X111963871Y-92602384D01*
X111957340Y-92604563D01*
X111957335Y-92604564D01*
X111838295Y-92644279D01*
X111797474Y-92657898D01*
X111648311Y-92750203D01*
X111524383Y-92874347D01*
X111520543Y-92880577D01*
X111520542Y-92880578D01*
X111458262Y-92981616D01*
X111405490Y-93029109D01*
X111351002Y-93041500D01*
X111346311Y-93041500D01*
X111278190Y-93021498D01*
X111239167Y-92981804D01*
X111225009Y-92958925D01*
X111173478Y-92875652D01*
X111048303Y-92750695D01*
X111042072Y-92746854D01*
X110903968Y-92661725D01*
X110903966Y-92661724D01*
X110897738Y-92657885D01*
X110790012Y-92622154D01*
X110736389Y-92604368D01*
X110736387Y-92604368D01*
X110729861Y-92602203D01*
X110723025Y-92601503D01*
X110723022Y-92601502D01*
X110679969Y-92597091D01*
X110625400Y-92591500D01*
X109999600Y-92591500D01*
X109996354Y-92591837D01*
X109996350Y-92591837D01*
X109900692Y-92601762D01*
X109900688Y-92601763D01*
X109893834Y-92602474D01*
X109887298Y-92604655D01*
X109887296Y-92604655D01*
X109755194Y-92648728D01*
X109726054Y-92658450D01*
X109575652Y-92751522D01*
X109570479Y-92756704D01*
X109489216Y-92838109D01*
X109426934Y-92872188D01*
X109356114Y-92867185D01*
X109311025Y-92838264D01*
X109228483Y-92755866D01*
X109223303Y-92750695D01*
X109217072Y-92746854D01*
X109078968Y-92661725D01*
X109078966Y-92661724D01*
X109072738Y-92657885D01*
X108965012Y-92622154D01*
X108911389Y-92604368D01*
X108911387Y-92604368D01*
X108904861Y-92602203D01*
X108898025Y-92601503D01*
X108898022Y-92601502D01*
X108854969Y-92597091D01*
X108800400Y-92591500D01*
X108174600Y-92591500D01*
X108171354Y-92591837D01*
X108171350Y-92591837D01*
X108075692Y-92601762D01*
X108075688Y-92601763D01*
X108068834Y-92602474D01*
X108062298Y-92604655D01*
X108062296Y-92604655D01*
X107930194Y-92648728D01*
X107901054Y-92658450D01*
X107750652Y-92751522D01*
X107625695Y-92876697D01*
X107621855Y-92882927D01*
X107621854Y-92882928D01*
X107561022Y-92981616D01*
X107508250Y-93029109D01*
X107453762Y-93041500D01*
X106796913Y-93041500D01*
X106728792Y-93021498D01*
X106682299Y-92967842D01*
X106672195Y-92897568D01*
X106687794Y-92852500D01*
X106731223Y-92777279D01*
X106731224Y-92777278D01*
X106734527Y-92771556D01*
X106793542Y-92589928D01*
X106795731Y-92569107D01*
X106812814Y-92406565D01*
X106813504Y-92400000D01*
X106812814Y-92393435D01*
X106812814Y-92386830D01*
X106815243Y-92386830D01*
X106826029Y-92327837D01*
X106874528Y-92275988D01*
X106938569Y-92258500D01*
X107997879Y-92258500D01*
X108016829Y-92259933D01*
X108031064Y-92262099D01*
X108031068Y-92262099D01*
X108038298Y-92263199D01*
X108045590Y-92262606D01*
X108045593Y-92262606D01*
X108090967Y-92258915D01*
X108101182Y-92258500D01*
X108109242Y-92258500D01*
X108122532Y-92256951D01*
X108137456Y-92255211D01*
X108141831Y-92254778D01*
X108207288Y-92249454D01*
X108207291Y-92249453D01*
X108214586Y-92248860D01*
X108221550Y-92246604D01*
X108227509Y-92245413D01*
X108233364Y-92244029D01*
X108240630Y-92243182D01*
X108309276Y-92218265D01*
X108313404Y-92216848D01*
X108375885Y-92196607D01*
X108375887Y-92196606D01*
X108382848Y-92194351D01*
X108389103Y-92190555D01*
X108394577Y-92188049D01*
X108400007Y-92185330D01*
X108406886Y-92182833D01*
X108413007Y-92178820D01*
X108467925Y-92142814D01*
X108471629Y-92140477D01*
X108534056Y-92102595D01*
X108542433Y-92095197D01*
X108542457Y-92095224D01*
X108545449Y-92092571D01*
X108548682Y-92089868D01*
X108554801Y-92085856D01*
X108608077Y-92029617D01*
X108610455Y-92027175D01*
X109651862Y-90985768D01*
X110472425Y-90985768D01*
X110504138Y-91093521D01*
X110508731Y-91104889D01*
X110594607Y-91269154D01*
X110601321Y-91279415D01*
X110717468Y-91423873D01*
X110726046Y-91432632D01*
X110868039Y-91551778D01*
X110878159Y-91558708D01*
X111040585Y-91648002D01*
X111051858Y-91652834D01*
X111228538Y-91708880D01*
X111240532Y-91711430D01*
X111384761Y-91727607D01*
X111391785Y-91728000D01*
X111722885Y-91728000D01*
X111738124Y-91723525D01*
X111739329Y-91722135D01*
X111741000Y-91714452D01*
X111741000Y-91709885D01*
X112249000Y-91709885D01*
X112253475Y-91725124D01*
X112254865Y-91726329D01*
X112262548Y-91728000D01*
X112591657Y-91728000D01*
X112597805Y-91727699D01*
X112735603Y-91714188D01*
X112747638Y-91711805D01*
X112925076Y-91658233D01*
X112936416Y-91653559D01*
X113100077Y-91566540D01*
X113110294Y-91559751D01*
X113253933Y-91442603D01*
X113262637Y-91433959D01*
X113380784Y-91291144D01*
X113387644Y-91280973D01*
X113475804Y-91117924D01*
X113480556Y-91106619D01*
X113516250Y-90991308D01*
X113516331Y-90985768D01*
X114902425Y-90985768D01*
X114934138Y-91093521D01*
X114938731Y-91104889D01*
X115024607Y-91269154D01*
X115031321Y-91279415D01*
X115147468Y-91423873D01*
X115156046Y-91432632D01*
X115298039Y-91551778D01*
X115308159Y-91558708D01*
X115470585Y-91648002D01*
X115481858Y-91652834D01*
X115658538Y-91708880D01*
X115670532Y-91711430D01*
X115814761Y-91727607D01*
X115821785Y-91728000D01*
X115902885Y-91728000D01*
X115918124Y-91723525D01*
X115919329Y-91722135D01*
X115921000Y-91714452D01*
X115921000Y-91709885D01*
X116429000Y-91709885D01*
X116433475Y-91725124D01*
X116434865Y-91726329D01*
X116442548Y-91728000D01*
X116521657Y-91728000D01*
X116527805Y-91727699D01*
X116665603Y-91714188D01*
X116677638Y-91711805D01*
X116855076Y-91658233D01*
X116866416Y-91653559D01*
X117030077Y-91566540D01*
X117040294Y-91559751D01*
X117183933Y-91442603D01*
X117192637Y-91433959D01*
X117310784Y-91291144D01*
X117317644Y-91280973D01*
X117405804Y-91117924D01*
X117410556Y-91106619D01*
X117446250Y-90991308D01*
X117446456Y-90977205D01*
X117439701Y-90974000D01*
X116447115Y-90974000D01*
X116431876Y-90978475D01*
X116430671Y-90979865D01*
X116429000Y-90987548D01*
X116429000Y-91709885D01*
X115921000Y-91709885D01*
X115921000Y-90992115D01*
X115916525Y-90976876D01*
X115915135Y-90975671D01*
X115907452Y-90974000D01*
X114917076Y-90974000D01*
X114903545Y-90977973D01*
X114902425Y-90985768D01*
X113516331Y-90985768D01*
X113516456Y-90977205D01*
X113509701Y-90974000D01*
X112267115Y-90974000D01*
X112251876Y-90978475D01*
X112250671Y-90979865D01*
X112249000Y-90987548D01*
X112249000Y-91709885D01*
X111741000Y-91709885D01*
X111741000Y-90992115D01*
X111736525Y-90976876D01*
X111735135Y-90975671D01*
X111727452Y-90974000D01*
X110487076Y-90974000D01*
X110473545Y-90977973D01*
X110472425Y-90985768D01*
X109651862Y-90985768D01*
X109953860Y-90683770D01*
X109968272Y-90671384D01*
X109979867Y-90662851D01*
X109979872Y-90662846D01*
X109985767Y-90658508D01*
X109990506Y-90652930D01*
X109990509Y-90652927D01*
X110019984Y-90618232D01*
X110026914Y-90610716D01*
X110032609Y-90605021D01*
X110050230Y-90582749D01*
X110053021Y-90579345D01*
X110095540Y-90529297D01*
X110095541Y-90529295D01*
X110100282Y-90523715D01*
X110103610Y-90517199D01*
X110106977Y-90512150D01*
X110110144Y-90507021D01*
X110114683Y-90501284D01*
X110145604Y-90435125D01*
X110147510Y-90431225D01*
X110163562Y-90399789D01*
X110180718Y-90366192D01*
X110182457Y-90359084D01*
X110184556Y-90353441D01*
X110186473Y-90347678D01*
X110189571Y-90341050D01*
X110204436Y-90269583D01*
X110205395Y-90265346D01*
X110213057Y-90234032D01*
X110248675Y-90172621D01*
X110311843Y-90140212D01*
X110382505Y-90147100D01*
X110436272Y-90188417D01*
X110481269Y-90248457D01*
X110506116Y-90314964D01*
X110500807Y-90361280D01*
X110473750Y-90448691D01*
X110473544Y-90462795D01*
X110480299Y-90466000D01*
X111722885Y-90466000D01*
X111738124Y-90461525D01*
X111739329Y-90460135D01*
X111741000Y-90452452D01*
X111741000Y-90017679D01*
X111761002Y-89949558D01*
X111814658Y-89903065D01*
X111884932Y-89892961D01*
X111943529Y-89917583D01*
X112055257Y-90003006D01*
X112055261Y-90003009D01*
X112060678Y-90007150D01*
X112176250Y-90061042D01*
X112229535Y-90107959D01*
X112249000Y-90175237D01*
X112249000Y-90447885D01*
X112253475Y-90463124D01*
X112254865Y-90464329D01*
X112262548Y-90466000D01*
X113502924Y-90466000D01*
X113513839Y-90462795D01*
X114903544Y-90462795D01*
X114910299Y-90466000D01*
X115902885Y-90466000D01*
X115918124Y-90461525D01*
X115919329Y-90460135D01*
X115921000Y-90452452D01*
X115921000Y-90447885D01*
X116429000Y-90447885D01*
X116433475Y-90463124D01*
X116434865Y-90464329D01*
X116442548Y-90466000D01*
X117432924Y-90466000D01*
X117446455Y-90462027D01*
X117447575Y-90454232D01*
X117415862Y-90346479D01*
X117411269Y-90335111D01*
X117325393Y-90170846D01*
X117318679Y-90160585D01*
X117202532Y-90016127D01*
X117193954Y-90007368D01*
X117051961Y-89888222D01*
X117041841Y-89881292D01*
X116879415Y-89791998D01*
X116868142Y-89787166D01*
X116691462Y-89731120D01*
X116679468Y-89728570D01*
X116535239Y-89712393D01*
X116528215Y-89712000D01*
X116447115Y-89712000D01*
X116431876Y-89716475D01*
X116430671Y-89717865D01*
X116429000Y-89725548D01*
X116429000Y-90447885D01*
X115921000Y-90447885D01*
X115921000Y-89730115D01*
X115916525Y-89714876D01*
X115915135Y-89713671D01*
X115907452Y-89712000D01*
X115828343Y-89712000D01*
X115822195Y-89712301D01*
X115684397Y-89725812D01*
X115672362Y-89728195D01*
X115494924Y-89781767D01*
X115483584Y-89786441D01*
X115319923Y-89873460D01*
X115309706Y-89880249D01*
X115166067Y-89997397D01*
X115157363Y-90006041D01*
X115039216Y-90148856D01*
X115032356Y-90159027D01*
X114944196Y-90322076D01*
X114939444Y-90333381D01*
X114903750Y-90448692D01*
X114903544Y-90462795D01*
X113513839Y-90462795D01*
X113516455Y-90462027D01*
X113517575Y-90454232D01*
X113485862Y-90346479D01*
X113481269Y-90335111D01*
X113395393Y-90170846D01*
X113388679Y-90160585D01*
X113272532Y-90016127D01*
X113263954Y-90007368D01*
X113192785Y-89947650D01*
X113153458Y-89888541D01*
X113152332Y-89817553D01*
X113169564Y-89780305D01*
X113231442Y-89689255D01*
X113235277Y-89683612D01*
X113302530Y-89515466D01*
X113303644Y-89508738D01*
X113303645Y-89508734D01*
X113330993Y-89343539D01*
X113330993Y-89343536D01*
X113332108Y-89336802D01*
X113325995Y-89220150D01*
X113322987Y-89162766D01*
X113322630Y-89155953D01*
X113318519Y-89141026D01*
X113276352Y-88987941D01*
X113274539Y-88981359D01*
X113205791Y-88850966D01*
X113191714Y-88781380D01*
X113217493Y-88715229D01*
X113228153Y-88703107D01*
X113907605Y-88023655D01*
X113916385Y-88015665D01*
X113916387Y-88015663D01*
X113923080Y-88011416D01*
X113930147Y-88003891D01*
X113971604Y-87959743D01*
X113974359Y-87956901D01*
X113994927Y-87936333D01*
X113997647Y-87932826D01*
X114005353Y-87923804D01*
X114009171Y-87919738D01*
X114036972Y-87890133D01*
X114040794Y-87883181D01*
X114047303Y-87871342D01*
X114058157Y-87854818D01*
X114066445Y-87844132D01*
X114071304Y-87837868D01*
X114075362Y-87828491D01*
X114089654Y-87795465D01*
X114094876Y-87784805D01*
X114113305Y-87751284D01*
X114113306Y-87751282D01*
X114117124Y-87744337D01*
X114122459Y-87723559D01*
X114128858Y-87704869D01*
X114137380Y-87685176D01*
X114144606Y-87639552D01*
X114147013Y-87627929D01*
X114156528Y-87590868D01*
X114158500Y-87583188D01*
X114158500Y-87561741D01*
X114160051Y-87542031D01*
X114162166Y-87528677D01*
X114163406Y-87520848D01*
X114159059Y-87474859D01*
X114158500Y-87463004D01*
X114158500Y-85582056D01*
X114159059Y-85570200D01*
X114159059Y-85570197D01*
X114160788Y-85562463D01*
X114158562Y-85491631D01*
X114158500Y-85487673D01*
X114158500Y-85458568D01*
X114157944Y-85454168D01*
X114157012Y-85442330D01*
X114155811Y-85404094D01*
X114155562Y-85396169D01*
X114149580Y-85375579D01*
X114145570Y-85356216D01*
X114143875Y-85342796D01*
X114143875Y-85342795D01*
X114142882Y-85334936D01*
X114139966Y-85327571D01*
X114139965Y-85327567D01*
X114125874Y-85291979D01*
X114122035Y-85280769D01*
X114109145Y-85236400D01*
X114098229Y-85217943D01*
X114089534Y-85200193D01*
X114081635Y-85180244D01*
X114076976Y-85173831D01*
X114054477Y-85142864D01*
X114047960Y-85132943D01*
X114024452Y-85093193D01*
X114009291Y-85078032D01*
X113996449Y-85062997D01*
X113988880Y-85052579D01*
X113983841Y-85045643D01*
X113977007Y-85039989D01*
X113948243Y-85016194D01*
X113939463Y-85008204D01*
X113146748Y-84215489D01*
X113112722Y-84153177D01*
X113117787Y-84082362D01*
X113134427Y-84054033D01*
X113133485Y-84053393D01*
X113231442Y-83909255D01*
X113235277Y-83903612D01*
X113302530Y-83735466D01*
X113303644Y-83728738D01*
X113303645Y-83728734D01*
X113330993Y-83563539D01*
X113330993Y-83563536D01*
X113332108Y-83556802D01*
X113331604Y-83547171D01*
X113322987Y-83382766D01*
X113322630Y-83375953D01*
X113292852Y-83267842D01*
X113276352Y-83207941D01*
X113274539Y-83201359D01*
X113190078Y-83041164D01*
X113185671Y-83035949D01*
X113185669Y-83035946D01*
X113179549Y-83028705D01*
X113150855Y-82963765D01*
X113161825Y-82893622D01*
X113196148Y-82849731D01*
X113253933Y-82802603D01*
X113262637Y-82793959D01*
X113380784Y-82651144D01*
X113387644Y-82640973D01*
X113475804Y-82477924D01*
X113480556Y-82466619D01*
X113516250Y-82351308D01*
X113516331Y-82345768D01*
X114902425Y-82345768D01*
X114934138Y-82453521D01*
X114938731Y-82464889D01*
X115024607Y-82629154D01*
X115031321Y-82639415D01*
X115147468Y-82783873D01*
X115156046Y-82792632D01*
X115298039Y-82911778D01*
X115308159Y-82918708D01*
X115470585Y-83008002D01*
X115481858Y-83012834D01*
X115658538Y-83068880D01*
X115670532Y-83071430D01*
X115814761Y-83087607D01*
X115821785Y-83088000D01*
X115902885Y-83088000D01*
X115918124Y-83083525D01*
X115919329Y-83082135D01*
X115921000Y-83074452D01*
X115921000Y-83069885D01*
X116429000Y-83069885D01*
X116433475Y-83085124D01*
X116434865Y-83086329D01*
X116442548Y-83088000D01*
X116521657Y-83088000D01*
X116527805Y-83087699D01*
X116665603Y-83074188D01*
X116677638Y-83071805D01*
X116855076Y-83018233D01*
X116866416Y-83013559D01*
X117030077Y-82926540D01*
X117040294Y-82919751D01*
X117183933Y-82802603D01*
X117192637Y-82793959D01*
X117310784Y-82651144D01*
X117317644Y-82640973D01*
X117405804Y-82477924D01*
X117410556Y-82466619D01*
X117446250Y-82351308D01*
X117446456Y-82337205D01*
X117439701Y-82334000D01*
X116447115Y-82334000D01*
X116431876Y-82338475D01*
X116430671Y-82339865D01*
X116429000Y-82347548D01*
X116429000Y-83069885D01*
X115921000Y-83069885D01*
X115921000Y-82352115D01*
X115916525Y-82336876D01*
X115915135Y-82335671D01*
X115907452Y-82334000D01*
X114917076Y-82334000D01*
X114903545Y-82337973D01*
X114902425Y-82345768D01*
X113516331Y-82345768D01*
X113516456Y-82337205D01*
X113509701Y-82334000D01*
X112267115Y-82334000D01*
X112251876Y-82338475D01*
X112250671Y-82339865D01*
X112249000Y-82347548D01*
X112249000Y-82622802D01*
X112228998Y-82690923D01*
X112175342Y-82737416D01*
X112163189Y-82742221D01*
X112149796Y-82746728D01*
X112149794Y-82746729D01*
X112143325Y-82748906D01*
X111988095Y-82842177D01*
X111983138Y-82846865D01*
X111983135Y-82846867D01*
X111953573Y-82874823D01*
X111890335Y-82907095D01*
X111819689Y-82900055D01*
X111764063Y-82855938D01*
X111741000Y-82783275D01*
X111741000Y-81952000D01*
X111761002Y-81883879D01*
X111814658Y-81837386D01*
X111867000Y-81826000D01*
X113502924Y-81826000D01*
X113513839Y-81822795D01*
X114903544Y-81822795D01*
X114910299Y-81826000D01*
X115902885Y-81826000D01*
X115918124Y-81821525D01*
X115919329Y-81820135D01*
X115921000Y-81812452D01*
X115921000Y-81807885D01*
X116429000Y-81807885D01*
X116433475Y-81823124D01*
X116434865Y-81824329D01*
X116442548Y-81826000D01*
X117432924Y-81826000D01*
X117446455Y-81822027D01*
X117447575Y-81814232D01*
X117415862Y-81706479D01*
X117411269Y-81695111D01*
X117325393Y-81530846D01*
X117318679Y-81520585D01*
X117202532Y-81376127D01*
X117193954Y-81367368D01*
X117051961Y-81248222D01*
X117041841Y-81241292D01*
X116879415Y-81151998D01*
X116868142Y-81147166D01*
X116691462Y-81091120D01*
X116679468Y-81088570D01*
X116535239Y-81072393D01*
X116528215Y-81072000D01*
X116447115Y-81072000D01*
X116431876Y-81076475D01*
X116430671Y-81077865D01*
X116429000Y-81085548D01*
X116429000Y-81807885D01*
X115921000Y-81807885D01*
X115921000Y-81090115D01*
X115916525Y-81074876D01*
X115915135Y-81073671D01*
X115907452Y-81072000D01*
X115828343Y-81072000D01*
X115822195Y-81072301D01*
X115684397Y-81085812D01*
X115672362Y-81088195D01*
X115494924Y-81141767D01*
X115483584Y-81146441D01*
X115319923Y-81233460D01*
X115309706Y-81240249D01*
X115166067Y-81357397D01*
X115157363Y-81366041D01*
X115039216Y-81508856D01*
X115032356Y-81519027D01*
X114944196Y-81682076D01*
X114939444Y-81693381D01*
X114903750Y-81808692D01*
X114903544Y-81822795D01*
X113513839Y-81822795D01*
X113516455Y-81822027D01*
X113517575Y-81814232D01*
X113485863Y-81706483D01*
X113481264Y-81695100D01*
X113479045Y-81690855D01*
X113465210Y-81621220D01*
X113491219Y-81555159D01*
X113549255Y-81515761D01*
X113548712Y-81514505D01*
X113555312Y-81511649D01*
X113555560Y-81511481D01*
X113563600Y-81509145D01*
X113582065Y-81498225D01*
X113599805Y-81489534D01*
X113619756Y-81481635D01*
X113657129Y-81454482D01*
X113667048Y-81447967D01*
X113699977Y-81428493D01*
X113699981Y-81428490D01*
X113706807Y-81424453D01*
X113721971Y-81409289D01*
X113737005Y-81396448D01*
X113747943Y-81388501D01*
X113754357Y-81383841D01*
X113783803Y-81348247D01*
X113791792Y-81339468D01*
X115307605Y-79823655D01*
X115316385Y-79815665D01*
X115316387Y-79815663D01*
X115323080Y-79811416D01*
X115371605Y-79759742D01*
X115374359Y-79756901D01*
X115394927Y-79736333D01*
X115397647Y-79732826D01*
X115405353Y-79723804D01*
X115410687Y-79718124D01*
X115436972Y-79690133D01*
X115440794Y-79683181D01*
X115447303Y-79671342D01*
X115458157Y-79654818D01*
X115466445Y-79644132D01*
X115471304Y-79637868D01*
X115474452Y-79630594D01*
X115489654Y-79595465D01*
X115494876Y-79584805D01*
X115513305Y-79551284D01*
X115513306Y-79551282D01*
X115517124Y-79544337D01*
X115522459Y-79523559D01*
X115528858Y-79504869D01*
X115537380Y-79485176D01*
X115544606Y-79439552D01*
X115547013Y-79427929D01*
X115556528Y-79390868D01*
X115558500Y-79383188D01*
X115558500Y-79361741D01*
X115560051Y-79342031D01*
X115562166Y-79328677D01*
X115563406Y-79320848D01*
X115559059Y-79274859D01*
X115558500Y-79263004D01*
X115558500Y-77611806D01*
X115578502Y-77543685D01*
X115632158Y-77497192D01*
X115702432Y-77487088D01*
X115710697Y-77488559D01*
X115798056Y-77507128D01*
X115798061Y-77507128D01*
X115804513Y-77508500D01*
X115995487Y-77508500D01*
X116001939Y-77507128D01*
X116001944Y-77507128D01*
X116088888Y-77488647D01*
X116182288Y-77468794D01*
X116241501Y-77442431D01*
X116350722Y-77393803D01*
X116350724Y-77393802D01*
X116356752Y-77391118D01*
X116511253Y-77278866D01*
X116521291Y-77267718D01*
X116634621Y-77141852D01*
X116634622Y-77141851D01*
X116639040Y-77136944D01*
X116734527Y-76971556D01*
X116793542Y-76789928D01*
X116797091Y-76756166D01*
X116812814Y-76606565D01*
X116813504Y-76600000D01*
X116808249Y-76550000D01*
X116794232Y-76416635D01*
X116794232Y-76416633D01*
X116793542Y-76410072D01*
X116734527Y-76228444D01*
X116639040Y-76063056D01*
X116565863Y-75981785D01*
X116535147Y-75917779D01*
X116533500Y-75897476D01*
X116533500Y-75716437D01*
X116553502Y-75648316D01*
X116570327Y-75627419D01*
X116644134Y-75553483D01*
X116649305Y-75548303D01*
X116657582Y-75534876D01*
X116738275Y-75403968D01*
X116738276Y-75403966D01*
X116742115Y-75397738D01*
X116795024Y-75238221D01*
X116795632Y-75236389D01*
X116795632Y-75236387D01*
X116797797Y-75229861D01*
X116798543Y-75222585D01*
X116802909Y-75179969D01*
X116808500Y-75125400D01*
X116808500Y-74499600D01*
X116808163Y-74496350D01*
X116798238Y-74400692D01*
X116798237Y-74400688D01*
X116797526Y-74393834D01*
X116741550Y-74226054D01*
X116648478Y-74075652D01*
X116561891Y-73989216D01*
X116527812Y-73926934D01*
X116532815Y-73856114D01*
X116561736Y-73811025D01*
X116644134Y-73728483D01*
X116649305Y-73723303D01*
X116666666Y-73695139D01*
X116738275Y-73578968D01*
X116738276Y-73578966D01*
X116742115Y-73572738D01*
X116797797Y-73404861D01*
X116798887Y-73394229D01*
X116806141Y-73323422D01*
X116808500Y-73300400D01*
X116808500Y-72674600D01*
X116808163Y-72671350D01*
X116798238Y-72575692D01*
X116798237Y-72575688D01*
X116797526Y-72568834D01*
X116792638Y-72554181D01*
X116743868Y-72408002D01*
X116741550Y-72401054D01*
X116648478Y-72250652D01*
X116523303Y-72125695D01*
X116501758Y-72112414D01*
X116394853Y-72046517D01*
X116347360Y-71993745D01*
X116335936Y-71923673D01*
X116364210Y-71858549D01*
X116394664Y-71832115D01*
X116426689Y-71812297D01*
X116550617Y-71688153D01*
X116558330Y-71675641D01*
X116577434Y-71644647D01*
X116642661Y-71538829D01*
X116651354Y-71512620D01*
X116695719Y-71378866D01*
X116695719Y-71378864D01*
X116697885Y-71372335D01*
X116708500Y-71268731D01*
X116708499Y-70681270D01*
X116697616Y-70576371D01*
X116695437Y-70569840D01*
X116695436Y-70569835D01*
X116644420Y-70416922D01*
X116642102Y-70409974D01*
X116549797Y-70260811D01*
X116425653Y-70136883D01*
X116422413Y-70134886D01*
X116382186Y-70078148D01*
X116378953Y-70007225D01*
X116414578Y-69945813D01*
X116423078Y-69938434D01*
X116431552Y-69931718D01*
X116545051Y-69818021D01*
X116554063Y-69806610D01*
X116638365Y-69669846D01*
X116644509Y-69656668D01*
X116695227Y-69503760D01*
X116698093Y-69490394D01*
X116707672Y-69396899D01*
X116708000Y-69390484D01*
X116708000Y-69372115D01*
X116703525Y-69356876D01*
X116702135Y-69355671D01*
X116694452Y-69354000D01*
X115372000Y-69354000D01*
X115303879Y-69333998D01*
X115257386Y-69280342D01*
X115246000Y-69228000D01*
X115246000Y-68827885D01*
X115754000Y-68827885D01*
X115758475Y-68843124D01*
X115759865Y-68844329D01*
X115767548Y-68846000D01*
X116689884Y-68846000D01*
X116705123Y-68841525D01*
X116706328Y-68840135D01*
X116707999Y-68832452D01*
X116707999Y-68809567D01*
X116707662Y-68803048D01*
X116697834Y-68708330D01*
X116694942Y-68694936D01*
X116643964Y-68542135D01*
X116637790Y-68528957D01*
X116553256Y-68392351D01*
X116544220Y-68380950D01*
X116430521Y-68267449D01*
X116419110Y-68258437D01*
X116282346Y-68174135D01*
X116269168Y-68167991D01*
X116116260Y-68117273D01*
X116102894Y-68114407D01*
X116009399Y-68104828D01*
X116002984Y-68104500D01*
X115772115Y-68104500D01*
X115756876Y-68108975D01*
X115755671Y-68110365D01*
X115754000Y-68118048D01*
X115754000Y-68827885D01*
X115246000Y-68827885D01*
X115246000Y-68122616D01*
X115241525Y-68107377D01*
X115240135Y-68106172D01*
X115232452Y-68104501D01*
X114997067Y-68104501D01*
X114990548Y-68104838D01*
X114895830Y-68114666D01*
X114882436Y-68117558D01*
X114729635Y-68168536D01*
X114716457Y-68174710D01*
X114579851Y-68259244D01*
X114568450Y-68268280D01*
X114454949Y-68381979D01*
X114445937Y-68393390D01*
X114361635Y-68530154D01*
X114355492Y-68543329D01*
X114331746Y-68614919D01*
X114291315Y-68673279D01*
X114225751Y-68700515D01*
X114155869Y-68687981D01*
X114103857Y-68639656D01*
X114094171Y-68619480D01*
X114053768Y-68511705D01*
X114053767Y-68511704D01*
X114050615Y-68503295D01*
X114032852Y-68479594D01*
X114008004Y-68413088D01*
X114007863Y-68397209D01*
X114008000Y-68394682D01*
X114008000Y-68272115D01*
X114003525Y-68256876D01*
X114002135Y-68255671D01*
X113994452Y-68254000D01*
X113744986Y-68254000D01*
X113716835Y-68250699D01*
X113710316Y-68248255D01*
X113702468Y-68247402D01*
X113702466Y-68247402D01*
X113651531Y-68241869D01*
X113648134Y-68241500D01*
X111751866Y-68241500D01*
X111748469Y-68241869D01*
X111697534Y-68247402D01*
X111697532Y-68247402D01*
X111689684Y-68248255D01*
X111683165Y-68250699D01*
X111655014Y-68254000D01*
X111318115Y-68254000D01*
X111302876Y-68258475D01*
X111301671Y-68259865D01*
X111300000Y-68267548D01*
X111300000Y-68621836D01*
X111297912Y-68639647D01*
X111298255Y-68639684D01*
X111291500Y-68701866D01*
X111291500Y-69198134D01*
X111298255Y-69260316D01*
X111301027Y-69267709D01*
X111301027Y-69267711D01*
X111315295Y-69305771D01*
X111320478Y-69376578D01*
X111315295Y-69394229D01*
X111303891Y-69424649D01*
X111298255Y-69439684D01*
X111291500Y-69501866D01*
X111291500Y-69998134D01*
X111291869Y-70001531D01*
X111296574Y-70044839D01*
X111298255Y-70060316D01*
X111301027Y-70067709D01*
X111301027Y-70067711D01*
X111315295Y-70105771D01*
X111320478Y-70176578D01*
X111315295Y-70194229D01*
X111301027Y-70232289D01*
X111298255Y-70239684D01*
X111297402Y-70247532D01*
X111297402Y-70247534D01*
X111296522Y-70255638D01*
X111291500Y-70301866D01*
X111291500Y-70798134D01*
X111298255Y-70860316D01*
X111301027Y-70867709D01*
X111301027Y-70867711D01*
X111315295Y-70905771D01*
X111320478Y-70976578D01*
X111315295Y-70994229D01*
X111298255Y-71039684D01*
X111291500Y-71101866D01*
X111291500Y-71598134D01*
X111291869Y-71601531D01*
X111296995Y-71648713D01*
X111298255Y-71660316D01*
X111301027Y-71667709D01*
X111301027Y-71667711D01*
X111315295Y-71705771D01*
X111320478Y-71776578D01*
X111315295Y-71794229D01*
X111301027Y-71832289D01*
X111298255Y-71839684D01*
X111297402Y-71847532D01*
X111297402Y-71847534D01*
X111292382Y-71893746D01*
X111291500Y-71901866D01*
X111291500Y-72398134D01*
X111298255Y-72460316D01*
X111301027Y-72467709D01*
X111301027Y-72467711D01*
X111315295Y-72505771D01*
X111320478Y-72576578D01*
X111315295Y-72594229D01*
X111298255Y-72639684D01*
X111297402Y-72647532D01*
X111297402Y-72647534D01*
X111291869Y-72698469D01*
X111291500Y-72701866D01*
X111291500Y-73198134D01*
X111291869Y-73201531D01*
X111297300Y-73251522D01*
X111298255Y-73260316D01*
X111301027Y-73267709D01*
X111301027Y-73267711D01*
X111315295Y-73305771D01*
X111320478Y-73376578D01*
X111315295Y-73394229D01*
X111310820Y-73406166D01*
X111298255Y-73439684D01*
X111291500Y-73501866D01*
X111291500Y-73998134D01*
X111291869Y-74001531D01*
X111295694Y-74036737D01*
X111298255Y-74060316D01*
X111301027Y-74067709D01*
X111301027Y-74067711D01*
X111315295Y-74105771D01*
X111320478Y-74176578D01*
X111315295Y-74194229D01*
X111302912Y-74227262D01*
X111298255Y-74239684D01*
X111297402Y-74247532D01*
X111297402Y-74247534D01*
X111296231Y-74258315D01*
X111291500Y-74301866D01*
X111291500Y-74798134D01*
X111291869Y-74801531D01*
X111297064Y-74849348D01*
X111298255Y-74860316D01*
X111301027Y-74867709D01*
X111301027Y-74867711D01*
X111315295Y-74905771D01*
X111320478Y-74976578D01*
X111315295Y-74994229D01*
X111298255Y-75039684D01*
X111291500Y-75101866D01*
X111291500Y-75598134D01*
X111298255Y-75660316D01*
X111301027Y-75667709D01*
X111301027Y-75667711D01*
X111315295Y-75705771D01*
X111320478Y-75776578D01*
X111315295Y-75794229D01*
X111309802Y-75808882D01*
X111298255Y-75839684D01*
X111291500Y-75901866D01*
X111291500Y-76398134D01*
X111298255Y-76460316D01*
X111301027Y-76467709D01*
X111301027Y-76467711D01*
X111315295Y-76505771D01*
X111320478Y-76576578D01*
X111315295Y-76594229D01*
X111301027Y-76632289D01*
X111298255Y-76639684D01*
X111291500Y-76701866D01*
X111291500Y-76815500D01*
X111271498Y-76883621D01*
X111217842Y-76930114D01*
X111165500Y-76941500D01*
X110851866Y-76941500D01*
X110848469Y-76941869D01*
X110797534Y-76947402D01*
X110797532Y-76947402D01*
X110789684Y-76948255D01*
X110782291Y-76951027D01*
X110782289Y-76951027D01*
X110744229Y-76965295D01*
X110673422Y-76970478D01*
X110655771Y-76965295D01*
X110617711Y-76951027D01*
X110617709Y-76951027D01*
X110610316Y-76948255D01*
X110602468Y-76947402D01*
X110602466Y-76947402D01*
X110551531Y-76941869D01*
X110548134Y-76941500D01*
X110051866Y-76941500D01*
X110048469Y-76941869D01*
X109997534Y-76947402D01*
X109997532Y-76947402D01*
X109989684Y-76948255D01*
X109982291Y-76951027D01*
X109982289Y-76951027D01*
X109944229Y-76965295D01*
X109873422Y-76970478D01*
X109855771Y-76965295D01*
X109817711Y-76951027D01*
X109817709Y-76951027D01*
X109810316Y-76948255D01*
X109802468Y-76947402D01*
X109802466Y-76947402D01*
X109751531Y-76941869D01*
X109748134Y-76941500D01*
X109251866Y-76941500D01*
X109248469Y-76941869D01*
X109197534Y-76947402D01*
X109197532Y-76947402D01*
X109189684Y-76948255D01*
X109182291Y-76951027D01*
X109182289Y-76951027D01*
X109144229Y-76965295D01*
X109073422Y-76970478D01*
X109055771Y-76965295D01*
X109017711Y-76951027D01*
X109017709Y-76951027D01*
X109010316Y-76948255D01*
X109002468Y-76947402D01*
X109002466Y-76947402D01*
X108951531Y-76941869D01*
X108948134Y-76941500D01*
X108451866Y-76941500D01*
X108448469Y-76941869D01*
X108397534Y-76947402D01*
X108397532Y-76947402D01*
X108389684Y-76948255D01*
X108382291Y-76951027D01*
X108382289Y-76951027D01*
X108344229Y-76965295D01*
X108273422Y-76970478D01*
X108255771Y-76965295D01*
X108217711Y-76951027D01*
X108217709Y-76951027D01*
X108210316Y-76948255D01*
X108202468Y-76947402D01*
X108202466Y-76947402D01*
X108151531Y-76941869D01*
X108148134Y-76941500D01*
X107651866Y-76941500D01*
X107648469Y-76941869D01*
X107597534Y-76947402D01*
X107597532Y-76947402D01*
X107589684Y-76948255D01*
X107582291Y-76951027D01*
X107582289Y-76951027D01*
X107544229Y-76965295D01*
X107473422Y-76970478D01*
X107455771Y-76965295D01*
X107417711Y-76951027D01*
X107417709Y-76951027D01*
X107410316Y-76948255D01*
X107402468Y-76947402D01*
X107402466Y-76947402D01*
X107351531Y-76941869D01*
X107348134Y-76941500D01*
X107116216Y-76941500D01*
X107048095Y-76921498D01*
X107001602Y-76867842D01*
X106991498Y-76797568D01*
X106992029Y-76794584D01*
X106993542Y-76789928D01*
X107013504Y-76600000D01*
X107008249Y-76550000D01*
X106994232Y-76416635D01*
X106994232Y-76416633D01*
X106993542Y-76410072D01*
X106934527Y-76228444D01*
X106839040Y-76063056D01*
X106793790Y-76012800D01*
X106715675Y-75926045D01*
X106715674Y-75926044D01*
X106711253Y-75921134D01*
X106556752Y-75808882D01*
X106550724Y-75806198D01*
X106550722Y-75806197D01*
X106388319Y-75733891D01*
X106388318Y-75733891D01*
X106382288Y-75731206D01*
X106288888Y-75711353D01*
X106201944Y-75692872D01*
X106201939Y-75692872D01*
X106195487Y-75691500D01*
X106004513Y-75691500D01*
X105998061Y-75692872D01*
X105998056Y-75692872D01*
X105911112Y-75711353D01*
X105817712Y-75731206D01*
X105811682Y-75733891D01*
X105811681Y-75733891D01*
X105649278Y-75806197D01*
X105649276Y-75806198D01*
X105643248Y-75808882D01*
X105494092Y-75917251D01*
X105493837Y-75917436D01*
X105426969Y-75941294D01*
X105419776Y-75941500D01*
X105408568Y-75941500D01*
X105404168Y-75942056D01*
X105392336Y-75942988D01*
X105346169Y-75944438D01*
X105325579Y-75950420D01*
X105306218Y-75954430D01*
X105299230Y-75955312D01*
X105292796Y-75956125D01*
X105292795Y-75956125D01*
X105284936Y-75957118D01*
X105277571Y-75960034D01*
X105277567Y-75960035D01*
X105241979Y-75974126D01*
X105230769Y-75977965D01*
X105186400Y-75990855D01*
X105167943Y-76001771D01*
X105150193Y-76010466D01*
X105130244Y-76018365D01*
X105123833Y-76023023D01*
X105123831Y-76023024D01*
X105092864Y-76045523D01*
X105082946Y-76052038D01*
X105043193Y-76075548D01*
X105028032Y-76090709D01*
X105013000Y-76103548D01*
X104995643Y-76116159D01*
X104980811Y-76134088D01*
X104966198Y-76151752D01*
X104958208Y-76160533D01*
X104292391Y-76826349D01*
X104283612Y-76834337D01*
X104276920Y-76838584D01*
X104271495Y-76844361D01*
X104228395Y-76890258D01*
X104225640Y-76893100D01*
X104214145Y-76904595D01*
X104151833Y-76938621D01*
X104125050Y-76941500D01*
X103651866Y-76941500D01*
X103648469Y-76941869D01*
X103597534Y-76947402D01*
X103597532Y-76947402D01*
X103589684Y-76948255D01*
X103582291Y-76951027D01*
X103582289Y-76951027D01*
X103544229Y-76965295D01*
X103473422Y-76970478D01*
X103455771Y-76965295D01*
X103417711Y-76951027D01*
X103417709Y-76951027D01*
X103410316Y-76948255D01*
X103402468Y-76947402D01*
X103402466Y-76947402D01*
X103351531Y-76941869D01*
X103348134Y-76941500D01*
X102851866Y-76941500D01*
X102848469Y-76941869D01*
X102797534Y-76947402D01*
X102797532Y-76947402D01*
X102789684Y-76948255D01*
X102782291Y-76951027D01*
X102782289Y-76951027D01*
X102744229Y-76965295D01*
X102673422Y-76970478D01*
X102655771Y-76965295D01*
X102617711Y-76951027D01*
X102617709Y-76951027D01*
X102610316Y-76948255D01*
X102602468Y-76947402D01*
X102602466Y-76947402D01*
X102551531Y-76941869D01*
X102548134Y-76941500D01*
X102051866Y-76941500D01*
X102048469Y-76941869D01*
X101997534Y-76947402D01*
X101997532Y-76947402D01*
X101989684Y-76948255D01*
X101982291Y-76951027D01*
X101982289Y-76951027D01*
X101944229Y-76965295D01*
X101873422Y-76970478D01*
X101855771Y-76965295D01*
X101817711Y-76951027D01*
X101817709Y-76951027D01*
X101810316Y-76948255D01*
X101802468Y-76947402D01*
X101802466Y-76947402D01*
X101751531Y-76941869D01*
X101748134Y-76941500D01*
X101434500Y-76941500D01*
X101366379Y-76921498D01*
X101319886Y-76867842D01*
X101308500Y-76815500D01*
X101308500Y-76701866D01*
X101301745Y-76639684D01*
X101298973Y-76632289D01*
X101284705Y-76594229D01*
X101279522Y-76523422D01*
X101284705Y-76505771D01*
X101298973Y-76467711D01*
X101298973Y-76467709D01*
X101301745Y-76460316D01*
X101308500Y-76398134D01*
X101308500Y-76134088D01*
X101328502Y-76065967D01*
X101382158Y-76019474D01*
X101451164Y-76009195D01*
X101467731Y-76011406D01*
X101475982Y-76012507D01*
X101475984Y-76012507D01*
X101482961Y-76013438D01*
X101489972Y-76012800D01*
X101489976Y-76012800D01*
X101632459Y-75999832D01*
X101663600Y-75996998D01*
X101670302Y-75994820D01*
X101670304Y-75994820D01*
X101829409Y-75943124D01*
X101829412Y-75943123D01*
X101836108Y-75940947D01*
X101932513Y-75883478D01*
X101985860Y-75851677D01*
X101985862Y-75851676D01*
X101991912Y-75848069D01*
X102123266Y-75722982D01*
X102223643Y-75571902D01*
X102273881Y-75439652D01*
X102285555Y-75408920D01*
X102285556Y-75408918D01*
X102288055Y-75402338D01*
X102289035Y-75395366D01*
X102289037Y-75395358D01*
X102291859Y-75375280D01*
X102321148Y-75310606D01*
X102327537Y-75303723D01*
X103163454Y-74467806D01*
X105147361Y-74467806D01*
X105154751Y-74478108D01*
X105196630Y-74512203D01*
X105203909Y-74517318D01*
X105427756Y-74652085D01*
X105435670Y-74656118D01*
X105676286Y-74758006D01*
X105684691Y-74760883D01*
X105937257Y-74827850D01*
X105945989Y-74829516D01*
X106205474Y-74860227D01*
X106214340Y-74860645D01*
X106475561Y-74854490D01*
X106484414Y-74853653D01*
X106742162Y-74810752D01*
X106750796Y-74808679D01*
X106999930Y-74729888D01*
X107008192Y-74726617D01*
X107243731Y-74613513D01*
X107251455Y-74609107D01*
X107445268Y-74479606D01*
X107453556Y-74469688D01*
X107446299Y-74455509D01*
X106312812Y-73322022D01*
X106298868Y-73314408D01*
X106297035Y-73314539D01*
X106290420Y-73318790D01*
X105154527Y-74454683D01*
X105147361Y-74467806D01*
X103163454Y-74467806D01*
X103307605Y-74323655D01*
X103316385Y-74315665D01*
X103316387Y-74315663D01*
X103323080Y-74311416D01*
X103371605Y-74259742D01*
X103374359Y-74256901D01*
X103394927Y-74236333D01*
X103397647Y-74232826D01*
X103405353Y-74223804D01*
X103407956Y-74221032D01*
X103436972Y-74190133D01*
X103444424Y-74176578D01*
X103447303Y-74171342D01*
X103458157Y-74154818D01*
X103466445Y-74144132D01*
X103471304Y-74137868D01*
X103477555Y-74123423D01*
X103489654Y-74095465D01*
X103494876Y-74084805D01*
X103513305Y-74051284D01*
X103513306Y-74051282D01*
X103517124Y-74044337D01*
X103522459Y-74023559D01*
X103528858Y-74004869D01*
X103537380Y-73985176D01*
X103544606Y-73939552D01*
X103547013Y-73927929D01*
X103556528Y-73890868D01*
X103558500Y-73883188D01*
X103558500Y-73861741D01*
X103560051Y-73842031D01*
X103562166Y-73828677D01*
X103563406Y-73820848D01*
X103559059Y-73774859D01*
X103558500Y-73763004D01*
X103558500Y-72894367D01*
X104388245Y-72894367D01*
X104398503Y-73155459D01*
X104399478Y-73164288D01*
X104446422Y-73421332D01*
X104448631Y-73429934D01*
X104531324Y-73677796D01*
X104534728Y-73686014D01*
X104651519Y-73919750D01*
X104656043Y-73927398D01*
X104771352Y-74094235D01*
X104781673Y-74102589D01*
X104795323Y-74095467D01*
X105927978Y-72962812D01*
X105934356Y-72951132D01*
X106664408Y-72951132D01*
X106664539Y-72952965D01*
X106668790Y-72959580D01*
X107805517Y-74096307D01*
X107818917Y-74103624D01*
X107828821Y-74096637D01*
X107844686Y-74077763D01*
X107849905Y-74070580D01*
X107988171Y-73848876D01*
X107992333Y-73841017D01*
X108097988Y-73602030D01*
X108100994Y-73593680D01*
X108171921Y-73342192D01*
X108173722Y-73333499D01*
X108208672Y-73073292D01*
X108209200Y-73066899D01*
X108212773Y-72953222D01*
X108212646Y-72946779D01*
X108194106Y-72684923D01*
X108192853Y-72676119D01*
X108137858Y-72420677D01*
X108135379Y-72412144D01*
X108044941Y-72167002D01*
X108041286Y-72158907D01*
X107917206Y-71928947D01*
X107912447Y-71921449D01*
X107827759Y-71806790D01*
X107816631Y-71798348D01*
X107804038Y-71805172D01*
X106672022Y-72937188D01*
X106664408Y-72951132D01*
X105934356Y-72951132D01*
X105935592Y-72948868D01*
X105935461Y-72947035D01*
X105931210Y-72940420D01*
X104795819Y-71805029D01*
X104782978Y-71798017D01*
X104772289Y-71805813D01*
X104720663Y-71871299D01*
X104715658Y-71878663D01*
X104584420Y-72104605D01*
X104580516Y-72112575D01*
X104482420Y-72354763D01*
X104479676Y-72363207D01*
X104416683Y-72616800D01*
X104415156Y-72625551D01*
X104388524Y-72885483D01*
X104388245Y-72894367D01*
X103558500Y-72894367D01*
X103558500Y-72682056D01*
X103559059Y-72670200D01*
X103559059Y-72670197D01*
X103560788Y-72662463D01*
X103558562Y-72591631D01*
X103558500Y-72587673D01*
X103558500Y-72558568D01*
X103557944Y-72554168D01*
X103557012Y-72542330D01*
X103555811Y-72504094D01*
X103555562Y-72496169D01*
X103549580Y-72475579D01*
X103545570Y-72456216D01*
X103543875Y-72442796D01*
X103543875Y-72442795D01*
X103542882Y-72434936D01*
X103539966Y-72427571D01*
X103539965Y-72427567D01*
X103525874Y-72391979D01*
X103522035Y-72380769D01*
X103509145Y-72336400D01*
X103498225Y-72317935D01*
X103489534Y-72300195D01*
X103481635Y-72280244D01*
X103454482Y-72242871D01*
X103447967Y-72232952D01*
X103428493Y-72200023D01*
X103428490Y-72200019D01*
X103424453Y-72193193D01*
X103409289Y-72178029D01*
X103396448Y-72162995D01*
X103388501Y-72152057D01*
X103383841Y-72145643D01*
X103348247Y-72116197D01*
X103339468Y-72108208D01*
X102973655Y-71742395D01*
X102965665Y-71733615D01*
X102965663Y-71733613D01*
X102961416Y-71726920D01*
X102909742Y-71678395D01*
X102906901Y-71675641D01*
X102886333Y-71655073D01*
X102882826Y-71652353D01*
X102873804Y-71644647D01*
X102845913Y-71618456D01*
X102840133Y-71613028D01*
X102833181Y-71609206D01*
X102821342Y-71602697D01*
X102804818Y-71591843D01*
X102794132Y-71583555D01*
X102787868Y-71578696D01*
X102780596Y-71575549D01*
X102780594Y-71575548D01*
X102745465Y-71560346D01*
X102734805Y-71555124D01*
X102701284Y-71536695D01*
X102701282Y-71536694D01*
X102694337Y-71532876D01*
X102673559Y-71527541D01*
X102654869Y-71521142D01*
X102635176Y-71512620D01*
X102589552Y-71505394D01*
X102577929Y-71502987D01*
X102549928Y-71495798D01*
X102533188Y-71491500D01*
X102511741Y-71491500D01*
X102492031Y-71489949D01*
X102478677Y-71487834D01*
X102470848Y-71486594D01*
X102424859Y-71490941D01*
X102413004Y-71491500D01*
X101434500Y-71491500D01*
X101366379Y-71471498D01*
X101332750Y-71432688D01*
X105148045Y-71432688D01*
X105155025Y-71445815D01*
X106287188Y-72577978D01*
X106301132Y-72585592D01*
X106302965Y-72585461D01*
X106309580Y-72581210D01*
X107444804Y-71445986D01*
X107451658Y-71433434D01*
X107443450Y-71422363D01*
X107353762Y-71353916D01*
X107346313Y-71349023D01*
X107118353Y-71221359D01*
X107110303Y-71217571D01*
X106866617Y-71123295D01*
X106858127Y-71120683D01*
X106603578Y-71061683D01*
X106594800Y-71060293D01*
X106334478Y-71037746D01*
X106325607Y-71037606D01*
X106064696Y-71051965D01*
X106055886Y-71053079D01*
X105799607Y-71104055D01*
X105791050Y-71106396D01*
X105544496Y-71192980D01*
X105536362Y-71196500D01*
X105304477Y-71316955D01*
X105296905Y-71321594D01*
X105156447Y-71421967D01*
X105148045Y-71432688D01*
X101332750Y-71432688D01*
X101319886Y-71417842D01*
X101308500Y-71365500D01*
X101308500Y-71101866D01*
X101301745Y-71039684D01*
X101284705Y-70994229D01*
X101279522Y-70923422D01*
X101284705Y-70905771D01*
X101298973Y-70867711D01*
X101298973Y-70867709D01*
X101301745Y-70860316D01*
X101308500Y-70798134D01*
X101308500Y-70301866D01*
X101301745Y-70239684D01*
X101284438Y-70193518D01*
X101279255Y-70122711D01*
X101284438Y-70105058D01*
X101298478Y-70067606D01*
X101302105Y-70052351D01*
X101307631Y-70001486D01*
X101308000Y-69994672D01*
X101308000Y-69968115D01*
X101303525Y-69952876D01*
X101302135Y-69951671D01*
X101294452Y-69950000D01*
X101156216Y-69950000D01*
X101088095Y-69929998D01*
X101080651Y-69924826D01*
X101053892Y-69904771D01*
X101053890Y-69904770D01*
X101046705Y-69899385D01*
X100910316Y-69848255D01*
X100848134Y-69841500D01*
X100205976Y-69841500D01*
X100166525Y-69834401D01*
X100166192Y-69834231D01*
X99994390Y-69792192D01*
X99988788Y-69791844D01*
X99988785Y-69791844D01*
X99985175Y-69791620D01*
X99985165Y-69791620D01*
X99983236Y-69791500D01*
X99826000Y-69791500D01*
X99757879Y-69771498D01*
X99711386Y-69717842D01*
X99700000Y-69665500D01*
X99700000Y-69531885D01*
X100100000Y-69531885D01*
X100104475Y-69547124D01*
X100105865Y-69548329D01*
X100113548Y-69550000D01*
X101289884Y-69550000D01*
X101305123Y-69545525D01*
X101306328Y-69544135D01*
X101307999Y-69536452D01*
X101307999Y-69505331D01*
X101307629Y-69498510D01*
X101302105Y-69447648D01*
X101298479Y-69432397D01*
X101284171Y-69394230D01*
X101278988Y-69323423D01*
X101284171Y-69305770D01*
X101298478Y-69267606D01*
X101302105Y-69252351D01*
X101307631Y-69201486D01*
X101308000Y-69194672D01*
X101308000Y-69168115D01*
X101303525Y-69152876D01*
X101302135Y-69151671D01*
X101294452Y-69150000D01*
X100118115Y-69150000D01*
X100102876Y-69154475D01*
X100101671Y-69155865D01*
X100100000Y-69163548D01*
X100100000Y-69531885D01*
X99700000Y-69531885D01*
X99700000Y-68939884D01*
X101700000Y-68939884D01*
X101704475Y-68955123D01*
X101705865Y-68956328D01*
X101713548Y-68957999D01*
X101744669Y-68957999D01*
X101751490Y-68957629D01*
X101802352Y-68952105D01*
X101817603Y-68948479D01*
X101855770Y-68934171D01*
X101926577Y-68928988D01*
X101944230Y-68934171D01*
X101982394Y-68948478D01*
X101997649Y-68952105D01*
X102048514Y-68957631D01*
X102055328Y-68958000D01*
X102081885Y-68958000D01*
X102097124Y-68953525D01*
X102098329Y-68952135D01*
X102100000Y-68944452D01*
X102100000Y-68939884D01*
X102500000Y-68939884D01*
X102504475Y-68955123D01*
X102505865Y-68956328D01*
X102513548Y-68957999D01*
X102544669Y-68957999D01*
X102551490Y-68957629D01*
X102602352Y-68952105D01*
X102617603Y-68948479D01*
X102655770Y-68934171D01*
X102726577Y-68928988D01*
X102744230Y-68934171D01*
X102782394Y-68948478D01*
X102797649Y-68952105D01*
X102848514Y-68957631D01*
X102855328Y-68958000D01*
X102881885Y-68958000D01*
X102897124Y-68953525D01*
X102898329Y-68952135D01*
X102900000Y-68944452D01*
X102900000Y-68939884D01*
X103300000Y-68939884D01*
X103304475Y-68955123D01*
X103305865Y-68956328D01*
X103313548Y-68957999D01*
X103344669Y-68957999D01*
X103351490Y-68957629D01*
X103402352Y-68952105D01*
X103417603Y-68948479D01*
X103455770Y-68934171D01*
X103526577Y-68928988D01*
X103544230Y-68934171D01*
X103582394Y-68948478D01*
X103597649Y-68952105D01*
X103648514Y-68957631D01*
X103655328Y-68958000D01*
X103681885Y-68958000D01*
X103697124Y-68953525D01*
X103698329Y-68952135D01*
X103700000Y-68944452D01*
X103700000Y-68939884D01*
X104100000Y-68939884D01*
X104104475Y-68955123D01*
X104105865Y-68956328D01*
X104113548Y-68957999D01*
X104144669Y-68957999D01*
X104151490Y-68957629D01*
X104202352Y-68952105D01*
X104217603Y-68948479D01*
X104255770Y-68934171D01*
X104326577Y-68928988D01*
X104344230Y-68934171D01*
X104382394Y-68948478D01*
X104397649Y-68952105D01*
X104448514Y-68957631D01*
X104455328Y-68958000D01*
X104481885Y-68958000D01*
X104497124Y-68953525D01*
X104498329Y-68952135D01*
X104500000Y-68944452D01*
X104500000Y-68939884D01*
X104900000Y-68939884D01*
X104904475Y-68955123D01*
X104905865Y-68956328D01*
X104913548Y-68957999D01*
X104944669Y-68957999D01*
X104951490Y-68957629D01*
X105002352Y-68952105D01*
X105017603Y-68948479D01*
X105055770Y-68934171D01*
X105126577Y-68928988D01*
X105144230Y-68934171D01*
X105182394Y-68948478D01*
X105197649Y-68952105D01*
X105248514Y-68957631D01*
X105255328Y-68958000D01*
X105281885Y-68958000D01*
X105297124Y-68953525D01*
X105298329Y-68952135D01*
X105300000Y-68944452D01*
X105300000Y-68939884D01*
X105700000Y-68939884D01*
X105704475Y-68955123D01*
X105705865Y-68956328D01*
X105713548Y-68957999D01*
X105744669Y-68957999D01*
X105751490Y-68957629D01*
X105802352Y-68952105D01*
X105817603Y-68948479D01*
X105855770Y-68934171D01*
X105926577Y-68928988D01*
X105944230Y-68934171D01*
X105982394Y-68948478D01*
X105997649Y-68952105D01*
X106048514Y-68957631D01*
X106055328Y-68958000D01*
X106081885Y-68958000D01*
X106097124Y-68953525D01*
X106098329Y-68952135D01*
X106100000Y-68944452D01*
X106100000Y-68939884D01*
X106500000Y-68939884D01*
X106504475Y-68955123D01*
X106505865Y-68956328D01*
X106513548Y-68957999D01*
X106544669Y-68957999D01*
X106551490Y-68957629D01*
X106602352Y-68952105D01*
X106617603Y-68948479D01*
X106655770Y-68934171D01*
X106726577Y-68928988D01*
X106744230Y-68934171D01*
X106782394Y-68948478D01*
X106797649Y-68952105D01*
X106848514Y-68957631D01*
X106855328Y-68958000D01*
X106881885Y-68958000D01*
X106897124Y-68953525D01*
X106898329Y-68952135D01*
X106900000Y-68944452D01*
X106900000Y-68939884D01*
X107300000Y-68939884D01*
X107304475Y-68955123D01*
X107305865Y-68956328D01*
X107313548Y-68957999D01*
X107344669Y-68957999D01*
X107351490Y-68957629D01*
X107402352Y-68952105D01*
X107417603Y-68948479D01*
X107455770Y-68934171D01*
X107526577Y-68928988D01*
X107544230Y-68934171D01*
X107582394Y-68948478D01*
X107597649Y-68952105D01*
X107648514Y-68957631D01*
X107655328Y-68958000D01*
X107681885Y-68958000D01*
X107697124Y-68953525D01*
X107698329Y-68952135D01*
X107700000Y-68944452D01*
X107700000Y-68939884D01*
X108100000Y-68939884D01*
X108104475Y-68955123D01*
X108105865Y-68956328D01*
X108113548Y-68957999D01*
X108144669Y-68957999D01*
X108151490Y-68957629D01*
X108202352Y-68952105D01*
X108217603Y-68948479D01*
X108255770Y-68934171D01*
X108326577Y-68928988D01*
X108344230Y-68934171D01*
X108382394Y-68948478D01*
X108397649Y-68952105D01*
X108448514Y-68957631D01*
X108455328Y-68958000D01*
X108481885Y-68958000D01*
X108497124Y-68953525D01*
X108498329Y-68952135D01*
X108500000Y-68944452D01*
X108500000Y-68939884D01*
X108900000Y-68939884D01*
X108904475Y-68955123D01*
X108905865Y-68956328D01*
X108913548Y-68957999D01*
X108944669Y-68957999D01*
X108951490Y-68957629D01*
X109002352Y-68952105D01*
X109017603Y-68948479D01*
X109055770Y-68934171D01*
X109126577Y-68928988D01*
X109144230Y-68934171D01*
X109182394Y-68948478D01*
X109197649Y-68952105D01*
X109248514Y-68957631D01*
X109255328Y-68958000D01*
X109281885Y-68958000D01*
X109297124Y-68953525D01*
X109298329Y-68952135D01*
X109300000Y-68944452D01*
X109300000Y-68939884D01*
X109700000Y-68939884D01*
X109704475Y-68955123D01*
X109705865Y-68956328D01*
X109713548Y-68957999D01*
X109744669Y-68957999D01*
X109751490Y-68957629D01*
X109802352Y-68952105D01*
X109817603Y-68948479D01*
X109855770Y-68934171D01*
X109926577Y-68928988D01*
X109944230Y-68934171D01*
X109982394Y-68948478D01*
X109997649Y-68952105D01*
X110048514Y-68957631D01*
X110055328Y-68958000D01*
X110081885Y-68958000D01*
X110097124Y-68953525D01*
X110098329Y-68952135D01*
X110100000Y-68944452D01*
X110100000Y-68939884D01*
X110500000Y-68939884D01*
X110504475Y-68955123D01*
X110505865Y-68956328D01*
X110513548Y-68957999D01*
X110544669Y-68957999D01*
X110551490Y-68957629D01*
X110602352Y-68952105D01*
X110617603Y-68948479D01*
X110655770Y-68934171D01*
X110726577Y-68928988D01*
X110744230Y-68934171D01*
X110782394Y-68948478D01*
X110797649Y-68952105D01*
X110848514Y-68957631D01*
X110855328Y-68958000D01*
X110881885Y-68958000D01*
X110897124Y-68953525D01*
X110898329Y-68952135D01*
X110900000Y-68944452D01*
X110900000Y-68268115D01*
X110895525Y-68252876D01*
X110894135Y-68251671D01*
X110886452Y-68250000D01*
X110518115Y-68250000D01*
X110502876Y-68254475D01*
X110501671Y-68255865D01*
X110500000Y-68263548D01*
X110500000Y-68939884D01*
X110100000Y-68939884D01*
X110100000Y-68268115D01*
X110095525Y-68252876D01*
X110094135Y-68251671D01*
X110086452Y-68250000D01*
X109718115Y-68250000D01*
X109702876Y-68254475D01*
X109701671Y-68255865D01*
X109700000Y-68263548D01*
X109700000Y-68939884D01*
X109300000Y-68939884D01*
X109300000Y-68268115D01*
X109295525Y-68252876D01*
X109294135Y-68251671D01*
X109286452Y-68250000D01*
X108918115Y-68250000D01*
X108902876Y-68254475D01*
X108901671Y-68255865D01*
X108900000Y-68263548D01*
X108900000Y-68939884D01*
X108500000Y-68939884D01*
X108500000Y-68268115D01*
X108495525Y-68252876D01*
X108494135Y-68251671D01*
X108486452Y-68250000D01*
X108118115Y-68250000D01*
X108102876Y-68254475D01*
X108101671Y-68255865D01*
X108100000Y-68263548D01*
X108100000Y-68939884D01*
X107700000Y-68939884D01*
X107700000Y-68268115D01*
X107695525Y-68252876D01*
X107694135Y-68251671D01*
X107686452Y-68250000D01*
X107318115Y-68250000D01*
X107302876Y-68254475D01*
X107301671Y-68255865D01*
X107300000Y-68263548D01*
X107300000Y-68939884D01*
X106900000Y-68939884D01*
X106900000Y-68268115D01*
X106895525Y-68252876D01*
X106894135Y-68251671D01*
X106886452Y-68250000D01*
X106518115Y-68250000D01*
X106502876Y-68254475D01*
X106501671Y-68255865D01*
X106500000Y-68263548D01*
X106500000Y-68939884D01*
X106100000Y-68939884D01*
X106100000Y-68268115D01*
X106095525Y-68252876D01*
X106094135Y-68251671D01*
X106086452Y-68250000D01*
X105718115Y-68250000D01*
X105702876Y-68254475D01*
X105701671Y-68255865D01*
X105700000Y-68263548D01*
X105700000Y-68939884D01*
X105300000Y-68939884D01*
X105300000Y-68268115D01*
X105295525Y-68252876D01*
X105294135Y-68251671D01*
X105286452Y-68250000D01*
X104918115Y-68250000D01*
X104902876Y-68254475D01*
X104901671Y-68255865D01*
X104900000Y-68263548D01*
X104900000Y-68939884D01*
X104500000Y-68939884D01*
X104500000Y-68268115D01*
X104495525Y-68252876D01*
X104494135Y-68251671D01*
X104486452Y-68250000D01*
X104118115Y-68250000D01*
X104102876Y-68254475D01*
X104101671Y-68255865D01*
X104100000Y-68263548D01*
X104100000Y-68939884D01*
X103700000Y-68939884D01*
X103700000Y-68268115D01*
X103695525Y-68252876D01*
X103694135Y-68251671D01*
X103686452Y-68250000D01*
X103318115Y-68250000D01*
X103302876Y-68254475D01*
X103301671Y-68255865D01*
X103300000Y-68263548D01*
X103300000Y-68939884D01*
X102900000Y-68939884D01*
X102900000Y-68268115D01*
X102895525Y-68252876D01*
X102894135Y-68251671D01*
X102886452Y-68250000D01*
X102518115Y-68250000D01*
X102502876Y-68254475D01*
X102501671Y-68255865D01*
X102500000Y-68263548D01*
X102500000Y-68939884D01*
X102100000Y-68939884D01*
X102100000Y-68268115D01*
X102095525Y-68252876D01*
X102094135Y-68251671D01*
X102086452Y-68250000D01*
X101718115Y-68250000D01*
X101702876Y-68254475D01*
X101701671Y-68255865D01*
X101700000Y-68263548D01*
X101700000Y-68939884D01*
X99700000Y-68939884D01*
X99700000Y-68912197D01*
X99696000Y-68884377D01*
X99696000Y-68731885D01*
X100204000Y-68731885D01*
X100208475Y-68747124D01*
X100209865Y-68748329D01*
X100217548Y-68750000D01*
X101281885Y-68750000D01*
X101297124Y-68745525D01*
X101298329Y-68744135D01*
X101300000Y-68736452D01*
X101300000Y-68272115D01*
X101295525Y-68256876D01*
X101294135Y-68255671D01*
X101286452Y-68254000D01*
X100222115Y-68254000D01*
X100206876Y-68258475D01*
X100205671Y-68259865D01*
X100204000Y-68267548D01*
X100204000Y-68731885D01*
X99696000Y-68731885D01*
X99696000Y-67872000D01*
X99716002Y-67803879D01*
X99769658Y-67757386D01*
X99822000Y-67746000D01*
X101228460Y-67746000D01*
X101296581Y-67766002D01*
X101343074Y-67819658D01*
X101349356Y-67836503D01*
X101352474Y-67847124D01*
X101353865Y-67848329D01*
X101361548Y-67850000D01*
X111233885Y-67850000D01*
X111249124Y-67845525D01*
X111251292Y-67843024D01*
X111284117Y-67782906D01*
X111346429Y-67748880D01*
X111373214Y-67746000D01*
X113989884Y-67746000D01*
X114005123Y-67741525D01*
X114006328Y-67740135D01*
X114007999Y-67732452D01*
X114007999Y-67626000D01*
X114028001Y-67557879D01*
X114081657Y-67511386D01*
X114133999Y-67500000D01*
X118365500Y-67500000D01*
X118433621Y-67520002D01*
G37*
%TD.AperFunction*%
%TA.AperFunction,Conductor*%
G36*
X111522121Y-89628502D02*
G01*
X111568614Y-89682158D01*
X111580000Y-89734500D01*
X111580000Y-90022000D01*
X111559998Y-90090121D01*
X111506342Y-90136614D01*
X111454000Y-90148000D01*
X111406000Y-90148000D01*
X111337879Y-90127998D01*
X111291386Y-90074342D01*
X111280000Y-90022000D01*
X111280000Y-89734500D01*
X111300002Y-89666379D01*
X111353658Y-89619886D01*
X111406000Y-89608500D01*
X111454000Y-89608500D01*
X111522121Y-89628502D01*
G37*
%TD.AperFunction*%
%TA.AperFunction,Conductor*%
G36*
X106891687Y-84435572D02*
G01*
X106899062Y-84444068D01*
X106907098Y-84454207D01*
X107021829Y-84568739D01*
X107038985Y-84582288D01*
X107037667Y-84583957D01*
X107078132Y-84628925D01*
X107089552Y-84698997D01*
X107072975Y-84747542D01*
X106990855Y-84886399D01*
X106944438Y-85046169D01*
X106943934Y-85052574D01*
X106943933Y-85052579D01*
X106942482Y-85071018D01*
X106941500Y-85083498D01*
X106941500Y-86241502D01*
X106944438Y-86278831D01*
X106956953Y-86321908D01*
X106986253Y-86422759D01*
X106990855Y-86438601D01*
X107075547Y-86581807D01*
X107081156Y-86587416D01*
X107085399Y-86592886D01*
X107111346Y-86658971D01*
X107097445Y-86728594D01*
X107059554Y-86770116D01*
X107054000Y-86782370D01*
X107054000Y-87020158D01*
X107036453Y-87084297D01*
X107030908Y-87093673D01*
X106990855Y-87161399D01*
X106988644Y-87169010D01*
X106988643Y-87169012D01*
X106978763Y-87203021D01*
X106944438Y-87321169D01*
X106943934Y-87327574D01*
X106943933Y-87327579D01*
X106941994Y-87352219D01*
X106941500Y-87358498D01*
X106941500Y-88065500D01*
X106921498Y-88133621D01*
X106867842Y-88180114D01*
X106815500Y-88191500D01*
X106784500Y-88191500D01*
X106716379Y-88171498D01*
X106669886Y-88117842D01*
X106658500Y-88065500D01*
X106658500Y-87358498D01*
X106658006Y-87352219D01*
X106656067Y-87327579D01*
X106656066Y-87327574D01*
X106655562Y-87321169D01*
X106621237Y-87203021D01*
X106611357Y-87169012D01*
X106611356Y-87169010D01*
X106609145Y-87161399D01*
X106569092Y-87093673D01*
X106563547Y-87084297D01*
X106546000Y-87020158D01*
X106546000Y-86788122D01*
X106541526Y-86772884D01*
X106532118Y-86764732D01*
X106493734Y-86705006D01*
X106493734Y-86634010D01*
X106515071Y-86592280D01*
X106518845Y-86587415D01*
X106524453Y-86581807D01*
X106528489Y-86574983D01*
X106528491Y-86574980D01*
X106605108Y-86445427D01*
X106609145Y-86438601D01*
X106613748Y-86422759D01*
X106643047Y-86321908D01*
X106655562Y-86278831D01*
X106658500Y-86241502D01*
X106658500Y-85083498D01*
X106657518Y-85071018D01*
X106656067Y-85052579D01*
X106656066Y-85052574D01*
X106655562Y-85046169D01*
X106653768Y-85039993D01*
X106653767Y-85039989D01*
X106613503Y-84901398D01*
X106608500Y-84866246D01*
X106608500Y-84591393D01*
X106628502Y-84523272D01*
X106645327Y-84502375D01*
X106694132Y-84453485D01*
X106699305Y-84448303D01*
X106702102Y-84443765D01*
X106759353Y-84403176D01*
X106830276Y-84399946D01*
X106891687Y-84435572D01*
G37*
%TD.AperFunction*%
%TA.AperFunction,Conductor*%
G36*
X109944229Y-79734705D02*
G01*
X109982289Y-79748973D01*
X109982291Y-79748973D01*
X109989684Y-79751745D01*
X109997532Y-79752598D01*
X109997534Y-79752598D01*
X110039144Y-79757118D01*
X110051866Y-79758500D01*
X110306050Y-79758500D01*
X110374171Y-79778502D01*
X110420664Y-79832158D01*
X110430768Y-79902432D01*
X110401274Y-79967012D01*
X110395145Y-79973595D01*
X109492395Y-80876345D01*
X109483615Y-80884335D01*
X109483613Y-80884337D01*
X109476920Y-80888584D01*
X109471494Y-80894362D01*
X109471493Y-80894363D01*
X109428396Y-80940257D01*
X109425641Y-80943099D01*
X109405073Y-80963667D01*
X109402356Y-80967170D01*
X109394648Y-80976195D01*
X109363028Y-81009867D01*
X109359207Y-81016818D01*
X109359206Y-81016819D01*
X109352697Y-81028658D01*
X109341843Y-81045182D01*
X109334018Y-81055271D01*
X109328696Y-81062132D01*
X109325549Y-81069404D01*
X109325548Y-81069406D01*
X109310346Y-81104535D01*
X109305124Y-81115195D01*
X109290516Y-81141767D01*
X109282876Y-81155663D01*
X109277541Y-81176441D01*
X109271142Y-81195131D01*
X109262620Y-81214824D01*
X109258593Y-81240249D01*
X109255394Y-81260448D01*
X109252987Y-81272071D01*
X109241500Y-81316812D01*
X109241500Y-81338259D01*
X109239949Y-81357969D01*
X109236594Y-81379152D01*
X109237340Y-81387043D01*
X109240941Y-81425138D01*
X109241500Y-81436996D01*
X109241500Y-85517944D01*
X109240941Y-85529800D01*
X109239212Y-85537537D01*
X109240317Y-85572699D01*
X109241438Y-85608369D01*
X109241500Y-85612327D01*
X109241500Y-85641432D01*
X109242056Y-85645832D01*
X109242988Y-85657664D01*
X109244438Y-85703831D01*
X109246650Y-85711444D01*
X109246650Y-85711445D01*
X109250419Y-85724416D01*
X109254430Y-85743782D01*
X109257118Y-85765064D01*
X109260034Y-85772429D01*
X109260035Y-85772433D01*
X109274126Y-85808021D01*
X109277965Y-85819231D01*
X109290855Y-85863600D01*
X109301775Y-85882065D01*
X109310466Y-85899805D01*
X109318365Y-85919756D01*
X109345516Y-85957126D01*
X109352033Y-85967048D01*
X109371507Y-85999977D01*
X109371510Y-85999981D01*
X109375547Y-86006807D01*
X109390711Y-86021971D01*
X109403551Y-86037004D01*
X109416159Y-86054357D01*
X109422265Y-86059408D01*
X109451753Y-86083803D01*
X109460532Y-86091792D01*
X109612699Y-86243958D01*
X109754595Y-86385854D01*
X109788620Y-86448167D01*
X109791500Y-86474950D01*
X109791500Y-86912944D01*
X109790941Y-86924800D01*
X109789212Y-86932537D01*
X109789461Y-86940459D01*
X109791438Y-87003369D01*
X109791500Y-87007327D01*
X109791500Y-87036432D01*
X109792056Y-87040832D01*
X109792988Y-87052664D01*
X109794438Y-87098831D01*
X109796650Y-87106444D01*
X109796650Y-87106445D01*
X109800419Y-87119416D01*
X109804430Y-87138782D01*
X109807118Y-87160064D01*
X109810034Y-87167429D01*
X109810035Y-87167433D01*
X109824126Y-87203021D01*
X109827965Y-87214231D01*
X109840855Y-87258600D01*
X109851775Y-87277065D01*
X109860466Y-87294805D01*
X109868365Y-87314756D01*
X109893556Y-87349428D01*
X109895516Y-87352126D01*
X109902033Y-87362048D01*
X109921507Y-87394977D01*
X109921510Y-87394981D01*
X109925547Y-87401807D01*
X109940711Y-87416971D01*
X109953551Y-87432004D01*
X109966159Y-87449357D01*
X109996989Y-87474862D01*
X110001752Y-87478802D01*
X110010532Y-87486792D01*
X110081345Y-87557605D01*
X110089335Y-87566385D01*
X110093584Y-87573080D01*
X110099362Y-87578506D01*
X110099363Y-87578507D01*
X110145257Y-87621604D01*
X110148099Y-87624359D01*
X110168667Y-87644927D01*
X110172170Y-87647644D01*
X110181195Y-87655352D01*
X110214867Y-87686972D01*
X110221818Y-87690793D01*
X110221819Y-87690794D01*
X110233658Y-87697303D01*
X110250182Y-87708157D01*
X110257668Y-87713963D01*
X110267132Y-87721304D01*
X110274403Y-87724450D01*
X110281233Y-87728490D01*
X110279970Y-87730625D01*
X110325119Y-87768197D01*
X110346500Y-87838417D01*
X110346500Y-87848134D01*
X110346870Y-87851538D01*
X110346870Y-87851542D01*
X110346909Y-87851904D01*
X110346894Y-87851988D01*
X110347053Y-87854926D01*
X110346360Y-87854964D01*
X110334375Y-87921785D01*
X110286049Y-87973796D01*
X110221645Y-87991500D01*
X109717070Y-87991500D01*
X109698120Y-87990067D01*
X109683885Y-87987901D01*
X109683881Y-87987901D01*
X109676651Y-87986801D01*
X109669359Y-87987394D01*
X109669355Y-87987394D01*
X109654038Y-87988640D01*
X109584520Y-87974226D01*
X109554729Y-87952150D01*
X109051168Y-87448589D01*
X109038782Y-87434177D01*
X109030249Y-87422582D01*
X109030244Y-87422577D01*
X109025906Y-87416682D01*
X109020328Y-87411943D01*
X109020325Y-87411940D01*
X108985630Y-87382465D01*
X108978114Y-87375535D01*
X108972419Y-87369840D01*
X108959467Y-87359593D01*
X108950147Y-87352219D01*
X108946743Y-87349428D01*
X108896695Y-87306909D01*
X108896693Y-87306908D01*
X108891113Y-87302167D01*
X108884597Y-87298839D01*
X108879548Y-87295472D01*
X108874419Y-87292305D01*
X108868682Y-87287766D01*
X108802523Y-87256845D01*
X108798623Y-87254939D01*
X108795809Y-87253502D01*
X108733590Y-87221731D01*
X108726482Y-87219992D01*
X108720839Y-87217893D01*
X108715076Y-87215976D01*
X108708448Y-87212878D01*
X108636981Y-87198013D01*
X108632714Y-87197047D01*
X108586375Y-87185708D01*
X108564396Y-87180330D01*
X108502982Y-87144710D01*
X108485892Y-87122081D01*
X108472142Y-87098831D01*
X108424453Y-87018193D01*
X108306807Y-86900547D01*
X108302998Y-86898294D01*
X108262345Y-86842004D01*
X108258494Y-86771112D01*
X108293582Y-86709391D01*
X108301276Y-86702724D01*
X108306807Y-86699453D01*
X108424453Y-86581807D01*
X108428489Y-86574983D01*
X108428491Y-86574980D01*
X108505108Y-86445427D01*
X108509145Y-86438601D01*
X108513748Y-86422759D01*
X108543047Y-86321908D01*
X108555562Y-86278831D01*
X108558500Y-86241502D01*
X108558500Y-85083498D01*
X108557518Y-85071018D01*
X108556067Y-85052579D01*
X108556066Y-85052574D01*
X108555562Y-85046169D01*
X108509145Y-84886399D01*
X108426952Y-84747418D01*
X108409492Y-84678603D01*
X108432009Y-84611272D01*
X108462668Y-84582228D01*
X108462075Y-84581480D01*
X108479208Y-84567901D01*
X108593739Y-84453171D01*
X108602751Y-84441760D01*
X108687816Y-84303757D01*
X108693963Y-84290576D01*
X108745138Y-84136290D01*
X108748005Y-84122914D01*
X108757672Y-84028562D01*
X108758000Y-84022146D01*
X108758000Y-83772115D01*
X108753525Y-83756876D01*
X108752135Y-83755671D01*
X108744452Y-83754000D01*
X107622000Y-83754000D01*
X107553879Y-83733998D01*
X107507386Y-83680342D01*
X107496000Y-83628000D01*
X107496000Y-82872048D01*
X107512881Y-82809048D01*
X107531223Y-82777279D01*
X107531224Y-82777278D01*
X107534527Y-82771556D01*
X107593542Y-82589928D01*
X107596906Y-82557927D01*
X107612814Y-82406565D01*
X107613504Y-82400000D01*
X107606904Y-82337205D01*
X107594232Y-82216635D01*
X107594232Y-82216633D01*
X107593542Y-82210072D01*
X107593156Y-82208885D01*
X107929000Y-82208885D01*
X107933475Y-82224124D01*
X107959170Y-82246389D01*
X107957938Y-82247811D01*
X107967100Y-82252815D01*
X108001122Y-82315129D01*
X108004000Y-82341906D01*
X108004000Y-83227885D01*
X108008475Y-83243124D01*
X108009865Y-83244329D01*
X108017548Y-83246000D01*
X108739884Y-83246000D01*
X108755123Y-83241525D01*
X108756328Y-83240135D01*
X108757999Y-83232452D01*
X108757999Y-82977905D01*
X108757662Y-82971386D01*
X108747743Y-82875794D01*
X108744851Y-82862400D01*
X108693412Y-82708216D01*
X108687239Y-82695038D01*
X108601937Y-82557193D01*
X108592901Y-82545792D01*
X108478171Y-82431261D01*
X108466760Y-82422249D01*
X108415427Y-82390607D01*
X108367934Y-82337835D01*
X108356510Y-82267763D01*
X108384784Y-82202639D01*
X108392370Y-82194329D01*
X108473986Y-82112571D01*
X108482998Y-82101160D01*
X108565004Y-81968120D01*
X108571151Y-81954939D01*
X108620491Y-81806186D01*
X108623358Y-81792810D01*
X108632672Y-81701903D01*
X108633000Y-81695487D01*
X108633000Y-81672115D01*
X108628525Y-81656876D01*
X108627135Y-81655671D01*
X108619452Y-81654000D01*
X107947115Y-81654000D01*
X107931876Y-81658475D01*
X107930671Y-81659865D01*
X107929000Y-81667548D01*
X107929000Y-82208885D01*
X107593156Y-82208885D01*
X107534527Y-82028444D01*
X107439040Y-81863056D01*
X107441236Y-81861788D01*
X107421206Y-81805663D01*
X107421000Y-81798461D01*
X107421000Y-81272000D01*
X107441002Y-81203879D01*
X107494658Y-81157386D01*
X107547000Y-81146000D01*
X108614885Y-81146000D01*
X108630124Y-81141525D01*
X108631329Y-81140135D01*
X108633000Y-81132452D01*
X108633000Y-81104562D01*
X108632663Y-81098047D01*
X108623106Y-81005943D01*
X108620211Y-80992541D01*
X108580789Y-80874375D01*
X108578205Y-80803426D01*
X108614389Y-80742342D01*
X108677853Y-80710518D01*
X108700313Y-80708500D01*
X108795487Y-80708500D01*
X108801939Y-80707128D01*
X108801944Y-80707128D01*
X108896081Y-80687118D01*
X108982288Y-80668794D01*
X109056017Y-80635968D01*
X109150722Y-80593803D01*
X109150724Y-80593802D01*
X109156752Y-80591118D01*
X109311253Y-80478866D01*
X109342636Y-80444012D01*
X109434621Y-80341852D01*
X109434622Y-80341851D01*
X109439040Y-80336944D01*
X109520967Y-80195042D01*
X109531223Y-80177279D01*
X109531224Y-80177278D01*
X109534527Y-80171556D01*
X109593542Y-79989928D01*
X109598308Y-79944588D01*
X109606007Y-79871330D01*
X109633020Y-79805673D01*
X109691242Y-79765043D01*
X109731317Y-79758500D01*
X109748134Y-79758500D01*
X109760856Y-79757118D01*
X109802466Y-79752598D01*
X109802468Y-79752598D01*
X109810316Y-79751745D01*
X109817709Y-79748973D01*
X109817711Y-79748973D01*
X109855771Y-79734705D01*
X109926578Y-79729522D01*
X109944229Y-79734705D01*
G37*
%TD.AperFunction*%
%TA.AperFunction,Conductor*%
G36*
X105944229Y-79734705D02*
G01*
X105982289Y-79748973D01*
X105982291Y-79748973D01*
X105989684Y-79751745D01*
X105997532Y-79752598D01*
X105997534Y-79752598D01*
X106039144Y-79757118D01*
X106051866Y-79758500D01*
X106548134Y-79758500D01*
X106560856Y-79757118D01*
X106602466Y-79752598D01*
X106602468Y-79752598D01*
X106610316Y-79751745D01*
X106610356Y-79752109D01*
X106676473Y-79755560D01*
X106734117Y-79797006D01*
X106760030Y-79861271D01*
X106775480Y-80008266D01*
X106776729Y-80020154D01*
X106835744Y-80201782D01*
X106839047Y-80207504D01*
X106839048Y-80207505D01*
X106931231Y-80367170D01*
X106929181Y-80368354D01*
X106949414Y-80425035D01*
X106933342Y-80494189D01*
X106882435Y-80543676D01*
X106812854Y-80557784D01*
X106757504Y-80539505D01*
X106668331Y-80484538D01*
X106668329Y-80484537D01*
X106662101Y-80480698D01*
X106499757Y-80426851D01*
X106492920Y-80426151D01*
X106492918Y-80426150D01*
X106451599Y-80421917D01*
X106398732Y-80416500D01*
X105851268Y-80416500D01*
X105848022Y-80416837D01*
X105848018Y-80416837D01*
X105813917Y-80420375D01*
X105748981Y-80427113D01*
X105742440Y-80429295D01*
X105742441Y-80429295D01*
X105593676Y-80478927D01*
X105593674Y-80478928D01*
X105586732Y-80481244D01*
X105441287Y-80571248D01*
X105320448Y-80692298D01*
X105316608Y-80698528D01*
X105316607Y-80698529D01*
X105251948Y-80803426D01*
X105230698Y-80837899D01*
X105176851Y-81000243D01*
X105176151Y-81007080D01*
X105176150Y-81007082D01*
X105173049Y-81037349D01*
X105166500Y-81101268D01*
X105166500Y-81315306D01*
X105152716Y-81372608D01*
X105134231Y-81408808D01*
X105132491Y-81415919D01*
X105130392Y-81421563D01*
X105128477Y-81427321D01*
X105125378Y-81433950D01*
X105123888Y-81441112D01*
X105123888Y-81441113D01*
X105110514Y-81505412D01*
X105109544Y-81509696D01*
X105092192Y-81580610D01*
X105091500Y-81591764D01*
X105091464Y-81591762D01*
X105091225Y-81595755D01*
X105090851Y-81599947D01*
X105089360Y-81607115D01*
X105089558Y-81614432D01*
X105091454Y-81684521D01*
X105091500Y-81687928D01*
X105091500Y-82362059D01*
X105091001Y-82373260D01*
X105090850Y-82374950D01*
X105089360Y-82382115D01*
X105089558Y-82389431D01*
X105090023Y-82406635D01*
X105071870Y-82475272D01*
X105053242Y-82499058D01*
X105000695Y-82551697D01*
X104977129Y-82589928D01*
X104926538Y-82672002D01*
X104907885Y-82702262D01*
X104905581Y-82709209D01*
X104861478Y-82842177D01*
X104852203Y-82870139D01*
X104851503Y-82876975D01*
X104851502Y-82876978D01*
X104847937Y-82911778D01*
X104841500Y-82974600D01*
X104841500Y-84025400D01*
X104844405Y-84053393D01*
X104844614Y-84055411D01*
X104831749Y-84125232D01*
X104783179Y-84177014D01*
X104714323Y-84194317D01*
X104647043Y-84171647D01*
X104630192Y-84157510D01*
X104183767Y-83711085D01*
X104171380Y-83696673D01*
X104162846Y-83685077D01*
X104158508Y-83679182D01*
X104152930Y-83674443D01*
X104152927Y-83674440D01*
X104118232Y-83644965D01*
X104110716Y-83638035D01*
X104105021Y-83632340D01*
X104091317Y-83621498D01*
X104082749Y-83614719D01*
X104079345Y-83611928D01*
X104029297Y-83569409D01*
X104029295Y-83569408D01*
X104023715Y-83564667D01*
X104017199Y-83561339D01*
X104012150Y-83557972D01*
X104007021Y-83554805D01*
X104001284Y-83550266D01*
X103935125Y-83519345D01*
X103931225Y-83517439D01*
X103866192Y-83484231D01*
X103859084Y-83482492D01*
X103853441Y-83480393D01*
X103847678Y-83478476D01*
X103841050Y-83475378D01*
X103769583Y-83460513D01*
X103765299Y-83459543D01*
X103694390Y-83442192D01*
X103688788Y-83441844D01*
X103688785Y-83441844D01*
X103683236Y-83441500D01*
X103683238Y-83441464D01*
X103679245Y-83441225D01*
X103675053Y-83440851D01*
X103667885Y-83439360D01*
X103601675Y-83441151D01*
X103590479Y-83441454D01*
X103587072Y-83441500D01*
X101249500Y-83441500D01*
X101181379Y-83421498D01*
X101134886Y-83367842D01*
X101123500Y-83315500D01*
X101123500Y-83097998D01*
X101143502Y-83029877D01*
X101197158Y-82983384D01*
X101267432Y-82973280D01*
X101284654Y-82977001D01*
X101363605Y-82999939D01*
X101377706Y-82999899D01*
X101381000Y-82992630D01*
X101381000Y-81397000D01*
X101401002Y-81328879D01*
X101454658Y-81282386D01*
X101507000Y-81271000D01*
X101763000Y-81271000D01*
X101831121Y-81291002D01*
X101877614Y-81344658D01*
X101889000Y-81397000D01*
X101889000Y-82986878D01*
X101892973Y-83000409D01*
X101900871Y-83001544D01*
X102040790Y-82960893D01*
X102055221Y-82954648D01*
X102184676Y-82878090D01*
X102192364Y-82872126D01*
X102258449Y-82846179D01*
X102328072Y-82860080D01*
X102344158Y-82870418D01*
X102348193Y-82874453D01*
X102355021Y-82878491D01*
X102355024Y-82878493D01*
X102393501Y-82901248D01*
X102491399Y-82959145D01*
X102499010Y-82961356D01*
X102499012Y-82961357D01*
X102533533Y-82971386D01*
X102651169Y-83005562D01*
X102657574Y-83006066D01*
X102657579Y-83006067D01*
X102686042Y-83008307D01*
X102686050Y-83008307D01*
X102688498Y-83008500D01*
X103121502Y-83008500D01*
X103123950Y-83008307D01*
X103123958Y-83008307D01*
X103152421Y-83006067D01*
X103152426Y-83006066D01*
X103158831Y-83005562D01*
X103276467Y-82971386D01*
X103310988Y-82961357D01*
X103310990Y-82961356D01*
X103318601Y-82959145D01*
X103373733Y-82926540D01*
X103454980Y-82878491D01*
X103454983Y-82878489D01*
X103461807Y-82874453D01*
X103579453Y-82756807D01*
X103583489Y-82749983D01*
X103583491Y-82749980D01*
X103654947Y-82629154D01*
X103664145Y-82613601D01*
X103710562Y-82453831D01*
X103712339Y-82431261D01*
X103713307Y-82418958D01*
X103713307Y-82418950D01*
X103713500Y-82416502D01*
X103713500Y-80633498D01*
X103713307Y-80631042D01*
X103711067Y-80602579D01*
X103711066Y-80602574D01*
X103710562Y-80596169D01*
X103664145Y-80436399D01*
X103634350Y-80386018D01*
X103583491Y-80300020D01*
X103583489Y-80300017D01*
X103579453Y-80293193D01*
X103573845Y-80287585D01*
X103568989Y-80281325D01*
X103570569Y-80280100D01*
X103541606Y-80227060D01*
X103538789Y-80204237D01*
X103538562Y-80197017D01*
X103538500Y-80193057D01*
X103538500Y-80165144D01*
X103537995Y-80161144D01*
X103537062Y-80149301D01*
X103536547Y-80132899D01*
X103535673Y-80105110D01*
X103530022Y-80085658D01*
X103526014Y-80066306D01*
X103524467Y-80054063D01*
X103523474Y-80046203D01*
X103515814Y-80026855D01*
X103507200Y-80005097D01*
X103503355Y-79993870D01*
X103500303Y-79983365D01*
X103491018Y-79951407D01*
X103486141Y-79943160D01*
X103485820Y-79941896D01*
X103483835Y-79937309D01*
X103484575Y-79936989D01*
X103468681Y-79874345D01*
X103491197Y-79807013D01*
X103546541Y-79762543D01*
X103608201Y-79753757D01*
X103648467Y-79758131D01*
X103648471Y-79758131D01*
X103651866Y-79758500D01*
X104148134Y-79758500D01*
X104160856Y-79757118D01*
X104202466Y-79752598D01*
X104202468Y-79752598D01*
X104210316Y-79751745D01*
X104217709Y-79748973D01*
X104217711Y-79748973D01*
X104255771Y-79734705D01*
X104326578Y-79729522D01*
X104344229Y-79734705D01*
X104382289Y-79748973D01*
X104382291Y-79748973D01*
X104389684Y-79751745D01*
X104397532Y-79752598D01*
X104397534Y-79752598D01*
X104439144Y-79757118D01*
X104451866Y-79758500D01*
X104948134Y-79758500D01*
X104960856Y-79757118D01*
X105002466Y-79752598D01*
X105002468Y-79752598D01*
X105010316Y-79751745D01*
X105017709Y-79748973D01*
X105017711Y-79748973D01*
X105055771Y-79734705D01*
X105126578Y-79729522D01*
X105144229Y-79734705D01*
X105182289Y-79748973D01*
X105182291Y-79748973D01*
X105189684Y-79751745D01*
X105197532Y-79752598D01*
X105197534Y-79752598D01*
X105239144Y-79757118D01*
X105251866Y-79758500D01*
X105748134Y-79758500D01*
X105760856Y-79757118D01*
X105802466Y-79752598D01*
X105802468Y-79752598D01*
X105810316Y-79751745D01*
X105817709Y-79748973D01*
X105817711Y-79748973D01*
X105855771Y-79734705D01*
X105926578Y-79729522D01*
X105944229Y-79734705D01*
G37*
%TD.AperFunction*%
%TA.AperFunction,Conductor*%
G36*
X98541755Y-78016002D02*
G01*
X98588248Y-78069658D01*
X98594530Y-78086501D01*
X98596475Y-78093124D01*
X98597865Y-78094329D01*
X98605548Y-78096000D01*
X100078000Y-78096000D01*
X100146121Y-78116002D01*
X100192614Y-78169658D01*
X100204000Y-78222000D01*
X100204000Y-78478000D01*
X100183998Y-78546121D01*
X100130342Y-78592614D01*
X100078000Y-78604000D01*
X98651366Y-78604000D01*
X98583245Y-78583998D01*
X98536752Y-78530342D01*
X98530470Y-78513499D01*
X98528525Y-78506876D01*
X98527135Y-78505671D01*
X98519452Y-78504000D01*
X97572115Y-78504000D01*
X97556876Y-78508475D01*
X97555671Y-78509865D01*
X97554000Y-78517548D01*
X97554000Y-79239884D01*
X97558475Y-79255123D01*
X97559865Y-79256328D01*
X97567548Y-79257999D01*
X97822095Y-79257999D01*
X97828614Y-79257662D01*
X97924206Y-79247743D01*
X97937600Y-79244851D01*
X98091784Y-79193412D01*
X98104962Y-79187239D01*
X98242807Y-79101937D01*
X98254208Y-79092901D01*
X98373910Y-78972991D01*
X98375325Y-78974404D01*
X98425033Y-78939160D01*
X98495956Y-78935927D01*
X98557369Y-78971550D01*
X98589772Y-79034721D01*
X98592001Y-79058314D01*
X98592001Y-79244669D01*
X98592371Y-79251490D01*
X98597895Y-79302352D01*
X98601521Y-79317604D01*
X98646676Y-79438054D01*
X98655214Y-79453648D01*
X98716176Y-79534990D01*
X98741024Y-79601496D01*
X98725971Y-79670879D01*
X98704445Y-79699650D01*
X98702747Y-79701348D01*
X98694461Y-79708888D01*
X98687982Y-79713000D01*
X98682557Y-79718777D01*
X98641357Y-79762651D01*
X98638602Y-79765493D01*
X98618865Y-79785230D01*
X98616385Y-79788427D01*
X98608682Y-79797447D01*
X98578414Y-79829679D01*
X98574595Y-79836625D01*
X98574593Y-79836628D01*
X98568652Y-79847434D01*
X98557801Y-79863953D01*
X98545386Y-79879959D01*
X98542241Y-79887228D01*
X98542238Y-79887232D01*
X98527826Y-79920537D01*
X98522609Y-79931187D01*
X98501305Y-79969940D01*
X98499334Y-79977615D01*
X98499334Y-79977616D01*
X98496267Y-79989562D01*
X98489863Y-80008266D01*
X98481819Y-80026855D01*
X98480580Y-80034678D01*
X98480577Y-80034688D01*
X98474901Y-80070524D01*
X98472495Y-80082144D01*
X98461500Y-80124970D01*
X98461500Y-80145224D01*
X98459949Y-80164934D01*
X98456780Y-80184943D01*
X98457526Y-80192835D01*
X98457277Y-80200758D01*
X98455677Y-80200708D01*
X98443918Y-80261413D01*
X98429960Y-80280509D01*
X98431011Y-80281325D01*
X98426155Y-80287585D01*
X98420547Y-80293193D01*
X98416511Y-80300017D01*
X98416509Y-80300020D01*
X98365650Y-80386018D01*
X98335855Y-80436399D01*
X98289438Y-80596169D01*
X98288934Y-80602574D01*
X98288933Y-80602579D01*
X98286693Y-80631042D01*
X98286500Y-80633498D01*
X98286500Y-82416502D01*
X98286693Y-82418950D01*
X98286693Y-82418958D01*
X98287662Y-82431261D01*
X98289438Y-82453831D01*
X98335855Y-82613601D01*
X98345053Y-82629154D01*
X98416509Y-82749980D01*
X98416511Y-82749983D01*
X98420547Y-82756807D01*
X98538193Y-82874453D01*
X98545017Y-82878489D01*
X98545020Y-82878491D01*
X98626267Y-82926540D01*
X98681399Y-82959145D01*
X98689010Y-82961356D01*
X98689012Y-82961357D01*
X98723533Y-82971386D01*
X98841169Y-83005562D01*
X98847574Y-83006066D01*
X98847579Y-83006067D01*
X98876042Y-83008307D01*
X98876050Y-83008307D01*
X98878498Y-83008500D01*
X99311502Y-83008500D01*
X99313950Y-83008307D01*
X99313958Y-83008307D01*
X99342421Y-83006067D01*
X99342426Y-83006066D01*
X99348831Y-83005562D01*
X99355007Y-83003768D01*
X99355011Y-83003767D01*
X99445348Y-82977522D01*
X99516344Y-82977725D01*
X99575960Y-83016279D01*
X99605268Y-83080944D01*
X99606500Y-83098519D01*
X99606500Y-83465500D01*
X99586498Y-83533621D01*
X99532842Y-83580114D01*
X99480500Y-83591500D01*
X99427122Y-83591500D01*
X99408172Y-83590067D01*
X99393944Y-83587902D01*
X99393938Y-83587902D01*
X99386709Y-83586802D01*
X99379416Y-83587395D01*
X99379414Y-83587395D01*
X99334046Y-83591085D01*
X99323832Y-83591500D01*
X99315758Y-83591500D01*
X99312125Y-83591924D01*
X99312118Y-83591924D01*
X99287522Y-83594792D01*
X99283143Y-83595225D01*
X99251699Y-83597782D01*
X99210422Y-83601139D01*
X99203464Y-83603393D01*
X99197522Y-83604580D01*
X99191640Y-83605970D01*
X99184370Y-83606818D01*
X99115741Y-83631730D01*
X99111602Y-83633151D01*
X99104754Y-83635369D01*
X99065929Y-83641500D01*
X97292275Y-83641500D01*
X97224154Y-83621498D01*
X97191449Y-83591065D01*
X97190701Y-83590067D01*
X97113261Y-83486739D01*
X96996705Y-83399385D01*
X96860316Y-83348255D01*
X96798134Y-83341500D01*
X95984500Y-83341500D01*
X95916379Y-83321498D01*
X95869886Y-83267842D01*
X95858500Y-83215500D01*
X95858500Y-78774039D01*
X95878502Y-78705918D01*
X95932158Y-78659425D01*
X96002432Y-78649321D01*
X96067012Y-78678815D01*
X96104024Y-78734163D01*
X96131588Y-78816784D01*
X96137761Y-78829962D01*
X96223063Y-78967807D01*
X96232099Y-78979208D01*
X96346829Y-79093739D01*
X96358240Y-79102751D01*
X96496243Y-79187816D01*
X96509424Y-79193963D01*
X96663710Y-79245138D01*
X96677086Y-79248005D01*
X96771438Y-79257672D01*
X96777854Y-79258000D01*
X97027885Y-79258000D01*
X97043124Y-79253525D01*
X97044329Y-79252135D01*
X97046000Y-79244452D01*
X97046000Y-78122000D01*
X97066002Y-78053879D01*
X97119658Y-78007386D01*
X97172000Y-77996000D01*
X98473634Y-77996000D01*
X98541755Y-78016002D01*
G37*
%TD.AperFunction*%
%TA.AperFunction,Conductor*%
G36*
X111522121Y-82672002D02*
G01*
X111568614Y-82725658D01*
X111580000Y-82778000D01*
X111580000Y-83065500D01*
X111559998Y-83133621D01*
X111506342Y-83180114D01*
X111454000Y-83191500D01*
X111406000Y-83191500D01*
X111337879Y-83171498D01*
X111291386Y-83117842D01*
X111280000Y-83065500D01*
X111280000Y-82778000D01*
X111300002Y-82709879D01*
X111353658Y-82663386D01*
X111406000Y-82652000D01*
X111454000Y-82652000D01*
X111522121Y-82672002D01*
G37*
%TD.AperFunction*%
%TD*%
M02*
